<?xml version="1.0" encoding="UTF-8" standalone="no"?>
<!DOCTYPE svg  PUBLIC '-//W3C//DTD SVG 1.1//EN'  'http://www.w3.org/Graphics/SVG/1.1/DTD/svg11.dtd'>
<svg xmlns="http://www.w3.org/2000/svg">
<defs>
<font id="NokiaPureHeadline-Light" horiz-adv-x="333">
<font-face underline-position="-50" font-weight="300" descent="-200" panose-1="2 11 3 4 4 6 2 6 3 3" units-per-em="1000" unicode-range="U+0008-2215" bbox="-318 -252 936 942" x-height="496" underline-thickness="50" font-family="NokiaPureHeadline" ascent="800" cap-height="703"/>
<missing-glyph horiz-adv-x="1000"/>
<glyph glyph-name=".notdef" horiz-adv-x="1000"/>
<glyph glyph-name=".null" horiz-adv-x="0"/>
<glyph glyph-name=".null" horiz-adv-x="0"/>
<glyph glyph-name=".null" horiz-adv-x="0"/>
<glyph glyph-name="nonmarkingreturn" horiz-adv-x="1000" unicode="	"/>
<glyph glyph-name="nonmarkingreturn" horiz-adv-x="1000" unicode=""/>
<glyph glyph-name="space" horiz-adv-x="253" unicode=" "/>
<glyph glyph-name="exclam" horiz-adv-x="244" unicode="!" d="M73 44q0 24 14 38.5t35 14.5t35 -14t14 -39q0 -24 -14 -38.5t-35 -14.5t-35 14.5t-14 38.5zM151 198h-60v505h60v-505z"/>
<glyph glyph-name="quotedbl" horiz-adv-x="352" unicode='&quot;' d="M220 703h66l-7 -250h-51zM66 703h66l-8 -250h-51z"/>
<glyph glyph-name="numbersign" horiz-adv-x="545" unicode="#" d="M166 249h171l42 218h-170zM56 516h110l38 187h53l-38 -187h170l38 187h53l-38 -187h97l-9 -49h-98l-43 -218h109l-9 -49h-109l-39 -200h-53l40 200h-172l-39 -200h-53l39 200h-97l9 49h98l43 218h-109z"/>
<glyph glyph-name="dollar" horiz-adv-x="556" unicode="$" d="M129 519q0 -25 7.5 -44t23.5 -34t41 -27t60 -24v261q-132 -15 -132 -132zM439 179q0 57 -33.5 85.5t-97.5 49.5v-271q28 3 52 12.5t41.5 26t27.5 41t10 56.5zM308 704q28 0 56.5 -5.5t53.5 -13t44 -16.5t29 -16l-24 -49q-25 16 -68.5 30.5t-90.5 16.5v-276l34 -12 q73 -26 115.5 -67.5t42.5 -112.5q0 -78 -48 -130.5t-144 -63.5v-98h-47v96q-43 1 -78 8.5t-62.5 17t-47 20t-31.5 18.5l26 49q12 -8 31 -17.5t43 -18.5t54 -15.5t65 -7.5v288q-41 15 -76 30t-60.5 35.5t-40.5 49t-15 71.5q0 85 50.5 133t141.5 56v86h47v-86z"/>
<glyph glyph-name="percent" horiz-adv-x="849" unicode="%" d="M85 514q0 -43 6 -72t18 -47t29.5 -26t41.5 -8q46 0 69.5 34t23.5 119q0 44 -6 73.5t-18 47t-29.5 25t-39.5 7.5t-39.5 -7t-30 -24.5t-19 -47t-6.5 -74.5zM30 514q0 99 38.5 151t111.5 52q75 0 111 -52t36 -151q0 -103 -38.5 -153t-108.5 -50q-77 0 -113.5 50.5 t-36.5 152.5zM577 190q0 -43 6 -72t18 -47t29.5 -26t41.5 -8q46 0 69.5 34t23.5 119q0 44 -6 73.5t-18 47t-29.5 25t-39.5 7.5t-39.5 -7t-30 -24.5t-19 -47t-6.5 -74.5zM522 190q0 99 38.5 151t111.5 52q75 0 111 -52t36 -151q0 -103 -38.5 -153t-108.5 -50 q-77 0 -113.5 50.5t-36.5 152.5zM590 703h58l-382 -703h-59z"/>
<glyph glyph-name="ampersand" horiz-adv-x="653" unicode="&amp;" d="M186 561q0 -43 23 -77t52 -67q69 32 104.5 66.5t35.5 86.5q0 48 -29 73.5t-76 25.5q-51 0 -80.5 -30.5t-29.5 -77.5zM240 353q-27 -12 -51 -27t-42 -35.5t-28 -46.5t-10 -59q0 -69 43 -106.5t124 -37.5q54 0 101 20t75 44zM207 393q-14 16 -28 34t-25 38.5t-18 43 t-7 48.5q0 34 11.5 63.5t33.5 51.5t53 34.5t69 12.5q70 0 115.5 -39t45.5 -110q0 -33 -12 -61t-33.5 -51t-51 -43t-65.5 -37l202 -237q11 10 23.5 26t25.5 35t24 38.5t19 36.5l48 -24q-20 -43 -46.5 -82.5t-57.5 -70.5l85 -100h-76l-54 65q-38 -32 -93.5 -55t-121.5 -23 q-56 0 -98 14.5t-70.5 40.5t-42.5 62t-14 78q0 78 42 127.5t117 83.5z"/>
<glyph glyph-name="quotesingle" horiz-adv-x="198" unicode="&apos;" d="M66 703h66l-8 -250h-51z"/>
<glyph glyph-name="parenleft" horiz-adv-x="246" unicode="(" d="M60 327q0 78 10.5 145t25.5 121t31.5 94t28.5 63h55q-15 -31 -31.5 -74t-29.5 -97t-21.5 -117.5t-8.5 -134.5t8.5 -134.5t21.5 -117.5t29.5 -97.5t31.5 -73.5h-55q-12 23 -28.5 63t-31.5 94t-25.5 121t-10.5 145z"/>
<glyph glyph-name="parenright" horiz-adv-x="246" unicode=")" d="M186 327q0 -78 -10.5 -145t-25.5 -121t-31.5 -94t-28.5 -63h-55q15 30 31.5 73.5t29.5 97.5t21.5 117.5t8.5 134.5t-8.5 134.5t-21.5 117.5t-29.5 97t-31.5 74h55q12 -23 28.5 -63t31.5 -94t25.5 -121t10.5 -145z"/>
<glyph glyph-name="asterisk" horiz-adv-x="387" unicode="*" d="M224 750l-5 -149l129 60l19 -53l-134 -48l100 -117l-45 -33l-92 124l-91 -124l-45 35l97 114l-133 44l21 53l129 -55l-7 149h57z"/>
<glyph glyph-name="plus" horiz-adv-x="556" unicode="+" d="M57 380h193v207h56v-207h193v-54h-193v-207h-56v207h-193v54z"/>
<glyph glyph-name="comma" horiz-adv-x="218" unicode="," d="M57 42q0 26 14.5 40.5t34.5 14.5q24 0 36.5 -16t12.5 -42q0 -45 -24 -99.5t-75 -102.5l-29 25q29 32 46 66t21 65q-13 3 -25 14.5t-12 34.5z"/>
<glyph glyph-name="hyphen" horiz-adv-x="386" unicode="-" d="M49 309h287v-57h-287v57z"/>
<glyph glyph-name="period" horiz-adv-x="215" unicode="." d="M59 43q0 24 14 39t35 15t35 -14.5t14 -39.5q0 -24 -14.5 -38t-35.5 -14t-34.5 14t-13.5 38z"/>
<glyph glyph-name="slash" horiz-adv-x="379" unicode="/" d="M5 -47l312 797h57l-312 -797h-57z"/>
<glyph glyph-name="zero" horiz-adv-x="556" unicode="0" d="M101 351q0 -84 11.5 -143t34 -95.5t55.5 -53.5t76 -17q86 0 131.5 72t45.5 237q0 86 -12 145t-34.5 96t-55.5 53t-75 16t-75 -16t-55.5 -53t-34.5 -96t-12 -145zM38 351q0 182 59.5 274t181.5 92q124 0 181.5 -92t57.5 -274q0 -184 -60.5 -274t-178.5 -90 q-122 0 -181.5 89.5t-59.5 274.5z"/>
<glyph glyph-name="one" horiz-adv-x="438" unicode="1" d="M236 632l-192 -116l-24 46l225 141h52v-703h-61v632z"/>
<glyph glyph-name="two" horiz-adv-x="487" unicode="2" d="M215 343q33 27 60 49.5t45.5 45t28.5 46t10 52.5q0 56 -33 91t-105 35q-30 0 -54.5 -7t-43.5 -17.5t-33.5 -23.5t-24.5 -26l-39 34q12 15 30 31.5t43 31t57 23.5t72 9q51 0 87.5 -15t60 -40t34 -57t10.5 -66q0 -41 -13.5 -73.5t-36 -60t-50.5 -51t-57 -45.5 q-39 -31 -70.5 -59.5t-54 -58.5t-34.5 -63t-12 -73h340v-55h-401v17q0 58 11.5 103t34.5 82.5t57.5 71t80.5 69.5z"/>
<glyph glyph-name="three" horiz-adv-x="468" unicode="3" d="M135 387h55q41 0 72 11.5t52 31t31.5 45t10.5 54.5q0 28 -7.5 52.5t-24.5 42.5t-44 28.5t-66 10.5q-57 0 -92 -18t-54 -37l-32 37q10 11 26 24t38.5 23.5t51.5 17.5t65 7q52 0 90 -14.5t62 -39t35.5 -56.5t11.5 -68q0 -70 -34 -113.5t-95 -61.5q69 -15 105.5 -60.5 t36.5 -111.5q0 -50 -18 -88.5t-50 -64.5t-75.5 -39.5t-95.5 -13.5q-57 0 -99 9t-62 18l14 50q17 -7 53.5 -14.5t88.5 -7.5q85 0 134.5 37t49.5 113q0 61 -44 101.5t-132 40.5h-58v54z"/>
<glyph glyph-name="four" horiz-adv-x="519" unicode="4" d="M375 434v-207h109v-52h-109v-175h-57v175h-293v42l262 486h62l-256 -476h225v207h57z"/>
<glyph glyph-name="five" horiz-adv-x="469" unicode="5" d="M168 44q88 0 137 44.5t49 131.5q0 33 -7.5 62t-25 50.5t-46 34.5t-69.5 13q-45 0 -75 -9.5t-48 -19.5l-35 26l39 326h306v-55h-260l-29 -236q17 9 47 14.5t64 5.5q44 0 80.5 -13t63 -39t41.5 -65.5t15 -93.5q0 -48 -16 -90.5t-46.5 -74t-76 -49.5t-104.5 -18 q-56 0 -97.5 9t-61.5 18l14 50q17 -7 53.5 -14.5t87.5 -7.5z"/>
<glyph glyph-name="six" horiz-adv-x="525" unicode="6" d="M276 40q72 0 113 48t41 137q0 90 -39.5 134.5t-108.5 44.5q-32 0 -61 -12t-51.5 -33t-35.5 -50.5t-13 -65.5q0 -46 10.5 -83.5t30.5 -64t49 -41t65 -14.5zM322 664q-50 0 -87 -22t-62.5 -61t-39 -93t-15.5 -118q25 37 69.5 62.5t101.5 25.5q43 0 80 -14t64.5 -42.5 t43 -71t15.5 -99.5q0 -56 -15 -101t-43 -76.5t-68 -49t-90 -17.5q-109 0 -165.5 80t-56.5 238q0 205 70.5 308.5t199.5 103.5q43 0 77 -9t62 -24l-23 -47q-20 12 -49.5 19.5t-68.5 7.5z"/>
<glyph glyph-name="seven" horiz-adv-x="468" unicode="7" d="M109 0l267 647h-361v56h425v-46l-267 -657h-64z"/>
<glyph glyph-name="eight" horiz-adv-x="555" unicode="8" d="M293 391q23 9 47 23.5t43.5 34t31.5 45t12 55.5q0 53 -37 84.5t-109 31.5q-75 0 -112.5 -35t-37.5 -88q0 -32 15 -56t38 -42t52 -31t57 -22zM440 173q0 35 -15 61.5t-39 46t-55 33.5t-62 24q-26 -11 -53 -26t-50 -35.5t-37.5 -48t-14.5 -61.5q0 -63 44 -95t120 -32 q74 0 118 32.5t44 100.5zM489 550q0 -31 -10.5 -58.5t-29.5 -50.5t-44 -42t-53 -33q30 -13 57 -31.5t48 -43t33.5 -55t12.5 -68.5q0 -39 -15 -72.5t-43.5 -57.5t-71 -37.5t-96.5 -13.5q-58 0 -100.5 13.5t-70 37t-41 54.5t-13.5 66q0 37 12 68t33 56.5t50.5 45.5t64.5 36 q-27 12 -53 29t-45.5 39.5t-31.5 50t-12 62.5t14.5 66t42 54.5t66.5 37.5t88 14q51 0 90 -12.5t65.5 -35t39.5 -53t13 -66.5z"/>
<glyph glyph-name="nine" horiz-adv-x="524" unicode="9" d="M248 664q-72 0 -112.5 -47.5t-40.5 -136.5q0 -90 39.5 -134.5t107.5 -44.5q32 0 61.5 12t52 33t35.5 50.5t13 65.5q0 101 -41 151.5t-115 50.5zM197 40q52 0 90.5 20.5t64 59t39.5 93t17 123.5q-25 -36 -70 -62.5t-102 -26.5q-43 0 -80 14t-64.5 42.5t-43 71t-15.5 99.5 q0 55 15 100t43 77t67.5 49t89.5 17q109 0 165.5 -76.5t56.5 -232.5q0 -214 -68 -317.5t-201 -103.5q-45 0 -82.5 7.5t-60.5 18.5l17 49q20 -8 52.5 -15t69.5 -7z"/>
<glyph glyph-name="colon" horiz-adv-x="215" unicode=":" d="M41 41q0 24 14 39t35 15t35 -14.5t14 -39.5q0 -24 -14.5 -38t-35.5 -14t-34.5 14t-13.5 38zM42 443q0 24 14 39t35 15t35 -14.5t14 -39.5q0 -24 -14.5 -38t-35.5 -14t-34.5 14t-13.5 38z"/>
<glyph glyph-name="semicolon" horiz-adv-x="218" unicode=";" d="M41 443q0 24 14 39t35 15t35 -14.5t14 -39.5q0 -24 -14.5 -38t-35.5 -14t-34.5 14t-13.5 38zM40 42q0 26 14.5 40.5t34.5 14.5q24 0 36.5 -16t12.5 -42q0 -45 -24 -99.5t-75 -102.5l-29 25q29 32 46 66t21 65q-13 3 -25 14.5t-12 34.5z"/>
<glyph glyph-name="less" horiz-adv-x="556" unicode="&lt;" d="M467 198l-21 -49l-357 183v51l356 184l22 -49l-319 -159z"/>
<glyph glyph-name="equal" horiz-adv-x="556" unicode="=" d="M74 275h408v-54h-408v54zM74 481h408v-53h-408v53z"/>
<glyph glyph-name="greater" horiz-adv-x="556" unicode="&gt;" d="M89 518l21 49l357 -184v-51l-356 -183l-22 49l319 159z"/>
<glyph glyph-name="question" horiz-adv-x="510" unicode="?" d="M188 44q0 24 14 38.5t35 14.5t35 -14t14 -39q0 -24 -14 -38.5t-35 -14.5t-35 14.5t-14 38.5zM205 185q0 38 6 66t19 51t33.5 45t49.5 48q11 10 24.5 23.5t25 31t19 38t7.5 44.5q0 60 -35 96t-108 36q-58 0 -103 -26t-74 -62l-37 38q13 16 33 34.5t47 34.5t62 26t79 10 q50 0 87 -14.5t61.5 -39.5t36.5 -58t12 -70q0 -33 -8.5 -59.5t-22 -48t-30.5 -39t-34 -32.5q-21 -18 -38 -34.5t-29 -36t-19 -44t-7 -58.5h-57z"/>
<glyph glyph-name="at" horiz-adv-x="973" unicode="@" d="M467 66q33 0 64.5 16t56.5 40l22 119q1 9 4 22t5 26.5t4 25.5t2 17q0 45 -29 78t-84 33q-32 0 -61.5 -15t-52 -45t-35.5 -75.5t-13 -105.5q0 -69 32.5 -102.5t84.5 -33.5zM508 -166q63 0 115 11t94.5 28t76 38t59.5 42l32 -43q-28 -24 -67.5 -47t-87.5 -41t-104 -29.5 t-117 -11.5q-102 0 -185.5 29t-143 85t-92 138t-32.5 188q0 110 36 204.5t99.5 163.5t151.5 108t193 39q96 0 170.5 -26t125.5 -74t77.5 -117t26.5 -155q0 -83 -22.5 -148t-58 -110t-80 -68.5t-89.5 -23.5q-24 0 -39.5 4.5t-26 11.5t-17.5 16t-12 18q-7 -6 -19.5 -14.5 t-29 -16.5t-37 -13.5t-42.5 -5.5q-37 0 -68.5 12t-54.5 35.5t-36 58.5t-13 81q0 67 18 121t49 92t71.5 58.5t85.5 20.5q34 0 58.5 -9t40.5 -21t24.5 -24.5t11.5 -18.5l16 60h46l-69 -355q-3 -15 -3 -25q0 -38 50 -38q37 0 71 21.5t60.5 61.5t42 95t15.5 123 q0 84 -26.5 144.5t-72.5 99.5t-109 57.5t-136 18.5q-90 0 -166.5 -33.5t-133 -94.5t-88 -146t-31.5 -187q0 -89 25 -160.5t74.5 -122t123 -78t169.5 -27.5z"/>
<glyph glyph-name="A" horiz-adv-x="551" unicode="A" d="M148 251h252l-125 379zM418 196h-287l-64 -196h-64l235 703h74l236 -703h-67z"/>
<glyph glyph-name="B" horiz-adv-x="563" unicode="B" d="M292 56q86 0 123 37t37 103q0 69 -47.5 104t-135.5 35h-134v-279h157zM260 390q84 0 120.5 38t36.5 98q0 34 -13 57.5t-34 37.5t-48.5 20t-57.5 6h-129v-257h125zM271 703q55 0 94.5 -14.5t64.5 -38.5t37 -56t12 -68q0 -34 -10 -60.5t-25.5 -46t-34 -32t-34.5 -18.5 q25 -6 50 -19.5t45 -34.5t33 -51t13 -69q0 -87 -56 -141t-176 -54h-210v703h197z"/>
<glyph glyph-name="C" horiz-adv-x="590" unicode="C" d="M353 657q-113 0 -175 -78.5t-62 -230.5q0 -158 62 -230t175 -72q33 0 60.5 6t50 15t40.5 20t31 21l30 -46q-34 -29 -89.5 -51t-126.5 -22q-153 0 -226 93t-73 266q0 82 18.5 149.5t56 115.5t94 74.5t132.5 26.5q41 0 75 -8t60 -19.5t44.5 -24t29.5 -22.5l-33 -47 q-13 10 -29.5 21.5t-38 21t-48 15.5t-58.5 6z"/>
<glyph glyph-name="D" horiz-adv-x="646" unicode="D" d="M283 58q114 0 180.5 75t66.5 219q0 151 -66.5 222t-180.5 71h-146v-587h146zM283 703q152 0 232 -92t80 -260q0 -85 -21.5 -150.5t-62 -110t-98.5 -67.5t-130 -23h-209v703h209z"/>
<glyph glyph-name="E" horiz-adv-x="497" unicode="E" d="M74 703h388v-58h-325v-250h254v-58h-254v-279h335v-58h-398v703z"/>
<glyph glyph-name="F" horiz-adv-x="497" unicode="F" d="M76 703h391v-58h-328v-250h267v-58h-267v-337h-63v703z"/>
<glyph glyph-name="G" horiz-adv-x="616" unicode="G" d="M350 660q-53 0 -96.5 -19t-74 -58t-47.5 -97.5t-17 -137.5q0 -160 62.5 -232.5t185.5 -72.5q46 0 84 8t61 17v235h-149v54h208v-325q-9 -5 -27.5 -13t-45.5 -15.5t-62 -13t-77 -5.5q-154 0 -230 92t-76 271q0 80 18.5 148t56 117.5t93.5 77.5t131 28q68 0 119.5 -17.5 t92.5 -50.5l-32 -50q-12 9 -28 19.5t-37 19.5t-49 14.5t-64 5.5z"/>
<glyph glyph-name="H" horiz-adv-x="631" unicode="H" d="M494 703h63v-703h-63v346h-357v-346h-63v703h63v-298h357v298z"/>
<glyph glyph-name="I" horiz-adv-x="211" unicode="I" d="M137 0h-63v703h63v-703z"/>
<glyph glyph-name="J" horiz-adv-x="437" unicode="J" d="M306 703h63v-520q0 -107 -49.5 -153t-137.5 -46q-37 0 -67 6t-52.5 14.5t-36 16t-17.5 10.5l24 50q4 -2 16.5 -8.5t31.5 -13.5t42.5 -12.5t49.5 -5.5q34 0 59.5 7.5t41.5 25t24 46.5t8 72v511z"/>
<glyph glyph-name="K" horiz-adv-x="528" unicode="K" d="M137 0h-63v703h63v-324l293 324h77l-295 -327l316 -376h-83l-308 366v-366z"/>
<glyph glyph-name="L" horiz-adv-x="484" unicode="L" d="M139 58h325v-58h-388v703h63v-645z"/>
<glyph glyph-name="M" horiz-adv-x="741" unicode="M" d="M669 703v-703h-64v600l-210 -387h-55l-204 375v-588h-64v703h72l226 -418l225 418h74z"/>
<glyph glyph-name="N" horiz-adv-x="632" unicode="N" d="M135 594v-594h-61v703h70l353 -591v591h61v-703h-65z"/>
<glyph glyph-name="O" horiz-adv-x="698" unicode="O" d="M117 352q0 -70 14 -126.5t43 -97t72.5 -62.5t102.5 -22t102.5 22t72.5 62.5t43 97t14 126.5t-14 126.5t-43 96.5t-72.5 62t-102.5 22t-102.5 -22t-72.5 -62t-43 -96.5t-14 -126.5zM51 352q0 82 19.5 149.5t57.5 115.5t94 74.5t128 26.5t127.5 -26.5t93 -74.5t57 -115.5 t19.5 -149.5t-19.5 -149.5t-57 -116t-93.5 -75t-128 -26.5t-128 26.5t-93.5 75t-57 116t-19.5 149.5z"/>
<glyph glyph-name="P" horiz-adv-x="530" unicode="P" d="M493 488q0 -42 -13 -80.5t-41.5 -68t-72.5 -47t-105 -17.5h-126v-275h-61v703h196q58 0 100 -17t69.5 -46t40.5 -68t13 -84zM429 488q0 83 -43 121t-119 38h-132v-315h123q83 0 127 39t44 117z"/>
<glyph glyph-name="Q" horiz-adv-x="698" unicode="Q" d="M581 352q0 70 -14 126.5t-43 96.5t-72.5 62t-102.5 22t-102.5 -22t-72.5 -62t-43 -96.5t-14 -126.5t14 -126.5t43 -97t72.5 -62.5t102.5 -22t102.5 22t72.5 62.5t43 97t14 126.5zM647 352q0 -127 -46.5 -218t-134.5 -127q13 -18 32.5 -34t43.5 -29t51 -21.5t55 -12.5 l-12 -51q-33 4 -67 16.5t-65 29.5t-57 39t-44 46q-12 -2 -24.5 -3t-26.5 -1q-78 0 -135 28.5t-93.5 78t-54.5 116t-18 143.5q0 82 19.5 149.5t57 115.5t93.5 74.5t128 26.5t128 -26.5t93.5 -74.5t57 -115.5t19.5 -149.5z"/>
<glyph glyph-name="R" horiz-adv-x="541" unicode="R" d="M419 495q0 70 -39.5 111t-128.5 41h-116v-303h120q85 0 124.5 41t39.5 110zM523 0h-73l-172 289h-143v-289h-61v703h185q63 0 105.5 -18t68.5 -47.5t37.5 -66t11.5 -73.5q0 -41 -10.5 -73t-29.5 -56t-44 -41.5t-53 -27.5z"/>
<glyph glyph-name="S" horiz-adv-x="522" unicode="S" d="M229 337q-84 26 -129 71.5t-45 114.5q0 41 13.5 77t41.5 63t70 42.5t99 15.5q27 0 55 -4t54 -11t48 -16.5t37 -19.5l-24 -53q-23 15 -69 30t-105 15q-76 0 -116 -35t-40 -96q0 -24 6.5 -43t21.5 -35t40 -29t62 -26l72 -25q86 -30 124.5 -75t38.5 -116q0 -41 -14.5 -77 t-43 -62.5t-72 -42t-100.5 -15.5q-43 0 -80 7t-66.5 17t-50 20.5t-29.5 17.5l26 53q14 -9 33.5 -18.5t44.5 -18t56 -14t67 -5.5q74 0 119 33t45 100q0 50 -29 84t-98 56z"/>
<glyph glyph-name="T" horiz-adv-x="528" unicode="T" d="M233 644h-216v59h494v-59h-215v-644h-63v644z"/>
<glyph glyph-name="U" horiz-adv-x="618" unicode="U" d="M307 -16q-72 0 -118.5 21.5t-74.5 60.5t-39 92.5t-11 117.5v427h63v-413q0 -71 11 -119t33.5 -76.5t57 -40.5t80.5 -12t80 12t56.5 40.5t34 76t11.5 118.5v414h63v-428q0 -64 -11.5 -117.5t-40 -92t-76 -60t-119.5 -21.5z"/>
<glyph glyph-name="V" horiz-adv-x="542" unicode="V" d="M274 88l199 615h66l-235 -703h-62l-239 703h69z"/>
<glyph glyph-name="W" horiz-adv-x="762" unicode="W" d="M236 0h-73l-153 703h66l128 -602l142 585h70l138 -584l133 601h65l-161 -703h-74l-137 577z"/>
<glyph glyph-name="X" horiz-adv-x="563" unicode="X" d="M16 0l232 375l-197 328h75l162 -277l171 277h68l-204 -329l224 -374h-76l-190 319l-194 -319h-71z"/>
<glyph glyph-name="Y" horiz-adv-x="516" unicode="Y" d="M224 307l-221 396h72l183 -336l187 336h68l-226 -394v-309h-63v307z"/>
<glyph glyph-name="Z" horiz-adv-x="543" unicode="Z" d="M32 52l395 593h-385v58h461v-52l-396 -593h408v-58h-483v52z"/>
<glyph glyph-name="bracketleft" horiz-adv-x="305" unicode="[" d="M75 750h205v-53h-146v-746h146v-53h-205v852z"/>
<glyph glyph-name="backslash" horiz-adv-x="379" unicode="\" d="M317 -47l-312 797h57l312 -797h-57z"/>
<glyph glyph-name="bracketright" horiz-adv-x="305" unicode="]" d="M230 -102h-205v53h146v746h-146v53h205v-852z"/>
<glyph glyph-name="asciicircum" horiz-adv-x="556" unicode="^" d="M492 316h-60l-153 314l-156 -314h-59l190 374h51z"/>
<glyph glyph-name="underscore" horiz-adv-x="410" unicode="_" d="M-18 -131h446v-55h-446v55z"/>
<glyph glyph-name="grave" d="M291 632l-23 -45l-226 106l28 56z" unicode="`"/>
<glyph glyph-name="a" horiz-adv-x="482" unicode="a" d="M186 -12q-26 0 -53.5 8t-50 26t-37 47t-14.5 71q0 74 46.5 119.5t140.5 45.5q22 0 45 -1.5t42.5 -4t34.5 -5t23 -3.5v44q0 65 -37 93t-106 28q-49 0 -83.5 -12.5t-54.5 -23.5l-20 46q19 11 62 26.5t111 15.5q88 0 136.5 -41.5t48.5 -126.5v-340h-54l-2 71 q-15 -24 -35.5 -40t-44.5 -25.5t-49.5 -13.5t-48.5 -4zM363 240q-8 2 -22.5 4.5t-33.5 4.5t-41 3.5t-43 1.5q-74 0 -103.5 -31t-29.5 -83q0 -53 33 -77t86 -24q30 0 58 12t49.5 32t34 45.5t12.5 52.5v59z"/>
<glyph glyph-name="b" horiz-adv-x="543" unicode="b" d="M119 58q0 -18 -0.5 -29t-0.5 -29h-55v750h59v-334q23 42 65.5 67.5t107.5 25.5q51 0 89 -19.5t63.5 -53.5t38.5 -81.5t13 -102.5q0 -73 -19 -122.5t-49 -80t-68 -43.5t-76 -13q-47 0 -91 16t-77 49zM288 455q-80 0 -123 -56.5t-43 -150.5v-120q7 -11 21.5 -25t35 -26.5 t46.5 -21t56 -8.5q72 0 114.5 49.5t42.5 155.5q0 44 -9 81.5t-27 64.5t-46.5 42t-67.5 15z"/>
<glyph glyph-name="c" horiz-adv-x="434" unicode="c" d="M105 249q0 -54 12.5 -92.5t34 -64t52 -37.5t66.5 -12q46 0 75 10t47 19l22 -44q-14 -11 -49.5 -25t-98.5 -14q-106 0 -164 67t-58 192q0 58 15.5 106t44.5 82.5t70 53.5t93 19q31 0 55.5 -5t43 -12.5t30.5 -16t20 -14.5l-28 -45q-14 10 -43.5 24.5t-74.5 14.5 q-72 0 -118.5 -51t-46.5 -155z"/>
<glyph glyph-name="d" horiz-adv-x="543" unicode="d" d="M426 60q-29 -29 -71 -48t-102 -19q-39 0 -76.5 12.5t-67 42t-47 78.5t-17.5 122q0 49 12.5 96t38 84t65.5 59t96 22q59 0 100 -23t66 -67v331h59v-750h-55zM257 455q-39 0 -67.5 -16t-47 -43.5t-27.5 -65.5t-9 -82q0 -104 42.5 -152.5t112.5 -48.5q31 0 57 7.5t46.5 19.5 t35 26.5t23.5 28.5v111q0 102 -43 158.5t-123 56.5z"/>
<glyph glyph-name="e" horiz-adv-x="509" unicode="e" d="M408 281q-5 83 -38 129t-109 46q-75 0 -112 -46t-45 -129h304zM289 43q45 0 77 10t51 18l18 -47q-15 -10 -55 -22.5t-97 -12.5q-121 0 -180 67.5t-59 191.5q0 59 15 107.5t43 82.5t68.5 52.5t91.5 18.5q48 0 86 -14.5t64.5 -47t40.5 -83t14 -122.5v-12h-364 q5 -87 49.5 -137t136.5 -50z"/>
<glyph glyph-name="f" horiz-adv-x="330" unicode="f" d="M16 444v52h98v54q0 46 8.5 84.5t29 65.5t53 42t80.5 15q26 0 47.5 -3.5t32.5 -6.5l-8 -51q-8 2 -25.5 5t-32.5 3q-37 0 -61 -9t-38.5 -29t-20 -51.5t-5.5 -77.5v-41h153v-52h-153v-444h-60v444h-98z"/>
<glyph glyph-name="g" horiz-adv-x="514" unicode="g" d="M393 334q0 35 -12.5 59.5t-32 39.5t-44 21.5t-49.5 6.5t-50 -7t-45 -22t-32.5 -39.5t-12.5 -58.5q0 -35 12.5 -60t32 -40.5t44.5 -22.5t50 -7t49.5 7t44.5 22.5t32.5 40t12.5 60.5zM231 -2q-21 1 -47.5 1.5t-50.5 6.5q-20 -17 -35 -42.5t-15 -56.5q0 -24 12 -41.5 t32.5 -28t47.5 -15.5t57 -5q92 0 146 28.5t54 76.5q0 14 -4 27t-15.5 23t-31.5 16.5t-52 7.5zM396 453q28 -20 42 -52t14 -69q0 -46 -18 -79t-46.5 -54.5t-63 -32t-67.5 -10.5q-29 0 -59 5.5t-57 20.5q-14 -13 -25.5 -30.5t-11.5 -42.5q0 -29 23.5 -43t88.5 -15l110 -2 q33 -1 63 -7t53.5 -19.5t37 -36t13.5 -56.5q0 -33 -16 -62.5t-49 -51.5t-82.5 -35t-115.5 -13q-41 0 -78 6.5t-65 22.5t-45 41t-17 63t17 68.5t46 53.5q-17 11 -27 30t-10 47q0 31 16 59.5t38 46.5q-23 20 -36 52t-13 75q0 46 18.5 79t47 54.5t63.5 32t68 10.5q20 0 36 -2 t29.5 -4.5t26 -4.5t26.5 -2h135v-47h-28q-15 0 -40 1t-42 3z"/>
<glyph glyph-name="h" horiz-adv-x="526" unicode="h" d="M122 410q23 48 67 73.5t110 25.5q81 0 124.5 -47t43.5 -138v-324h-59v316q0 39 -9.5 66t-26 43t-39 23t-49.5 7q-41 0 -71.5 -18.5t-50.5 -48t-30 -66.5t-10 -75v-247h-59v750h59v-340z"/>
<glyph glyph-name="i" horiz-adv-x="193" unicode="i" d="M51 662q0 22 12.5 35.5t32.5 13.5t33 -13.5t13 -35.5q0 -23 -13 -36t-33 -13t-32.5 13.5t-12.5 35.5zM67 496h59v-496h-59v496z"/>
<glyph glyph-name="j" horiz-adv-x="207" unicode="j" d="M65 662q0 22 12.5 35.5t32.5 13.5t33 -13.5t13 -35.5q0 -23 -13 -36t-33 -13t-32.5 13.5t-12.5 35.5zM140 -14q0 -105 -39 -157.5t-127 -52.5q-14 0 -32.5 2.5t-29.5 6.5l7 50q10 -2 23.5 -4t26.5 -2q36 0 58 10.5t34 32.5t16 55.5t4 79.5v489h59v-510z"/>
<glyph glyph-name="k" horiz-adv-x="435" unicode="k" d="M122 276l209 220h75l-215 -222l244 -274h-77l-236 268v-268h-59v750h59v-474z"/>
<glyph glyph-name="l" horiz-adv-x="185" unicode="l" d="M122 0h-59v750h59v-750z"/>
<glyph glyph-name="m" horiz-adv-x="825" unicode="m" d="M596 455q-38 0 -66.5 -17.5t-47.5 -46t-28.5 -63.5t-9.5 -71v-257h-59v317q0 78 -29 108t-82 30q-38 0 -66.5 -18.5t-47.5 -48.5t-28.5 -67t-9.5 -74v-247h-59v496h55l2 -89q23 47 65.5 74.5t102.5 27.5q52 0 91 -27t53 -82q24 51 69 80t106 29q78 0 118.5 -47.5 t40.5 -137.5v-324h-59v317q0 78 -28.5 108t-82.5 30z"/>
<glyph glyph-name="n" horiz-adv-x="526" unicode="n" d="M118 496l2 -89q23 48 67.5 75t107.5 27q86 0 129 -47t43 -138v-324h-59v316q0 39 -9.5 66t-26 43t-39 23t-49.5 7q-41 0 -71.5 -18.5t-50.5 -48t-30 -66.5t-10 -75v-247h-59v496h55z"/>
<glyph glyph-name="o" horiz-adv-x="545" unicode="o" d="M272 509q57 0 99.5 -19.5t71 -54t43 -82t14.5 -104.5t-15 -105t-43.5 -82.5t-71.5 -53.5t-98 -19q-56 0 -99 19t-71.5 53.5t-43 82.5t-14.5 105t15 104.5t43.5 82t71 54t98.5 19.5zM272 43q86 0 127 55.5t41 150.5q0 93 -41.5 149.5t-126.5 56.5q-84 0 -125.5 -56.5 t-41.5 -149.5q0 -96 41 -151t126 -55z"/>
<glyph glyph-name="p" horiz-adv-x="543" unicode="p" d="M296 509q51 0 89 -19.5t63.5 -53.5t38 -80.5t12.5 -100.5q0 -73 -19.5 -123t-50.5 -81t-69.5 -44.5t-77.5 -13.5q-49 0 -89.5 14t-70.5 33v-260h-59v716h55l2 -87q21 47 66 73.5t110 26.5zM288 455q-48 0 -80 -19t-51 -49.5t-27 -69.5t-8 -78v-131q7 -9 22 -20 t35.5 -20.5t45.5 -15.5t53 -6q71 0 115.5 51t44.5 158q0 43 -9 79.5t-27.5 63.5t-46.5 42t-67 15z"/>
<glyph glyph-name="q" horiz-adv-x="543" unicode="q" d="M251 509q69 0 112 -28t61 -67l2 82h55v-716h-59v275q-9 -10 -24 -21t-36.5 -20t-49 -15t-60.5 -6q-40 0 -77.5 13t-66.5 42.5t-46.5 78.5t-17.5 121q0 55 13.5 102.5t39.5 82.5t65 55.5t89 20.5zM256 455q-72 0 -111.5 -55t-39.5 -152q0 -53 12 -91t33 -63t49.5 -36.5 t61.5 -11.5q31 0 57.5 7.5t47 19t34.5 25t22 24.5v108q0 51 -10 92.5t-30.5 71t-51.5 45.5t-74 16z"/>
<glyph glyph-name="r" horiz-adv-x="338" unicode="r" d="M296 501q11 0 24 -1t17 -3l-5 -54q-8 2 -19 2.5t-21 0.5q-41 0 -72 -16.5t-52 -46.5t-32 -72t-11 -93v-218h-59v496h55l2 -105q20 48 64.5 79t108.5 31z"/>
<glyph glyph-name="s" horiz-adv-x="428" unicode="s" d="M51 82q22 -13 63.5 -27t98.5 -14q36 0 60.5 7t39.5 19t21.5 28t6.5 33q0 36 -21.5 58.5t-83.5 33.5l-54 10q-32 6 -58 15.5t-45.5 25.5t-30 38.5t-10.5 55.5q0 69 51 106.5t133 37.5q50 0 90.5 -11t63.5 -23l-21 -49q-23 12 -55.5 21t-74.5 9q-66 0 -98 -23t-32 -61 q0 -19 5 -33t18 -24t34 -17.5t53 -13.5l55 -10q60 -12 99.5 -44t39.5 -93q0 -68 -48.5 -108t-136.5 -40q-62 0 -112 15t-73 30z"/>
<glyph glyph-name="t" horiz-adv-x="357" unicode="t" d="M287 47q14 0 26 1t21 3l6 -48q-10 -3 -30 -6t-44 -3q-80 0 -113.5 38t-33.5 106v306h-103v52h103v146l59 16v-162h151v-52h-151v-289q0 -34 7 -55t21 -33t34.5 -16t46.5 -4z"/>
<glyph glyph-name="u" horiz-adv-x="529" unicode="u" d="M407 496h59v-496h-55l-2 92q-24 -48 -67.5 -76t-112.5 -28q-82 0 -124 46.5t-42 137.5v324h59v-316q0 -39 9 -65.5t25.5 -42.5t39 -23t49.5 -7q39 0 69 18t51 47t31.5 65.5t10.5 74.5v249z"/>
<glyph glyph-name="v" horiz-adv-x="448" unicode="v" d="M192 0l-188 496h65l157 -434l155 434h62l-187 -496h-64z"/>
<glyph glyph-name="w" horiz-adv-x="652" unicode="w" d="M3 496h63l122 -428l107 413h67l107 -413l121 428h59l-149 -496h-67l-106 404l-107 -404h-67z"/>
<glyph glyph-name="x" horiz-adv-x="442" unicode="x" d="M351 496h65l-162 -234l180 -262h-69l-149 218l-143 -218h-66l177 259l-161 237h68l130 -194z"/>
<glyph glyph-name="y" horiz-adv-x="458" unicode="y" d="M4 496h68l157 -400l160 400h65l-299 -716h-62l103 244z"/>
<glyph glyph-name="z" horiz-adv-x="446" unicode="z" d="M38 41l294 404h-290v51h367v-42l-297 -404h300v-50h-374v41z"/>
<glyph glyph-name="braceleft" horiz-adv-x="301" unicode="{" d="M40 353q20 4 34 14.5t22.5 24.5t12 31t3.5 35v125q0 38 9 69t28.5 52.5t51 33.5t76.5 12v-51q-62 0 -84.5 -30.5t-22.5 -97.5v-116q0 -45 -19.5 -79.5t-50.5 -50.5q31 -14 50.5 -45.5t19.5 -83.5v-119q0 -31 5 -55t17 -40.5t32.5 -25t52.5 -8.5v-50q-48 0 -80 13t-51 36 t-26.5 55t-7.5 71v117q0 35 -16 65.5t-56 38.5v59z"/>
<glyph glyph-name="bar" horiz-adv-x="214" unicode="|" d="M79 -220v970h56v-970h-56z"/>
<glyph glyph-name="braceright" horiz-adv-x="300" unicode="}" d="M260 294q-40 -8 -55.5 -38.5t-15.5 -65.5v-117q0 -39 -7.5 -71t-26.5 -55t-51 -36t-80 -13v50q63 0 85 33.5t22 95.5v119q0 52 19 83t51 45q-32 16 -51 51t-19 80v116q0 67 -22.5 97.5t-84.5 30.5v51q45 0 76.5 -12t51 -33.5t28.5 -52.5t9 -69v-125q0 -18 3.5 -35t12 -31 t22 -24.5t33.5 -14.5v-59z"/>
<glyph glyph-name="asciitilde" horiz-adv-x="556" unicode="~" d="M386 417q35 0 58.5 14.5t48.5 37.5l32 -36q-27 -29 -61 -49t-80 -20q-35 0 -63 13t-51 27q-18 11 -37 20.5t-44 9.5q-32 0 -64.5 -19t-62.5 -48l-32 39q13 13 30.5 27.5t38 26.5t44 19.5t48.5 7.5q35 0 63 -13t51 -27q18 -11 38 -20.5t43 -9.5z"/>
<glyph glyph-name="uni00A0" horiz-adv-x="253" unicode=" "/>
<glyph glyph-name="exclamdown" horiz-adv-x="244" unicode="¡" d="M73 455q0 24 14 38.5t35 14.5t35 -14.5t14 -38.5q0 -25 -14 -39t-35 -14t-35 14.5t-14 38.5zM151 -204h-60v505h60v-505z"/>
<glyph glyph-name="cent" horiz-adv-x="556" unicode="¢" d="M145 344q0 -52 11.5 -89t32 -61t47.5 -37t57 -18v411q-30 -5 -57 -18.5t-47.5 -38.5t-32 -61.5t-11.5 -87.5zM340 604q27 -1 50.5 -6t42 -12t32 -14t20.5 -13l-25 -45q-6 4 -18.5 10.5t-28 12.5t-34.5 10.5t-39 4.5v-416q43 1 74 12t48 19l21 -42q-14 -9 -51.5 -23.5 t-91.5 -17.5v-97h-47v98q-46 4 -84 23t-65.5 51.5t-42.5 78.5t-15 106q0 57 15.5 102.5t43 78.5t65.5 52.5t83 24.5v101h47v-99z"/>
<glyph glyph-name="sterling" horiz-adv-x="556" unicode="£" d="M68 409h78q-3 26 -6 55t-3 46q0 43 12.5 80.5t39 65t66.5 43.5t95 16q32 0 59 -7t48.5 -16.5t36.5 -20.5t23 -19l-33 -43q-6 6 -18.5 14.5t-29.5 17t-38.5 14.5t-46.5 6q-41 0 -70 -12t-47 -33t-26.5 -48.5t-8.5 -58.5q0 -20 2.5 -48.5t5.5 -51.5h178v-52h-169 q5 -26 7.5 -59.5t2.5 -53.5q0 -35 -8.5 -64.5t-20.5 -53.5t-25 -42t-22 -29h348v-55h-416v47q10 12 24 31t27 44.5t22 57t9 69.5q0 26 -2.5 55t-6.5 53h-87v52z"/>
<glyph glyph-name="currency" horiz-adv-x="556" unicode="¤" d="M411 343q0 61 -36 99t-97 38q-60 0 -96.5 -38t-36.5 -99q0 -63 36.5 -100t96.5 -37q61 0 97 37t36 100zM426 460q38 -47 38 -117q0 -66 -36 -113l82 -83l-32 -33l-83 83q-49 -40 -118 -40q-71 0 -117 39l-82 -82l-32 33l82 81q-35 47 -35 114q0 68 38 117l-85 86l33 34 l85 -88q49 37 114 37q67 0 114 -35l85 86l34 -33z"/>
<glyph glyph-name="yen" horiz-adv-x="556" unicode="¥" d="M484 295h-177v-102h177v-51h-177v-142h-60v142h-170v51h170v102h-170v51h149l-200 357h72l181 -339l187 339h68l-207 -357h157v-51z"/>
<glyph glyph-name="brokenbar" horiz-adv-x="214" unicode="¦" d="M79 -220v328h56v-328h-56zM79 423v327h56v-327h-56z"/>
<glyph glyph-name="section" horiz-adv-x="523" unicode="§" d="M222 433q-26 11 -41 20q-22 -17 -40 -47t-18 -65q0 -42 26 -68.5t76 -46.5l74 -30q25 -10 45 -22q9 7 19 18t18.5 25t14.5 31.5t6 37.5q0 42 -27.5 69.5t-74.5 46.5zM455 292q0 -42 -19 -78t-51 -64q23 -20 36 -48t13 -70q0 -36 -13 -67t-37 -53.5t-59 -35t-78 -12.5 q-32 0 -58 5t-46 12t-34 14.5t-21 11.5l22 46q18 -10 53 -24t84 -14q27 0 51 7t41.5 21.5t28 36.5t10.5 53q0 39 -23 65t-66 43l-92 37q-26 10 -49 24t-40 32.5t-27.5 43t-10.5 55.5q0 40 18 77.5t53 67.5q-26 23 -37.5 50.5t-11.5 65.5q0 40 14.5 71.5t40 53t60 33 t73.5 11.5q31 0 56.5 -5t45 -11.5t33.5 -14t23 -13.5l-22 -45q-14 9 -48 23.5t-83 14.5q-29 0 -53.5 -6.5t-43.5 -20.5t-29.5 -35t-10.5 -51q0 -78 93 -115l87 -35q62 -25 94.5 -61.5t32.5 -95.5z"/>
<glyph glyph-name="dieresis" d="M220 640q0 23 13 36.5t33 13.5t33.5 -13.5t13.5 -36.5t-13.5 -36.5t-33.5 -13.5t-33 13.5t-13 36.5zM20 640q0 23 13.5 36.5t33.5 13.5t33 -13.5t13 -36.5t-13 -36.5t-33 -13.5t-33.5 13.5t-13.5 36.5z" unicode="¨"/>
<glyph glyph-name="copyright" horiz-adv-x="787" unicode="©" d="M707 352q0 69 -23.5 127.5t-65.5 101.5t-99 67t-124 24q-68 0 -125.5 -24t-99.5 -67t-66 -101.5t-24 -127.5t23.5 -127.5t65.5 -101t99.5 -66.5t125.5 -24q67 0 124.5 24t99.5 66.5t65.5 101t23.5 127.5zM288 351q0 -75 31.5 -111t86.5 -36q41 0 65 9t32 13l15 -34 q-3 -3 -11.5 -8t-23 -10t-34.5 -9t-45 -4q-81 0 -123.5 50.5t-42.5 139.5q0 42 12 77t33.5 60.5t53 40t70.5 14.5q24 0 44 -4.5t34.5 -10.5t23.5 -11.5t12 -8.5l-20 -36q-8 5 -33.5 16t-60.5 11q-55 0 -87 -37.5t-32 -110.5zM758 353q0 -80 -27 -147.5t-75.5 -116 t-115.5 -75.5t-146 -27q-80 0 -146.5 27t-115 75.5t-75.5 116t-27 147.5q0 79 27 146t75 116t115 76.5t148 27.5q79 0 146 -27.5t115 -76.5t75 -116t27 -146z"/>
<glyph glyph-name="ordfeminine" horiz-adv-x="324" unicode="ª" d="M282 312h-241v40h241v-40zM243 410l-3 35q-16 -19 -44 -31t-56 -12q-45 0 -74 23t-29 73q0 47 33.5 71.5t93.5 24.5q9 0 20 -0.5t21.5 -1.5t19 -1.5t12.5 -1.5v21q0 38 -20.5 54.5t-62.5 16.5q-23 0 -48.5 -6.5t-38.5 -14.5l-13 35q13 8 41.5 16t63.5 8q64 0 93.5 -29 t29.5 -89v-191h-39zM237 553q-2 0 -9 1t-17.5 1.5t-22.5 1.5t-22 1q-39 0 -61.5 -14t-22.5 -45q0 -32 17 -45.5t47 -13.5q18 0 34 5.5t29 14.5t20.5 21t7.5 26v46z"/>
<glyph glyph-name="guillemotleft" horiz-adv-x="433" unicode="«" d="M334 57l-115 193l115 193h60l-111 -193l111 -193h-60zM154 57l-115 193l115 193h60l-111 -193l111 -193h-60z"/>
<glyph glyph-name="logicalnot" horiz-adv-x="556" unicode="¬" d="M82 459h391v-240h-54v188h-337v52z"/>
<glyph glyph-name="uni00AD" horiz-adv-x="386" unicode="­" d="M49 309h287v-57h-287v57z"/>
<glyph glyph-name="registered" horiz-adv-x="787" unicode="®" d="M477 426q0 32 -18.5 51t-59.5 19h-79v-141h76q38 0 59.5 19.5t21.5 51.5zM540 165h-53l-84 148h-83v-148h-48v373h125q34 0 58.5 -9t40 -24.5t22.5 -35.5t7 -42q0 -43 -22 -67.5t-54 -35.5zM707 352q0 68 -23.5 126.5t-65.5 101.5t-99 67.5t-124 24.5q-68 0 -125.5 -24.5 t-99.5 -67.5t-66 -101.5t-24 -126.5t23.5 -126.5t65.5 -101t99.5 -67t125.5 -24.5q67 0 124.5 24.5t99.5 67.5t65.5 101t23.5 126zM758 353q0 -80 -27 -147.5t-75.5 -116t-115.5 -75.5t-146 -27q-80 0 -146.5 27t-115 75.5t-75.5 116t-27 147.5q0 79 27 146t75 116t115 76.5 t148 27.5q79 0 146 -27.5t115 -76.5t75 -116t27 -146z"/>
<glyph glyph-name="macron" d="M24 613v53h284v-53h-284z" unicode="¯"/>
<glyph glyph-name="degree" horiz-adv-x="362" unicode="°" d="M269 557q0 38 -25 63t-63 25q-39 0 -63.5 -25.5t-24.5 -63.5q0 -40 25 -64t64 -24q37 0 62 24t25 65zM315 557q0 -28 -10.5 -52t-28.5 -41t-42.5 -27t-52.5 -10q-60 0 -97 36t-37 93q0 27 10 50.5t28 41.5t42.5 28t53.5 10q59 0 96.5 -36t37.5 -93z"/>
<glyph glyph-name="plusminus" horiz-adv-x="520" unicode="±" d="M39 53h441v-53h-441v53zM39 400h193v196h56v-196h192v-54h-192v-196h-56v196h-193v54z"/>
<glyph glyph-name="twosuperior" horiz-adv-x="370" unicode="²" d="M174 513q35 22 56 43t21 53q0 29 -19 46t-55 17q-18 0 -32.5 -5t-26.5 -12t-21 -15.5t-15 -15.5l-30 29q6 9 17.5 20t27 20.5t36.5 16t47 6.5q60 0 92.5 -29.5t32.5 -75.5q0 -22 -8.5 -40.5t-22.5 -34t-33 -30t-40 -27.5q-18 -12 -34 -23t-28 -23.5t-19.5 -28t-7.5 -35.5 h199v-44h-252v19q0 29 6 51.5t19.5 42t35.5 37.5t54 38z"/>
<glyph glyph-name="threesuperior" horiz-adv-x="370" unicode="³" d="M113 542h54q40 0 62.5 19.5t22.5 53.5q0 29 -21 43.5t-57 14.5q-38 0 -63.5 -13.5t-37.5 -22.5l-23 33q17 16 50.5 31t78.5 15q34 0 57.5 -8.5t38 -22t21 -31.5t6.5 -37q0 -36 -18.5 -58.5t-43.5 -33.5q30 -10 51 -32.5t21 -62.5q0 -51 -39 -82t-113 -31q-35 0 -61 4.5 t-46 10.5l9 42q16 -5 39.5 -9.5t52.5 -4.5q56 0 80.5 19.5t24.5 51.5q0 31 -20 50t-70 19h-56v42z"/>
<glyph glyph-name="acute" d="M263 749l28 -56l-226 -106l-23 45z" unicode="´"/>
<glyph glyph-name="mu" horiz-adv-x="529" unicode="µ" d="M63 496h59v-308q0 -77 34.5 -111.5t88.5 -34.5q38 0 68 17.5t51 46t32 65.5t11 77v248h59v-496h-55l-2 93q-8 -18 -22.5 -36.5t-36 -34t-49.5 -25t-64 -9.5q-18 0 -36 5t-33.5 13t-27.5 18t-19 19v-263h-58v716z"/>
<glyph glyph-name="paragraph" horiz-adv-x="550" unicode="¶" d="M231 321q-101 0 -148.5 52.5t-47.5 138.5q0 42 13 77t38.5 60.5t64 39.5t90.5 14h230v-839h-58v783h-122v-783h-60v457z"/>
<glyph glyph-name="periodcentered" horiz-adv-x="180" unicode="·" d="M42 346q0 24 14 39t35 15t35 -14.5t14 -39.5q0 -24 -14.5 -38t-35.5 -14t-34.5 14t-13.5 38z"/>
<glyph glyph-name="cedilla" d="M275 -132q0 -48 -34.5 -74.5t-88.5 -26.5q-42 0 -65.5 7.5t-28.5 9.5l11 42q17 -5 35 -10t40 -5q35 0 56.5 13t21.5 39q0 46 -75 46q-14 0 -30 -3l20 94h49l-10 -49q48 -4 73.5 -26t25.5 -57z" unicode="¸"/>
<glyph glyph-name="onesuperior" horiz-adv-x="370" unicode="¹" d="M180 651l-102 -60l-21 38l130 80h44v-384h-51v326z"/>
<glyph glyph-name="ordmasculine" horiz-adv-x="345" unicode="º" d="M312 312h-278v40h278v-40zM172 442q48 0 72 30.5t24 87.5t-24 88t-72 31q-45 0 -70 -31t-25 -88t23.5 -87.5t71.5 -30.5zM172 402q-69 0 -106 43.5t-37 114.5q0 35 10 64t29 50t45.5 33t58.5 12q69 0 106.5 -44.5t37.5 -114.5t-38.5 -114t-105.5 -44z"/>
<glyph glyph-name="guillemotright" horiz-adv-x="433" unicode="»" d="M150 250l-111 193h60l115 -193l-115 -193h-60zM330 250l-111 193h60l115 -193l-115 -193h-60z"/>
<glyph glyph-name="onequarter" horiz-adv-x="95" unicode="¼" d="M210 703h58l-382 -703h-59zM-195 651l-102 -60l-21 38l130 80h44v-384h-51v326zM367 239v-99h64v-43h-64v-83h-45v83h-179v29l159 272h52l-151 -258h119v99h45z"/>
<glyph glyph-name="onehalf" horiz-adv-x="880" unicode="½" d="M576 703h58l-382 -703h-59zM171 651l-102 -60l-21 38l130 80h44v-384h-51v326zM655 202q35 22 56 43t21 53q0 29 -19 46t-55 17q-18 0 -32.5 -5t-26.5 -12t-21 -15.5t-15 -15.5l-30 29q6 9 17.5 20t27 20.5t36.5 16t47 6.5q60 0 92.5 -29.5t32.5 -75.5q0 -22 -8.5 -40.5 t-22.5 -34t-33 -30t-40 -27.5q-18 -12 -34 -23t-28 -23.5t-19.5 -28t-7.5 -35.5h199v-44h-252v19q0 29 6 51.5t19.5 42t35.5 37.5t54 38z"/>
<glyph glyph-name="threequarters" horiz-adv-x="880" unicode="¾" d="M613 703h58l-382 -703h-59zM765 239v-99h64v-43h-64v-83h-45v83h-179v29l159 272h52l-151 -258h119v99h45zM119 542h54q40 0 62.5 19.5t22.5 53.5q0 29 -21 43.5t-57 14.5q-38 0 -63.5 -13.5t-37.5 -22.5l-23 33q17 16 50.5 31t78.5 15q34 0 57.5 -8.5t38 -22t21 -31.5 t6.5 -37q0 -36 -18.5 -58.5t-43.5 -33.5q30 -10 51 -32.5t21 -62.5q0 -51 -39 -82t-113 -31q-35 0 -61 4.5t-46 10.5l9 42q16 -5 39.5 -9.5t52.5 -4.5q56 0 80.5 19.5t24.5 51.5q0 31 -20 50t-70 19h-56v42z"/>
<glyph glyph-name="questiondown" horiz-adv-x="478" unicode="¿" d="M322 460q0 -24 -14 -38.5t-35 -14.5t-35 14t-14 39q0 24 14 38.5t35 14.5t35 -14.5t14 -38.5zM305 319q0 -38 -6 -66t-19 -51t-33.5 -45t-49.5 -48q-11 -10 -24.5 -23.5t-25 -31t-19 -38t-7.5 -44.5q0 -60 35 -96t108 -36q58 0 103 26t74 62l37 -38q-13 -17 -33 -35 t-47 -34t-62 -26t-79 -10q-50 0 -87 14.5t-61.5 39.5t-36.5 58t-12 70q0 33 8.5 59.5t22 48t30.5 39t34 32.5q21 18 38 34.5t29 36t19 44t7 58.5h57z"/>
<glyph glyph-name="Agrave" horiz-adv-x="551" unicode="À" d="M148 251h252l-125 379zM418 196h-287l-64 -196h-64l235 703h74l236 -703h-67zM396 808l-20 -46l-233 99l26 58z"/>
<glyph glyph-name="Aacute" horiz-adv-x="551" unicode="Á" d="M148 251h252l-125 379zM418 196h-287l-64 -196h-64l235 703h74l236 -703h-67zM376 919l26 -58l-233 -99l-20 46z"/>
<glyph glyph-name="Acircumflex" horiz-adv-x="551" unicode="Â" d="M148 251h252l-125 379zM418 196h-287l-64 -196h-64l235 703h74l236 -703h-67zM411 761l-136 98l-136 -98l-34 35l143 123h54l143 -123z"/>
<glyph glyph-name="Atilde" horiz-adv-x="551" unicode="Ã" d="M148 251h252l-125 379zM418 196h-287l-64 -196h-64l235 703h74l236 -703h-67zM201 886q25 0 44.5 -9t36 -20.5t32.5 -20.5t35 -9q47 0 47 58h53q0 -54 -26.5 -81.5t-74.5 -27.5q-25 0 -43.5 9t-35 20t-32.5 20t-34 9q-49 0 -49 -57h-53q0 52 25 80.5t75 28.5z"/>
<glyph glyph-name="Adieresis" horiz-adv-x="551" unicode="Ä" d="M148 251h252l-125 379zM418 196h-287l-64 -196h-64l235 703h74l236 -703h-67zM325 834q0 24 14 38t34 14q21 0 35 -14t14 -38q0 -23 -14 -37.5t-35 -14.5q-20 0 -34 14.5t-14 37.5zM127 834q0 24 14 38t34 14q21 0 34.5 -14t13.5 -38q0 -23 -13.5 -37.5t-34.5 -14.5 q-20 0 -34 14.5t-14 37.5z"/>
<glyph glyph-name="Aring" horiz-adv-x="551" unicode="Å" d="M335 780q0 29 -17 45.5t-44 16.5q-25 0 -42.5 -16t-17.5 -46q0 -28 17 -44.5t43 -16.5q27 0 44 16t17 45zM148 251h252l-125 378zM418 196h-287l-63 -196h-65l229 684q-30 11 -48 36t-18 60q0 24 8.5 43t23.5 33t35 21.5t42 7.5q47 0 77 -28.5t30 -75.5q0 -35 -17.5 -60 t-46.5 -36l230 -685h-66z"/>
<glyph glyph-name="AE" horiz-adv-x="822" unicode="Æ" d="M207 257h199v385zM374 703h418v-58h-324v-250h253v-58h-253v-279h334v-58h-396v203h-229l-106 -203h-68z"/>
<glyph glyph-name="Ccedilla" horiz-adv-x="590" unicode="Ç" d="M353 658q-113 0 -175 -78.5t-62 -231.5q0 -158 62 -230.5t175 -72.5q33 0 60.5 6t50.5 15t41 20t31 21l29 -45q-34 -29 -89.5 -51t-129.5 -22l-8 -38q50 -4 74.5 -29t24.5 -61q0 -48 -34 -74t-89 -26q-42 0 -65.5 7t-28.5 9l10 45q17 -5 35 -9.5t41 -4.5q35 0 54.5 11.5 t19.5 39.5q0 22 -16.5 34.5t-53.5 12.5q-8 0 -17 -0.5t-17 -2.5l19 90q-126 15 -185.5 106t-59.5 249q0 82 18.5 149.5t56 115.5t94 74.5t132.5 26.5q41 0 75 -8t60 -19.5t44.5 -24t29.5 -22.5l-32 -46q-25 21 -68 42.5t-107 21.5z"/>
<glyph glyph-name="Egrave" horiz-adv-x="497" unicode="È" d="M74 703h388v-58h-325v-250h254v-58h-254v-279h335v-58h-398v703zM395 808l-20 -46l-233 99l26 58z"/>
<glyph glyph-name="Eacute" horiz-adv-x="497" unicode="É" d="M74 703h388v-58h-325v-250h254v-58h-254v-279h335v-58h-398v703zM380 919l26 -58l-233 -99l-20 46z"/>
<glyph glyph-name="Ecircumflex" horiz-adv-x="497" unicode="Ê" d="M74 703h388v-58h-325v-250h254v-58h-254v-279h335v-58h-398v703zM413 761l-136 98l-136 -98l-34 35l143 123h54l143 -123z"/>
<glyph glyph-name="Edieresis" horiz-adv-x="497" unicode="Ë" d="M74 703h388v-58h-325v-250h254v-58h-254v-279h335v-58h-398v703zM321 834q0 24 14 38t34 14q21 0 35 -14t14 -38q0 -23 -14 -37.5t-35 -14.5q-20 0 -34 14.5t-14 37.5zM123 834q0 24 14 38t34 14q21 0 34.5 -14t13.5 -38q0 -23 -13.5 -37.5t-34.5 -14.5q-20 0 -34 14.5 t-14 37.5z"/>
<glyph glyph-name="Igrave" horiz-adv-x="211" unicode="Ì" d="M137 0h-63v703h63v-703zM237 808l-20 -46l-233 99l26 58z"/>
<glyph glyph-name="Iacute" horiz-adv-x="211" unicode="Í" d="M137 0h-63v703h63v-703zM207 919l26 -58l-233 -99l-20 46z"/>
<glyph glyph-name="Icircumflex" horiz-adv-x="211" unicode="Î" d="M137 0h-63v703h63v-703zM242 761l-136 98l-136 -98l-34 35l143 123h54l143 -123z"/>
<glyph glyph-name="Idieresis" horiz-adv-x="211" unicode="Ï" d="M137 0h-63v703h63v-703zM157 834q0 24 14 38t34 14q21 0 35 -14t14 -38q0 -23 -14 -37.5t-35 -14.5q-20 0 -34 14.5t-14 37.5zM-41 834q0 24 14 38t34 14q21 0 34.5 -14t13.5 -38q0 -23 -13.5 -37.5t-34.5 -14.5q-20 0 -34 14.5t-14 37.5z"/>
<glyph glyph-name="Eth" horiz-adv-x="659" unicode="Ð" d="M296 58q115 0 181 74.5t66 219.5q0 151 -66.5 222t-180.5 71h-146v-260h162v-54h-162v-273h146zM10 385h77v318h209q153 0 233 -92t80 -260q0 -85 -22 -150.5t-62.5 -110t-98.5 -67.5t-130 -23h-209v331h-77v54z"/>
<glyph glyph-name="Ntilde" horiz-adv-x="632" unicode="Ñ" d="M135 594v-594h-61v703h70l353 -591v591h61v-703h-65zM246 886q25 0 44.5 -9t36 -20.5t32.5 -20.5t35 -9q47 0 47 58h53q0 -54 -26.5 -81.5t-74.5 -27.5q-25 0 -43.5 9t-35 20t-32.5 20t-34 9q-49 0 -49 -57h-53q0 52 25 80.5t75 28.5z"/>
<glyph glyph-name="Ograve" horiz-adv-x="698" unicode="Ò" d="M117 352q0 -70 14 -126.5t43 -97t72.5 -62.5t102.5 -22t102.5 22t72.5 62.5t43 97t14 126.5t-14 126.5t-43 96.5t-72.5 62t-102.5 22t-102.5 -22t-72.5 -62t-43 -96.5t-14 -126.5zM51 352q0 82 19.5 149.5t57.5 115.5t94 74.5t128 26.5t127.5 -26.5t93 -74.5t57 -115.5 t19.5 -149.5t-19.5 -149.5t-57 -116t-93.5 -75t-128 -26.5t-128 26.5t-93.5 75t-57 116t-19.5 149.5zM487 808l-20 -46l-233 99l26 58z"/>
<glyph glyph-name="Oacute" horiz-adv-x="698" unicode="Ó" d="M117 352q0 -70 14 -126.5t43 -97t72.5 -62.5t102.5 -22t102.5 22t72.5 62.5t43 97t14 126.5t-14 126.5t-43 96.5t-72.5 62t-102.5 22t-102.5 -22t-72.5 -62t-43 -96.5t-14 -126.5zM51 352q0 82 19.5 149.5t57.5 115.5t94 74.5t128 26.5t127.5 -26.5t93 -74.5t57 -115.5 t19.5 -149.5t-19.5 -149.5t-57 -116t-93.5 -75t-128 -26.5t-128 26.5t-93.5 75t-57 116t-19.5 149.5zM453 919l26 -58l-233 -99l-20 46z"/>
<glyph glyph-name="Ocircumflex" horiz-adv-x="698" unicode="Ô" d="M117 352q0 -70 14 -126.5t43 -97t72.5 -62.5t102.5 -22t102.5 22t72.5 62.5t43 97t14 126.5t-14 126.5t-43 96.5t-72.5 62t-102.5 22t-102.5 -22t-72.5 -62t-43 -96.5t-14 -126.5zM51 352q0 82 19.5 149.5t57.5 115.5t94 74.5t128 26.5t127.5 -26.5t93 -74.5t57 -115.5 t19.5 -149.5t-19.5 -149.5t-57 -116t-93.5 -75t-128 -26.5t-128 26.5t-93.5 75t-57 116t-19.5 149.5zM491 761l-136 98l-136 -98l-34 35l143 123h54l143 -123z"/>
<glyph glyph-name="Otilde" horiz-adv-x="698" unicode="Õ" d="M117 352q0 -70 14 -126.5t43 -97t72.5 -62.5t102.5 -22t102.5 22t72.5 62.5t43 97t14 126.5t-14 126.5t-43 96.5t-72.5 62t-102.5 22t-102.5 -22t-72.5 -62t-43 -96.5t-14 -126.5zM51 352q0 82 19.5 149.5t57.5 115.5t94 74.5t128 26.5t127.5 -26.5t93 -74.5t57 -115.5 t19.5 -149.5t-19.5 -149.5t-57 -116t-93.5 -75t-128 -26.5t-128 26.5t-93.5 75t-57 116t-19.5 149.5zM283 886q25 0 44.5 -9t36 -20.5t32.5 -20.5t35 -9q47 0 47 58h53q0 -54 -26.5 -81.5t-74.5 -27.5q-25 0 -43.5 9t-35 20t-32.5 20t-34 9q-49 0 -49 -57h-53q0 52 25 80.5 t75 28.5z"/>
<glyph glyph-name="Odieresis" horiz-adv-x="698" unicode="Ö" d="M117 352q0 -70 14 -126.5t43 -97t72.5 -62.5t102.5 -22t102.5 22t72.5 62.5t43 97t14 126.5t-14 126.5t-43 96.5t-72.5 62t-102.5 22t-102.5 -22t-72.5 -62t-43 -96.5t-14 -126.5zM51 352q0 82 19.5 149.5t57.5 115.5t94 74.5t128 26.5t127.5 -26.5t93 -74.5t57 -115.5 t19.5 -149.5t-19.5 -149.5t-57 -116t-93.5 -75t-128 -26.5t-128 26.5t-93.5 75t-57 116t-19.5 149.5zM405 834q0 24 14 38t34 14q21 0 35 -14t14 -38q0 -23 -14 -37.5t-35 -14.5q-20 0 -34 14.5t-14 37.5zM207 834q0 24 14 38t34 14q21 0 34.5 -14t13.5 -38 q0 -23 -13.5 -37.5t-34.5 -14.5q-20 0 -34 14.5t-14 37.5z"/>
<glyph glyph-name="multiply" horiz-adv-x="520" unicode="×" d="M116 540l144 -158l144 156l39 -35l-148 -157l145 -155l-38 -35l-143 154l-143 -153l-38 35l145 155l-146 157z"/>
<glyph glyph-name="Oslash" horiz-adv-x="698" unicode="Ø" d="M581 352q0 141 -58 222l-311 -485q54 -45 137 -45q59 0 102.5 22t72.5 62.5t43 97t14 126.5zM117 352q0 -70 14.5 -127t43.5 -97l313 485q-27 22 -61.5 34t-77.5 12q-59 0 -102.5 -22t-72.5 -62t-43 -96.5t-14 -126.5zM139 73q-44 48 -66 119.5t-22 159.5 q0 82 19.5 149.5t57 115.5t93.5 74.5t128 26.5q52 0 94 -14t77 -40l55 86l44 -27l-60 -93q44 -48 66 -119t22 -159q0 -82 -19.5 -149.5t-57 -116t-93.5 -75t-128 -26.5q-51 0 -93.5 13.5t-77.5 39.5l-50 -79l-44 28z"/>
<glyph glyph-name="Ugrave" horiz-adv-x="618" unicode="Ù" d="M307 -16q-72 0 -118.5 21.5t-74.5 60.5t-39 92.5t-11 117.5v427h63v-413q0 -71 11 -119t33.5 -76.5t57 -40.5t80.5 -12t80 12t56.5 40.5t34 76t11.5 118.5v414h63v-428q0 -64 -11.5 -117.5t-40 -92t-76 -60t-119.5 -21.5zM434 808l-20 -46l-233 99l26 58z"/>
<glyph glyph-name="Uacute" horiz-adv-x="618" unicode="Ú" d="M307 -16q-72 0 -118.5 21.5t-74.5 60.5t-39 92.5t-11 117.5v427h63v-413q0 -71 11 -119t33.5 -76.5t57 -40.5t80.5 -12t80 12t56.5 40.5t34 76t11.5 118.5v414h63v-428q0 -64 -11.5 -117.5t-40 -92t-76 -60t-119.5 -21.5zM433 919l26 -58l-233 -99l-20 46z"/>
<glyph glyph-name="Ucircumflex" horiz-adv-x="618" unicode="Û" d="M307 -16q-72 0 -118.5 21.5t-74.5 60.5t-39 92.5t-11 117.5v427h63v-413q0 -71 11 -119t33.5 -76.5t57 -40.5t80.5 -12t80 12t56.5 40.5t34 76t11.5 118.5v414h63v-428q0 -64 -11.5 -117.5t-40 -92t-76 -60t-119.5 -21.5zM455 761l-136 98l-136 -98l-34 35l143 123h54 l143 -123z"/>
<glyph glyph-name="Udieresis" horiz-adv-x="618" unicode="Ü" d="M307 -16q-72 0 -118.5 21.5t-74.5 60.5t-39 92.5t-11 117.5v427h63v-413q0 -71 11 -119t33.5 -76.5t57 -40.5t80.5 -12t80 12t56.5 40.5t34 76t11.5 118.5v414h63v-428q0 -64 -11.5 -117.5t-40 -92t-76 -60t-119.5 -21.5zM366 834q0 24 14 38t34 14q21 0 35 -14t14 -38 q0 -23 -14 -37.5t-35 -14.5q-20 0 -34 14.5t-14 37.5zM168 834q0 24 14 38t34 14q21 0 34.5 -14t13.5 -38q0 -23 -13.5 -37.5t-34.5 -14.5q-20 0 -34 14.5t-14 37.5z"/>
<glyph glyph-name="Yacute" horiz-adv-x="516" unicode="Ý" d="M224 307l-221 396h72l183 -336l187 336h68l-226 -394v-309h-63v307zM393 919l26 -58l-233 -99l-20 46z"/>
<glyph glyph-name="Thorn" horiz-adv-x="526" unicode="Þ" d="M429 358q0 81 -42.5 119.5t-120.5 38.5h-131v-316h127q81 0 124 41t43 117zM493 358q0 -48 -16 -87.5t-45 -67.5t-71 -43.5t-94 -15.5h-132v-144h-61v703h61v-131h136q51 0 92 -14.5t70 -42t44.5 -67.5t15.5 -90z"/>
<glyph glyph-name="germandbls" horiz-adv-x="570" unicode="ß" d="M366 38q57 0 86 28.5t29 75.5q0 20 -5.5 35.5t-17.5 29t-32 25.5t-48 26q-61 29 -85 54.5t-24 64.5q0 37 21 64t47 52q23 23 40.5 47.5t17.5 59.5q0 48 -36 76t-93 28q-72 0 -107.5 -52t-35.5 -153v-499h-60v503q0 53 10.5 99.5t35 81t64 54t96.5 19.5q44 0 78.5 -12.5 t58.5 -34t36.5 -49t12.5 -57.5q0 -42 -17.5 -71.5t-44.5 -57.5q-25 -25 -44.5 -46t-19.5 -48q0 -15 7.5 -25t20.5 -19t30 -17t36 -18q30 -16 52 -31.5t36.5 -34.5t22 -41.5t7.5 -52.5q0 -32 -11 -60t-33 -49t-54.5 -33.5t-75.5 -12.5q-21 0 -41.5 3t-39.5 8t-33.5 11 t-23.5 12l21 48q24 -14 55.5 -22.5t60.5 -8.5z"/>
<glyph glyph-name="agrave" horiz-adv-x="482" unicode="à" d="M186 -12q-26 0 -53.5 8t-50 26t-37 47t-14.5 71q0 74 46.5 119.5t140.5 45.5q22 0 45 -1.5t42.5 -4t34.5 -5t23 -3.5v44q0 65 -37 93t-106 28q-49 0 -83.5 -12.5t-54.5 -23.5l-20 46q19 11 62 26.5t111 15.5q88 0 136.5 -41.5t48.5 -126.5v-340h-54l-2 71 q-15 -24 -35.5 -40t-44.5 -25.5t-49.5 -13.5t-48.5 -4zM363 240q-8 2 -22.5 4.5t-33.5 4.5t-41 3.5t-43 1.5q-74 0 -103.5 -31t-29.5 -83q0 -53 33 -77t86 -24q30 0 58 12t49.5 32t34 45.5t12.5 52.5v59zM366 632l-23 -45l-226 106l28 56z"/>
<glyph glyph-name="aacute" horiz-adv-x="482" unicode="á" d="M186 -12q-26 0 -53.5 8t-50 26t-37 47t-14.5 71q0 74 46.5 119.5t140.5 45.5q22 0 45 -1.5t42.5 -4t34.5 -5t23 -3.5v44q0 65 -37 93t-106 28q-49 0 -83.5 -12.5t-54.5 -23.5l-20 46q19 11 62 26.5t111 15.5q88 0 136.5 -41.5t48.5 -126.5v-340h-54l-2 71 q-15 -24 -35.5 -40t-44.5 -25.5t-49.5 -13.5t-48.5 -4zM363 240q-8 2 -22.5 4.5t-33.5 4.5t-41 3.5t-43 1.5q-74 0 -103.5 -31t-29.5 -83q0 -53 33 -77t86 -24q30 0 58 12t49.5 32t34 45.5t12.5 52.5v59zM334 749l28 -56l-226 -106l-23 45z"/>
<glyph glyph-name="acircumflex" horiz-adv-x="482" unicode="â" d="M186 -12q-26 0 -53.5 8t-50 26t-37 47t-14.5 71q0 74 46.5 119.5t140.5 45.5q22 0 45 -1.5t42.5 -4t34.5 -5t23 -3.5v44q0 65 -37 93t-106 28q-49 0 -83.5 -12.5t-54.5 -23.5l-20 46q19 11 62 26.5t111 15.5q88 0 136.5 -41.5t48.5 -126.5v-340h-54l-2 71 q-15 -24 -35.5 -40t-44.5 -25.5t-49.5 -13.5t-48.5 -4zM363 240q-8 2 -22.5 4.5t-33.5 4.5t-41 3.5t-43 1.5q-74 0 -103.5 -31t-29.5 -83q0 -53 33 -77t86 -24q30 0 58 12t49.5 32t34 45.5t12.5 52.5v59zM82 612l136 126h48l136 -126l-35 -33l-125 99l-125 -99z"/>
<glyph glyph-name="atilde" horiz-adv-x="482" unicode="ã" d="M186 -12q-26 0 -53.5 8t-50 26t-37 47t-14.5 71q0 74 46.5 119.5t140.5 45.5q22 0 45 -1.5t42.5 -4t34.5 -5t23 -3.5v44q0 65 -37 93t-106 28q-49 0 -83.5 -12.5t-54.5 -23.5l-20 46q19 11 62 26.5t111 15.5q88 0 136.5 -41.5t48.5 -126.5v-340h-54l-2 71 q-15 -24 -35.5 -40t-44.5 -25.5t-49.5 -13.5t-48.5 -4zM363 240q-8 2 -22.5 4.5t-33.5 4.5t-41 3.5t-43 1.5q-74 0 -103.5 -31t-29.5 -83q0 -53 33 -77t86 -24q30 0 58 12t49.5 32t34 45.5t12.5 52.5v59zM165 694q25 0 43.5 -9t34 -20.5t31 -20.5t34.5 -9q25 0 35 15.5 t10 42.5h53q0 -54 -25 -82.5t-73 -28.5q-24 0 -42 9t-34.5 20t-31.5 20t-33 9q-25 0 -35.5 -15t-10.5 -42h-53q0 52 24.5 81.5t72.5 29.5z"/>
<glyph glyph-name="adieresis" horiz-adv-x="482" unicode="ä" d="M186 -12q-26 0 -53.5 8t-50 26t-37 47t-14.5 71q0 74 46.5 119.5t140.5 45.5q22 0 45 -1.5t42.5 -4t34.5 -5t23 -3.5v44q0 65 -37 93t-106 28q-49 0 -83.5 -12.5t-54.5 -23.5l-20 46q19 11 62 26.5t111 15.5q88 0 136.5 -41.5t48.5 -126.5v-340h-54l-2 71 q-15 -24 -35.5 -40t-44.5 -25.5t-49.5 -13.5t-48.5 -4zM363 240q-8 2 -22.5 4.5t-33.5 4.5t-41 3.5t-43 1.5q-74 0 -103.5 -31t-29.5 -83q0 -53 33 -77t86 -24q30 0 58 12t49.5 32t34 45.5t12.5 52.5v59zM294 640q0 23 13 36.5t33 13.5t33.5 -13.5t13.5 -36.5t-13.5 -36.5 t-33.5 -13.5t-33 13.5t-13 36.5zM94 640q0 23 13.5 36.5t33.5 13.5t33 -13.5t13 -36.5t-13 -36.5t-33 -13.5t-33.5 13.5t-13.5 36.5z"/>
<glyph glyph-name="aring" horiz-adv-x="482" unicode="å" d="M186 -12q-26 0 -53.5 8t-50 26t-37 47t-14.5 71q0 74 46.5 119.5t140.5 45.5q22 0 45 -1.5t42.5 -4t34.5 -5t23 -3.5v44q0 65 -37 93t-106 28q-49 0 -83.5 -12.5t-54.5 -23.5l-20 46q19 11 62 26.5t111 15.5q88 0 136.5 -41.5t48.5 -126.5v-340h-54l-2 71 q-15 -24 -35.5 -40t-44.5 -25.5t-49.5 -13.5t-48.5 -4zM363 240q-8 2 -22.5 4.5t-33.5 4.5t-41 3.5t-43 1.5q-74 0 -103.5 -31t-29.5 -83q0 -53 33 -77t86 -24q30 0 58 12t49.5 32t34 45.5t12.5 52.5v59zM303 673q0 29 -17 45.5t-44 16.5q-25 0 -42.5 -16t-17.5 -46 q0 -29 17 -45.5t43 -16.5q27 0 44 16.5t17 45.5zM348 674q0 -48 -29.5 -75.5t-75.5 -27.5q-47 0 -77 27.5t-30 74.5q0 48 31 75.5t76 27.5q47 0 76 -27.5t29 -74.5z"/>
<glyph glyph-name="ae" horiz-adv-x="826" unicode="æ" d="M725 283q-5 83 -38.5 128t-108.5 45t-112 -46t-45 -127h304zM363 240q-8 2 -22.5 4.5t-33.5 4.5t-41 3.5t-43 1.5q-74 0 -103.5 -31t-29.5 -83q0 -53 33 -77.5t86 -24.5q30 0 58 12t49.5 32t34 45.5t12.5 52.5v60zM606 43q45 0 77 10t51 18l18 -47q-15 -10 -55 -22.5 t-97 -12.5q-79 0 -130 31t-77 85q-35 -68 -87.5 -92.5t-119.5 -24.5q-26 0 -53.5 8t-50 26t-37 47t-14.5 71q0 74 46.5 119.5t140.5 45.5q22 0 45 -1.5t42.5 -4t34.5 -5t23 -3.5v33q0 65 -37 98.5t-106 33.5q-49 0 -83.5 -12.5t-54.5 -23.5l-20 46q19 11 62 26.5t111 15.5 q63 0 106.5 -25.5t63.5 -73.5q26 48 69.5 74t104.5 26q48 0 86 -14.5t64.5 -46.5t40.5 -82.5t14 -121.5v-12h-364q5 -89 49.5 -139t136.5 -50z"/>
<glyph glyph-name="ccedilla" horiz-adv-x="434" unicode="ç" d="M303 -137q0 46 -75 46q-14 0 -30 -3l18 87q-83 16 -127.5 81t-44.5 174q0 58 15.5 106t44.5 82.5t70 53.5t93 19q31 0 55.5 -5t43 -12.5t30.5 -16t20 -14.5l-28 -45q-14 10 -43.5 24.5t-74.5 14.5q-72 0 -118.5 -51t-46.5 -155q0 -54 12.5 -92.5t34 -64t52 -37.5 t66.5 -12q46 0 75 10t47 19l22 -44q-7 -5 -19.5 -12t-30.5 -13t-42.5 -10t-56.5 -4l-8 -38q48 -4 73.5 -26.5t25.5 -58.5q0 -47 -35 -73t-88 -26q-42 0 -65.5 7.5t-28.5 9.5l11 42q17 -5 35 -10t40 -5q35 0 56.5 13t21.5 39z"/>
<glyph glyph-name="egrave" horiz-adv-x="509" unicode="è" d="M408 281q-5 83 -38 129t-109 46q-75 0 -112 -46t-45 -129h304zM289 43q45 0 77 10t51 18l18 -47q-15 -10 -55 -22.5t-97 -12.5q-121 0 -180 67.5t-59 191.5q0 59 15 107.5t43 82.5t68.5 52.5t91.5 18.5q48 0 86 -14.5t64.5 -47t40.5 -83t14 -122.5v-12h-364 q5 -87 49.5 -137t136.5 -50zM401 632l-23 -45l-226 106l28 56z"/>
<glyph glyph-name="eacute" horiz-adv-x="509" unicode="é" d="M408 281q-5 83 -38 129t-109 46q-75 0 -112 -46t-45 -129h304zM289 43q45 0 77 10t51 18l18 -47q-15 -10 -55 -22.5t-97 -12.5q-121 0 -180 67.5t-59 191.5q0 59 15 107.5t43 82.5t68.5 52.5t91.5 18.5q48 0 86 -14.5t64.5 -47t40.5 -83t14 -122.5v-12h-364 q5 -87 49.5 -137t136.5 -50zM361 749l28 -56l-226 -106l-23 45z"/>
<glyph glyph-name="ecircumflex" horiz-adv-x="509" unicode="ê" d="M408 281q-5 83 -38 129t-109 46q-75 0 -112 -46t-45 -129h304zM289 43q45 0 77 10t51 18l18 -47q-15 -10 -55 -22.5t-97 -12.5q-121 0 -180 67.5t-59 191.5q0 59 15 107.5t43 82.5t68.5 52.5t91.5 18.5q48 0 86 -14.5t64.5 -47t40.5 -83t14 -122.5v-12h-364 q5 -87 49.5 -137t136.5 -50zM107 612l136 126h48l136 -126l-35 -33l-125 99l-125 -99z"/>
<glyph glyph-name="edieresis" horiz-adv-x="509" unicode="ë" d="M408 281q-5 83 -38 129t-109 46q-75 0 -112 -46t-45 -129h304zM289 43q45 0 77 10t51 18l18 -47q-15 -10 -55 -22.5t-97 -12.5q-121 0 -180 67.5t-59 191.5q0 59 15 107.5t43 82.5t68.5 52.5t91.5 18.5q48 0 86 -14.5t64.5 -47t40.5 -83t14 -122.5v-12h-364 q5 -87 49.5 -137t136.5 -50zM320 640q0 23 13 36.5t33 13.5t33.5 -13.5t13.5 -36.5t-13.5 -36.5t-33.5 -13.5t-33 13.5t-13 36.5zM120 640q0 23 13.5 36.5t33.5 13.5t33 -13.5t13 -36.5t-13 -36.5t-33 -13.5t-33.5 13.5t-13.5 36.5z"/>
<glyph glyph-name="igrave" horiz-adv-x="193" unicode="ì" d="M66 496h60v-496h-60v496zM223 632l-23 -45l-226 106l28 56z"/>
<glyph glyph-name="iacute" horiz-adv-x="193" unicode="í" d="M66 496h60v-496h-60v496zM202 749l28 -56l-226 -106l-23 45z"/>
<glyph glyph-name="icircumflex" horiz-adv-x="193" unicode="î" d="M66 496h60v-496h-60v496zM-59 612l136 126h48l136 -126l-35 -33l-125 99l-125 -99z"/>
<glyph glyph-name="idieresis" horiz-adv-x="193" unicode="ï" d="M66 496h60v-496h-60v496zM149 640q0 23 13 36.5t33 13.5t33.5 -13.5t13.5 -36.5t-13.5 -36.5t-33.5 -13.5t-33 13.5t-13 36.5zM-51 640q0 23 13.5 36.5t33.5 13.5t33 -13.5t13 -36.5t-13 -36.5t-33 -13.5t-33.5 13.5t-13.5 36.5z"/>
<glyph glyph-name="eth" horiz-adv-x="527" unicode="ð" d="M265 41q78 0 116.5 50t38.5 144q0 34 -10.5 65.5t-31 56t-50 39t-67.5 14.5q-79 0 -117 -50t-38 -131q0 -94 39 -141t120 -47zM336 667q77 -63 114 -156t37 -206q0 -74 -12.5 -133t-39.5 -100t-69 -63t-101 -22q-111 0 -165 65t-54 178q0 54 15.5 97.5t43.5 73.5t66 46 t82 16q56 0 99 -19.5t69 -61.5q-13 157 -127 250l-104 -87l-31 35l97 79q-27 18 -58 32.5t-64 25.5l16 47q43 -14 81.5 -32.5t66.5 -38.5l89 74l30 -36z"/>
<glyph glyph-name="ntilde" horiz-adv-x="526" unicode="ñ" d="M118 496l2 -89q23 48 67.5 75t107.5 27q86 0 129 -47t43 -138v-324h-59v316q0 39 -9.5 66t-26 43t-39 23t-49.5 7q-41 0 -71.5 -18.5t-50.5 -48t-30 -66.5t-10 -75v-247h-59v496h55zM196 694q25 0 43.5 -9t34 -20.5t31 -20.5t34.5 -9q25 0 35 15.5t10 42.5h53 q0 -54 -25 -82.5t-73 -28.5q-24 0 -42 9t-34.5 20t-31.5 20t-33 9q-25 0 -35.5 -15t-10.5 -42h-53q0 52 24.5 81.5t72.5 29.5z"/>
<glyph glyph-name="ograve" horiz-adv-x="545" unicode="ò" d="M272 509q57 0 99.5 -19.5t71 -54t43 -82t14.5 -104.5t-15 -105t-43.5 -82.5t-71.5 -53.5t-98 -19q-56 0 -99 19t-71.5 53.5t-43 82.5t-14.5 105t15 104.5t43.5 82t71 54t98.5 19.5zM272 43q86 0 127 55.5t41 150.5q0 93 -41.5 149.5t-126.5 56.5q-84 0 -125.5 -56.5 t-41.5 -149.5q0 -96 41 -151t126 -55zM410 632l-23 -45l-226 106l28 56z"/>
<glyph glyph-name="oacute" horiz-adv-x="545" unicode="ó" d="M272 509q57 0 99.5 -19.5t71 -54t43 -82t14.5 -104.5t-15 -105t-43.5 -82.5t-71.5 -53.5t-98 -19q-56 0 -99 19t-71.5 53.5t-43 82.5t-14.5 105t15 104.5t43.5 82t71 54t98.5 19.5zM272 43q86 0 127 55.5t41 150.5q0 93 -41.5 149.5t-126.5 56.5q-84 0 -125.5 -56.5 t-41.5 -149.5q0 -96 41 -151t126 -55zM371 749l28 -56l-226 -106l-23 45z"/>
<glyph glyph-name="ocircumflex" horiz-adv-x="545" unicode="ô" d="M272 509q57 0 99.5 -19.5t71 -54t43 -82t14.5 -104.5t-15 -105t-43.5 -82.5t-71.5 -53.5t-98 -19q-56 0 -99 19t-71.5 53.5t-43 82.5t-14.5 105t15 104.5t43.5 82t71 54t98.5 19.5zM272 43q86 0 127 55.5t41 150.5q0 93 -41.5 149.5t-126.5 56.5q-84 0 -125.5 -56.5 t-41.5 -149.5q0 -96 41 -151t126 -55zM120 612l136 126h48l136 -126l-35 -33l-125 99l-125 -99z"/>
<glyph glyph-name="otilde" horiz-adv-x="545" unicode="õ" d="M272 509q57 0 99.5 -19.5t71 -54t43 -82t14.5 -104.5t-15 -105t-43.5 -82.5t-71.5 -53.5t-98 -19q-56 0 -99 19t-71.5 53.5t-43 82.5t-14.5 105t15 104.5t43.5 82t71 54t98.5 19.5zM272 43q86 0 127 55.5t41 150.5q0 93 -41.5 149.5t-126.5 56.5q-84 0 -125.5 -56.5 t-41.5 -149.5q0 -96 41 -151t126 -55zM204 694q25 0 43.5 -9t34 -20.5t31 -20.5t34.5 -9q25 0 35 15.5t10 42.5h53q0 -54 -25 -82.5t-73 -28.5q-24 0 -42 9t-34.5 20t-31.5 20t-33 9q-25 0 -35.5 -15t-10.5 -42h-53q0 52 24.5 81.5t72.5 29.5z"/>
<glyph glyph-name="odieresis" horiz-adv-x="545" unicode="ö" d="M272 509q57 0 99.5 -19.5t71 -54t43 -82t14.5 -104.5t-15 -105t-43.5 -82.5t-71.5 -53.5t-98 -19q-56 0 -99 19t-71.5 53.5t-43 82.5t-14.5 105t15 104.5t43.5 82t71 54t98.5 19.5zM272 43q86 0 127 55.5t41 150.5q0 93 -41.5 149.5t-126.5 56.5q-84 0 -125.5 -56.5 t-41.5 -149.5q0 -96 41 -151t126 -55zM330 640q0 23 13 36.5t33 13.5t33.5 -13.5t13.5 -36.5t-13.5 -36.5t-33.5 -13.5t-33 13.5t-13 36.5zM130 640q0 23 13.5 36.5t33.5 13.5t33 -13.5t13 -36.5t-13 -36.5t-33 -13.5t-33.5 13.5t-13.5 36.5z"/>
<glyph glyph-name="divide" horiz-adv-x="520" unicode="÷" d="M49 380h422v-53h-422v53zM211 518q0 23 14 37.5t35 14.5q20 0 34 -14.5t14 -37.5q0 -22 -14 -37t-34 -15q-21 0 -35 14.5t-14 37.5zM260 133q-21 0 -35 14.5t-14 37.5t14 37.5t35 14.5q20 0 34 -14.5t14 -37.5t-14 -37.5t-34 -14.5z"/>
<glyph glyph-name="oslash" horiz-adv-x="545" unicode="ø" d="M272 43q42 0 73.5 14.5t52.5 41t31.5 63t10.5 81.5q0 25 -2 45t-6.5 38t-11.5 34.5t-18 33.5l-226 -323q39 -28 96 -28zM105 249q0 -93 37 -145l226 323q-39 28 -96 28q-84 0 -125.5 -56t-41.5 -150zM272 509q76 0 129 -36l46 66l38 -26l-49 -70q32 -35 48 -84.5 t16 -109.5q0 -57 -15 -105t-43.5 -82.5t-71.5 -53.5t-98 -19q-38 0 -70.5 9t-58.5 26l-43 -62l-39 25l47 67q-32 35 -48 85t-16 110q0 57 15 104.5t43.5 82t71 54t98.5 19.5z"/>
<glyph glyph-name="ugrave" horiz-adv-x="529" unicode="ù" d="M407 496h59v-496h-55l-2 92q-24 -48 -67.5 -76t-112.5 -28q-82 0 -124 46.5t-42 137.5v324h59v-316q0 -39 9 -65.5t25.5 -42.5t39 -23t49.5 -7q39 0 69 18t51 47t31.5 65.5t10.5 74.5v249zM382 632l-23 -45l-226 106l28 56z"/>
<glyph glyph-name="uacute" horiz-adv-x="529" unicode="ú" d="M407 496h59v-496h-55l-2 92q-24 -48 -67.5 -76t-112.5 -28q-82 0 -124 46.5t-42 137.5v324h59v-316q0 -39 9 -65.5t25.5 -42.5t39 -23t49.5 -7q39 0 69 18t51 47t31.5 65.5t10.5 74.5v249zM375 749l28 -56l-226 -106l-23 45z"/>
<glyph glyph-name="ucircumflex" horiz-adv-x="529" unicode="û" d="M407 496h59v-496h-55l-2 92q-24 -48 -67.5 -76t-112.5 -28q-82 0 -124 46.5t-42 137.5v324h59v-316q0 -39 9 -65.5t25.5 -42.5t39 -23t49.5 -7q39 0 69 18t51 47t31.5 65.5t10.5 74.5v249zM110 612l136 126h48l136 -126l-35 -33l-125 99l-125 -99z"/>
<glyph glyph-name="udieresis" horiz-adv-x="529" unicode="ü" d="M407 496h59v-496h-55l-2 92q-24 -48 -67.5 -76t-112.5 -28q-82 0 -124 46.5t-42 137.5v324h59v-316q0 -39 9 -65.5t25.5 -42.5t39 -23t49.5 -7q39 0 69 18t51 47t31.5 65.5t10.5 74.5v249zM319 640q0 23 13 36.5t33 13.5t33.5 -13.5t13.5 -36.5t-13.5 -36.5t-33.5 -13.5 t-33 13.5t-13 36.5zM119 640q0 23 13.5 36.5t33.5 13.5t33 -13.5t13 -36.5t-13 -36.5t-33 -13.5t-33.5 13.5t-13.5 36.5z"/>
<glyph glyph-name="yacute" horiz-adv-x="458" unicode="ý" d="M4 496h68l157 -400l160 400h65l-299 -716h-62l103 244zM352 749l28 -56l-226 -106l-23 45z"/>
<glyph glyph-name="thorn" horiz-adv-x="543" unicode="þ" d="M296 509q51 0 89 -19.5t63.5 -53.5t38 -80.5t12.5 -100.5q0 -73 -19.5 -123t-50.5 -81t-69.5 -44.5t-77.5 -13.5q-49 0 -89.5 14t-70.5 33v-260h-59v970h59v-337q22 45 66.5 70.5t107.5 25.5zM288 455q-48 0 -80 -19t-51 -49.5t-27 -69.5t-8 -78v-131q7 -9 22 -20 t35.5 -20.5t45.5 -15.5t53 -6q71 0 115.5 51t44.5 158q0 43 -9 79.5t-27.5 63.5t-46.5 42t-67 15z"/>
<glyph glyph-name="ydieresis" horiz-adv-x="458" unicode="ÿ" d="M4 496h68l157 -400l160 400h65l-299 -716h-62l103 244zM287 640q0 23 13 36.5t33 13.5t33.5 -13.5t13.5 -36.5t-13.5 -36.5t-33.5 -13.5t-33 13.5t-13 36.5zM87 640q0 23 13.5 36.5t33.5 13.5t33 -13.5t13 -36.5t-13 -36.5t-33 -13.5t-33.5 13.5t-13.5 36.5z"/>
<glyph glyph-name="Amacron" horiz-adv-x="551" unicode="Ā" d="M148 251h252l-125 379zM418 196h-287l-64 -196h-64l235 703h74l236 -703h-67zM127 801v54h294v-54h-294z"/>
<glyph glyph-name="amacron" horiz-adv-x="482" unicode="ā" d="M186 -12q-26 0 -53.5 8t-50 26t-37 47t-14.5 71q0 74 46.5 119.5t140.5 45.5q22 0 45 -1.5t42.5 -4t34.5 -5t23 -3.5v44q0 65 -37 93t-106 28q-49 0 -83.5 -12.5t-54.5 -23.5l-20 46q19 11 62 26.5t111 15.5q88 0 136.5 -41.5t48.5 -126.5v-340h-54l-2 71 q-15 -24 -35.5 -40t-44.5 -25.5t-49.5 -13.5t-48.5 -4zM363 240q-8 2 -22.5 4.5t-33.5 4.5t-41 3.5t-43 1.5q-74 0 -103.5 -31t-29.5 -83q0 -53 33 -77t86 -24q30 0 58 12t49.5 32t34 45.5t12.5 52.5v59zM100 614v53h284v-53h-284z"/>
<glyph glyph-name="Abreve" horiz-adv-x="551" unicode="Ă" d="M148 251h252l-125 379zM418 196h-287l-64 -196h-64l235 703h74l236 -703h-67zM275 810q43 0 67 24t24 70h56q0 -29 -9 -55t-27 -46.5t-46 -32.5t-67 -12t-67 12t-46 32t-26.5 46.5t-8.5 55.5h58q0 -46 25 -70t67 -24z"/>
<glyph glyph-name="abreve" horiz-adv-x="482" unicode="ă" d="M186 -12q-26 0 -53.5 8t-50 26t-37 47t-14.5 71q0 74 46.5 119.5t140.5 45.5q22 0 45 -1.5t42.5 -4t34.5 -5t23 -3.5v44q0 65 -37 93t-106 28q-49 0 -83.5 -12.5t-54.5 -23.5l-20 46q19 11 62 26.5t111 15.5q88 0 136.5 -41.5t48.5 -126.5v-340h-54l-2 71 q-15 -24 -35.5 -40t-44.5 -25.5t-49.5 -13.5t-48.5 -4zM363 240q-8 2 -22.5 4.5t-33.5 4.5t-41 3.5t-43 1.5q-74 0 -103.5 -31t-29.5 -83q0 -53 33 -77t86 -24q30 0 58 12t49.5 32t34 45.5t12.5 52.5v59zM249 625q43 0 66.5 22t23.5 68h54q0 -29 -8.5 -54t-26 -44.5 t-45 -30.5t-65.5 -11q-39 0 -66.5 11t-45 30t-25.5 44.5t-8 54.5h56q0 -46 24 -68t66 -22z"/>
<glyph glyph-name="Aogonek" horiz-adv-x="551" unicode="Ą" d="M148 251h252l-125 378zM418 196h-287l-63 -196h-65l235 703h74l236 -703q-27 -20 -47.5 -44t-20.5 -52q0 -42 53 -42q13 0 18 1v-44q-7 -1 -13 -1.5t-16 -0.5q-46 0 -72 20.5t-26 53.5q0 35 18 60.5t47 48.5h-7z"/>
<glyph glyph-name="aogonek" horiz-adv-x="482" unicode="ą" d="M363 240q-8 2 -22.5 4.5t-33.5 4.5t-41 3.5t-43 1.5q-74 0 -103.5 -31t-29.5 -83q0 -53 33 -77t86 -24q30 0 58 12t49.5 32t34 45.5t12.5 52.5v59zM186 -12q-26 0 -53.5 8t-50 26t-37 47t-14.5 71q0 74 46.5 119.5t140.5 45.5q22 0 45 -1.5t42.5 -4t34.5 -5t23 -3.5v44 q0 65 -37 93t-106 28q-49 0 -83.5 -12.5t-54.5 -23.5l-20 46q19 11 62 26.5t111 15.5q88 0 136.5 -41.5t48.5 -126.5v-340q-27 -20 -47 -44t-20 -52q0 -20 12 -31t41 -11q13 0 17 1v-41q-7 -1 -11 -1.5t-14 -0.5q-42 0 -70 17t-28 57q0 32 18 57.5t48 48.5l-2 71 q-15 -24 -35.5 -40t-44.5 -25.5t-49.5 -13.5t-48.5 -4z"/>
<glyph glyph-name="Cacute" horiz-adv-x="590" unicode="Ć" d="M353 657q-113 0 -175 -78.5t-62 -230.5q0 -158 62 -230t175 -72q33 0 60.5 6t50 15t40.5 20t31 21l30 -46q-34 -29 -89.5 -51t-126.5 -22q-153 0 -226 93t-73 266q0 82 18.5 149.5t56 115.5t94 74.5t132.5 26.5q41 0 75 -8t60 -19.5t44.5 -24t29.5 -22.5l-33 -47 q-13 10 -29.5 21.5t-38 21t-48 15.5t-58.5 6zM439 919l26 -58l-233 -99l-20 46z"/>
<glyph glyph-name="cacute" horiz-adv-x="434" unicode="ć" d="M105 249q0 -54 12.5 -92.5t34 -64t52 -37.5t66.5 -12q46 0 75 10t47 19l22 -44q-14 -11 -49.5 -25t-98.5 -14q-106 0 -164 67t-58 192q0 58 15.5 106t44.5 82.5t70 53.5t93 19q31 0 55.5 -5t43 -12.5t30.5 -16t20 -14.5l-28 -45q-14 10 -43.5 24.5t-74.5 14.5 q-72 0 -118.5 -51t-46.5 -155zM346 749l28 -56l-226 -106l-23 45z"/>
<glyph glyph-name="Ccircumflex" horiz-adv-x="590" unicode="Ĉ" d="M353 657q-113 0 -175 -78.5t-62 -230.5q0 -158 62 -230t175 -72q33 0 60.5 6t50 15t40.5 20t31 21l30 -46q-34 -29 -89.5 -51t-126.5 -22q-153 0 -226 93t-73 266q0 82 18.5 149.5t56 115.5t94 74.5t132.5 26.5q41 0 75 -8t60 -19.5t44.5 -24t29.5 -22.5l-33 -47 q-13 10 -29.5 21.5t-38 21t-48 15.5t-58.5 6zM485 761l-136 98l-136 -98l-34 35l143 123h54l143 -123z"/>
<glyph glyph-name="ccircumflex" horiz-adv-x="434" unicode="ĉ" d="M105 249q0 -54 12.5 -92.5t34 -64t52 -37.5t66.5 -12q46 0 75 10t47 19l22 -44q-14 -11 -49.5 -25t-98.5 -14q-106 0 -164 67t-58 192q0 58 15.5 106t44.5 82.5t70 53.5t93 19q31 0 55.5 -5t43 -12.5t30.5 -16t20 -14.5l-28 -45q-14 10 -43.5 24.5t-74.5 14.5 q-72 0 -118.5 -51t-46.5 -155zM101 612l136 126h48l136 -126l-35 -33l-125 99l-125 -99z"/>
<glyph glyph-name="Cdotaccent" horiz-adv-x="590" unicode="Ċ" d="M353 657q-113 0 -175 -78.5t-62 -230.5q0 -158 62 -230t175 -72q33 0 60.5 6t50 15t40.5 20t31 21l30 -46q-34 -29 -89.5 -51t-126.5 -22q-153 0 -226 93t-73 266q0 82 18.5 149.5t56 115.5t94 74.5t132.5 26.5q41 0 75 -8t60 -19.5t44.5 -24t29.5 -22.5l-33 -47 q-13 10 -29.5 21.5t-38 21t-48 15.5t-58.5 6zM300 829q0 23 14 37t34 14t33 -14t13 -37t-13 -36t-33 -13t-34 13t-14 36z"/>
<glyph glyph-name="cdotaccent" horiz-adv-x="434" unicode="ċ" d="M105 249q0 -54 12.5 -92.5t34 -64t52 -37.5t66.5 -12q46 0 75 10t47 19l22 -44q-14 -11 -49.5 -25t-98.5 -14q-106 0 -164 67t-58 192q0 58 15.5 106t44.5 82.5t70 53.5t93 19q31 0 55.5 -5t43 -12.5t30.5 -16t20 -14.5l-28 -45q-14 10 -43.5 24.5t-74.5 14.5 q-72 0 -118.5 -51t-46.5 -155zM225 640q0 22 13 35.5t33 13.5t32 -13.5t12 -35.5t-12 -35t-32 -13t-33 13t-13 35z"/>
<glyph glyph-name="Ccaron" horiz-adv-x="590" unicode="Č" d="M353 657q-113 0 -175 -78.5t-62 -230.5q0 -158 62 -230t175 -72q33 0 60.5 6t50 15t40.5 20t31 21l30 -46q-34 -29 -89.5 -51t-126.5 -22q-153 0 -226 93t-73 266q0 82 18.5 149.5t56 115.5t94 74.5t132.5 26.5q41 0 75 -8t60 -19.5t44.5 -24t29.5 -22.5l-33 -47 q-13 10 -29.5 21.5t-38 21t-48 15.5t-58.5 6zM322 762l-143 122l34 36l136 -99l136 99l34 -36l-143 -122h-54z"/>
<glyph glyph-name="ccaron" horiz-adv-x="434" unicode="č" d="M105 249q0 -54 12.5 -92.5t34 -64t52 -37.5t66.5 -12q46 0 75 10t47 19l22 -44q-14 -11 -49.5 -25t-98.5 -14q-106 0 -164 67t-58 192q0 58 15.5 106t44.5 82.5t70 53.5t93 19q31 0 55.5 -5t43 -12.5t30.5 -16t20 -14.5l-28 -45q-14 10 -43.5 24.5t-74.5 14.5 q-72 0 -118.5 -51t-46.5 -155zM273 638l124 99l35 -33l-135 -126h-49l-136 126l36 33z"/>
<glyph glyph-name="Dcaron" horiz-adv-x="646" unicode="Ď" d="M283 58q114 0 180.5 75t66.5 219q0 151 -66.5 222t-180.5 71h-146v-587h146zM283 703q152 0 232 -92t80 -260q0 -85 -21.5 -150.5t-62 -110t-98.5 -67.5t-130 -23h-209v703h209zM274 762l-143 122l34 36l136 -99l136 99l34 -36l-143 -122h-54z"/>
<glyph glyph-name="dcaron" horiz-adv-x="626" unicode="ď" d="M426 60q-29 -29 -71 -48t-102 -19q-39 0 -76.5 12.5t-67 42t-47 78.5t-17.5 122q0 49 12.5 96t38 84t65.5 59t96 22q59 0 100 -23t66 -67v331h59v-750h-55zM257 455q-39 0 -67.5 -16t-47 -43.5t-27.5 -65.5t-9 -82q0 -104 42.5 -152.5t112.5 -48.5q31 0 57 7.5t46.5 19.5 t35 26.5t23.5 28.5v111q0 102 -43 158.5t-123 56.5zM558 701q0 26 14.5 40t34.5 14q24 0 36.5 -17t12.5 -45q0 -27 -10.5 -58t-24.5 -58.5t-27.5 -48.5t-19.5 -27l-34 22q6 11 14.5 29t17 37t14.5 37t8 30q-11 3 -23.5 15.5t-12.5 29.5z"/>
<glyph glyph-name="Dcroat" horiz-adv-x="659" unicode="Đ" d="M296 58q114 0 180.5 75t66.5 219q0 151 -66.5 222t-180.5 71h-146v-260h162v-54h-162v-273h146zM10 385h77v318h209q152 0 232 -92t80 -260q0 -85 -21.5 -150.5t-62 -110t-98.5 -67.5t-130 -23h-209v331h-77v54z"/>
<glyph glyph-name="dcroat" horiz-adv-x="553" unicode="đ" d="M257 455q-39 0 -67.5 -16t-47 -43.5t-27.5 -65.5t-9 -82q0 -104 42.5 -152.5t112.5 -48.5q31 0 57 7.5t46.5 19.5t35 26.5t23.5 28.5v111q0 102 -43 158.5t-123 56.5zM426 60q-29 -29 -71 -48t-102 -19q-39 0 -76.5 12.5t-67 42t-47 78.5t-17.5 122q0 49 12.5 96t38 84 t65.5 59t96 22q59 0 100 -23t66 -67v182h-200v50h200v99h59v-99h67v-50h-67v-601h-55z"/>
<glyph glyph-name="Emacron" horiz-adv-x="497" unicode="Ē" d="M74 703h388v-58h-325v-250h254v-58h-254v-279h335v-58h-398v703zM126 801v54h294v-54h-294z"/>
<glyph glyph-name="emacron" horiz-adv-x="509" unicode="ē" d="M408 281q-5 83 -38 129t-109 46q-75 0 -112 -46t-45 -129h304zM289 43q45 0 77 10t51 18l18 -47q-15 -10 -55 -22.5t-97 -12.5q-121 0 -180 67.5t-59 191.5q0 59 15 107.5t43 82.5t68.5 52.5t91.5 18.5q48 0 86 -14.5t64.5 -47t40.5 -83t14 -122.5v-12h-364 q5 -87 49.5 -137t136.5 -50zM122 614v53h284v-53h-284z"/>
<glyph glyph-name="Ebreve" horiz-adv-x="497" unicode="Ĕ" d="M74 703h388v-58h-325v-250h254v-58h-254v-279h335v-58h-398v703zM275 810q43 0 67 24t24 70h56q0 -29 -9 -55t-27 -46.5t-46 -32.5t-67 -12t-67 12t-46 32t-26.5 46.5t-8.5 55.5h58q0 -46 25 -70t67 -24z"/>
<glyph glyph-name="ebreve" horiz-adv-x="509" unicode="ĕ" d="M408 281q-5 83 -38 129t-109 46q-75 0 -112 -46t-45 -129h304zM289 43q45 0 77 10t51 18l18 -47q-15 -10 -55 -22.5t-97 -12.5q-121 0 -180 67.5t-59 191.5q0 59 15 107.5t43 82.5t68.5 52.5t91.5 18.5q48 0 86 -14.5t64.5 -47t40.5 -83t14 -122.5v-12h-364 q5 -87 49.5 -137t136.5 -50zM269 625q43 0 66.5 22t23.5 68h54q0 -29 -8.5 -54t-26 -44.5t-45 -30.5t-65.5 -11q-39 0 -66.5 11t-45 30t-25.5 44.5t-8 54.5h56q0 -46 24 -68t66 -22z"/>
<glyph glyph-name="Edotaccent" horiz-adv-x="497" unicode="Ė" d="M74 703h388v-58h-325v-250h254v-58h-254v-279h335v-58h-398v703zM230 829q0 23 14 37t34 14t33 -14t13 -37t-13 -36t-33 -13t-34 13t-14 36z"/>
<glyph glyph-name="edotaccent" horiz-adv-x="509" unicode="ė" d="M408 281q-5 83 -38 129t-109 46q-75 0 -112 -46t-45 -129h304zM289 43q45 0 77 10t51 18l18 -47q-15 -10 -55 -22.5t-97 -12.5q-121 0 -180 67.5t-59 191.5q0 59 15 107.5t43 82.5t68.5 52.5t91.5 18.5q48 0 86 -14.5t64.5 -47t40.5 -83t14 -122.5v-12h-364 q5 -87 49.5 -137t136.5 -50zM219 640q0 22 13 35.5t33 13.5t32 -13.5t12 -35.5t-12 -35t-32 -13t-33 13t-13 35z"/>
<glyph glyph-name="Eogonek" horiz-adv-x="497" unicode="Ę" d="M74 703h388v-58h-325v-250h254v-58h-254v-279h335v-58q-27 -20 -47.5 -44t-20.5 -52q0 -42 53 -42q13 0 18 1v-44q-7 -1 -13 -1.5t-16 -0.5q-46 0 -72 20.5t-26 53.5q0 35 18.5 60.5t47.5 48.5h-340v703z"/>
<glyph glyph-name="eogonek" horiz-adv-x="509" unicode="ę" d="M408 281q-5 85 -38.5 130t-108.5 45t-112 -46t-45 -129h304zM375 -178q-7 -1 -11 -1.5t-14 -0.5q-42 0 -70 17t-28 57q0 29 14 52.5t38 43.5q-5 -1 -10.5 -1h-10.5q-121 0 -180 67.5t-59 191.5q0 59 15 107.5t43 82.5t68.5 52.5t91.5 18.5q48 0 86 -14.5t64.5 -47 t40.5 -83t14 -122.5v-12h-364q5 -87 49.5 -137t136.5 -50q45 0 77 10t51 18l18 -47q-8 -5 -24.5 -12t-39.5 -13q-27 -20 -46.5 -43.5t-19.5 -51.5q0 -20 12 -31t41 -11q13 0 17 1v-41z"/>
<glyph glyph-name="Ecaron" horiz-adv-x="497" unicode="Ě" d="M74 703h388v-58h-325v-250h254v-58h-254v-279h335v-58h-398v703zM252 762l-143 122l34 36l136 -99l136 99l34 -36l-143 -122h-54z"/>
<glyph glyph-name="ecaron" horiz-adv-x="509" unicode="ě" d="M408 281q-5 83 -38 129t-109 46q-75 0 -112 -46t-45 -129h304zM289 43q45 0 77 10t51 18l18 -47q-15 -10 -55 -22.5t-97 -12.5q-121 0 -180 67.5t-59 191.5q0 59 15 107.5t43 82.5t68.5 52.5t91.5 18.5q48 0 86 -14.5t64.5 -47t40.5 -83t14 -122.5v-12h-364 q5 -87 49.5 -137t136.5 -50zM269 638l124 99l35 -33l-135 -126h-49l-136 126l36 33z"/>
<glyph glyph-name="Gcircumflex" horiz-adv-x="616" unicode="Ĝ" d="M350 660q-53 0 -96.5 -19t-74 -58t-47.5 -97.5t-17 -137.5q0 -160 62.5 -232.5t185.5 -72.5q46 0 84 8t61 17v235h-149v54h208v-325q-9 -5 -27.5 -13t-45.5 -15.5t-62 -13t-77 -5.5q-154 0 -230 92t-76 271q0 80 18.5 148t56 117.5t93.5 77.5t131 28q68 0 119.5 -17.5 t92.5 -50.5l-32 -50q-12 9 -28 19.5t-37 19.5t-49 14.5t-64 5.5zM488 761l-136 98l-136 -98l-34 35l143 123h54l143 -123z"/>
<glyph glyph-name="gcircumflex" horiz-adv-x="514" unicode="ĝ" d="M393 334q0 35 -12.5 59.5t-32 39.5t-44 21.5t-49.5 6.5t-50 -7t-45 -22t-32.5 -39.5t-12.5 -58.5q0 -35 12.5 -60t32 -40.5t44.5 -22.5t50 -7t49.5 7t44.5 22.5t32.5 40t12.5 60.5zM231 -2q-21 1 -47.5 1.5t-50.5 6.5q-20 -17 -35 -42.5t-15 -56.5q0 -24 12 -41.5 t32.5 -28t47.5 -15.5t57 -5q92 0 146 28.5t54 76.5q0 14 -4 27t-15.5 23t-31.5 16.5t-52 7.5zM396 453q28 -20 42 -52t14 -69q0 -46 -18 -79t-46.5 -54.5t-63 -32t-67.5 -10.5q-29 0 -59 5.5t-57 20.5q-14 -13 -25.5 -30.5t-11.5 -42.5q0 -29 23.5 -43t88.5 -15l110 -2 q33 -1 63 -7t53.5 -19.5t37 -36t13.5 -56.5q0 -33 -16 -62.5t-49 -51.5t-82.5 -35t-115.5 -13q-41 0 -78 6.5t-65 22.5t-45 41t-17 63t17 68.5t46 53.5q-17 11 -27 30t-10 47q0 31 16 59.5t38 46.5q-23 20 -36 52t-13 75q0 46 18.5 79t47 54.5t63.5 32t68 10.5q20 0 36 -2 t29.5 -4.5t26 -4.5t26.5 -2h135v-47h-28q-15 0 -40 1t-42 3zM110 612l136 126h48l136 -126l-35 -33l-125 99l-125 -99z"/>
<glyph glyph-name="Gbreve" horiz-adv-x="616" unicode="Ğ" d="M350 660q-53 0 -96.5 -19t-74 -58t-47.5 -97.5t-17 -137.5q0 -160 62.5 -232.5t185.5 -72.5q46 0 84 8t61 17v235h-149v54h208v-325q-9 -5 -27.5 -13t-45.5 -15.5t-62 -13t-77 -5.5q-154 0 -230 92t-76 271q0 80 18.5 148t56 117.5t93.5 77.5t131 28q68 0 119.5 -17.5 t92.5 -50.5l-32 -50q-12 9 -28 19.5t-37 19.5t-49 14.5t-64 5.5zM354 810q43 0 67 24t24 70h56q0 -29 -9 -55t-27 -46.5t-46 -32.5t-67 -12t-67 12t-46 32t-26.5 46.5t-8.5 55.5h58q0 -46 25 -70t67 -24z"/>
<glyph glyph-name="gbreve" horiz-adv-x="514" unicode="ğ" d="M393 334q0 35 -12.5 59.5t-32 39.5t-44 21.5t-49.5 6.5t-50 -7t-45 -22t-32.5 -39.5t-12.5 -58.5q0 -35 12.5 -60t32 -40.5t44.5 -22.5t50 -7t49.5 7t44.5 22.5t32.5 40t12.5 60.5zM231 -2q-21 1 -47.5 1.5t-50.5 6.5q-20 -17 -35 -42.5t-15 -56.5q0 -24 12 -41.5 t32.5 -28t47.5 -15.5t57 -5q92 0 146 28.5t54 76.5q0 14 -4 27t-15.5 23t-31.5 16.5t-52 7.5zM396 453q28 -20 42 -52t14 -69q0 -46 -18 -79t-46.5 -54.5t-63 -32t-67.5 -10.5q-29 0 -59 5.5t-57 20.5q-14 -13 -25.5 -30.5t-11.5 -42.5q0 -29 23.5 -43t88.5 -15l110 -2 q33 -1 63 -7t53.5 -19.5t37 -36t13.5 -56.5q0 -33 -16 -62.5t-49 -51.5t-82.5 -35t-115.5 -13q-41 0 -78 6.5t-65 22.5t-45 41t-17 63t17 68.5t46 53.5q-17 11 -27 30t-10 47q0 31 16 59.5t38 46.5q-23 20 -36 52t-13 75q0 46 18.5 79t47 54.5t63.5 32t68 10.5q20 0 36 -2 t29.5 -4.5t26 -4.5t26.5 -2h135v-47h-28q-15 0 -40 1t-42 3zM264 625q43 0 66.5 22t23.5 68h54q0 -29 -8.5 -54t-26 -44.5t-45 -30.5t-65.5 -11q-39 0 -66.5 11t-45 30t-25.5 44.5t-8 54.5h56q0 -46 24 -68t66 -22z"/>
<glyph glyph-name="Gdotaccent" horiz-adv-x="616" unicode="Ġ" d="M350 660q-53 0 -96.5 -19t-74 -58t-47.5 -97.5t-17 -137.5q0 -160 62.5 -232.5t185.5 -72.5q46 0 84 8t61 17v235h-149v54h208v-325q-9 -5 -27.5 -13t-45.5 -15.5t-62 -13t-77 -5.5q-154 0 -230 92t-76 271q0 80 18.5 148t56 117.5t93.5 77.5t131 28q68 0 119.5 -17.5 t92.5 -50.5l-32 -50q-12 9 -28 19.5t-37 19.5t-49 14.5t-64 5.5zM298 829q0 23 14 37t34 14t33 -14t13 -37t-13 -36t-33 -13t-34 13t-14 36z"/>
<glyph glyph-name="gdotaccent" horiz-adv-x="514" unicode="ġ" d="M393 334q0 35 -12.5 59.5t-32 39.5t-44 21.5t-49.5 6.5t-50 -7t-45 -22t-32.5 -39.5t-12.5 -58.5q0 -35 12.5 -60t32 -40.5t44.5 -22.5t50 -7t49.5 7t44.5 22.5t32.5 40t12.5 60.5zM231 -2q-21 1 -47.5 1.5t-50.5 6.5q-20 -17 -35 -42.5t-15 -56.5q0 -24 12 -41.5 t32.5 -28t47.5 -15.5t57 -5q92 0 146 28.5t54 76.5q0 14 -4 27t-15.5 23t-31.5 16.5t-52 7.5zM396 453q28 -20 42 -52t14 -69q0 -46 -18 -79t-46.5 -54.5t-63 -32t-67.5 -10.5q-29 0 -59 5.5t-57 20.5q-14 -13 -25.5 -30.5t-11.5 -42.5q0 -29 23.5 -43t88.5 -15l110 -2 q33 -1 63 -7t53.5 -19.5t37 -36t13.5 -56.5q0 -33 -16 -62.5t-49 -51.5t-82.5 -35t-115.5 -13q-41 0 -78 6.5t-65 22.5t-45 41t-17 63t17 68.5t46 53.5q-17 11 -27 30t-10 47q0 31 16 59.5t38 46.5q-23 20 -36 52t-13 75q0 46 18.5 79t47 54.5t63.5 32t68 10.5q20 0 36 -2 t29.5 -4.5t26 -4.5t26.5 -2h135v-47h-28q-15 0 -40 1t-42 3zM219 640q0 22 13 35.5t33 13.5t32 -13.5t12 -35.5t-12 -35t-32 -13t-33 13t-13 35z"/>
<glyph glyph-name="Gcommaaccent" horiz-adv-x="616" unicode="Ģ" d="M350 660q-53 0 -96.5 -19t-74 -58t-47.5 -97.5t-17 -137.5q0 -160 62.5 -232.5t185.5 -72.5q46 0 84 8t61 17v235h-149v54h208v-325q-9 -5 -27.5 -13t-45.5 -15.5t-62 -13t-77 -5.5q-154 0 -230 92t-76 271q0 80 18.5 148t56 117.5t93.5 77.5t131 28q68 0 119.5 -17.5 t92.5 -50.5l-32 -50q-12 9 -28 19.5t-37 19.5t-49 14.5t-64 5.5zM378 -102q0 -19 -6 -39.5t-15.5 -40.5t-21 -38t-21.5 -32l-32 19q12 21 23.5 47.5t15.5 42.5q-14 5 -26.5 17t-12.5 29q0 21 12.5 35t33.5 14q23 0 36.5 -15t13.5 -39z"/>
<glyph glyph-name="gcommaaccent" horiz-adv-x="514" unicode="ģ" d="M393 334q0 35 -12.5 59.5t-32 39.5t-44 21.5t-49.5 6.5t-50 -7t-45 -22t-32.5 -39.5t-12.5 -58.5q0 -35 12.5 -60t32 -40.5t44.5 -22.5t50 -7t49.5 7t44.5 22.5t32.5 40t12.5 60.5zM231 -2q-21 1 -47.5 1.5t-50.5 6.5q-20 -17 -35 -42.5t-15 -56.5q0 -24 12 -41.5 t32.5 -28t47.5 -15.5t57 -5q92 0 146 28.5t54 76.5q0 14 -4 27t-15.5 23t-31.5 16.5t-52 7.5zM396 453q28 -20 42 -52t14 -69q0 -46 -18 -79t-46.5 -54.5t-63 -32t-67.5 -10.5q-29 0 -59 5.5t-57 20.5q-14 -13 -25.5 -30.5t-11.5 -42.5q0 -29 23.5 -43t88.5 -15l110 -2 q33 -1 63 -7t53.5 -19.5t37 -36t13.5 -56.5q0 -33 -16 -62.5t-49 -51.5t-82.5 -35t-115.5 -13q-41 0 -78 6.5t-65 22.5t-45 41t-17 63t17 68.5t46 53.5q-17 11 -27 30t-10 47q0 31 16 59.5t38 46.5q-23 20 -36 52t-13 75q0 46 18.5 79t47 54.5t63.5 32t68 10.5q20 0 36 -2 t29.5 -4.5t26 -4.5t26.5 -2h135v-47h-28q-15 0 -40 1t-42 3zM219 628q0 19 6 39.5t15.5 40t20.5 37.5t22 32l31 -19q-12 -21 -23.5 -48t-15.5 -43q14 -5 26 -17t12 -27q0 -21 -12 -35t-33 -14q-23 0 -36 15t-13 39z"/>
<glyph glyph-name="Hcircumflex" horiz-adv-x="631" unicode="Ĥ" d="M494 703h63v-703h-63v346h-357v-346h-63v703h63v-298h357v298zM459 761l-136 98l-136 -98l-34 35l143 123h54l143 -123z"/>
<glyph glyph-name="hcircumflex" horiz-adv-x="526" unicode="ĥ" d="M122 410q23 48 67 73.5t110 25.5q81 0 124.5 -47t43.5 -138v-324h-59v316q0 39 -9.5 66t-26 43t-39 23t-49.5 7q-41 0 -71.5 -18.5t-50.5 -48t-30 -66.5t-10 -75v-247h-59v750h59v-340zM62 803l122 116h52l123 -116l-32 -32l-117 91l-117 -91z"/>
<glyph glyph-name="Hbar" horiz-adv-x="655" unicode="Ħ" d="M500 525h-357v-121h357v121zM563 525v-525h-63v346h-357v-346h-63v525h-75v54h75v124h63v-124h357v124h63v-124h87v-54h-87z"/>
<glyph glyph-name="hbar" horiz-adv-x="536" unicode="ħ" d="M132 658h187v-50h-187v-198q23 48 67 73.5t110 25.5q81 0 124.5 -47t43.5 -138v-324h-59v316q0 39 -9.5 66t-26 43t-39 23t-49.5 7q-41 0 -71.5 -18.5t-50.5 -48t-30 -66.5t-10 -75v-247h-59v608h-69v50h69v92h59v-92z"/>
<glyph glyph-name="Itilde" horiz-adv-x="211" unicode="Ĩ" d="M137 0h-63v703h63v-703zM31 886q25 0 44.5 -9t36 -20.5t32.5 -20.5t35 -9q47 0 47 58h53q0 -54 -26.5 -81.5t-74.5 -27.5q-25 0 -43.5 9t-35 20t-32.5 20t-34 9q-49 0 -49 -57h-53q0 52 25 80.5t75 28.5z"/>
<glyph glyph-name="itilde" horiz-adv-x="193" unicode="ĩ" d="M66 496h60v-496h-60v496zM21 694q25 0 43.5 -9t34 -20.5t31 -20.5t34.5 -9q25 0 35 15.5t10 42.5h53q0 -54 -25 -82.5t-73 -28.5q-24 0 -42 9t-34.5 20t-31.5 20t-33 9q-25 0 -35.5 -15t-10.5 -42h-53q0 52 24.5 81.5t72.5 29.5z"/>
<glyph glyph-name="Imacron" horiz-adv-x="211" unicode="Ī" d="M137 0h-63v703h63v-703zM-39 801v54h294v-54h-294z"/>
<glyph glyph-name="imacron" horiz-adv-x="193" unicode="ī" d="M66 496h60v-496h-60v496zM-44 614v53h284v-53h-284z"/>
<glyph glyph-name="Ibreve" horiz-adv-x="211" unicode="Ĭ" d="M137 0h-63v703h63v-703zM109 810q43 0 67 24t24 70h56q0 -29 -9 -55t-27 -46.5t-46 -32.5t-67 -12t-67 12t-46 32t-26.5 46.5t-8.5 55.5h58q0 -46 25 -70t67 -24z"/>
<glyph glyph-name="ibreve" horiz-adv-x="193" unicode="ĭ" d="M66 496h60v-496h-60v496zM95 625q43 0 66.5 22t23.5 68h54q0 -29 -8.5 -54t-26 -44.5t-45 -30.5t-65.5 -11q-39 0 -66.5 11t-45 30t-25.5 44.5t-8 54.5h56q0 -46 24 -68t66 -22z"/>
<glyph glyph-name="Iogonek" horiz-adv-x="211" unicode="Į" d="M140 -181q-7 -1 -13 -1.5t-16 -0.5q-46 0 -72 20.5t-26 53.5q0 35 18.5 60.5t47.5 48.5h-5v703h63v-703q-27 -20 -47.5 -44t-20.5 -52q0 -42 53 -42q13 0 18 1v-44z"/>
<glyph glyph-name="iogonek" horiz-adv-x="193" unicode="į" d="M51 662q0 22 12.5 35.5t32.5 13.5t33 -13.5t13 -35.5q0 -23 -13 -36t-33 -13t-32.5 13.5t-12.5 35.5zM67 496h59v-496q-27 -20 -47 -44t-20 -52q0 -20 12 -31t41 -11q13 0 17 1v-41q-7 -1 -11 -1.5t-14 -0.5q-42 0 -70 17t-28 57q0 32 18 57.5t47 48.5h-4v496z"/>
<glyph glyph-name="Idotaccent" horiz-adv-x="211" unicode="İ" d="M137 0h-63v703h63v-703zM61 829q0 23 14 37t34 14t33 -14t13 -37t-13 -36t-33 -13t-34 13t-14 36z"/>
<glyph glyph-name="dotlessi" horiz-adv-x="193" unicode="ı" d="M66 496h60v-496h-60v496z"/>
<glyph glyph-name="IJ" horiz-adv-x="681" unicode="Ĳ" d="M137 0h-63v703h63v-703zM550 703h63v-520q0 -107 -49.5 -153t-137.5 -46q-37 0 -67 6t-52.5 14.5t-36 16t-17.5 10.5l24 50q4 -2 16.5 -8.5t31.5 -13.5t42.5 -12.5t49.5 -5.5q34 0 59.5 7.5t41.5 25t24 46.5t8 72v511z"/>
<glyph glyph-name="ij" horiz-adv-x="418" unicode="ĳ" d="M51 662q0 22 12.5 35.5t32.5 13.5t33 -13.5t13 -35.5q0 -23 -13 -36t-33 -13t-32.5 13.5t-12.5 35.5zM67 496h59v-496h-59v496zM276 662q0 22 12.5 35.5t32.5 13.5t33 -13.5t13 -35.5q0 -23 -13 -36t-33 -13t-32.5 13.5t-12.5 35.5zM351 -14q0 -105 -39 -157.5 t-127 -52.5q-14 0 -32.5 2.5t-29.5 6.5l7 50q10 -2 23.5 -4t26.5 -2q36 0 58 10.5t34 32.5t16 55.5t4 79.5v489h59v-510z"/>
<glyph glyph-name="Jcircumflex" horiz-adv-x="437" unicode="Ĵ" d="M306 703h63v-520q0 -107 -49.5 -153t-137.5 -46q-37 0 -67 6t-52.5 14.5t-36 16t-17.5 10.5l24 50q4 -2 16.5 -8.5t31.5 -13.5t42.5 -12.5t49.5 -5.5q34 0 59.5 7.5t41.5 25t24 46.5t8 72v511zM473 761l-136 98l-136 -98l-34 35l143 123h54l143 -123z"/>
<glyph glyph-name="jcircumflex" horiz-adv-x="207" unicode="ĵ" d="M140 -14q0 -105 -39 -157.5t-127 -52.5q-14 0 -32.5 2.5t-29.5 6.5l7 50q10 -2 23.5 -4t26.5 -2q36 0 58 10.5t34 32.5t16 55.5t4 79.5v489h59v-510zM-59 612l136 126h48l136 -126l-35 -33l-125 99l-125 -99z"/>
<glyph glyph-name="Kcommaaccent" horiz-adv-x="528" unicode="Ķ" d="M137 0h-63v703h63v-324l293 324h77l-295 -327l316 -376h-83l-308 366v-366zM329 -102q0 -19 -6 -39.5t-15.5 -40.5t-21 -38t-21.5 -32l-32 19q12 21 23.5 47.5t15.5 42.5q-14 5 -26.5 17t-12.5 29q0 21 12.5 35t33.5 14q23 0 36.5 -15t13.5 -39z"/>
<glyph glyph-name="kcommaaccent" horiz-adv-x="435" unicode="ķ" d="M122 276l209 220h75l-215 -222l244 -274h-77l-236 268v-268h-59v750h59v-474zM283 -103q0 -19 -6 -39.5t-15.5 -40t-21 -37.5t-21.5 -32l-31 19q12 21 23.5 48t15.5 43q-14 5 -26 17t-12 27q0 21 12 35t33 14q23 0 36 -15t13 -39z"/>
<glyph glyph-name="kgreenlandic" horiz-adv-x="425" unicode="ĸ" d="M424 0h-76l-226 255v-255h-59v496h59v-234l214 234h74l-220 -233z"/>
<glyph glyph-name="Lacute" horiz-adv-x="484" unicode="Ĺ" d="M139 58h325v-58h-388v703h63v-645zM241 919l26 -58l-233 -99l-20 46z"/>
<glyph glyph-name="lacute" horiz-adv-x="185" unicode="ĺ" d="M122 0h-59v750h59v-750zM-17 832l230 75l18 -60l-233 -63z"/>
<glyph glyph-name="Lcommaaccent" horiz-adv-x="484" unicode="Ļ" d="M139 58h325v-58h-388v703h63v-645zM301 -102q0 -19 -6 -39.5t-15.5 -40.5t-21 -38t-21.5 -32l-32 19q12 21 23.5 47.5t15.5 42.5q-14 5 -26.5 17t-12.5 29q0 21 12.5 35t33.5 14q23 0 36.5 -15t13.5 -39z"/>
<glyph glyph-name="lcommaaccent" horiz-adv-x="185" unicode="ļ" d="M122 0h-59v750h59v-750zM137 -103q0 -19 -6 -39.5t-15.5 -40t-21 -37.5t-21.5 -32l-31 19q12 21 23.5 48t15.5 43q-14 5 -26 17t-12 27q0 21 12 35t33 14q23 0 36 -15t13 -39z"/>
<glyph glyph-name="Lcaron" horiz-adv-x="484" unicode="Ľ" d="M139 58h325v-58h-388v703h63v-645zM304 665q0 26 14.5 40t34.5 14q24 0 36.5 -17t12.5 -45q0 -27 -10.5 -58t-24.5 -58.5t-27.5 -48.5t-19.5 -27l-34 22q6 11 14.5 29t17 37t14.5 37t8 30q-11 3 -23.5 15.5t-12.5 29.5z"/>
<glyph glyph-name="lcaron" horiz-adv-x="266" unicode="ľ" d="M122 0h-59v750h59v-750zM198 701q0 26 14.5 40t34.5 14q24 0 36.5 -17t12.5 -45q0 -27 -10.5 -58t-24.5 -58.5t-27.5 -48.5t-19.5 -27l-34 22q6 11 14.5 29t17 37t14.5 37t8 30q-11 3 -23.5 15.5t-12.5 29.5z"/>
<glyph glyph-name="Ldot" horiz-adv-x="502" unicode="Ŀ" d="M139 58h325v-58h-388v703h63v-645zM303 417q0 24 14 39t35 15t35 -14.5t14 -39.5q0 -24 -14.5 -38t-35.5 -14t-34.5 14t-13.5 38z"/>
<glyph glyph-name="ldot" horiz-adv-x="309" unicode="ŀ" d="M114 0h-59v750h59v-750zM194 373q0 24 14 39t35 15t35 -14.5t14 -39.5q0 -24 -14.5 -38t-35.5 -14t-34.5 14t-13.5 38z"/>
<glyph glyph-name="Lslash" horiz-adv-x="502" unicode="Ł" d="M157 393l200 110v-58l-200 -110v-277h325v-58h-388v302l-84 -46v58l84 45v344h63v-310z"/>
<glyph glyph-name="lslash" horiz-adv-x="228" unicode="ł" d="M143 445l80 64v-63l-80 -64v-382h-59v335l-79 -65v64l79 64v352h59v-305z"/>
<glyph glyph-name="Nacute" horiz-adv-x="632" unicode="Ń" d="M135 594v-594h-61v703h70l353 -591v591h61v-703h-65zM436 919l26 -58l-233 -99l-20 46z"/>
<glyph glyph-name="nacute" horiz-adv-x="526" unicode="ń" d="M118 496l2 -89q23 48 67.5 75t107.5 27q86 0 129 -47t43 -138v-324h-59v316q0 39 -9.5 66t-26 43t-39 23t-49.5 7q-41 0 -71.5 -18.5t-50.5 -48t-30 -66.5t-10 -75v-247h-59v496h55zM366 749l28 -56l-226 -106l-23 45z"/>
<glyph glyph-name="Ncommaaccent" horiz-adv-x="632" unicode="Ņ" d="M135 594v-594h-61v703h70l353 -591v591h61v-703h-65zM364 -102q0 -19 -6 -39.5t-15.5 -40.5t-21 -38t-21.5 -32l-32 19q12 21 23.5 47.5t15.5 42.5q-14 5 -26.5 17t-12.5 29q0 21 12.5 35t33.5 14q23 0 36.5 -15t13.5 -39z"/>
<glyph glyph-name="ncommaaccent" horiz-adv-x="526" unicode="ņ" d="M118 496l2 -89q23 48 67.5 75t107.5 27q86 0 129 -47t43 -138v-324h-59v316q0 39 -9.5 66t-26 43t-39 23t-49.5 7q-41 0 -71.5 -18.5t-50.5 -48t-30 -66.5t-10 -75v-247h-59v496h55zM317 -103q0 -19 -6 -39.5t-15.5 -40t-21 -37.5t-21.5 -32l-31 19q12 21 23.5 48 t15.5 43q-14 5 -26 17t-12 27q0 21 12 35t33 14q23 0 36 -15t13 -39z"/>
<glyph glyph-name="Ncaron" horiz-adv-x="632" unicode="Ň" d="M135 594v-594h-61v703h70l353 -591v591h61v-703h-65zM295 762l-143 122l34 36l136 -99l136 99l34 -36l-143 -122h-54z"/>
<glyph glyph-name="ncaron" horiz-adv-x="526" unicode="ň" d="M118 496l2 -89q23 48 67.5 75t107.5 27q86 0 129 -47t43 -138v-324h-59v316q0 39 -9.5 66t-26 43t-39 23t-49.5 7q-41 0 -71.5 -18.5t-50.5 -48t-30 -66.5t-10 -75v-247h-59v496h55zM261 638l124 99l35 -33l-135 -126h-49l-136 126l36 33z"/>
<glyph glyph-name="napostrophe" horiz-adv-x="564" unicode="ŉ" d="M156 496l2 -89q23 48 67.5 75t107.5 27q86 0 129 -47t43 -138v-324h-59v316q0 39 -9.5 66t-26 43t-39 23t-49.5 7q-41 0 -71.5 -18.5t-50.5 -48t-30 -66.5t-10 -75v-247h-59v496h55zM20 696q0 26 14.5 40t34.5 14q24 0 36.5 -17t12.5 -45q0 -27 -11 -59t-25 -60 t-27.5 -49.5t-19.5 -27.5l-34 22q6 11 15 28.5t17 37t14.5 37.5t8.5 31q-14 4 -25 16t-11 32z"/>
<glyph glyph-name="Eng" horiz-adv-x="624" unicode="Ŋ" d="M491 373q0 152 -43 219.5t-122 67.5q-38 0 -72 -13.5t-60 -40.5t-41.5 -68t-15.5 -95v-443h-63v703h60l4 -84q15 20 34 38.5t43 32t52.5 21.5t62.5 8q109 0 167 -82.5t58 -263.5q0 -110 -14.5 -184t-41.5 -119t-65 -64t-84 -19q-17 0 -29.5 1.5t-33.5 7.5l11 53 q25 -7 51 -7q35 0 61.5 19t44.5 59t27 102.5t9 150.5z"/>
<glyph glyph-name="eng" horiz-adv-x="526" unicode="ŋ" d="M467 -14q0 -105 -39 -157.5t-127 -52.5q-14 0 -32.5 2.5t-29.5 6.5l7 50q10 -2 23.5 -4t26.5 -2q36 0 58 10.5t34 32.5t16 55.5t4 79.5v309q0 39 -9.5 66t-26 43t-39 23t-49.5 7q-41 0 -71.5 -18.5t-50.5 -48t-30 -66.5t-10 -75v-247h-59v496h55l2 -89q23 48 67.5 75 t107.5 27q86 0 129 -47t43 -138v-338z"/>
<glyph glyph-name="Omacron" horiz-adv-x="698" unicode="Ō" d="M117 352q0 -70 14 -126.5t43 -97t72.5 -62.5t102.5 -22t102.5 22t72.5 62.5t43 97t14 126.5t-14 126.5t-43 96.5t-72.5 62t-102.5 22t-102.5 -22t-72.5 -62t-43 -96.5t-14 -126.5zM51 352q0 82 19.5 149.5t57.5 115.5t94 74.5t128 26.5t127.5 -26.5t93 -74.5t57 -115.5 t19.5 -149.5t-19.5 -149.5t-57 -116t-93.5 -75t-128 -26.5t-128 26.5t-93.5 75t-57 116t-19.5 149.5zM208 801v54h294v-54h-294z"/>
<glyph glyph-name="omacron" horiz-adv-x="545" unicode="ō" d="M272 509q57 0 99.5 -19.5t71 -54t43 -82t14.5 -104.5t-15 -105t-43.5 -82.5t-71.5 -53.5t-98 -19q-56 0 -99 19t-71.5 53.5t-43 82.5t-14.5 105t15 104.5t43.5 82t71 54t98.5 19.5zM272 43q86 0 127 55.5t41 150.5q0 93 -41.5 149.5t-126.5 56.5q-84 0 -125.5 -56.5 t-41.5 -149.5q0 -96 41 -151t126 -55zM133 614v53h284v-53h-284z"/>
<glyph glyph-name="Obreve" horiz-adv-x="698" unicode="Ŏ" d="M117 352q0 -70 14 -126.5t43 -97t72.5 -62.5t102.5 -22t102.5 22t72.5 62.5t43 97t14 126.5t-14 126.5t-43 96.5t-72.5 62t-102.5 22t-102.5 -22t-72.5 -62t-43 -96.5t-14 -126.5zM51 352q0 82 19.5 149.5t57.5 115.5t94 74.5t128 26.5t127.5 -26.5t93 -74.5t57 -115.5 t19.5 -149.5t-19.5 -149.5t-57 -116t-93.5 -75t-128 -26.5t-128 26.5t-93.5 75t-57 116t-19.5 149.5zM356 810q43 0 67 24t24 70h56q0 -29 -9 -55t-27 -46.5t-46 -32.5t-67 -12t-67 12t-46 32t-26.5 46.5t-8.5 55.5h58q0 -46 25 -70t67 -24z"/>
<glyph glyph-name="obreve" horiz-adv-x="545" unicode="ŏ" d="M272 509q57 0 99.5 -19.5t71 -54t43 -82t14.5 -104.5t-15 -105t-43.5 -82.5t-71.5 -53.5t-98 -19q-56 0 -99 19t-71.5 53.5t-43 82.5t-14.5 105t15 104.5t43.5 82t71 54t98.5 19.5zM272 43q86 0 127 55.5t41 150.5q0 93 -41.5 149.5t-126.5 56.5q-84 0 -125.5 -56.5 t-41.5 -149.5q0 -96 41 -151t126 -55zM276 625q43 0 66.5 22t23.5 68h54q0 -29 -8.5 -54t-26 -44.5t-45 -30.5t-65.5 -11q-39 0 -66.5 11t-45 30t-25.5 44.5t-8 54.5h56q0 -46 24 -68t66 -22z"/>
<glyph glyph-name="Ohungarumlaut" horiz-adv-x="698" unicode="Ő" d="M117 352q0 -70 14 -126.5t43 -97t72.5 -62.5t102.5 -22t102.5 22t72.5 62.5t43 97t14 126.5t-14 126.5t-43 96.5t-72.5 62t-102.5 22t-102.5 -22t-72.5 -62t-43 -96.5t-14 -126.5zM51 352q0 82 19.5 149.5t57.5 115.5t94 74.5t128 26.5t127.5 -26.5t93 -74.5t57 -115.5 t19.5 -149.5t-19.5 -149.5t-57 -116t-93.5 -75t-128 -26.5t-128 26.5t-93.5 75t-57 116t-19.5 149.5zM199 795l139 147l42 -43l-146 -139zM398 795l139 147l42 -43l-146 -139z"/>
<glyph glyph-name="ohungarumlaut" horiz-adv-x="545" unicode="ő" d="M272 509q57 0 99.5 -19.5t71 -54t43 -82t14.5 -104.5t-15 -105t-43.5 -82.5t-71.5 -53.5t-98 -19q-56 0 -99 19t-71.5 53.5t-43 82.5t-14.5 105t15 104.5t43.5 82t71 54t98.5 19.5zM272 43q86 0 127 55.5t41 150.5q0 93 -41.5 149.5t-126.5 56.5q-84 0 -125.5 -56.5 t-41.5 -149.5q0 -96 41 -151t126 -55zM122 600l141 160l44 -40l-148 -153zM321 600l141 160l44 -40l-148 -153z"/>
<glyph glyph-name="OE" horiz-adv-x="853" unicode="Œ" d="M447 59v586h-79q-129 0 -191 -74.5t-62 -221.5t61.5 -218.5t189.5 -71.5h81zM833 703v-59h-324v-249h253v-58h-253v-278h334v-59h-477q-161 0 -238.5 88t-77.5 261q0 81 19.5 146.5t59 111.5t99 71t139.5 25h466z"/>
<glyph glyph-name="oe" horiz-adv-x="905" unicode="œ" d="M804 281q-6 85 -40 130t-107 45q-75 0 -112 -46t-45 -129h304zM272 43q86 0 127.5 55.5t41.5 150.5q0 93 -42 149.5t-127 56.5q-84 0 -125.5 -56.5t-41.5 -149.5q0 -95 41 -150.5t126 -55.5zM685 43q45 0 77 10t51 18l18 -47q-15 -10 -55 -22.5t-97 -12.5 q-84 0 -135.5 33.5t-74.5 89.5q-26 -57 -75.5 -90t-121.5 -33q-56 0 -99 19t-71.5 53.5t-43 82.5t-14.5 105t15 104.5t43.5 82t71 54t98.5 19.5q77 0 125 -34t73 -92v-4q23 61 70 95.5t118 34.5q48 0 86 -14.5t64.5 -47t40.5 -83t14 -122.5v-12h-364q5 -87 49.5 -137 t136.5 -50z"/>
<glyph glyph-name="Racute" horiz-adv-x="541" unicode="Ŕ" d="M419 495q0 70 -39.5 111t-128.5 41h-116v-303h120q85 0 124.5 41t39.5 110zM523 0h-73l-172 289h-143v-289h-61v703h185q63 0 105.5 -18t68.5 -47.5t37.5 -66t11.5 -73.5q0 -41 -10.5 -73t-29.5 -56t-44 -41.5t-53 -27.5zM358 919l26 -58l-233 -99l-20 46z"/>
<glyph glyph-name="racute" horiz-adv-x="338" unicode="ŕ" d="M296 501q11 0 24 -1t17 -3l-5 -54q-8 2 -19 2.5t-21 0.5q-41 0 -72 -16.5t-52 -46.5t-32 -72t-11 -93v-218h-59v496h55l2 -105q20 48 64.5 79t108.5 31zM298 749l28 -56l-226 -106l-23 45z"/>
<glyph glyph-name="Rcommaaccent" horiz-adv-x="541" unicode="Ŗ" d="M419 495q0 70 -39.5 111t-128.5 41h-116v-303h120q85 0 124.5 41t39.5 110zM523 0h-73l-172 289h-143v-289h-61v703h185q63 0 105.5 -18t68.5 -47.5t37.5 -66t11.5 -73.5q0 -41 -10.5 -73t-29.5 -56t-44 -41.5t-53 -27.5zM331 -102q0 -19 -6 -39.5t-15.5 -40.5t-21 -38 t-21.5 -32l-32 19q12 21 23.5 47.5t15.5 42.5q-14 5 -26.5 17t-12.5 29q0 21 12.5 35t33.5 14q23 0 36.5 -15t13.5 -39z"/>
<glyph glyph-name="rcommaaccent" horiz-adv-x="338" unicode="ŗ" d="M296 501q11 0 24 -1t17 -3l-5 -54q-8 2 -19 2.5t-21 0.5q-41 0 -72 -16.5t-52 -46.5t-32 -72t-11 -93v-218h-59v496h55l2 -105q20 48 64.5 79t108.5 31zM148 -103q0 -19 -6 -39.5t-15.5 -40t-21 -37.5t-21.5 -32l-31 19q12 21 23.5 48t15.5 43q-14 5 -26 17t-12 27 q0 21 12 35t33 14q23 0 36 -15t13 -39z"/>
<glyph glyph-name="Rcaron" horiz-adv-x="541" unicode="Ř" d="M419 495q0 70 -39.5 111t-128.5 41h-116v-303h120q85 0 124.5 41t39.5 110zM523 0h-73l-172 289h-143v-289h-61v703h185q63 0 105.5 -18t68.5 -47.5t37.5 -66t11.5 -73.5q0 -41 -10.5 -73t-29.5 -56t-44 -41.5t-53 -27.5zM224 762l-143 122l34 36l136 -99l136 99l34 -36 l-143 -122h-54z"/>
<glyph glyph-name="rcaron" horiz-adv-x="338" unicode="ř" d="M296 501q11 0 24 -1t17 -3l-5 -54q-8 2 -19 2.5t-21 0.5q-41 0 -72 -16.5t-52 -46.5t-32 -72t-11 -93v-218h-59v496h55l2 -105q20 48 64.5 79t108.5 31zM192 638l124 99l35 -33l-135 -126h-49l-136 126l36 33z"/>
<glyph glyph-name="Sacute" horiz-adv-x="522" unicode="Ś" d="M229 337q-84 26 -129 71.5t-45 114.5q0 41 13.5 77t41.5 63t70 42.5t99 15.5q27 0 55 -4t54 -11t48 -16.5t37 -19.5l-24 -53q-23 15 -69 30t-105 15q-76 0 -116 -35t-40 -96q0 -24 6.5 -43t21.5 -35t40 -29t62 -26l72 -25q86 -30 124.5 -75t38.5 -116q0 -41 -14.5 -77 t-43 -62.5t-72 -42t-100.5 -15.5q-43 0 -80 7t-66.5 17t-50 20.5t-29.5 17.5l26 53q14 -9 33.5 -18.5t44.5 -18t56 -14t67 -5.5q74 0 119 33t45 100q0 50 -29 84t-98 56zM365 919l26 -58l-233 -99l-20 46z"/>
<glyph glyph-name="sacute" horiz-adv-x="428" unicode="ś" d="M51 82q22 -13 63.5 -27t98.5 -14q36 0 60.5 7t39.5 19t21.5 28t6.5 33q0 36 -21.5 58.5t-83.5 33.5l-54 10q-32 6 -58 15.5t-45.5 25.5t-30 38.5t-10.5 55.5q0 69 51 106.5t133 37.5q50 0 90.5 -11t63.5 -23l-21 -49q-23 12 -55.5 21t-74.5 9q-66 0 -98 -23t-32 -61 q0 -19 5 -33t18 -24t34 -17.5t53 -13.5l55 -10q60 -12 99.5 -44t39.5 -93q0 -68 -48.5 -108t-136.5 -40q-62 0 -112 15t-73 30zM321 749l28 -56l-226 -106l-23 45z"/>
<glyph glyph-name="Scircumflex" horiz-adv-x="522" unicode="Ŝ" d="M229 337q-84 26 -129 71.5t-45 114.5q0 41 13.5 77t41.5 63t70 42.5t99 15.5q27 0 55 -4t54 -11t48 -16.5t37 -19.5l-24 -53q-23 15 -69 30t-105 15q-76 0 -116 -35t-40 -96q0 -24 6.5 -43t21.5 -35t40 -29t62 -26l72 -25q86 -30 124.5 -75t38.5 -116q0 -41 -14.5 -77 t-43 -62.5t-72 -42t-100.5 -15.5q-43 0 -80 7t-66.5 17t-50 20.5t-29.5 17.5l26 53q14 -9 33.5 -18.5t44.5 -18t56 -14t67 -5.5q74 0 119 33t45 100q0 50 -29 84t-98 56zM409 761l-136 98l-136 -98l-34 35l143 123h54l143 -123z"/>
<glyph glyph-name="scircumflex" horiz-adv-x="428" unicode="ŝ" d="M51 82q22 -13 63.5 -27t98.5 -14q36 0 60.5 7t39.5 19t21.5 28t6.5 33q0 36 -21.5 58.5t-83.5 33.5l-54 10q-32 6 -58 15.5t-45.5 25.5t-30 38.5t-10.5 55.5q0 69 51 106.5t133 37.5q50 0 90.5 -11t63.5 -23l-21 -49q-23 12 -55.5 21t-74.5 9q-66 0 -98 -23t-32 -61 q0 -19 5 -33t18 -24t34 -17.5t53 -13.5l55 -10q60 -12 99.5 -44t39.5 -93q0 -68 -48.5 -108t-136.5 -40q-62 0 -112 15t-73 30zM63 612l136 126h48l136 -126l-35 -33l-125 99l-125 -99z"/>
<glyph glyph-name="Scedilla" horiz-adv-x="522" unicode="Ş" d="M229 337q-84 26 -129 71.5t-45 114.5q0 41 13.5 77t41.5 63t70 42.5t99 15.5q27 0 55 -4t54 -11t48 -16.5t37 -19.5l-24 -53q-23 15 -69 30t-105 15q-76 0 -116 -35t-40 -96q0 -24 6.5 -43t21.5 -35t40 -29t62 -26l72 -25q86 -30 124.5 -75t38.5 -116q0 -39 -13 -73 t-38.5 -60.5t-64.5 -43t-90 -19.5l-7 -35q50 -4 74.5 -29t24.5 -61q0 -48 -34 -74t-89 -26q-42 0 -65.5 7t-28.5 9l10 45q17 -5 35 -9.5t41 -4.5q35 0 54.5 11.5t19.5 39.5q0 22 -16.5 34.5t-53.5 12.5q-8 0 -17 -0.5t-17 -2.5l18 83q-38 2 -70.5 9.5t-58 17t-43.5 19 t-27 15.5l26 53q14 -9 33.5 -18.5t44.5 -18t56 -14t67 -5.5q74 0 119 33t45 100q0 50 -29 84t-98 56z"/>
<glyph glyph-name="scedilla" horiz-adv-x="428" unicode="ş" d="M319 -136q0 -46 -35.5 -71.5t-87.5 -25.5q-42 0 -65.5 7.5t-28.5 9.5l11 42q17 -5 35 -10t40 -5q35 0 56.5 12t21.5 38q0 23 -18.5 35.5t-56.5 12.5q-14 0 -30 -3l18 85q-51 4 -90.5 17t-59.5 26l22 48q22 -13 63.5 -27t98.5 -14q36 0 60.5 7t39.5 19t21.5 28t6.5 33 q0 36 -21.5 58.5t-83.5 33.5l-54 10q-32 6 -58 15.5t-45.5 25.5t-30 38.5t-10.5 55.5q0 69 51 106.5t133 37.5q50 0 90.5 -11t63.5 -23l-21 -49q-23 12 -55.5 21t-74.5 9q-66 0 -98 -23t-32 -61q0 -19 5 -33t18 -24t34 -17.5t53 -13.5l55 -10q60 -12 99.5 -44t39.5 -93 q0 -66 -45 -105t-126 -42l-8 -39q48 -4 73.5 -27.5t25.5 -59.5z"/>
<glyph glyph-name="Scaron" horiz-adv-x="522" unicode="Š" d="M229 337q-84 26 -129 71.5t-45 114.5q0 41 13.5 77t41.5 63t70 42.5t99 15.5q27 0 55 -4t54 -11t48 -16.5t37 -19.5l-24 -53q-23 15 -69 30t-105 15q-76 0 -116 -35t-40 -96q0 -24 6.5 -43t21.5 -35t40 -29t62 -26l72 -25q86 -30 124.5 -75t38.5 -116q0 -41 -14.5 -77 t-43 -62.5t-72 -42t-100.5 -15.5q-43 0 -80 7t-66.5 17t-50 20.5t-29.5 17.5l26 53q14 -9 33.5 -18.5t44.5 -18t56 -14t67 -5.5q74 0 119 33t45 100q0 50 -29 84t-98 56zM253 762l-143 122l34 36l136 -99l136 99l34 -36l-143 -122h-54z"/>
<glyph glyph-name="scaron" horiz-adv-x="428" unicode="š" d="M51 82q22 -13 63.5 -27t98.5 -14q36 0 60.5 7t39.5 19t21.5 28t6.5 33q0 36 -21.5 58.5t-83.5 33.5l-54 10q-32 6 -58 15.5t-45.5 25.5t-30 38.5t-10.5 55.5q0 69 51 106.5t133 37.5q50 0 90.5 -11t63.5 -23l-21 -49q-23 12 -55.5 21t-74.5 9q-66 0 -98 -23t-32 -61 q0 -19 5 -33t18 -24t34 -17.5t53 -13.5l55 -10q60 -12 99.5 -44t39.5 -93q0 -68 -48.5 -108t-136.5 -40q-62 0 -112 15t-73 30zM218 638l124 99l35 -33l-135 -126h-49l-136 126l36 33z"/>
<glyph glyph-name="uni0162" horiz-adv-x="528" unicode="Ţ" d="M233 644h-216v59h494v-59h-215v-644h-6l-10 -49q50 -4 74.5 -29t24.5 -61q0 -48 -34 -74t-89 -26q-42 0 -65.5 7t-28.5 9l10 45q17 -5 35 -9.5t41 -4.5q35 0 54.5 11.5t19.5 39.5q0 22 -16.5 34.5t-53.5 12.5q-8 0 -17 -0.5t-17 -2.5l21 97h-6v644z"/>
<glyph glyph-name="uni0163" horiz-adv-x="357" unicode="ţ" d="M333 -135q0 -46 -35.5 -72t-87.5 -26q-42 0 -65.5 7.5t-28.5 9.5l11 42q17 -5 35 -10t40 -5q35 0 56.5 12.5t21.5 38.5q0 22 -18.5 34.5t-56.5 12.5q-14 0 -30 -3l21 99q-42 15 -59.5 48.5t-17.5 84.5v306h-103v52h103v146l59 16v-162h151v-52h-151v-289q0 -34 7 -55 t21 -33t34.5 -16t46.5 -4q14 0 26 1t21 3l6 -48q-10 -3 -30 -6t-44 -3q-6 0 -12 0.5t-11 0.5l-9 -44q49 -4 74 -27.5t25 -58.5z"/>
<glyph glyph-name="Tcaron" horiz-adv-x="528" unicode="Ť" d="M233 644h-216v59h494v-59h-215v-644h-63v644zM240 762l-143 122l34 36l136 -99l136 99l34 -36l-143 -122h-54z"/>
<glyph glyph-name="tcaron" horiz-adv-x="357" unicode="ť" d="M287 47q14 0 26 1t21 3l6 -48q-10 -3 -30 -6t-44 -3q-80 0 -113.5 38t-33.5 106v306h-103v52h103v146l59 16v-162h151v-52h-151v-289q0 -34 7 -55t21 -33t34.5 -16t46.5 -4zM379 696q0 -17 -5.5 -38t-14 -43t-18.5 -42t-19 -34l-32 17q4 9 9.5 23t10.5 29.5t8.5 29 t3.5 20.5q-14 4 -25 16.5t-11 29.5q0 23 13.5 36.5t32.5 13.5q23 0 35 -16t12 -42z"/>
<glyph glyph-name="Tbar" horiz-adv-x="528" unicode="Ŧ" d="M233 342h-167v55h167v247h-216v59h494v-59h-215v-247h167v-55h-167v-342h-63v342z"/>
<glyph glyph-name="tbar" horiz-adv-x="357" unicode="ŧ" d="M178 257v-102q0 -34 7 -55t21 -33t34.5 -16t46.5 -4q14 0 26 1t21 3l6 -48q-10 -3 -30 -6t-44 -3q-80 0 -113.5 38t-33.5 106v119h-103v51h103v136h-103v52h103v146l59 16v-162h151v-52h-151v-136h151v-51h-151z"/>
<glyph glyph-name="Utilde" horiz-adv-x="618" unicode="Ũ" d="M307 -16q-72 0 -118.5 21.5t-74.5 60.5t-39 92.5t-11 117.5v427h63v-413q0 -71 11 -119t33.5 -76.5t57 -40.5t80.5 -12t80 12t56.5 40.5t34 76t11.5 118.5v414h63v-428q0 -64 -11.5 -117.5t-40 -92t-76 -60t-119.5 -21.5zM239 886q25 0 44.5 -9t36 -20.5t32.5 -20.5 t35 -9q47 0 47 58h53q0 -54 -26.5 -81.5t-74.5 -27.5q-25 0 -43.5 9t-35 20t-32.5 20t-34 9q-49 0 -49 -57h-53q0 52 25 80.5t75 28.5z"/>
<glyph glyph-name="utilde" horiz-adv-x="529" unicode="ũ" d="M407 496h59v-496h-55l-2 92q-24 -48 -67.5 -76t-112.5 -28q-82 0 -124 46.5t-42 137.5v324h59v-316q0 -39 9 -65.5t25.5 -42.5t39 -23t49.5 -7q39 0 69 18t51 47t31.5 65.5t10.5 74.5v249zM193 694q25 0 43.5 -9t34 -20.5t31 -20.5t34.5 -9q25 0 35 15.5t10 42.5h53 q0 -54 -25 -82.5t-73 -28.5q-24 0 -42 9t-34.5 20t-31.5 20t-33 9q-25 0 -35.5 -15t-10.5 -42h-53q0 52 24.5 81.5t72.5 29.5z"/>
<glyph glyph-name="Umacron" horiz-adv-x="618" unicode="Ū" d="M307 -16q-72 0 -118.5 21.5t-74.5 60.5t-39 92.5t-11 117.5v427h63v-413q0 -71 11 -119t33.5 -76.5t57 -40.5t80.5 -12t80 12t56.5 40.5t34 76t11.5 118.5v414h63v-428q0 -64 -11.5 -117.5t-40 -92t-76 -60t-119.5 -21.5zM161 801v54h294v-54h-294z"/>
<glyph glyph-name="umacron" horiz-adv-x="529" unicode="ū" d="M407 496h59v-496h-55l-2 92q-24 -48 -67.5 -76t-112.5 -28q-82 0 -124 46.5t-42 137.5v324h59v-316q0 -39 9 -65.5t25.5 -42.5t39 -23t49.5 -7q39 0 69 18t51 47t31.5 65.5t10.5 74.5v249zM126 614v53h284v-53h-284z"/>
<glyph glyph-name="Ubreve" horiz-adv-x="618" unicode="Ŭ" d="M307 -16q-72 0 -118.5 21.5t-74.5 60.5t-39 92.5t-11 117.5v427h63v-413q0 -71 11 -119t33.5 -76.5t57 -40.5t80.5 -12t80 12t56.5 40.5t34 76t11.5 118.5v414h63v-428q0 -64 -11.5 -117.5t-40 -92t-76 -60t-119.5 -21.5zM313 810q43 0 67 24t24 70h56q0 -29 -9 -55 t-27 -46.5t-46 -32.5t-67 -12t-67 12t-46 32t-26.5 46.5t-8.5 55.5h58q0 -46 25 -70t67 -24z"/>
<glyph glyph-name="ubreve" horiz-adv-x="529" unicode="ŭ" d="M407 496h59v-496h-55l-2 92q-24 -48 -67.5 -76t-112.5 -28q-82 0 -124 46.5t-42 137.5v324h59v-316q0 -39 9 -65.5t25.5 -42.5t39 -23t49.5 -7q39 0 69 18t51 47t31.5 65.5t10.5 74.5v249zM268 625q43 0 66.5 22t23.5 68h54q0 -29 -8.5 -54t-26 -44.5t-45 -30.5 t-65.5 -11q-39 0 -66.5 11t-45 30t-25.5 44.5t-8 54.5h56q0 -46 24 -68t66 -22z"/>
<glyph glyph-name="Uring" horiz-adv-x="618" unicode="Ů" d="M307 -16q-72 0 -118.5 21.5t-74.5 60.5t-39 92.5t-11 117.5v427h63v-413q0 -71 11 -119t33.5 -76.5t57 -40.5t80.5 -12t80 12t56.5 40.5t34 76t11.5 118.5v414h63v-428q0 -64 -11.5 -117.5t-40 -92t-76 -60t-119.5 -21.5zM378 821q0 29 -17 45.5t-44 16.5 q-25 0 -42.5 -16.5t-17.5 -45.5t17 -45.5t43 -16.5q27 0 44 16t17 46zM423 822q0 -47 -30 -75t-75 -28q-46 0 -76.5 28t-30.5 74q0 47 31.5 75t75.5 28q46 0 75.5 -28t29.5 -74z"/>
<glyph glyph-name="uring" horiz-adv-x="529" unicode="ů" d="M407 496h59v-496h-55l-2 92q-24 -48 -67.5 -76t-112.5 -28q-82 0 -124 46.5t-42 137.5v324h59v-316q0 -39 9 -65.5t25.5 -42.5t39 -23t49.5 -7q39 0 69 18t51 47t31.5 65.5t10.5 74.5v249zM330 673q0 29 -17 45.5t-44 16.5q-25 0 -42.5 -16t-17.5 -46q0 -29 17 -45.5 t43 -16.5q27 0 44 16.5t17 45.5zM375 674q0 -48 -29.5 -75.5t-75.5 -27.5q-47 0 -77 27.5t-30 74.5q0 48 31 75.5t76 27.5q47 0 76 -27.5t29 -74.5z"/>
<glyph glyph-name="Uhungarumlaut" horiz-adv-x="618" unicode="Ű" d="M307 -16q-72 0 -118.5 21.5t-74.5 60.5t-39 92.5t-11 117.5v427h63v-413q0 -71 11 -119t33.5 -76.5t57 -40.5t80.5 -12t80 12t56.5 40.5t34 76t11.5 118.5v414h63v-428q0 -64 -11.5 -117.5t-40 -92t-76 -60t-119.5 -21.5zM154 795l139 147l42 -43l-146 -139zM353 795 l139 147l42 -43l-146 -139z"/>
<glyph glyph-name="uhungarumlaut" horiz-adv-x="529" unicode="ű" d="M407 496h59v-496h-55l-2 92q-24 -48 -67.5 -76t-112.5 -28q-82 0 -124 46.5t-42 137.5v324h59v-316q0 -39 9 -65.5t25.5 -42.5t39 -23t49.5 -7q39 0 69 18t51 47t31.5 65.5t10.5 74.5v249zM101 600l141 160l44 -40l-148 -153zM300 600l141 160l44 -40l-148 -153z"/>
<glyph glyph-name="Uogonek" horiz-adv-x="618" unicode="Ų" d="M376 -181q-7 -1 -13 -1.5t-16 -0.5q-46 0 -72 20.5t-26 53.5q0 29 12.5 51.5t33.5 41.5q-68 2 -112.5 24t-71 60.5t-37 91.5t-10.5 116v427h63v-413q0 -71 11 -119t33.5 -76.5t57 -40.5t80.5 -12t80 12t56.5 40.5t34 76t11.5 118.5v414h63v-428q0 -59 -9.5 -108.5 t-32.5 -87t-61 -61.5t-95 -31q-21 -18 -36 -39t-15 -44q0 -42 53 -42q13 0 18 1v-44z"/>
<glyph glyph-name="uogonek" horiz-adv-x="529" unicode="ų" d="M407 496h59v-496q-27 -20 -47 -44t-20 -52q0 -20 12 -31t41 -11q13 0 17 1v-41q-7 -1 -11 -1.5t-14 -0.5q-42 0 -70 17t-28 57q0 32 18 57.5t47 48.5l-2 92q-24 -48 -67.5 -76t-112.5 -28q-82 0 -124 46.5t-42 137.5v324h59v-316q0 -39 9 -65.5t25.5 -42.5t39 -23 t49.5 -7q39 0 69 18t51 47t31.5 65.5t10.5 74.5v249z"/>
<glyph glyph-name="Wcircumflex" horiz-adv-x="762" unicode="Ŵ" d="M236 0h-73l-153 703h66l128 -602l142 585h70l138 -584l133 601h65l-161 -703h-74l-137 577zM517 761l-136 98l-136 -98l-34 35l143 123h54l143 -123z"/>
<glyph glyph-name="wcircumflex" horiz-adv-x="652" unicode="ŵ" d="M3 496h63l122 -428l107 413h67l107 -413l121 428h59l-149 -496h-67l-106 404l-107 -404h-67zM168 612l136 126h48l136 -126l-35 -33l-125 99l-125 -99z"/>
<glyph glyph-name="Ycircumflex" horiz-adv-x="516" unicode="Ŷ" d="M224 307l-221 396h72l183 -336l187 336h68l-226 -394v-309h-63v307zM396 761l-136 98l-136 -98l-34 35l143 123h54l143 -123z"/>
<glyph glyph-name="ycircumflex" horiz-adv-x="458" unicode="ŷ" d="M4 496h68l157 -400l160 400h65l-299 -716h-62l103 244zM73 612l136 126h48l136 -126l-35 -33l-125 99l-125 -99z"/>
<glyph glyph-name="Ydieresis" horiz-adv-x="516" unicode="Ÿ" d="M224 307l-221 396h72l183 -336l187 336h68l-226 -394v-309h-63v307zM313 834q0 24 14 38t34 14q21 0 35 -14t14 -38q0 -23 -14 -37.5t-35 -14.5q-20 0 -34 14.5t-14 37.5zM115 834q0 24 14 38t34 14q21 0 34.5 -14t13.5 -38q0 -23 -13.5 -37.5t-34.5 -14.5 q-20 0 -34 14.5t-14 37.5z"/>
<glyph glyph-name="Zacute" horiz-adv-x="543" unicode="Ź" d="M32 52l395 593h-385v58h461v-52l-396 -593h408v-58h-483v52zM386 919l26 -58l-233 -99l-20 46z"/>
<glyph glyph-name="zacute" horiz-adv-x="446" unicode="ź" d="M38 41l294 404h-290v51h367v-42l-297 -404h300v-50h-374v41zM334 749l28 -56l-226 -106l-23 45z"/>
<glyph glyph-name="Zdotaccent" horiz-adv-x="543" unicode="Ż" d="M32 52l395 593h-385v58h461v-52l-396 -593h408v-58h-483v52zM228 829q0 23 14 37t34 14t33 -14t13 -37t-13 -36t-33 -13t-34 13t-14 36z"/>
<glyph glyph-name="zdotaccent" horiz-adv-x="446" unicode="ż" d="M38 41l294 404h-290v51h367v-42l-297 -404h300v-50h-374v41zM184 640q0 22 13 35.5t33 13.5t32 -13.5t12 -35.5t-12 -35t-32 -13t-33 13t-13 35z"/>
<glyph glyph-name="Zcaron" horiz-adv-x="543" unicode="Ž" d="M32 52l395 593h-385v58h461v-52l-396 -593h408v-58h-483v52zM255 762l-143 122l34 36l136 -99l136 99l34 -36l-143 -122h-54z"/>
<glyph glyph-name="zcaron" horiz-adv-x="446" unicode="ž" d="M38 41l294 404h-290v51h367v-42l-297 -404h300v-50h-374v41zM239 638l124 99l35 -33l-135 -126h-49l-136 126l36 33z"/>
<glyph glyph-name="longs" horiz-adv-x="200" unicode="ſ" d="M63 550q0 46 8.5 84t29 65.5t53 42.5t80.5 15q26 0 47.5 -3.5t32.5 -6.5l-8 -51q-8 2 -25.5 5t-32.5 3q-37 0 -61 -9t-38.5 -29t-20 -51.5t-5.5 -77.5v-537h-60v550z"/>
<glyph glyph-name="florin" horiz-adv-x="556" unicode="ƒ" d="M231 378h-101l4 50h102l11 129q8 94 56.5 147t141.5 53q29 0 51 -4.5t33 -7.5l-14 -51q-8 2 -27 5.5t-39 3.5q-39 0 -65.5 -11.5t-43 -33.5t-25 -54.5t-11.5 -73.5l-8 -102h155l-3 -50h-157l-35 -406q-9 -100 -55 -151.5t-139 -51.5q-8 0 -19 1t-22 2.5t-21 4t-17 4.5 l11 49q15 -3 34 -6t33 -3q36 0 60.5 10t40 31t23.5 54.5t12 80.5z"/>
<glyph glyph-name="uni01A0" horiz-adv-x="667" unicode="Ơ" d="M86 352q0 -70 14 -126.5t43 -97t72.5 -62.5t102.5 -22t102.5 22t72.5 62.5t43 97t14 126.5t-14 126.5t-43 96.5t-72.5 62t-102.5 22t-102.5 -22t-72.5 -62t-43 -96.5t-14 -126.5zM20 352q0 82 19.5 149.5t57.5 115.5t94 74.5t128 26.5q44 0 81 -10t68 -28q35 1 48.5 16.5 t13.5 41.5q0 24 -6.5 43.5t-14.5 32.5h63q7 -14 12.5 -37t5.5 -41q0 -78 -70 -97q48 -49 72 -122t24 -165q0 -82 -19.5 -149.5t-57 -116t-93.5 -75t-128 -26.5t-128 26.5t-93.5 75t-57 116t-19.5 149.5z"/>
<glyph glyph-name="uni01A1" horiz-adv-x="545" unicode="ơ" d="M272 43q86 0 127 55.5t41 150.5q0 93 -41.5 149.5t-126.5 56.5q-84 0 -125.5 -56.5t-41.5 -149.5q0 -95 41 -150.5t126 -55.5zM509 530q0 -37 -18 -59.5t-51 -32.5q29 -35 44.5 -83.5t15.5 -105.5t-15 -105t-43.5 -82.5t-71.5 -53.5t-98 -19q-56 0 -99 19t-71.5 53.5 t-43 82.5t-14.5 105t15 104.5t43.5 82t71 54t98.5 19.5q70 0 121 -31q32 2 45.5 15t13.5 37t-6 43t-14 32h59q7 -14 12.5 -35.5t5.5 -39.5z"/>
<glyph glyph-name="uni01AF" horiz-adv-x="623" unicode="Ư" d="M306 -16q-72 0 -118.5 21.5t-74.5 60.5t-39 92.5t-11 117.5v427h63v-413q0 -71 11 -119t33.5 -76.5t57 -40.5t80.5 -12t80 12t56.5 40.5t34 76t11.5 118.5v414h45q22 0 34.5 13.5t12.5 34.5q0 20 -6 37.5t-11 28.5h59q5 -11 11 -30t6 -40q0 -41 -23 -64t-65 -29v-379 q0 -64 -11.5 -117.5t-40 -92t-76 -60t-119.5 -21.5z"/>
<glyph glyph-name="uni01B0" horiz-adv-x="545" unicode="ư" d="M466 0h-55l-2 92q-24 -48 -67.5 -76t-112.5 -28q-82 0 -124 46.5t-42 137.5v324h59v-316q0 -39 9 -65.5t25.5 -42.5t39 -23t49.5 -7q39 0 69 18t51 47t31.5 65.5t10.5 74.5v249h36q27 1 42.5 12.5t15.5 35.5q0 16 -6.5 33t-12.5 28h59q5 -11 10.5 -27.5t5.5 -35.5 q0 -36 -23.5 -60.5t-67.5 -29.5v-452z"/>
<glyph glyph-name="Scommaaccent" horiz-adv-x="522" unicode="Ș" d="M229 337q-84 26 -129 71.5t-45 114.5q0 41 13.5 77t41.5 63t70 42.5t99 15.5q27 0 55 -4t54 -11t48 -16.5t37 -19.5l-24 -53q-23 15 -69 30t-105 15q-76 0 -116 -35t-40 -96q0 -24 6.5 -43t21.5 -35t40 -29t62 -26l72 -25q86 -30 124.5 -75t38.5 -116q0 -41 -14.5 -77 t-43 -62.5t-72 -42t-100.5 -15.5q-43 0 -80 7t-66.5 17t-50 20.5t-29.5 17.5l26 53q14 -9 33.5 -18.5t44.5 -18t56 -14t67 -5.5q74 0 119 33t45 100q0 50 -29 84t-98 56zM313 -102q0 -19 -6 -39.5t-15.5 -40.5t-21 -38t-21.5 -32l-32 19q12 21 23.5 47.5t15.5 42.5 q-14 5 -26.5 17t-12.5 29q0 21 12.5 35t33.5 14q23 0 36.5 -15t13.5 -39z"/>
<glyph glyph-name="scommaaccent" horiz-adv-x="428" unicode="ș" d="M51 82q22 -13 63.5 -27t98.5 -14q36 0 60.5 7t39.5 19t21.5 28t6.5 33q0 36 -21.5 58.5t-83.5 33.5l-54 10q-32 6 -58 15.5t-45.5 25.5t-30 38.5t-10.5 55.5q0 69 51 106.5t133 37.5q50 0 90.5 -11t63.5 -23l-21 -49q-23 12 -55.5 21t-74.5 9q-66 0 -98 -23t-32 -61 q0 -19 5 -33t18 -24t34 -17.5t53 -13.5l55 -10q60 -12 99.5 -44t39.5 -93q0 -68 -48.5 -108t-136.5 -40q-62 0 -112 15t-73 30zM261 -103q0 -19 -6 -39.5t-15.5 -40t-21 -37.5t-21.5 -32l-31 19q12 21 23.5 48t15.5 43q-14 5 -26 17t-12 27q0 21 12 35t33 14q23 0 36 -15 t13 -39z"/>
<glyph glyph-name="uni021A" horiz-adv-x="528" unicode="Ț" d="M233 644h-216v59h494v-59h-215v-644h-63v644zM311 -102q0 -19 -6 -39.5t-15.5 -40.5t-21 -38t-21.5 -32l-32 19q12 21 23.5 47.5t15.5 42.5q-14 5 -26.5 17t-12.5 29q0 21 12.5 35t33.5 14q23 0 36.5 -15t13.5 -39z"/>
<glyph glyph-name="uni021B" horiz-adv-x="357" unicode="ț" d="M287 47q14 0 26 1t21 3l6 -48q-10 -3 -30 -6t-44 -3q-80 0 -113.5 38t-33.5 106v306h-103v52h103v146l59 16v-162h151v-52h-151v-289q0 -34 7 -55t21 -33t34.5 -16t46.5 -4zM261 -103q0 -19 -6 -39.5t-15.5 -40t-21 -37.5t-21.5 -32l-31 19q12 21 23.5 48t15.5 43 q-14 5 -26 17t-12 27q0 21 12 35t33 14q23 0 36 -15t13 -39z"/>
<glyph glyph-name="dotlessj" horiz-adv-x="207" unicode="ȷ" d="M140 -14q0 -105 -39 -157.5t-127 -52.5q-14 0 -32.5 2.5t-29.5 6.5l7 50q10 -2 23.5 -4t26.5 -2q36 0 58 10.5t34 32.5t16 55.5t4 79.5v489h59v-510z"/>
<glyph glyph-name="apostrophe" d="M127 696q0 26 14.5 40t34.5 14q24 0 36.5 -17t12.5 -45q0 -27 -11 -59t-25 -60t-27.5 -49.5t-19.5 -27.5l-34 22q6 11 15 28.5t17 37t14.5 37.5t8.5 31q-14 4 -25 16t-11 32z" unicode="ʼ"/>
<glyph glyph-name="circumflex" d="M6 612l136 126h48l136 -126l-35 -33l-125 99l-125 -99z" unicode="ˆ"/>
<glyph glyph-name="caron" d="M167 638l124 99l35 -33l-135 -126h-49l-136 126l36 33z" unicode="ˇ"/>
<glyph glyph-name="uni02C9" d="M24 614v53h284v-53h-284z" unicode="ˉ"/>
<glyph glyph-name="breve" d="M167 625q43 0 66.5 22t23.5 68h54q0 -29 -8.5 -54t-26 -44.5t-45 -30.5t-65.5 -11q-39 0 -66.5 11t-45 30t-25.5 44.5t-8 54.5h56q0 -46 24 -68t66 -22z" unicode="˘"/>
<glyph glyph-name="dotaccent" d="M121 640q0 22 13 35.5t33 13.5t32 -13.5t12 -35.5t-12 -35t-32 -13t-33 13t-13 35z" unicode="˙"/>
<glyph glyph-name="ring" d="M227 673q0 29 -17 45.5t-44 16.5q-25 0 -42.5 -16t-17.5 -46q0 -29 17 -45.5t43 -16.5q27 0 44 16.5t17 45.5zM272 674q0 -48 -29.5 -75.5t-75.5 -27.5q-47 0 -77 27.5t-30 74.5q0 48 31 75.5t76 27.5q47 0 76 -27.5t29 -74.5z" unicode="˚"/>
<glyph glyph-name="ogonek" d="M228 -178q-7 -1 -11 -1.5t-14 -0.5q-42 0 -70 17t-28 57q0 32 18 57.5t47 48.5h55q-27 -20 -47 -44t-20 -52q0 -20 12 -31t41 -11q13 0 17 1v-41z" unicode="˛"/>
<glyph glyph-name="tilde" d="M95 694q25 0 43.5 -9t34 -20.5t31 -20.5t34.5 -9q25 0 35 15.5t10 42.5h53q0 -54 -25 -82.5t-73 -28.5q-24 0 -42 9t-34.5 20t-31.5 20t-33 9q-25 0 -35.5 -15t-10.5 -42h-53q0 52 24.5 81.5t72.5 29.5z" unicode="˜"/>
<glyph glyph-name="hungarumlaut" d="M-25 600l141 160l44 -40l-148 -153zM174 600l141 160l44 -40l-148 -153z" unicode="˝"/>
<glyph glyph-name="uni0300" horiz-adv-x="0" unicode="̀" d="M106 632l-23 -45l-226 106l28 56z"/>
<glyph glyph-name="uni0301" horiz-adv-x="0" unicode="́" d="M118 749l28 -56l-226 -106l-23 45z"/>
<glyph glyph-name="uni0302" horiz-adv-x="0" unicode="̂" d="M-159 612l136 126h48l136 -126l-35 -33l-125 99l-125 -99z"/>
<glyph glyph-name="uni0303" horiz-adv-x="0" unicode="̃" d="M-71 694q25 0 43.5 -9t34 -20.5t31 -20.5t34.5 -9q25 0 35 15.5t10 42.5h53q0 -54 -25 -82.5t-73 -28.5q-24 0 -42 9t-34.5 20t-31.5 20t-33 9q-25 0 -35.5 -15t-10.5 -42h-53q0 52 24.5 81.5t72.5 29.5z"/>
<glyph glyph-name="uni0304" horiz-adv-x="0" unicode="̄" d="M-141 614v53h284v-53h-284z"/>
<glyph glyph-name="uni0306" horiz-adv-x="0" unicode="̆" d="M2 625q43 0 66.5 22t23.5 68h54q0 -29 -8.5 -54t-26 -44.5t-45 -30.5t-65.5 -11q-39 0 -66.5 11t-45 30t-25.5 44.5t-8 54.5h56q0 -46 24 -68t66 -22z"/>
<glyph glyph-name="uni0309" horiz-adv-x="0" unicode="̉" d="M14 673q0 16 -10.5 26.5t-32.5 10.5q-13 0 -24.5 -1t-18.5 -3v51q20 5 55 5q26 0 43.5 -7t28.5 -18t15.5 -24.5t4.5 -27.5q0 -34 -20 -59t-45 -48l-33 27q14 13 25.5 31t11.5 37z"/>
<glyph glyph-name="uni030C" horiz-adv-x="0" unicode="̌" d="M2 638l124 99l35 -33l-135 -126h-49l-136 126l36 33z"/>
<glyph glyph-name="uni031B" horiz-adv-x="0" unicode="̛" d="M0 496h21q27 1 42.5 12.5t15.5 35.5q0 16 -6.5 33t-12.5 28h59q5 -11 10.5 -27.5t5.5 -35.5q0 -27 -11 -44.5t-29.5 -28.5t-41.5 -15.5t-47 -4.5h-6v47z"/>
<glyph glyph-name="uni0323" horiz-adv-x="0" unicode="̣" d="M-46 -125q0 23 14 37t34 14t33 -14t13 -37t-13 -36t-33 -13t-34 13t-14 36z"/>
<glyph glyph-name="uni0335" horiz-adv-x="0" unicode="̵" d="M-151 331v54h302v-54h-302z"/>
<glyph glyph-name="Wgrave" horiz-adv-x="762" unicode="Ẁ" d="M236 0h-73l-153 703h66l128 -602l142 585h70l138 -584l133 601h65l-161 -703h-74l-137 577zM502 808l-20 -46l-233 99l26 58z"/>
<glyph glyph-name="wgrave" horiz-adv-x="652" unicode="ẁ" d="M3 496h63l122 -428l107 413h67l107 -413l121 428h59l-149 -496h-67l-106 404l-107 -404h-67zM441 632l-23 -45l-226 106l28 56z"/>
<glyph glyph-name="Wacute" horiz-adv-x="762" unicode="Ẃ" d="M236 0h-73l-153 703h66l128 -602l142 585h70l138 -584l133 601h65l-161 -703h-74l-137 577zM495 919l26 -58l-233 -99l-20 46z"/>
<glyph glyph-name="wacute" horiz-adv-x="652" unicode="ẃ" d="M3 496h63l122 -428l107 413h67l107 -413l121 428h59l-149 -496h-67l-106 404l-107 -404h-67zM432 749l28 -56l-226 -106l-23 45z"/>
<glyph glyph-name="Wdieresis" horiz-adv-x="762" unicode="Ẅ" d="M236 0h-73l-153 703h66l128 -602l142 585h70l138 -584l133 601h65l-161 -703h-74l-137 577zM433 834q0 24 14 38t34 14q21 0 35 -14t14 -38q0 -23 -14 -37.5t-35 -14.5q-20 0 -34 14.5t-14 37.5zM235 834q0 24 14 38t34 14q21 0 34.5 -14t13.5 -38q0 -23 -13.5 -37.5 t-34.5 -14.5q-20 0 -34 14.5t-14 37.5z"/>
<glyph glyph-name="wdieresis" horiz-adv-x="652" unicode="ẅ" d="M3 496h63l122 -428l107 413h67l107 -413l121 428h59l-149 -496h-67l-106 404l-107 -404h-67zM378 640q0 23 13 36.5t33 13.5t33.5 -13.5t13.5 -36.5t-13.5 -36.5t-33.5 -13.5t-33 13.5t-13 36.5zM178 640q0 23 13.5 36.5t33.5 13.5t33 -13.5t13 -36.5t-13 -36.5 t-33 -13.5t-33.5 13.5t-13.5 36.5z"/>
<glyph glyph-name="Ygrave" horiz-adv-x="516" unicode="Ỳ" d="M224 307l-221 396h72l183 -336l187 336h68l-226 -394v-309h-63v307zM362 808l-20 -46l-233 99l26 58z"/>
<glyph glyph-name="ygrave" horiz-adv-x="458" unicode="ỳ" d="M4 496h68l157 -400l160 400h65l-299 -716h-62l103 244zM344 632l-23 -45l-226 106l28 56z"/>
<glyph glyph-name="uni1EF4" horiz-adv-x="516" unicode="Ỵ" d="M224 307l-221 396h72l183 -336l187 336h68l-226 -394v-309h-63v307zM212 -145q0 22 13 35.5t33 13.5t32 -13.5t12 -35.5t-12 -35t-32 -13t-33 13t-13 35z"/>
<glyph glyph-name="uni1EF5" horiz-adv-x="458" unicode="ỵ" d="M4 496h68l157 -400l160 400h65l-299 -716h-62l103 244zM300 -145q0 22 13 35.5t33 13.5t32 -13.5t12 -35.5t-12 -35t-32 -13t-33 13t-13 35z"/>
<glyph glyph-name="uni1EF6" horiz-adv-x="516" unicode="Ỷ" d="M224 307l-221 396h72l183 -336l187 336h68l-226 -394v-309h-63v307zM239 942q51 0 71 -23t20 -50q0 -35 -20.5 -59.5t-45.5 -47.5l-33 28q14 14 27.5 29.5t13.5 35.5q0 36 -41 36q-12 0 -22.5 -2t-18.5 -4v50q8 2 21.5 4.5t27.5 2.5z"/>
<glyph glyph-name="uni1EF7" horiz-adv-x="458" unicode="ỷ" d="M4 496h68l157 -400l160 400h65l-299 -716h-62l103 244zM242 673q0 16 -10.5 26.5t-32.5 10.5q-13 0 -24.5 -1t-18.5 -3v51q20 5 55 5q26 0 43.5 -7t28.5 -18t15.5 -24.5t4.5 -27.5q0 -34 -20 -59t-45 -48l-33 27q14 13 25.5 31t11.5 37z"/>
<glyph glyph-name="uni1EF8" horiz-adv-x="516" unicode="Ỹ" d="M224 307l-221 396h72l183 -336l187 336h68l-226 -394v-309h-63v307zM184 885q25 0 44.5 -9t36 -20.5t32.5 -20.5t35 -9q47 0 47 58h53q0 -54 -26.5 -81.5t-74.5 -27.5q-25 0 -43.5 9t-35 20t-32.5 20t-34 9q-49 0 -49 -57h-53q0 52 25 80.5t75 28.5z"/>
<glyph glyph-name="uni1EF9" horiz-adv-x="458" unicode="ỹ" d="M4 496h68l157 -400l160 400h65l-299 -716h-62l103 244zM160 694q25 0 43.5 -9t34 -20.5t31 -20.5t34.5 -9q25 0 35 15.5t10 42.5h53q0 -54 -25 -82.5t-73 -28.5q-24 0 -42 9t-34.5 20t-31.5 20t-33 9q-25 0 -35.5 -15t-10.5 -42h-53q0 52 24.5 81.5t72.5 29.5z"/>
<glyph glyph-name="endash" horiz-adv-x="413" unicode="–" d="M0 308h413v-53h-413v53z"/>
<glyph glyph-name="emdash" horiz-adv-x="826" unicode="—" d="M0 308h826v-53h-826v53z"/>
<glyph glyph-name="quoteleft" horiz-adv-x="211" unicode="‘" d="M153 546q0 -26 -14.5 -40t-34.5 -14q-24 0 -36.5 17t-12.5 45q0 27 11 59t25 60t27.5 49.5t19.5 27.5l34 -22q-6 -11 -15 -28.5t-17 -37t-14.5 -37.5t-8.5 -31q14 -4 25 -16t11 -32z"/>
<glyph glyph-name="quoteright" horiz-adv-x="211" unicode="’" d="M58 696q0 26 14.5 40t34.5 14q24 0 36.5 -17t12.5 -45q0 -27 -11 -59t-25 -60t-27.5 -49.5t-19.5 -27.5l-34 22q6 11 15 28.5t17 37t14.5 37.5t8.5 31q-14 4 -25 16t-11 32z"/>
<glyph glyph-name="quotesinglbase" horiz-adv-x="211" unicode="‚" d="M58 50q0 26 14.5 40t34.5 14q24 0 36.5 -17t12.5 -45q0 -27 -11 -59t-25 -60t-27.5 -49.5t-19.5 -27.5l-34 22q6 11 15 28.5t17 37t14.5 37.5t8.5 31q-14 4 -25 16t-11 32z"/>
<glyph glyph-name="quotedblleft" horiz-adv-x="373" unicode="“" d="M153 546q0 -26 -14.5 -40t-34.5 -14q-24 0 -36.5 17t-12.5 45q0 27 11 59t25 60t27.5 49.5t19.5 27.5l34 -22q-6 -11 -15 -28.5t-17 -37t-14.5 -37.5t-8.5 -31q14 -4 25 -16t11 -32zM315 546q0 -26 -14.5 -40t-34.5 -14q-24 0 -36.5 17t-12.5 45q0 27 11 59t25 60 t27.5 49.5t19.5 27.5l34 -22q-6 -11 -15 -28.5t-17 -37t-14.5 -37.5t-8.5 -31q14 -4 25 -16t11 -32z"/>
<glyph glyph-name="quotedblright" horiz-adv-x="372" unicode="”" d="M58 696q0 26 14.5 40t34.5 14q24 0 36.5 -17t12.5 -45q0 -27 -11 -59t-25 -60t-27.5 -49.5t-19.5 -27.5l-34 22q6 11 15 28.5t17 37t14.5 37.5t8.5 31q-14 4 -25 16t-11 32zM219 696q0 26 14.5 40t34.5 14q24 0 36.5 -17t12.5 -45q0 -27 -11 -59t-25 -60t-27.5 -49.5 t-19.5 -27.5l-34 22q6 11 15 28.5t17 37t14.5 37.5t8.5 31q-14 4 -25 16t-11 32z"/>
<glyph glyph-name="quotedblbase" horiz-adv-x="373" unicode="„" d="M41 50q0 26 14.5 40t34.5 14q24 0 36.5 -17t12.5 -45q0 -27 -11 -59t-25 -60t-27.5 -49.5t-19.5 -27.5l-34 22q6 11 15 28.5t17 37t14.5 37.5t8.5 31q-14 4 -25 16t-11 32zM202 50q0 26 14.5 40t34.5 14q24 0 36.5 -17t12.5 -45q0 -27 -11 -59t-25 -60t-27.5 -49.5 t-19.5 -27.5l-34 22q6 11 15 28.5t17 37t14.5 37.5t8.5 31q-14 4 -25 16t-11 32z"/>
<glyph glyph-name="bullet" horiz-adv-x="411" unicode="•" d="M69 339q0 28 10.5 53t29 43.5t43.5 29t54 10.5q28 0 53 -10.5t43.5 -29t29 -43.5t10.5 -53q0 -29 -10.5 -54.5t-29 -44t-43.5 -29t-53 -10.5q-29 0 -54 10.5t-43.5 29t-29 44t-10.5 54.5z"/>
<glyph glyph-name="guilsinglleft" horiz-adv-x="253" unicode="‹" d="M154 57l-115 193l115 193h60l-111 -193l111 -193h-60z"/>
<glyph glyph-name="guilsinglright" horiz-adv-x="253" unicode="›" d="M150 250l-111 193h60l115 -193l-115 -193h-60z"/>
<glyph glyph-name="fraction" horiz-adv-x="95" unicode="⁄" d="M210 703h58l-382 -703h-59z"/>
<glyph glyph-name="zerosuperior" horiz-adv-x="370" unicode="⁰" d="M91 516q0 -78 25 -116t70 -38q44 0 68.5 38t24.5 116t-24 116t-69 38t-70 -38t-25 -116zM37 516q0 95 39.5 147.5t110.5 52.5q75 0 110.5 -52.5t35.5 -147.5q0 -91 -36.5 -145t-110.5 -54q-79 0 -114 53.5t-35 145.5z"/>
<glyph glyph-name="foursuperior" horiz-adv-x="370" unicode="⁴" d="M266 550v-99h64v-43h-64v-83h-45v83h-179v29l159 272h52l-151 -258h119v99h45z"/>
<glyph glyph-name="fivesuperior" horiz-adv-x="370" unicode="⁵" d="M153 360q47 0 76 20.5t29 68.5q0 34 -21.5 54t-59.5 20q-26 0 -45.5 -5.5t-28.5 -9.5l-29 18l23 183h203v-43h-166l-13 -111q10 3 28.5 6t36.5 3q60 0 92 -32t32 -82q0 -58 -39 -95.5t-115 -37.5q-38 0 -62.5 5t-44.5 12l11 41q11 -4 34 -9.5t59 -5.5z"/>
<glyph glyph-name="sixsuperior" horiz-adv-x="370" unicode="⁶" d="M195 359q44 0 63.5 25t19.5 66q0 38 -21 61t-63 23q-18 0 -34.5 -6.5t-29 -17t-20 -23.5t-7.5 -26q0 -20 6.5 -38.5t18.5 -32.5t29 -22.5t38 -8.5zM302 660q-8 3 -29 8t-43 5q-60 0 -92 -38.5t-36 -104.5q12 14 37 30t65 16q56 0 91 -34.5t35 -91.5q0 -28 -9 -52 t-26.5 -42t-42.5 -28.5t-56 -10.5q-67 0 -106.5 43t-39.5 134q0 57 13.5 98.5t37.5 69t57 41t72 13.5q35 0 56.5 -7t26.5 -9z"/>
<glyph glyph-name="sevensuperior" horiz-adv-x="370" unicode="⁷" d="M102 325l150 340h-207v44h261v-31l-151 -353h-53z"/>
<glyph glyph-name="eightsuperior" horiz-adv-x="370" unicode="⁸" d="M265 618q0 24 -20 41t-60 17t-59.5 -16.5t-19.5 -41.5q0 -17 8 -29.5t20.5 -22t27 -15.5t28.5 -9q27 9 50 27t25 49zM185 358q46 0 68 18.5t22 45.5q0 17 -8.5 30t-22 23t-30.5 16.5t-35 11.5q-14 -4 -28.5 -10.5t-27 -16.5t-20.5 -23.5t-8 -31.5q0 -27 22.5 -45 t67.5 -18zM314 624q0 -21 -6.5 -37t-17 -28.5t-23.5 -21t-26 -13.5q39 -15 62 -39.5t23 -64.5q0 -45 -38.5 -74t-102.5 -29q-68 0 -104.5 28t-36.5 70q0 44 25 69.5t58 37.5q-31 14 -50.5 36.5t-19.5 58.5q0 41 33.5 70t94.5 29q66 0 97.5 -27t31.5 -65z"/>
<glyph glyph-name="ninesuperior" horiz-adv-x="370" unicode="⁹" d="M178 674q-44 0 -63.5 -25t-19.5 -66q0 -38 21 -61t63 -23q18 0 34.5 6.5t29 17t20 23.5t7.5 26q0 20 -6.5 38.5t-18.5 32.5t-29 22.5t-38 8.5zM69 371q9 -3 30.5 -7t44.5 -4q60 0 92 39t35 104q-12 -14 -37 -30t-65 -16q-56 0 -91 34.5t-35 91.5q0 28 9 52t26.5 42 t42 28.5t56.5 10.5q67 0 106.5 -43t39.5 -134q0 -110 -49 -166t-131 -56q-33 0 -55.5 5.5t-27.5 8.5z"/>
<glyph glyph-name="zeroinferior" horiz-adv-x="370" unicode="₀" d="M91 192q0 -78 25 -116t70 -38q44 0 68.5 38t24.5 116t-24 116t-69 38t-70 -38t-25 -116zM37 192q0 95 39.5 147.5t110.5 52.5q75 0 110.5 -52.5t35.5 -147.5q0 -91 -36.5 -145t-110.5 -54q-79 0 -114 53.5t-35 145.5z"/>
<glyph glyph-name="oneinferior" horiz-adv-x="370" unicode="₁" d="M180 327l-102 -60l-21 38l130 80h44v-384h-51v326z"/>
<glyph glyph-name="twoinferior" horiz-adv-x="370" unicode="₂" d="M174 189q35 22 56 43t21 53q0 29 -19 46t-55 17q-18 0 -32.5 -5t-26.5 -12t-21 -15.5t-15 -15.5l-30 29q6 9 17.5 20t27 20.5t36.5 16t47 6.5q60 0 92.5 -29.5t32.5 -75.5q0 -22 -8.5 -40.5t-22.5 -34t-33 -30t-40 -27.5q-18 -12 -34 -23t-28 -23.5t-19.5 -28t-7.5 -35.5 h199v-44h-252v19q0 29 6 51.5t19.5 42t35.5 37.5t54 38z"/>
<glyph glyph-name="threeinferior" horiz-adv-x="370" unicode="₃" d="M113 218h54q40 0 62.5 19.5t22.5 53.5q0 29 -21 43.5t-57 14.5q-38 0 -63.5 -13.5t-37.5 -22.5l-23 33q17 16 50.5 31t78.5 15q34 0 57.5 -8.5t38 -22t21 -31.5t6.5 -37q0 -36 -18.5 -58.5t-43.5 -33.5q30 -10 51 -32.5t21 -62.5q0 -51 -39 -82t-113 -31q-35 0 -61 4.5 t-46 10.5l9 42q16 -5 39.5 -9.5t52.5 -4.5q56 0 80.5 19.5t24.5 51.5q0 31 -20 50t-70 19h-56v42z"/>
<glyph glyph-name="fourinferior" horiz-adv-x="370" unicode="₄" d="M266 226v-99h64v-43h-64v-83h-45v83h-179v29l159 272h52l-151 -258h119v99h45z"/>
<glyph glyph-name="fiveinferior" horiz-adv-x="370" unicode="₅" d="M153 36q47 0 76 20.5t29 68.5q0 34 -21.5 54t-59.5 20q-26 0 -45.5 -5.5t-28.5 -9.5l-29 18l23 183h203v-43h-166l-13 -111q10 3 28.5 6t36.5 3q60 0 92 -32t32 -82q0 -58 -39 -95.5t-115 -37.5q-38 0 -62.5 5t-44.5 12l11 41q11 -4 34 -9.5t59 -5.5z"/>
<glyph glyph-name="sixinferior" horiz-adv-x="370" unicode="₆" d="M195 35q44 0 63.5 25t19.5 66q0 38 -21 61t-63 23q-18 0 -34.5 -6.5t-29 -17t-20 -23.5t-7.5 -26q0 -20 6.5 -38.5t18.5 -32.5t29 -22.5t38 -8.5zM302 336q-8 3 -29 8t-43 5q-60 0 -92 -38.5t-36 -104.5q12 14 37 30t65 16q56 0 91 -34.5t35 -91.5q0 -28 -9 -52 t-26.5 -42t-42.5 -28.5t-56 -10.5q-67 0 -106.5 43t-39.5 134q0 57 13.5 98.5t37.5 69t57 41t72 13.5q35 0 56.5 -7t26.5 -9z"/>
<glyph glyph-name="seveninferior" horiz-adv-x="370" unicode="₇" d="M102 1l150 340h-207v44h261v-31l-151 -353h-53z"/>
<glyph glyph-name="eightinferior" horiz-adv-x="370" unicode="₈" d="M265 294q0 24 -20 41t-60 17t-59.5 -16.5t-19.5 -41.5q0 -17 8 -29.5t20.5 -22t27 -15.5t28.5 -9q27 9 50 27t25 49zM185 34q46 0 68 18.5t22 45.5q0 17 -8.5 30t-22 23t-30.5 16.5t-35 11.5q-14 -4 -28.5 -10.5t-27 -16.5t-20.5 -23.5t-8 -31.5q0 -27 22.5 -45t67.5 -18 zM314 300q0 -21 -6.5 -37t-17 -28.5t-23.5 -21t-26 -13.5q39 -15 62 -39.5t23 -64.5q0 -45 -38.5 -74t-102.5 -29q-68 0 -104.5 28t-36.5 70q0 44 25 69.5t58 37.5q-31 14 -50.5 36.5t-19.5 58.5q0 41 33.5 70t94.5 29q66 0 97.5 -27t31.5 -65z"/>
<glyph glyph-name="nineinferior" horiz-adv-x="370" unicode="₉" d="M178 350q-44 0 -63.5 -25t-19.5 -66q0 -38 21 -61t63 -23q18 0 34.5 6.5t29 17t20 23.5t7.5 26q0 20 -6.5 38.5t-18.5 32.5t-29 22.5t-38 8.5zM69 47q9 -3 30.5 -7t44.5 -4q60 0 92 39t35 104q-12 -14 -37 -30t-65 -16q-56 0 -91 34.5t-35 91.5q0 28 9 52t26.5 42 t42 28.5t56.5 10.5q67 0 106.5 -43t39.5 -134q0 -110 -49 -166t-131 -56q-33 0 -55.5 5.5t-27.5 8.5z"/>
<glyph glyph-name="uni20AB" horiz-adv-x="556" unicode="₫" d="M70 0v47h397v-47h-397zM391 309q0 38 -11 69t-30.5 52.5t-46 33t-57.5 11.5q-33 0 -57 -12t-40.5 -34t-24.5 -51.5t-8 -64.5q0 -41 10.5 -69.5t28.5 -46.5t43 -26.5t54 -8.5q26 0 48 5.5t39.5 14.5t30.5 20t21 21v86zM445 120h-48l-2 53q-23 -23 -62.5 -41t-90.5 -18 q-35 0 -67.5 10.5t-58 34.5t-41 61.5t-15.5 91.5q0 47 12.5 86t35.5 66.5t57 43t78 15.5q55 0 92 -22.5t56 -57.5v138h-163v45h163v77h54v-77h56v-45h-56v-461z"/>
<glyph glyph-name="Euro" horiz-adv-x="556" unicode="€" d="M354 660q-52 0 -88.5 -17.5t-61 -46.5t-38 -66t-17.5 -75h288l-16 -51h-278q-1 -6 -1.5 -24.5t-0.5 -30.5q0 -14 0.5 -30.5t1.5 -24.5h257l-15 -51h-236q4 -39 17 -75t36 -64t59 -44.5t87 -16.5q36 0 63 6t47 15t34 19t23 18l30 -43q-27 -26 -76 -48t-123 -22 q-62 0 -108 18t-77.5 51t-50.5 80t-26 106h-73v51h68q-2 25 -2 35.5v19.5v9.5v10t0.5 13.5t1.5 22h-67v51h74q8 53 26.5 100t51 82.5t79 56.5t109.5 21q71 0 117.5 -21.5t75.5 -47.5l-31 -45q-9 7 -23 17.5t-34 19.5t-45.5 15.5t-57.5 6.5z"/>
<glyph glyph-name="uni20AE" horiz-adv-x="556" unicode="₮" d="M308 232v-232h-60v204l-135 -62l-20 45l155 72v118l-135 -62l-20 45l155 72v216h-211v55h482v-55h-211v-188l134 62l20 -45l-154 -72v-118l134 62l20 -45z"/>
<glyph glyph-name="uni20B4" horiz-adv-x="556" unicode="₴" d="M29 302h114q20 15 44 30.5t51 30.5l87 49h-295v51h354q14 16 20.5 35t6.5 47q0 52 -33.5 84t-96.5 32q-53 0 -89 -13.5t-74 -37.5l-25 49q43 30 89 43t100 13q43 0 78 -12t60 -34.5t38.5 -54t13.5 -69.5q0 -25 -5.5 -45t-16.5 -37h77v-51h-113q-20 -17 -46 -33t-55 -33 l-79 -44h293v-51h-357q-30 -31 -30 -84q0 -62 42 -93t114 -31q31 0 57 4.5t48.5 12t43 18.5t40.5 25l28 -48q-11 -7 -29.5 -18.5t-45.5 -22t-62 -18.5t-79 -8q-41 0 -80 9t-70 30t-49.5 55t-18.5 84q0 49 24 85h-74v51z"/>
<glyph glyph-name="uni20B9" horiz-adv-x="556" unicode="₹" d="M168 345q88 0 132.5 32.5t52.5 89.5h-283v56h283q-8 58 -50.5 91.5t-129.5 33.5h-103v55h453l-11 -55h-173q33 -24 52 -57t24 -68h74l-11 -56h-63q-5 -47 -27 -80.5t-56.5 -55t-80.5 -31.5t-100 -10l276 -290h-73l-284 291v54h98z"/>
<glyph glyph-name="uni2215" horiz-adv-x="95" unicode="∕" d="M210 703h58l-382 -703h-59z"/>
<glyph glyph-name="hungarumlaut.cap" d="M-23 795l139 147l42 -43l-146 -139zM176 795l139 147l42 -43l-146 -139z"/>
<glyph glyph-name="tilde.cap" d="M93 886q25 0 44.5 -9t36 -20.5t32.5 -20.5t35 -9q47 0 47 58h53q0 -54 -26.5 -81.5t-74.5 -27.5q-25 0 -43.5 9t-35 20t-32.5 20t-34 9q-49 0 -49 -57h-53q0 52 25 80.5t75 28.5z"/>
<glyph glyph-name="ring.cap" d="M227 821q0 29 -17 45.5t-44 16.5q-25 0 -42.5 -16.5t-17.5 -45.5t17 -45.5t43 -16.5q27 0 44 16t17 46zM272 822q0 -47 -30 -75t-75 -28q-46 0 -76.5 28t-30.5 74q0 47 31.5 75t75.5 28q46 0 75.5 -28t29.5 -74z"/>
<glyph glyph-name="caron.cap" d="M140 762l-143 122l34 36l136 -99l136 99l34 -36l-143 -122h-54z"/>
<glyph glyph-name="macron.cap" d="M19 801v54h294v-54h-294z"/>
<glyph glyph-name="dieresis.cap" d="M217 834q0 24 14 38t34 14q21 0 35 -14t14 -38q0 -23 -14 -37.5t-35 -14.5q-20 0 -34 14.5t-14 37.5zM19 834q0 24 14 38t34 14q21 0 34.5 -14t13.5 -38q0 -23 -13.5 -37.5t-34.5 -14.5q-20 0 -34 14.5t-14 37.5z"/>
<glyph glyph-name="dotaccent.cap" d="M119 829q0 23 14 37t34 14t33 -14t13 -37t-13 -36t-33 -13t-34 13t-14 36z"/>
<glyph glyph-name="circumflex.cap" d="M303 761l-136 98l-136 -98l-34 35l143 123h54l143 -123z"/>
<glyph glyph-name="acute.cap" d="M267 919l26 -58l-233 -99l-20 46z"/>
<glyph glyph-name="grave.cap" d="M293 808l-20 -46l-233 99l26 58z"/>
<glyph glyph-name="breve.cap" d="M168 810q43 0 67 24t24 70h56q0 -29 -9 -55t-27 -46.5t-46 -32.5t-67 -12t-67 12t-46 32t-26.5 46.5t-8.5 55.5h58q0 -46 25 -70t67 -24z"/>
<glyph glyph-name="commaaccent.cap" d="M214 -102q0 -19 -6 -39.5t-15.5 -40.5t-21 -38t-21.5 -32l-32 19q12 21 23.5 47.5t15.5 42.5q-14 5 -26.5 17t-12.5 29q0 21 12.5 35t33.5 14q23 0 36.5 -15t13.5 -39z"/>
<glyph glyph-name="caron.alt" d="M126 701q0 26 14.5 40t34.5 14q24 0 36.5 -17t12.5 -45q0 -27 -10.5 -58t-24.5 -58.5t-27.5 -48.5t-19.5 -27l-34 22q6 11 14.5 29t17 37t14.5 37t8 30q-11 3 -23.5 15.5t-12.5 29.5z"/>
<glyph glyph-name="commaaccent" d="M214 -103q0 -19 -6 -39.5t-15.5 -40t-21 -37.5t-21.5 -32l-31 19q12 21 23.5 48t15.5 43q-14 5 -26 17t-12 27q0 21 12 35t33 14q23 0 36 -15t13 -39z"/>
<glyph glyph-name="revcommaaccent" d="M119 628q0 19 6 39.5t15.5 40t20.5 37.5t22 32l31 -19q-12 -21 -23.5 -48t-15.5 -43q14 -5 26 -17t12 -27q0 -21 -12 -35t-33 -14q-23 0 -36 15t-13 39z"/>
<glyph glyph-name="caron.alt.short" d="M281 696q0 -17 -5.5 -38t-14 -43t-18.5 -42t-19 -34l-32 17q4 9 9.5 23t10.5 29.5t8.5 29t3.5 20.5q-14 4 -25 16.5t-11 29.5q0 23 13.5 36.5t32.5 13.5q23 0 35 -16t12 -42z" horiz-adv-x="469"/>
<glyph glyph-name="acute.asc" d="M110 832l230 75l18 -60l-233 -63z" horiz-adv-x="469"/>
<glyph glyph-name="circumflex.asc" d="M86 803l122 116h52l123 -116l-32 -32l-117 91l-117 -91z" horiz-adv-x="469"/>
<glyph glyph-name="hook.cap" d="M145 942q51 0 71 -23t20 -50q0 -35 -20.5 -59.5t-45.5 -47.5l-33 28q14 14 27.5 29.5t13.5 35.5q0 36 -41 36q-12 0 -22.5 -2t-18.5 -4v50q8 2 21.5 4.5t27.5 2.5z"/>
<glyph glyph-name="hook" d="M179 673q0 16 -10.5 26.5t-32.5 10.5q-13 0 -24.5 -1t-18.5 -3v51q20 5 55 5q26 0 43.5 -7t28.5 -18t15.5 -24.5t4.5 -27.5q0 -34 -20 -59t-45 -48l-33 27q14 13 25.5 31t11.5 37z"/>
</font>
</defs>
</svg>
