<?xml version="1.0" encoding="UTF-8" standalone="no"?>
<!DOCTYPE svg  PUBLIC '-//W3C//DTD SVG 1.1//EN'  'http://www.w3.org/Graphics/SVG/1.1/DTD/svg11.dtd'>
<svg xmlns="http://www.w3.org/2000/svg">
<defs>
<font id="NokiaPureText-Medium" horiz-adv-x="573">
<font-face underline-position="-10" font-weight="700" descent="-200" panose-1="2 11 8 4 4 6 2 6 3 3" units-per-em="1000" unicode-range="U+0008-2215" bbox="-192 -295 1371 995" x-height="504" underline-thickness="90" font-family="NokiaPureText" ascent="800" cap-height="703"/>
<missing-glyph horiz-adv-x="1000"/>
<glyph glyph-name=".notdef" horiz-adv-x="1000"/>
<glyph glyph-name=".null" horiz-adv-x="0"/>
<glyph glyph-name=".null" horiz-adv-x="0"/>
<glyph glyph-name=".null" horiz-adv-x="0"/>
<glyph glyph-name="nonmarkingreturn" horiz-adv-x="1000" unicode="	"/>
<glyph glyph-name="nonmarkingreturn" horiz-adv-x="1000" unicode=""/>
<glyph glyph-name="space" horiz-adv-x="245" unicode=" "/>
<glyph glyph-name="exclam" horiz-adv-x="322" unicode="!" d="M238 74q0 -37 -21 -60t-57 -23t-57 24t-21 59t21 59t57 24t57 -23t21 -60zM230 224h-141v479h141v-479z"/>
<glyph glyph-name="quotedbl" horiz-adv-x="420" unicode='&quot;' d="M51 703h129l-14 -267h-100zM240 703h129l-14 -267h-100z"/>
<glyph glyph-name="numbersign" horiz-adv-x="658" unicode="#" d="M265 277h101l29 149h-101zM89 535h111l32 155h115l-31 -155h101l32 155h115l-32 -155h96l-19 -109h-97l-31 -149h108l-19 -109h-108l-34 -168h-115l33 168h-102l-34 -168h-115l33 168h-98l20 109h99l30 149h-109z"/>
<glyph glyph-name="dollar" horiz-adv-x="592" unicode="$" d="M198 508q0 -23 14 -41.5t55 -34.5v150q-30 -5 -49.5 -22t-19.5 -52zM409 189q0 27 -13 47.5t-54 37.5v-159q31 7 49 25t18 49zM343 699q57 -5 102.5 -21.5t72.5 -33.5l-50 -100q-17 10 -50 21.5t-76 16.5v-175l21 -6q41 -13 75.5 -30.5t59 -41.5t38 -54.5t13.5 -69.5 q0 -43 -15.5 -79t-43.5 -63t-66 -44.5t-83 -23.5v-104h-74v103q-42 2 -78.5 9.5t-64 16.5t-46 18t-25.5 14l53 108q21 -12 62.5 -28t98.5 -21v186q-41 12 -78 28.5t-65.5 41t-45.5 59t-17 81.5q0 87 53.5 135.5t152.5 56.5v91h76v-91z"/>
<glyph glyph-name="percent" horiz-adv-x="934" unicode="%" d="M667 189q0 -51 12.5 -76t42.5 -25q29 0 41.5 26.5t12.5 74.5q0 51 -12.5 77.5t-41.5 26.5q-30 0 -42.5 -26.5t-12.5 -77.5zM552 189q0 100 42.5 152t127.5 52t126.5 -52t41.5 -152t-43.5 -151t-124.5 -51q-170 0 -170 202zM159 499q0 -51 12.5 -76t42.5 -25 q29 0 41.5 26.5t12.5 74.5q0 51 -12.5 77.5t-41.5 26.5q-30 0 -42.5 -26.5t-12.5 -77.5zM44 499q0 100 42.5 152t127.5 52t126.5 -52t41.5 -152t-43.5 -151t-124.5 -51q-170 0 -170 202zM591 690h127l-374 -690h-126z"/>
<glyph glyph-name="ampersand" horiz-adv-x="716" unicode="&amp;" d="M307 443q19 9 37 19t31.5 23t22 29t8.5 36q0 34 -21.5 53.5t-53.5 19.5q-36 0 -60.5 -17.5t-24.5 -52.5q0 -32 20 -61t41 -49zM264 316q-17 -9 -32.5 -20t-28 -25t-20 -32t-7.5 -41q0 -28 11.5 -47t30 -31t41.5 -17t46 -5q39 0 69 9t50 24zM202 395q-35 41 -52 77t-17 81 q0 37 14.5 68t40.5 52.5t62 33.5t79 12q39 0 73.5 -11.5t60.5 -33t41.5 -52.5t15.5 -69q0 -65 -40 -109t-112 -79l142 -165q23 20 43.5 51t37.5 66l96 -49q-19 -48 -47.5 -88.5t-54.5 -66.5l96 -113h-145l-38 45q-40 -28 -88 -43t-108 -15t-107.5 16t-81 43t-51 63t-17.5 77 q0 75 42.5 126t114.5 83z"/>
<glyph glyph-name="quotesingle" horiz-adv-x="231" unicode="&apos;" d="M51 703h129l-14 -267h-100z"/>
<glyph glyph-name="parenleft" horiz-adv-x="302" unicode="(" d="M53 327q0 78 10.5 145t26 121t33.5 94t32 63h123q-17 -30 -33.5 -73.5t-30 -97.5t-22 -118t-8.5 -134q0 -71 8.5 -134.5t22 -117.5t30 -97.5t33.5 -73.5h-123q-14 23 -32 63t-33.5 94t-26 121t-10.5 145z"/>
<glyph glyph-name="parenright" horiz-adv-x="301" unicode=")" d="M249 327q0 -78 -10.5 -145t-26 -121t-33.5 -94t-32 -63h-123q17 30 33.5 73.5t30 97.5t21.5 117.5t8 134.5t-8 134.5t-21.5 117.5t-30 97.5t-33.5 73.5h123q14 -23 32 -63t33.5 -94t26 -121t10.5 -145z"/>
<glyph glyph-name="asterisk" horiz-adv-x="482" unicode="*" d="M292 750l-8 -121l117 49l31 -94l-119 -33l84 -104l-82 -56l-70 109l-72 -111l-83 57l85 104l-126 35l34 92l116 -48l-9 121h102z"/>
<glyph glyph-name="plus" horiz-adv-x="592" unicode="+" d="M55 403h181v196h120v-196h181v-116h-181v-196h-120v196h-181v116z"/>
<glyph glyph-name="comma" horiz-adv-x="279" unicode="," d="M51 71q0 38 21.5 60t58.5 22q36 0 58 -23.5t22 -66.5q0 -35 -15.5 -73t-36 -72t-41.5 -60.5t-32 -39.5l-60 38q7 11 17 28.5t20 37t19 39.5t14 38q-19 10 -32 28t-13 44z"/>
<glyph glyph-name="hyphen" horiz-adv-x="430" unicode="-" d="M52 344h326v-128h-326v128z"/>
<glyph glyph-name="period" horiz-adv-x="278" unicode="." d="M213 74q0 -37 -21 -60t-57 -23t-57 24t-21 59t21 59t57 24t57 -23t21 -60z"/>
<glyph glyph-name="slash" horiz-adv-x="466" unicode="/" d="M11 -47l312 797h131l-312 -797h-131z"/>
<glyph glyph-name="zero" horiz-adv-x="592" unicode="0" d="M297 103q66 0 95 58t29 184t-29 183.5t-95 57.5t-95 -57.5t-29 -183.5t28.5 -184t95.5 -58zM297 -13q-138 0 -202 90t-64 268q0 173 65 265.5t201 92.5t201 -92t65 -266q0 -178 -64 -268t-202 -90z"/>
<glyph glyph-name="one" horiz-adv-x="592" unicode="1" d="M441 0h-141v537l-171 -97l-52 105l247 145h117v-690z"/>
<glyph glyph-name="two" horiz-adv-x="592" unicode="2" d="M521 0h-456v13q0 57 11.5 104t35.5 87t60.5 75.5t86.5 70.5q58 42 88.5 78t30.5 80q0 15 -5 29.5t-16.5 25.5t-29.5 18t-44 7q-30 0 -52 -8t-38.5 -20.5t-29 -27t-21.5 -26.5l-84 70q10 16 28 38t46 41.5t67 33.5t90 14q60 0 102.5 -16t69.5 -42.5t40 -60.5t13 -69 q0 -42 -11.5 -75t-32 -60.5t-48 -52t-59.5 -48.5q-145 -108 -147 -164h305v-115z"/>
<glyph glyph-name="three" horiz-adv-x="592" unicode="3" d="M83 128q20 -8 57.5 -17t103.5 -9q29 0 54 6t43.5 18t29 30.5t10.5 44.5q0 42 -29.5 68t-95.5 26h-87v113h86q60 0 88.5 25.5t28.5 67.5q0 38 -24 63t-76 25q-56 0 -89 -19t-51 -39l-72 75q8 11 25.5 27.5t45.5 32t65.5 26.5t85.5 11q60 0 102.5 -16t69 -41.5t39 -58 t12.5 -66.5t-9.5 -60.5t-24.5 -46.5t-34.5 -34t-40.5 -23q21 -6 42.5 -18t39 -30.5t28.5 -45t11 -62.5q0 -53 -19.5 -93t-55 -67t-84 -41t-105.5 -14q-75 0 -125 12t-73 23z"/>
<glyph glyph-name="four" horiz-adv-x="592" unicode="4" d="M481 0h-131v153h-302v88l232 449h141l-217 -424h146v155h131v-155h75v-113h-75v-153z"/>
<glyph glyph-name="five" horiz-adv-x="592" unicode="5" d="M77 126q20 -7 56.5 -15.5t101.5 -8.5q30 0 57 7.5t48 22.5t33.5 39t12.5 57q0 18 -5 37.5t-17.5 35.5t-33.5 26t-53 10q-47 0 -74.5 -13t-42.5 -23l-72 52l41 337h364v-115h-269l-17 -151q10 5 36 12.5t59 7.5q48 0 88.5 -12.5t70 -39t46 -68t16.5 -98.5 q0 -50 -17.5 -93.5t-53 -76t-88 -51.5t-122.5 -19q-75 0 -122 11.5t-70 22.5z"/>
<glyph glyph-name="six" horiz-adv-x="592" unicode="6" d="M301 98q29 0 49.5 9.5t33 26.5t18.5 39t6 48q0 66 -26.5 100.5t-74.5 34.5q-26 0 -46.5 -10t-34.5 -26.5t-22 -38.5t-8 -47t6 -49.5t19 -43.5t33 -31t47 -12zM488 563q-21 9 -54.5 17t-71.5 8q-75 0 -119 -47t-51 -153q20 38 60.5 59t88.5 21q38 0 75 -14t65.5 -42.5 t46 -72t17.5 -101.5q0 -61 -19.5 -107.5t-53 -78.5t-78 -48.5t-93.5 -16.5q-116 0 -181 77t-65 234q0 202 78 303.5t229 101.5q42 0 84.5 -11.5t72.5 -27.5z"/>
<glyph glyph-name="seven" horiz-adv-x="592" unicode="7" d="M273 0h-143l252 575h-326v115h466v-108z"/>
<glyph glyph-name="eight" horiz-adv-x="592" unicode="8" d="M310 408q24 13 39 25.5t23 25.5t11 27.5t3 31.5q0 29 -22 53t-68 24q-45 0 -67.5 -24.5t-22.5 -53.5q0 -36 25 -64t79 -45zM287 305q-56 -29 -76.5 -57.5t-20.5 -69.5q0 -33 26 -57t80 -24q51 0 78 23.5t27 63.5q0 41 -24.5 69t-89.5 52zM413 361q62 -30 92.5 -72.5 t30.5 -113.5q0 -45 -19 -80t-51.5 -59t-76.5 -36.5t-94 -12.5t-93.5 12t-76 34.5t-51 54.5t-18.5 72q0 74 34.5 118.5t96.5 74.5q-51 25 -82 66t-31 108q0 37 17.5 69.5t47.5 56t70.5 37t86.5 13.5q49 0 91 -13t72 -36t47 -55t17 -69q0 -61 -32.5 -102t-77.5 -67z"/>
<glyph glyph-name="nine" horiz-adv-x="592" unicode="9" d="M285 334q25 0 46 10t35.5 26.5t22.5 38.5t8 47t-6 49.5t-19 44t-33 31t-48 11.5q-57 0 -81.5 -36t-24.5 -87q0 -66 26 -100.5t74 -34.5zM91 118q25 -8 61 -12.5t67 -4.5q91 0 132 52.5t50 147.5q-20 -40 -59 -59.5t-87 -19.5q-37 0 -74 14t-66.5 42.5t-48 71.5t-18.5 102 q0 61 19.5 107.5t53 78.5t77.5 48.5t93 16.5q118 0 182 -75.5t64 -234.5q0 -196 -75 -301t-227 -105q-18 0 -41 2t-46 5t-44 8t-36 11z"/>
<glyph glyph-name="colon" horiz-adv-x="292" unicode=":" d="M213 74q0 -37 -21 -60t-57 -23t-57 24t-21 59t21 59t57 24t57 -23t21 -60zM213 430q0 -37 -21 -60t-57 -23t-57 24t-21 59t21 59t57 24t57 -23t21 -60z"/>
<glyph glyph-name="semicolon" horiz-adv-x="282" unicode=";" d="M52 71q0 38 21.5 60t58.5 22q36 0 58 -23.5t22 -66.5q0 -35 -15.5 -73t-36 -72t-41.5 -60.5t-32 -39.5l-60 38q7 11 17 28.5t20 37t19 39.5t14 38q-19 10 -32 28t-13 44zM207 430q0 -37 -21 -60t-57 -23t-57 24t-21 59t21 59t57 24t57 -23t21 -60z"/>
<glyph glyph-name="less" horiz-adv-x="592" unicode="&lt;" d="M514 209l-41 -104l-395 184v112l395 184l41 -103l-308 -136z"/>
<glyph glyph-name="equal" horiz-adv-x="592" unicode="=" d="M89 283h442v-116h-442v116zM89 503h442v-116h-442v116z"/>
<glyph glyph-name="greater" horiz-adv-x="592" unicode="&gt;" d="M78 482l41 103l395 -184v-112l-395 -184l-41 104l308 136z"/>
<glyph glyph-name="question" horiz-adv-x="566" unicode="?" d="M332 74q0 -37 -21 -60t-57 -23t-57 24t-21 59t21 59t57 24t57 -23t21 -60zM185 222q0 38 7 67t20 52.5t32.5 43.5t45.5 41q24 20 47 43t23 55q0 29 -23.5 53t-69.5 24t-88 -20t-75 -52l-68 86q15 18 38 36.5t53 33.5t67 24.5t80 9.5q65 0 109 -18t70.5 -46t38 -62.5 t11.5 -68.5q0 -27 -9 -51.5t-23.5 -45t-32 -37t-34.5 -28.5q-17 -11 -32.5 -23.5t-28 -29t-20 -38t-7.5 -49.5h-131z"/>
<glyph glyph-name="at" horiz-adv-x="1045" unicode="@" d="M496 113q15 0 29 5t25.5 11.5t20.5 14.5t14 14l15 85q3 17 5 34t2 28q0 86 -71 86q-48 0 -78.5 -47t-30.5 -132q0 -54 18.5 -76.5t50.5 -22.5zM962 -131q-39 -27 -85.5 -47.5t-98 -35t-106.5 -22t-111 -7.5q-132 0 -229 34t-160.5 95.5t-94.5 148t-31 191.5 q0 112 39.5 207t109 164t166 108t210.5 39q101 0 181 -28.5t136 -79.5t85.5 -120.5t29.5 -150.5q0 -82 -23 -147t-63 -110.5t-94 -69.5t-115 -24q-38 0 -63 17.5t-34 37.5q-27 -23 -64.5 -39t-82.5 -16q-36 0 -66.5 13t-53 37.5t-35.5 59.5t-13 79q0 67 18 121t49.5 91.5 t75 57.5t94.5 20q33 0 56 -8.5t37.5 -20.5t22.5 -24t11 -18l16 60h95l-53 -277q-3 -14 -5.5 -26.5t-2.5 -20.5q0 -12 7.5 -21t24.5 -9q24 0 48 17t43.5 48t32 73.5t12.5 92.5q0 133 -82.5 202t-230.5 69q-87 0 -158 -30t-121.5 -83t-78.5 -127.5t-28 -162.5q0 -81 20.5 -146 t66 -111t117.5 -71t174 -25q103 0 188 22.5t160 70.5z"/>
<glyph glyph-name="A" horiz-adv-x="619" unicode="A" d="M220 263h169l-83 277zM424 146h-240l-44 -146h-130l230 703h140l229 -703h-141z"/>
<glyph glyph-name="B" horiz-adv-x="625" unicode="B" d="M329 118q30 0 50 7t32 19.5t17 29t5 35.5q0 96 -125 96h-98v-187h119zM302 421q54 0 75 25t21 63q0 36 -24.5 56t-62.5 20h-101v-164h92zM316 703q64 0 106.5 -16.5t68 -42.5t36 -58.5t10.5 -63.5q0 -37 -11.5 -63.5t-28.5 -44.5t-37.5 -28t-39.5 -14q23 -3 50 -13 t50 -30t38.5 -53t15.5 -81q0 -42 -15.5 -78t-46.5 -62t-77.5 -40.5t-108.5 -14.5h-252v703h242z"/>
<glyph glyph-name="C" horiz-adv-x="636" unicode="C" d="M386 595q-48 0 -83 -19.5t-58 -53t-34 -77.5t-11 -93q0 -50 9.5 -93.5t31 -75.5t55 -50t81.5 -18q25 0 50 4.5t47.5 12t40 16t27.5 16.5l54 -98q-42 -33 -103 -54t-134 -21q-75 0 -132.5 25t-95.5 71.5t-57.5 113.5t-19.5 151q0 79 20.5 145.5t61 114.5t100.5 75t138 27 q72 0 127.5 -20.5t97.5 -56.5l-62 -98q-21 20 -59 38t-92 18z"/>
<glyph glyph-name="D" horiz-adv-x="713" unicode="D" d="M318 121q45 0 81.5 16.5t61.5 47t38.5 73t13.5 94.5q0 117 -53 173.5t-142 56.5h-103v-461h103zM318 703q87 0 151 -25.5t106 -72t63 -111t21 -143.5q0 -80 -21 -145t-63.5 -110.5t-106.5 -70.5t-150 -25h-244v703h244z"/>
<glyph glyph-name="E" horiz-adv-x="547" unicode="E" d="M74 703h438v-124h-298v-153h228v-124h-228v-178h308v-124h-448v703z"/>
<glyph glyph-name="F" horiz-adv-x="550" unicode="F" d="M86 703h433v-124h-293v-153h224v-124h-224v-302h-140v703z"/>
<glyph glyph-name="G" horiz-adv-x="665" unicode="G" d="M390 600q-49 0 -85 -19t-59 -52.5t-34.5 -79t-11.5 -98.5t10.5 -97.5t33.5 -76.5t59 -50.5t86 -18.5q29 0 53 4t44 9v175h-129v116h254v-384q-11 -5 -31 -12.5t-49.5 -14.5t-69.5 -12t-91 -5q-77 0 -136 25t-99 72t-60.5 115t-20.5 155q0 81 21 148.5t62 116.5t101.5 76 t140.5 27q69 0 124 -19t97 -52l-59 -99q-22 16 -60.5 33.5t-90.5 17.5z"/>
<glyph glyph-name="H" horiz-adv-x="689" unicode="H" d="M475 703h140v-703h-140v310h-260v-310h-141v703h141v-267h260v267z"/>
<glyph glyph-name="I" horiz-adv-x="289" unicode="I" d="M215 0h-141v703h141v-703z"/>
<glyph glyph-name="J" horiz-adv-x="518" unicode="J" d="M312 703h141v-472q0 -129 -60 -188t-185 -59q-38 0 -72 7.5t-60 17t-43 18.5t-20 12l44 101q6 -3 19.5 -9.5t32.5 -12.5t42 -11t48 -5q24 0 45 5.5t36 20.5t23.5 42.5t8.5 71.5v461z"/>
<glyph glyph-name="K" horiz-adv-x="668" unicode="K" d="M215 0h-141v703h141v-325l261 325h153l-263 -323l292 -380h-168l-275 368v-368z"/>
<glyph glyph-name="L" horiz-adv-x="557" unicode="L" d="M227 124h296v-124h-437v703h141v-579z"/>
<glyph glyph-name="M" horiz-adv-x="816" unicode="M" d="M742 703v-703h-133v475l-153 -308h-104l-145 296v-463h-133v703h150l184 -387l183 387h151z"/>
<glyph glyph-name="N" horiz-adv-x="698" unicode="N" d="M207 490v-490h-133v703h141l276 -480v480h133v-703h-130z"/>
<glyph glyph-name="O" horiz-adv-x="747" unicode="O" d="M200 352q0 -112 42.5 -176t130.5 -64t130.5 64t42.5 176t-42.5 175.5t-130.5 63.5t-130.5 -63.5t-42.5 -175.5zM54 352q0 80 19 147.5t58.5 116t99.5 76t142 27.5t142.5 -27.5t100 -76t58.5 -116t19 -147.5t-19 -147.5t-58.5 -116.5t-100 -76.5t-142.5 -27.5t-142 27.5 t-99.5 76.5t-58.5 116.5t-19 147.5z"/>
<glyph glyph-name="P" horiz-adv-x="596" unicode="P" d="M564 474q0 -41 -13 -82t-44 -73.5t-83 -53t-129 -20.5h-80v-245h-141v703h230q74 0 124 -20.5t80 -53t43 -73.5t13 -82zM425 474q0 31 -10 52.5t-27 34.5t-39 18.5t-47 5.5h-87v-222h78q28 0 52 5.5t42 18.5t28 34t10 53z"/>
<glyph glyph-name="Q" horiz-adv-x="752" unicode="Q" d="M546 352q0 112 -42.5 175.5t-130.5 63.5t-130.5 -63.5t-42.5 -175.5t42.5 -176t130.5 -64t130.5 64t42.5 176zM693 352q0 -118 -39.5 -204.5t-120.5 -128.5q32 -32 76.5 -48.5t104.5 -25.5l-28 -109q-93 8 -171.5 48t-129.5 101h-11q-81 0 -141 26t-99.5 74t-59.5 115.5 t-20 151.5q0 80 19 147.5t58.5 116t99.5 76t142 27.5t142.5 -27.5t100 -76t58.5 -116t19 -147.5z"/>
<glyph glyph-name="R" horiz-adv-x="628" unicode="R" d="M429 483q0 59 -35.5 80.5t-104.5 21.5h-76v-205h70q73 0 109.5 24.5t36.5 78.5zM610 0h-160l-155 262h-82v-262h-139v703h242q76 0 125 -20.5t77 -51.5t39 -68t11 -70q0 -75 -38 -124.5t-104 -71.5z"/>
<glyph glyph-name="S" horiz-adv-x="577" unicode="S" d="M226 304q-38 11 -71.5 29t-58.5 42.5t-39.5 57t-14.5 71.5q0 105 62 160t180 55q33 0 65 -5t60 -13t51 -18t40 -20l-51 -106q-20 12 -63.5 27t-103.5 15q-17 0 -34.5 -4t-32 -13.5t-23.5 -25t-9 -37.5q0 -14 4 -26.5t15.5 -24.5t31 -22.5t50.5 -19.5l64 -18 q87 -24 134.5 -72.5t47.5 -133.5q0 -50 -19.5 -90t-53.5 -68.5t-80 -44t-99 -15.5q-49 0 -90.5 7.5t-73 17.5t-52 20t-27.5 15l51 111q12 -7 31.5 -15t44 -15.5t54.5 -12.5t63 -5q18 0 37.5 4.5t35 15t25.5 26t10 38.5q0 13 -4 26.5t-15 26t-29.5 23.5t-48.5 19z"/>
<glyph glyph-name="T" horiz-adv-x="607" unicode="T" d="M234 576h-203v127h545v-127h-201v-576h-141v576z"/>
<glyph glyph-name="U" horiz-adv-x="682" unicode="U" d="M341 -16q-77 0 -129.5 19.5t-85 57.5t-47 94t-14.5 130v418h141v-404q0 -54 7 -91t23 -60t41.5 -33t63.5 -10q37 0 63 10t42 33t23 59.5t7 90.5v405h141v-419q0 -74 -14.5 -130t-47.5 -93.5t-85.5 -57t-128.5 -19.5z"/>
<glyph glyph-name="V" horiz-adv-x="623" unicode="V" d="M318 164l156 539h142l-230 -703h-140l-239 703h150z"/>
<glyph glyph-name="W" horiz-adv-x="854" unicode="W" d="M319 0h-157l-152 703h149l92 -508l104 492h144l103 -492l93 508h149l-153 -703h-157l-107 487z"/>
<glyph glyph-name="X" horiz-adv-x="650" unicode="X" d="M19 0l229 370l-199 333h159l121 -216l124 216h149l-201 -325l230 -378h-161l-148 260l-151 -260h-152z"/>
<glyph glyph-name="Y" horiz-adv-x="606" unicode="Y" d="M232 308l-222 395h150l147 -273l146 273h143l-223 -395v-308h-141v308z"/>
<glyph glyph-name="Z" horiz-adv-x="615" unicode="Z" d="M40 108l353 471h-335v124h508v-108l-359 -471h376v-124h-543v108z"/>
<glyph glyph-name="bracketleft" horiz-adv-x="372" unicode="[" d="M80 750h263v-113h-133v-661h133v-112h-263v886z"/>
<glyph glyph-name="backslash" horiz-adv-x="466" unicode="\" d="M324 -47l-312 797h131l312 -797h-131z"/>
<glyph glyph-name="bracketright" horiz-adv-x="404" unicode="]" d="M324 -136h-263v112h133v661h-133v113h263v-886z"/>
<glyph glyph-name="asciicircum" horiz-adv-x="591" unicode="^" d="M541 316h-127l-119 264l-119 -264h-126l178 374h135z"/>
<glyph glyph-name="underscore" horiz-adv-x="514" unicode="_" d="M0 -84h514v-119h-514v119z"/>
<glyph glyph-name="grave" horiz-adv-x="506" unicode="`" d="M356 570l-246 111l50 101l236 -131z"/>
<glyph glyph-name="a" horiz-adv-x="534" unicode="a" d="M208 -13q-33 0 -63.5 8t-54.5 27t-38.5 50t-14.5 78q0 85 50.5 128t155.5 43q14 0 30.5 -1t31.5 -2.5t26 -2.5t14 -2v18q0 40 -26 59.5t-71 19.5q-60 0 -98 -12t-53 -22l-39 89q7 5 23 14t41.5 17.5t59.5 15t78 6.5q113 0 163 -48.5t50 -133.5v-336h-116l-4 51 q-19 -23 -55 -43.5t-90 -20.5zM345 223q-19 3 -43 6t-56 3q-51 0 -70 -20t-19 -59q0 -32 22 -49.5t57 -17.5q21 0 41 5.5t35 16.5t24 26.5t9 35.5v53z"/>
<glyph glyph-name="b" horiz-adv-x="587" unicode="b" d="M177 0h-115v750h134v-305q6 12 18 25t29.5 23.5t39.5 17t49 6.5q55 0 95 -19.5t66 -54.5t39 -83t13 -104q0 -74 -18.5 -124t-50 -80.5t-72 -44t-83.5 -13.5q-50 0 -87 19t-54 37zM306 402q-54 0 -82 -41t-28 -119v-94q13 -16 39.5 -28.5t61.5 -12.5q57 0 84.5 35 t27.5 114q0 64 -25 105t-78 41z"/>
<glyph glyph-name="c" horiz-adv-x="480" unicode="c" d="M177 252q0 -78 33.5 -114t96.5 -36q42 0 68 11t40 20l51 -91q-9 -6 -24 -15.5t-36.5 -18.5t-49.5 -15.5t-62 -6.5q-125 0 -188.5 71.5t-63.5 194.5q0 59 17.5 108t50 84t79 54t104.5 19q37 0 68 -8.5t54 -19.5t37 -21.5t18 -14.5l-60 -92q-5 3 -15 10t-24 13.5 t-31.5 11.5t-36.5 5q-57 0 -91.5 -37t-34.5 -112z"/>
<glyph glyph-name="d" horiz-adv-x="587" unicode="d" d="M407 50q-16 -19 -52 -37.5t-90 -18.5q-44 0 -84 12t-71 42t-49 79.5t-18 124.5q0 55 12.5 103t38.5 84t65.5 57t93.5 21q27 0 50 -6.5t40 -17t29.5 -22.5t18.5 -22v301h134v-750h-115zM281 402q-27 0 -46 -11.5t-32 -31.5t-19 -47.5t-6 -59.5q0 -79 27.5 -112t84.5 -33 q37 0 63.5 14t37.5 27v87q0 35 -5 65.5t-17.5 53t-34 35.5t-53.5 13z"/>
<glyph glyph-name="e" horiz-adv-x="548" unicode="e" d="M379 305q-4 52 -25 78.5t-72 26.5t-77.5 -28.5t-31.5 -76.5h206zM315 99q49 0 82 7.5t50 12.5l32 -94q-20 -11 -65.5 -25t-115.5 -14q-126 0 -191 72t-65 197q0 59 15.5 107.5t46 83t75.5 53t104 18.5q53 0 94.5 -15.5t70 -48.5t43 -86t14.5 -128v-27h-332 q5 -48 38 -80.5t104 -32.5z"/>
<glyph glyph-name="f" horiz-adv-x="388" unicode="f" d="M17 391v113h88v38q0 43 9 83t31 70.5t59.5 48.5t95.5 18q45 0 74 -4.5t41 -7.5l-12 -105q-11 2 -28 3.5t-41 1.5q-48 0 -71 -24.5t-23 -87.5v-34h133v-113h-133v-391h-135v391h-88z"/>
<glyph glyph-name="g" horiz-adv-x="555" unicode="g" d="M376 337q0 24 -8 40.5t-21.5 26.5t-30.5 14.5t-35 4.5t-35 -4.5t-30.5 -14.5t-21.5 -26.5t-8 -40.5t8 -40.5t21.5 -26.5t30.5 -14t35 -4t35 4t30.5 13.5t21.5 26t8 41.5zM259 -20q-21 1 -49 3t-46 9q-8 -12 -13.5 -25.5t-5.5 -31.5q0 -23 10 -37.5t27 -22.5t39 -11t45 -3 q82 0 114.5 18t32.5 50q0 26 -18 37t-50 12zM463 417q20 -17 31.5 -42.5t11.5 -48.5q0 -48 -22 -80.5t-55 -52t-70.5 -28t-68.5 -8.5q-18 0 -50.5 4t-63.5 17q-6 -7 -9 -18.5t-3 -20.5q0 -23 16 -36.5t65 -15.5l104 -4q45 -2 81.5 -9.5t62 -24t39.5 -43t14 -65.5 q0 -38 -17 -70.5t-52.5 -56.5t-90.5 -37.5t-131 -13.5q-32 0 -70.5 5.5t-73 21.5t-57.5 44.5t-23 73.5q0 39 17.5 70.5t42.5 50.5q-20 16 -29 35.5t-9 44.5q0 35 17 64t38 49q-28 23 -40.5 53.5t-12.5 61.5q0 50 21 84.5t54 55.5t72.5 30.5t76.5 9.5q27 0 46.5 -2t35.5 -4.5 t29.5 -4.5t27.5 -2h127v-92h-15q-15 0 -33 1.5t-34 3.5z"/>
<glyph glyph-name="h" d="M196 438q7 14 19 28t30 25.5t41 18.5t53 7q92 0 133 -52.5t41 -144.5v-320h-134v312q0 51 -22.5 70.5t-53.5 19.5q-33 0 -54 -13.5t-32.5 -36.5t-16 -53t-4.5 -64v-235h-134v750h134v-312z" unicode="h"/>
<glyph glyph-name="i" horiz-adv-x="266" unicode="i" d="M209 676q0 -35 -20.5 -58t-55.5 -23t-55.5 23.5t-20.5 57.5t20.5 57.5t55.5 23.5t55.5 -23t20.5 -58zM66 504h134v-504h-134v504z"/>
<glyph glyph-name="j" horiz-adv-x="266" unicode="j" d="M209 676q0 -35 -20.5 -58t-55.5 -23t-55.5 23.5t-20.5 57.5t20.5 57.5t55.5 23.5t55.5 -23t20.5 -58zM200 -11q0 -110 -47 -165t-152 -55q-23 0 -49 4t-45 9l13 108q11 -2 27 -5t33 -3q27 0 44 9t26 25.5t12.5 41t3.5 55.5v491h134v-515z"/>
<glyph glyph-name="k" horiz-adv-x="559" unicode="k" d="M196 271l181 233h152l-186 -223l208 -281h-161l-194 268v-268h-134v750h134v-479z"/>
<glyph glyph-name="l" horiz-adv-x="266" unicode="l" d="M200 0h-134v750h134v-750z"/>
<glyph glyph-name="m" horiz-adv-x="866" unicode="m" d="M604 402q-32 0 -52.5 -14.5t-31.5 -38t-15 -53t-4 -60.5v-236h-134v314q0 48 -18.5 68t-50.5 20t-52 -14.5t-31 -38t-15 -53.5t-4 -61v-235h-134v504h122l5 -67q7 13 20 27.5t30.5 26t39.5 19t48 7.5q105 0 143 -78q21 31 56 54.5t94 23.5q96 0 141 -52t45 -145v-320 h-134v314q0 48 -18 68t-50 20z"/>
<glyph glyph-name="n" d="M196 0h-134v504h122l5 -67q7 13 19.5 27t30.5 26t42 19.5t54 7.5q96 0 137 -52.5t41 -144.5v-320h-134v312q0 52 -22 71t-54 19q-33 0 -54 -13t-32.5 -36t-16 -53.5t-4.5 -64.5v-235z" unicode="n"/>
<glyph glyph-name="o" horiz-adv-x="584" unicode="o" d="M292 517q58 0 104 -18.5t78.5 -53t49.5 -83.5t17 -110q0 -129 -66 -197.5t-183 -68.5t-183.5 69t-66.5 197q0 61 17.5 110t50 83.5t78.5 53t104 18.5zM292 101q62 0 88 40.5t26 110.5q0 69 -28.5 109.5t-85.5 40.5t-86 -40.5t-29 -109.5q0 -70 26 -110.5t89 -40.5z"/>
<glyph glyph-name="p" horiz-adv-x="587" unicode="p" d="M332 517q57 0 97 -19.5t66 -54t38 -82.5t12 -105q0 -70 -19.5 -120t-51 -82.5t-73 -48t-84.5 -15.5q-65 0 -121 31v-241h-134v724h121l4 -62q7 13 20.5 26.5t32 24t42 17.5t50.5 7zM305 402q-33 0 -54 -13.5t-33.5 -36.5t-17 -53.5t-4.5 -64.5v-103q11 -8 36 -18t62 -10 q52 0 83.5 37t31.5 116q0 63 -25.5 104.5t-78.5 41.5z"/>
<glyph glyph-name="q" horiz-adv-x="587" unicode="q" d="M258 517q31 0 55 -7.5t41.5 -18.5t28.5 -23.5t17 -21.5l4 58h121v-724h-134v253q-23 -20 -57.5 -31.5t-70.5 -11.5q-42 0 -82 15t-71 47.5t-49.5 82.5t-18.5 120q0 57 12.5 105.5t39 83t67 54t97.5 19.5zM282 402q-53 0 -78.5 -41t-25.5 -106q0 -78 27.5 -115t75.5 -37 q33 0 61.5 9t48.5 26v95q0 33 -5 64t-17 54t-33 37t-54 14z"/>
<glyph glyph-name="r" horiz-adv-x="411" unicode="r" d="M334 513q30 0 44.5 -3t22.5 -6l-10 -114q-5 2 -22.5 5.5t-40.5 3.5q-24 0 -47 -8.5t-42 -30t-30.5 -57.5t-11.5 -90v-213h-134v504h122l5 -77q7 14 21 29t33 28t42 21t48 8z"/>
<glyph glyph-name="s" horiz-adv-x="490" unicode="s" d="M72 135q27 -15 67 -29.5t105 -14.5q45 0 62 13t17 33t-14.5 33.5t-58.5 22.5l-57 12q-32 7 -59.5 18t-47.5 29t-31.5 44t-11.5 63q0 33 13.5 62t39 50t62.5 33.5t84 12.5q63 0 114.5 -14.5t80.5 -33.5l-39 -92q-21 10 -57.5 22t-88.5 12q-48 0 -67.5 -12.5t-19.5 -34.5 q0 -17 11.5 -29t52.5 -20l60 -12q85 -17 123.5 -53.5t38.5 -102.5q0 -75 -51 -118t-160 -43q-72 0 -128.5 19t-84.5 41z"/>
<glyph glyph-name="t" horiz-adv-x="411" unicode="t" d="M317 103q21 0 36.5 2t26.5 4l9 -108q-14 -3 -41.5 -7t-65.5 -4q-94 0 -134 43.5t-40 117.5v240h-91v113h91v128l134 30v-158h130v-113h-130v-218q0 -44 20 -57t55 -13z"/>
<glyph glyph-name="u" d="M377 504h134v-504h-122l-5 66q-20 -32 -58.5 -55.5t-99.5 -23.5q-89 0 -127.5 52t-38.5 145v320h134v-312q0 -52 22 -71t53 -19q32 0 53 13t33 35.5t17 52.5t5 65v236z" unicode="u"/>
<glyph glyph-name="v" horiz-adv-x="521" unicode="v" d="M188 0l-180 504h148l109 -372l104 372h144l-180 -504h-145z"/>
<glyph glyph-name="w" horiz-adv-x="710" unicode="w" d="M8 504h139l79 -362l78 341h112l76 -341l78 362h132l-137 -504h-136l-74 307l-75 -307h-134z"/>
<glyph glyph-name="x" horiz-adv-x="518" unicode="x" d="M346 504h135l-150 -241l177 -263h-157l-106 170l-103 -170h-135l171 261l-163 243h155l92 -149z"/>
<glyph glyph-name="y" horiz-adv-x="528" unicode="y" d="M8 504h149l110 -318l115 318h138l-305 -724h-128l107 257z"/>
<glyph glyph-name="z" horiz-adv-x="511" unicode="z" d="M43 98l262 298h-253v108h416v-99l-267 -297h266v-108h-424v98z"/>
<glyph glyph-name="braceleft" horiz-adv-x="384" unicode="{" d="M49 363q47 8 63.5 34t16.5 61v108q0 43 11.5 77t38.5 58t70 36.5t106 12.5v-113q-35 0 -54.5 -8.5t-30 -22t-13 -32t-2.5 -37.5v-117q0 -39 -16.5 -66t-49.5 -47q33 -20 49.5 -46.5t16.5 -66.5v-117q0 -19 2.5 -37t13 -32t30 -22.5t54.5 -8.5v-113q-63 0 -106.5 12.5 t-70 36.5t-38 58t-11.5 78v107q0 35 -16.5 61t-63.5 34v112z"/>
<glyph glyph-name="bar" horiz-adv-x="289" unicode="|" d="M82 -47v797h125v-797h-125z"/>
<glyph glyph-name="braceright" horiz-adv-x="384" unicode="}" d="M335 251q-47 -8 -63.5 -34t-16.5 -61v-107q0 -44 -11.5 -78t-38 -58t-69.5 -36.5t-107 -12.5v113q35 0 55 8.5t30 22.5t12.5 32t2.5 37v117q0 40 16.5 66.5t49.5 46.5q-33 20 -49.5 47t-16.5 66v117q0 19 -2.5 37.5t-13 32t-30.5 22t-54 8.5v113q63 0 106.5 -12.5 t70 -36.5t38 -58t11.5 -77v-108q0 -35 16.5 -61t63.5 -34v-112z"/>
<glyph glyph-name="asciitilde" horiz-adv-x="616" unicode="~" d="M400 428q34 0 59 13t54 41l70 -81q-15 -17 -34.5 -34.5t-42 -31t-48 -22t-53.5 -8.5q-35 0 -63 13t-51 27q-18 11 -36.5 20t-37.5 9q-34 0 -59.5 -13.5t-55.5 -41.5l-69 84q15 16 34 33t41.5 30.5t48.5 22t55 8.5q35 0 63 -13t51 -27q18 -11 36.5 -20t37.5 -9z"/>
<glyph glyph-name="uni00A0" horiz-adv-x="245" unicode=" "/>
<glyph glyph-name="exclamdown" horiz-adv-x="322" unicode="¡" d="M240 429q0 -37 -21 -60t-57 -23t-57 24t-21 59t21 59t57 24t57 -23t21 -60zM232 -200h-141v479h141v-479z"/>
<glyph glyph-name="cent" horiz-adv-x="592" unicode="¢" d="M212 346q0 -64 21.5 -99t60.5 -48v293q-38 -13 -60 -49t-22 -97zM368 609q31 -3 55 -10.5t42 -17t30.5 -19t18.5 -15.5l-54 -88q-8 6 -33 20.5t-60 19.5v-308q35 3 59 13t38 18l49 -85q-8 -6 -20.5 -14.5t-30.5 -17t-41.5 -15t-54.5 -9.5v-94h-72v95q-106 13 -158 81.5 t-52 183.5q0 54 14.5 99t42 79t66.5 55.5t87 27.5v95h74v-94z"/>
<glyph glyph-name="sterling" horiz-adv-x="592" unicode="£" d="M85 429h67q-3 22 -5 44.5t-2 39.5q0 43 13 80.5t41 65.5t71.5 44t104.5 16q36 0 66.5 -7.5t53.5 -19t39.5 -23.5t25.5 -21l-63 -97q-4 4 -14 12t-25.5 16t-35 14.5t-42.5 6.5q-45 0 -71 -24t-26 -72q0 -17 1.5 -36.5t3.5 -38.5h159v-109h-141q2 -14 3 -27.5t1 -24.5 q0 -33 -9 -58t-21 -43.5t-25 -30.5t-21 -19h313v-117h-455v109q14 15 28 32t25.5 37.5t18.5 44.5t7 53q0 9 -0.5 21t-1.5 23h-84v109z"/>
<glyph glyph-name="currency" horiz-adv-x="592" unicode="¤" d="M404 345q0 54 -31.5 85t-79.5 31q-46 0 -78 -31t-32 -85t32 -85.5t78 -31.5q48 0 79.5 31.5t31.5 85.5zM489 472q16 -26 25 -58.5t9 -68.5q0 -75 -35 -128l84 -84l-66 -66l-85 84q-27 -18 -60 -27t-68 -9q-73 0 -128 36l-85 -84l-66 66l84 83q-34 53 -34 129q0 75 35 128 l-85 85l66 67l85 -87q28 17 60.5 26.5t67.5 9.5q70 0 125 -34l90 90l69 -70z"/>
<glyph glyph-name="yen" horiz-adv-x="592" unicode="¥" d="M230 0v126h-148v86h148v63h-148v86h119l-188 342h150l138 -284l136 284h144l-190 -342h122v-86h-151v-63h151v-86h-151v-126h-132z"/>
<glyph glyph-name="brokenbar" horiz-adv-x="289" unicode="¦" d="M82 -220v353h125v-353h-125zM82 398v352h125v-352h-125z"/>
<glyph glyph-name="section" horiz-adv-x="578" unicode="§" d="M239 401l-37 16q-27 -35 -27 -72q0 -20 7 -34t19 -24.5t28.5 -18.5t35.5 -16l61 -26l38 -16q12 16 19.5 34t7.5 38t-7 34t-19.5 24.5t-29 18.5t-35.5 16zM499 300q0 -91 -60 -146q17 -20 26.5 -47.5t9.5 -66.5q0 -37 -13 -69t-38.5 -56t-62.5 -37.5t-85 -13.5 q-64 0 -115.5 15t-80.5 34l39 93q20 -10 59 -23t88 -13q15 0 30.5 3.5t28 12t20.5 23t8 35.5q0 23 -15 39t-50 30l-81 33q-32 13 -57.5 29t-44 37t-28.5 49t-10 66q0 42 14.5 79t45.5 66q-18 20 -27.5 48t-9.5 67q0 37 13.5 69.5t39 56t63 37t84.5 13.5q64 0 115 -15t80 -34 l-39 -93q-29 15 -68.5 25.5t-77.5 10.5q-34 0 -60.5 -17t-26.5 -56q0 -26 17 -42t47 -28l82 -33q64 -26 102 -66.5t38 -114.5z"/>
<glyph glyph-name="dieresis" horiz-adv-x="504" unicode="¨" d="M444 674q0 -35 -20.5 -57.5t-54.5 -22.5t-54.5 23.5t-20.5 56.5t20.5 56.5t54.5 23.5t54.5 -22.5t20.5 -57.5zM210 674q0 -35 -20.5 -57.5t-54.5 -22.5t-54.5 23.5t-20.5 56.5t20.5 56.5t54.5 23.5t54.5 -22.5t20.5 -57.5z"/>
<glyph glyph-name="copyright" horiz-adv-x="797" unicode="©" d="M663 352q0 58 -20 107.5t-55 86.5t-83 58t-105 21t-106 -21t-84.5 -58t-55.5 -86.5t-20 -107.5t20 -107.5t55 -86t84 -57.5t106 -21t105.5 21t83.5 57.5t55 86t20 107.5zM321 352q0 -55 24.5 -81t64.5 -26q35 0 59.5 8.5t32.5 12.5l31 -67q-2 -2 -12 -8.5t-26 -13 t-38 -11.5t-49 -5q-88 0 -134.5 50t-46.5 141q0 87 47 139t134 52q28 0 51 -6t39 -13.5t25.5 -14.5t11.5 -9l-33 -68q-4 4 -30.5 15t-61.5 11q-40 0 -64.5 -26t-24.5 -80zM763 353q0 -77 -28 -144t-77 -116.5t-115.5 -77.5t-143.5 -28t-143.5 28t-115.5 77.5t-77 116.5 t-28 144q0 76 28 143t77 116.5t115.5 78t144.5 28.5q77 0 143.5 -28.5t115 -78t76.5 -116.5t28 -143z"/>
<glyph glyph-name="ordfeminine" horiz-adv-x="383" unicode="ª" d="M320 267h-284v83h284v-83zM243 407l-3 34q-16 -19 -41 -30.5t-54 -11.5q-45 0 -77 23t-32 75q0 46 31.5 76.5t106.5 30.5q32 0 47 -5v9q0 45 -57 45q-26 0 -48 -6.5t-39 -14.5l-23 63q11 7 42.5 17.5t76.5 10.5q28 0 54.5 -6t47 -19.5t33 -36.5t12.5 -56v-198h-77z M220 535q-2 0 -12.5 2t-27.5 2t-33 -8.5t-16 -31.5q0 -32 30 -32q28 0 43.5 14t15.5 37v17z"/>
<glyph glyph-name="guillemotleft" horiz-adv-x="535" unicode="«" d="M157 57l-115 193l115 193h123l-111 -193l111 -193h-123zM370 57l-115 193l115 193h123l-111 -193l111 -193h-123z"/>
<glyph glyph-name="logicalnot" horiz-adv-x="592" unicode="¬" d="M76 492h440v-297h-120v181h-320v116z"/>
<glyph glyph-name="uni00AD" horiz-adv-x="430" unicode="­" d="M52 344h326v-128h-326v128z"/>
<glyph glyph-name="registered" horiz-adv-x="797" unicode="®" d="M449 418q0 23 -14 33t-43 10h-43v-86h40q60 0 60 43zM554 165h-94l-70 132h-41v-132h-87v373h145q36 0 61 -11t40.5 -28t22 -37.5t6.5 -38.5q0 -48 -18 -74t-48 -38zM663 352q0 57 -20 107t-55 87t-83 58t-105 21t-106 -21t-84.5 -58t-55.5 -87t-20 -107t20 -107 t55 -86.5t84 -57.5t106 -21t105.5 21t83.5 57.5t55 86.5t20 107zM763 353q0 -77 -28 -144t-77 -116.5t-115.5 -77.5t-143.5 -28t-143.5 28t-115.5 77.5t-77 116.5t-28 144q0 76 28 143t77 116.5t115.5 78t144.5 28.5q77 0 143.5 -28.5t115 -78t76.5 -116.5t28 -143z"/>
<glyph glyph-name="macron" horiz-adv-x="505" unicode="¯" d="M98 601v106h308v-106h-308z"/>
<glyph glyph-name="degree" horiz-adv-x="493" unicode="°" d="M316 557q0 29 -19.5 49t-50.5 20q-29 0 -48.5 -20t-19.5 -50t19.5 -50t49.5 -20t49.5 20t19.5 51zM400 557q0 -33 -12 -60t-32.5 -47t-48.5 -31t-60 -11q-33 0 -61 11t-48.5 30.5t-32 47t-11.5 59.5t11.5 59.5t32 47.5t48.5 31t60 11q33 0 61 -11t48.5 -30.5t32.5 -47 t12 -59.5z"/>
<glyph glyph-name="plusminus" horiz-adv-x="614" unicode="±" d="M66 116h481v-116h-481v116zM66 497h181v182h120v-182h180v-116h-180v-182h-120v182h-181v116z"/>
<glyph glyph-name="twosuperior" horiz-adv-x="424" unicode="²" d="M167 508q36 23 50.5 41t14.5 34q0 17 -11 27.5t-34 10.5q-20 0 -42.5 -13.5t-43.5 -36.5l-56 58q7 9 20.5 22t33 24.5t44.5 19.5t57 8q41 0 68.5 -10.5t44.5 -27t24 -35.5t7 -35q0 -44 -28 -75t-67 -57q-19 -12 -31 -20.5t-19 -15.5t-11 -14t-7 -16h174v-85h-296v20 q0 54 23.5 96t84.5 80z"/>
<glyph glyph-name="threesuperior" horiz-adv-x="424" unicode="³" d="M143 545h38q42 0 57.5 11.5t15.5 28.5q0 14 -13.5 25t-43.5 11q-18 0 -33.5 -4t-27.5 -9.5t-20.5 -11t-12.5 -8.5l-34 67q18 16 58 32t91 16q39 0 65.5 -8.5t43 -22.5t24 -32.5t7.5 -39.5q0 -31 -18 -53t-43 -34q30 -10 49.5 -33.5t19.5 -56.5q0 -58 -44 -88.5 t-122 -30.5q-36 0 -73 6t-57 12l16 82q20 -7 47.5 -11.5t50.5 -4.5q42 0 59.5 11.5t17.5 33.5q0 17 -16 27.5t-62 10.5h-40v74z"/>
<glyph glyph-name="acute" horiz-adv-x="506" unicode="´" d="M346 782l50 -101l-246 -111l-40 81z"/>
<glyph glyph-name="mu" d="M62 504h134v-307q0 -51 22 -73t53 -22q33 0 54 12.5t33 34.5t17 51.5t5 64.5v239h134v-504h-122l-5 66q-15 -32 -42.5 -55.5t-72.5 -23.5q-22 0 -43 8.5t-37 25.5v-241h-130v724z" unicode="µ"/>
<glyph glyph-name="paragraph" horiz-adv-x="672" unicode="¶" d="M283 278q-56 0 -100.5 15t-76 42.5t-48.5 66t-17 86.5q0 57 19 98t53 67t82 38t107 12h288v-839h-115v730h-76v-730h-116v414z"/>
<glyph glyph-name="periodcentered" horiz-adv-x="270" unicode="·" d="M213 361q0 -37 -21 -60t-57 -23t-57 24t-21 59t21 59t57 24t57 -23t21 -60z"/>
<glyph glyph-name="cedilla" horiz-adv-x="505" unicode="¸" d="M281 0l-10 -54q51 -5 81.5 -29.5t30.5 -72.5q0 -58 -42.5 -86t-111.5 -28q-43 0 -72 7.5t-34 9.5l21 72q17 -5 36 -9t39 -4q66 0 66 37q0 13 -13.5 23t-45.5 10q-15 0 -26.5 -1t-18.5 -3l30 128h70z"/>
<glyph glyph-name="onesuperior" horiz-adv-x="424" unicode="¹" d="M183 590l-96 -53l-42 75l156 84h87v-384h-105v278z"/>
<glyph glyph-name="ordmasculine" horiz-adv-x="380" unicode="º" d="M345 267h-308v83h308v-83zM191 473q29 0 43 23t14 65t-14 65.5t-43 23.5t-43.5 -23.5t-14.5 -65.5t14.5 -65t43.5 -23zM191 398q-76 0 -116.5 44t-40.5 119q0 72 41 117.5t116 45.5t116 -45t41 -118q0 -75 -40.5 -119t-116.5 -44z"/>
<glyph glyph-name="guillemotright" horiz-adv-x="535" unicode="»" d="M153 250l-111 193h123l115 -193l-115 -193h-123zM366 250l-111 193h123l115 -193l-115 -193h-123z"/>
<glyph glyph-name="onequarter" horiz-adv-x="916" unicode="¼" d="M159 590l-96 -53l-42 75l156 84h87v-384h-105v278zM809 222v-65h48v-85h-48v-71h-93v71h-187v66l121 247h108l-110 -228h68v65h93zM564 690h125l-373 -690h-125z"/>
<glyph glyph-name="onehalf" horiz-adv-x="916" unicode="½" d="M680 197q36 23 50.5 41t14.5 34q0 17 -11 27.5t-34 10.5q-20 0 -42.5 -13.5t-43.5 -36.5l-56 58q7 9 20.5 22t33 24.5t44.5 19.5t57 8q41 0 68.5 -10.5t44.5 -27t24 -35.5t7 -35q0 -44 -28 -75t-67 -57q-19 -12 -31 -20.5t-19 -15.5t-11 -14t-7 -16h174v-85h-296v20 q0 54 23.5 96t84.5 80zM553 690h125l-373 -690h-125zM148 590l-96 -53l-42 75l156 84h87v-384h-105v278z"/>
<glyph glyph-name="threequarters" horiz-adv-x="916" unicode="¾" d="M609 690h125l-373 -690h-125zM854 222v-65h48v-85h-48v-71h-93v71h-187v66l121 247h108l-110 -228h68v65h93zM138 545h38q42 0 57.5 11.5t15.5 28.5q0 14 -13.5 25t-43.5 11q-18 0 -33.5 -4t-27.5 -9.5t-20.5 -11t-12.5 -8.5l-34 67q18 16 58 32t91 16q39 0 65.5 -8.5 t43 -22.5t24 -32.5t7.5 -39.5q0 -31 -18 -53t-43 -34q30 -10 49.5 -33.5t19.5 -56.5q0 -58 -44 -88.5t-122 -30.5q-36 0 -73 6t-57 12l16 82q20 -7 47.5 -11.5t50.5 -4.5q42 0 59.5 11.5t17.5 33.5q0 17 -16 27.5t-62 10.5h-40v74z"/>
<glyph glyph-name="questiondown" horiz-adv-x="566" unicode="¿" d="M393 433q0 -35 -23 -58.5t-57 -23.5t-57.5 23.5t-23.5 58.5q0 34 23.5 57t57.5 23t57 -23t23 -57zM381 282q0 -39 -7 -67.5t-20.5 -52t-33 -43.5t-44.5 -41q-12 -10 -24.5 -21t-22.5 -23t-16.5 -25.5t-6.5 -28.5q0 -29 23.5 -53t69.5 -24t88 20t75 52l68 -86 q-15 -18 -38 -36.5t-53 -33.5t-67 -24.5t-80 -9.5q-65 0 -109 18t-70.5 46t-38 62.5t-11.5 68.5q0 27 9 51.5t23 44.5t32 37t35 29q16 11 32 23.5t28.5 29t20 37.5t7.5 50h131z"/>
<glyph glyph-name="Agrave" horiz-adv-x="619" unicode="À" d="M220 263h169l-83 277zM424 146h-240l-44 -146h-130l230 703h140l229 -703h-141zM437 757l-273 98l42 105l264 -119z"/>
<glyph glyph-name="Aacute" horiz-adv-x="619" unicode="Á" d="M220 263h169l-83 277zM424 146h-240l-44 -146h-130l230 703h140l229 -703h-141zM407 960l42 -105l-273 -98l-33 84z"/>
<glyph glyph-name="Acircumflex" horiz-adv-x="619" unicode="Â" d="M220 263h169l-83 277zM424 146h-240l-44 -146h-130l230 703h140l229 -703h-141zM450 759l-145 96l-145 -96l-58 69l158 138h90l158 -138z"/>
<glyph glyph-name="Atilde" horiz-adv-x="619" unicode="Ã" d="M220 263h169l-83 277zM424 146h-240l-44 -146h-130l230 703h140l229 -703h-141zM111 781q0 72 30 111t87 39q27 0 48.5 -9t40.5 -19.5t37 -19t37 -8.5q25 0 35.5 13.5t10.5 39.5h77q0 -73 -30 -111.5t-87 -38.5q-27 0 -48.5 9t-40.5 19.5t-36.5 19.5t-36.5 9 q-26 0 -36.5 -14t-10.5 -40h-77z"/>
<glyph glyph-name="Adieresis" horiz-adv-x="619" unicode="Ä" d="M220 263h169l-83 277zM424 146h-240l-44 -146h-130l230 703h140l229 -703h-141zM500 870q0 -35 -20.5 -57.5t-54.5 -22.5t-54.5 23.5t-20.5 56.5t20.5 56.5t54.5 23.5t54.5 -22.5t20.5 -57.5zM262 870q0 -35 -20.5 -57.5t-54.5 -22.5t-54.5 23.5t-20.5 56.5t20.5 56.5 t54.5 23.5t54.5 -22.5t20.5 -57.5z"/>
<glyph glyph-name="Aring" horiz-adv-x="619" unicode="Å" d="M360 760q0 23 -15.5 38.5t-37.5 15.5q-23 0 -38 -15.5t-15 -38.5t15 -38.5t38 -15.5q22 0 37.5 15.5t15.5 38.5zM220 263h169l-83 277zM447 761q0 -33 -14 -60.5t-38 -44.5l214 -656h-141l-44 146h-240l-44 -146h-130l213 652q-26 18 -41 46t-15 62q0 30 11 55t30.5 43 t44.5 28.5t54 10.5t54.5 -10.5t44.5 -28.5t30 -43t11 -54z"/>
<glyph glyph-name="AE" horiz-adv-x="939" unicode="Æ" d="M313 298h156v308zM392 703h511v-124h-296v-153h226v-124h-226v-178h306v-124h-444v186h-216l-99 -186h-144z"/>
<glyph glyph-name="Ccedilla" horiz-adv-x="636" unicode="Ç" d="M386 595q-48 0 -83 -19.5t-58 -53t-34 -77.5t-11 -93q0 -50 9.5 -93.5t31 -75.5t55 -50t81.5 -18q25 0 50 4.5t47.5 12t40 16t27.5 16.5l54 -98q-38 -31 -93.5 -51t-121.5 -23l-9 -47q52 -6 84.5 -31t32.5 -73q0 -30 -12 -52t-33 -36.5t-50 -21.5t-63 -7q-44 0 -74.5 8 t-35.5 10l22 73q17 -5 37 -9t40 -4q35 0 52 10.5t17 27.5q0 13 -14.5 23t-47.5 10q-15 0 -27 -1t-19 -3l28 125q-128 16 -191.5 109t-63.5 249q0 79 20.5 145.5t61 114.5t100.5 75t138 27q72 0 127.5 -20.5t97.5 -56.5l-62 -98q-21 20 -59 38t-92 18z"/>
<glyph glyph-name="Egrave" horiz-adv-x="547" unicode="È" d="M74 703h438v-124h-298v-153h228v-124h-228v-178h308v-124h-448v703zM412 757l-273 98l42 105l264 -119z"/>
<glyph glyph-name="Eacute" horiz-adv-x="547" unicode="É" d="M74 703h438v-124h-298v-153h228v-124h-228v-178h308v-124h-448v703zM414 960l42 -105l-273 -98l-33 84z"/>
<glyph glyph-name="Ecircumflex" horiz-adv-x="547" unicode="Ê" d="M74 703h438v-124h-298v-153h228v-124h-228v-178h308v-124h-448v703zM444 759l-145 96l-145 -96l-58 69l158 138h90l158 -138z"/>
<glyph glyph-name="Edieresis" horiz-adv-x="547" unicode="Ë" d="M74 703h438v-124h-298v-153h228v-124h-228v-178h308v-124h-448v703zM489 870q0 -35 -20.5 -57.5t-54.5 -22.5t-54.5 23.5t-20.5 56.5t20.5 56.5t54.5 23.5t54.5 -22.5t20.5 -57.5zM251 870q0 -35 -20.5 -57.5t-54.5 -22.5t-54.5 23.5t-20.5 56.5t20.5 56.5t54.5 23.5 t54.5 -22.5t20.5 -57.5z"/>
<glyph glyph-name="Igrave" horiz-adv-x="289" unicode="Ì" d="M215 0h-141v703h141v-703zM269 757l-273 98l42 105l264 -119z"/>
<glyph glyph-name="Iacute" horiz-adv-x="289" unicode="Í" d="M215 0h-141v703h141v-703zM263 960l42 -105l-273 -98l-33 84z"/>
<glyph glyph-name="Icircumflex" horiz-adv-x="289" unicode="Î" d="M215 0h-141v703h141v-703zM291 759l-145 96l-145 -96l-58 69l158 138h90l158 -138z"/>
<glyph glyph-name="Idieresis" horiz-adv-x="289" unicode="Ï" d="M215 0h-141v703h141v-703zM340 870q0 -35 -20.5 -57.5t-54.5 -22.5t-54.5 23.5t-20.5 56.5t20.5 56.5t54.5 23.5t54.5 -22.5t20.5 -57.5zM102 870q0 -35 -20.5 -57.5t-54.5 -22.5t-54.5 23.5t-20.5 56.5t20.5 56.5t54.5 23.5t54.5 -22.5t20.5 -57.5z"/>
<glyph glyph-name="Eth" horiz-adv-x="734" unicode="Ð" d="M338 121q45 0 81.5 16.5t62 47t39 73t13.5 94.5q0 117 -53.5 173.5t-142.5 56.5h-103v-168h140v-112h-140v-181h103zM11 414h84v289h243q87 0 151 -25.5t106.5 -72t63.5 -111t21 -143.5q0 -80 -21 -145t-63.5 -110.5t-107 -70.5t-150.5 -25h-243v302h-84v112z"/>
<glyph glyph-name="Ntilde" horiz-adv-x="698" unicode="Ñ" d="M207 490v-490h-133v703h141l276 -480v480h133v-703h-130zM161 781q0 72 30 111t87 39q27 0 48.5 -9t40.5 -19.5t37 -19t37 -8.5q25 0 35.5 13.5t10.5 39.5h77q0 -73 -30 -111.5t-87 -38.5q-27 0 -48.5 9t-40.5 19.5t-36.5 19.5t-36.5 9q-26 0 -36.5 -14t-10.5 -40h-77z "/>
<glyph glyph-name="Ograve" horiz-adv-x="747" unicode="Ò" d="M200 352q0 -112 42.5 -176t130.5 -64t130.5 64t42.5 176t-42.5 175.5t-130.5 63.5t-130.5 -63.5t-42.5 -175.5zM54 352q0 80 19 147.5t58.5 116t99.5 76t142 27.5t142.5 -27.5t100 -76t58.5 -116t19 -147.5t-19 -147.5t-58.5 -116.5t-100 -76.5t-142.5 -27.5t-142 27.5 t-99.5 76.5t-58.5 116.5t-19 147.5zM503 757l-273 98l42 105l264 -119z"/>
<glyph glyph-name="Oacute" horiz-adv-x="747" unicode="Ó" d="M200 352q0 -112 42.5 -176t130.5 -64t130.5 64t42.5 176t-42.5 175.5t-130.5 63.5t-130.5 -63.5t-42.5 -175.5zM54 352q0 80 19 147.5t58.5 116t99.5 76t142 27.5t142.5 -27.5t100 -76t58.5 -116t19 -147.5t-19 -147.5t-58.5 -116.5t-100 -76.5t-142.5 -27.5t-142 27.5 t-99.5 76.5t-58.5 116.5t-19 147.5zM491 960l42 -105l-273 -98l-33 84z"/>
<glyph glyph-name="Ocircumflex" horiz-adv-x="747" unicode="Ô" d="M200 352q0 -112 42.5 -176t130.5 -64t130.5 64t42.5 176t-42.5 175.5t-130.5 63.5t-130.5 -63.5t-42.5 -175.5zM54 352q0 80 19 147.5t58.5 116t99.5 76t142 27.5t142.5 -27.5t100 -76t58.5 -116t19 -147.5t-19 -147.5t-58.5 -116.5t-100 -76.5t-142.5 -27.5t-142 27.5 t-99.5 76.5t-58.5 116.5t-19 147.5zM520 759l-145 96l-145 -96l-58 69l158 138h90l158 -138z"/>
<glyph glyph-name="Otilde" horiz-adv-x="747" unicode="Õ" d="M200 352q0 -112 42.5 -176t130.5 -64t130.5 64t42.5 176t-42.5 175.5t-130.5 63.5t-130.5 -63.5t-42.5 -175.5zM54 352q0 80 19 147.5t58.5 116t99.5 76t142 27.5t142.5 -27.5t100 -76t58.5 -116t19 -147.5t-19 -147.5t-58.5 -116.5t-100 -76.5t-142.5 -27.5t-142 27.5 t-99.5 76.5t-58.5 116.5t-19 147.5zM191 781q0 72 30 111t87 39q27 0 48.5 -9t40.5 -19.5t37 -19t37 -8.5q25 0 35.5 13.5t10.5 39.5h77q0 -73 -30 -111.5t-87 -38.5q-27 0 -48.5 9t-40.5 19.5t-36.5 19.5t-36.5 9q-26 0 -36.5 -14t-10.5 -40h-77z"/>
<glyph glyph-name="Odieresis" horiz-adv-x="747" unicode="Ö" d="M200 352q0 -112 42.5 -176t130.5 -64t130.5 64t42.5 176t-42.5 175.5t-130.5 63.5t-130.5 -63.5t-42.5 -175.5zM54 352q0 80 19 147.5t58.5 116t99.5 76t142 27.5t142.5 -27.5t100 -76t58.5 -116t19 -147.5t-19 -147.5t-58.5 -116.5t-100 -76.5t-142.5 -27.5t-142 27.5 t-99.5 76.5t-58.5 116.5t-19 147.5zM568 870q0 -35 -20.5 -57.5t-54.5 -22.5t-54.5 23.5t-20.5 56.5t20.5 56.5t54.5 23.5t54.5 -22.5t20.5 -57.5zM330 870q0 -35 -20.5 -57.5t-54.5 -22.5t-54.5 23.5t-20.5 56.5t20.5 56.5t54.5 23.5t54.5 -22.5t20.5 -57.5z"/>
<glyph glyph-name="multiply" horiz-adv-x="630" unicode="×" d="M530 190l-83 -77l-132 143l-132 -143l-83 77l138 148l-138 149l83 77l132 -143l133 143l82 -77l-138 -149z"/>
<glyph glyph-name="Oslash" horiz-adv-x="747" unicode="Ø" d="M293 131q34 -19 80 -19q88 0 130.5 64t42.5 176q0 81 -24 137zM453 572q-34 19 -80 19q-88 0 -130.5 -63.5t-42.5 -175.5q0 -84 24 -139zM167 -67l-88 52l59 93q-43 51 -63.5 120t-20.5 154q0 80 19 147.5t58.5 116t99.5 76t142 27.5q89 0 153 -34l53 83l88 -52l-59 -92 q85 -101 85 -272q0 -80 -19 -147.5t-58.5 -116.5t-100 -76.5t-142.5 -27.5q-45 0 -83 8.5t-70 24.5z"/>
<glyph glyph-name="Ugrave" horiz-adv-x="682" unicode="Ù" d="M341 -16q-77 0 -129.5 19.5t-85 57.5t-47 94t-14.5 130v418h141v-404q0 -54 7 -91t23 -60t41.5 -33t63.5 -10q37 0 63 10t42 33t23 59.5t7 90.5v405h141v-419q0 -74 -14.5 -130t-47.5 -93.5t-85.5 -57t-128.5 -19.5zM452 757l-273 98l42 105l264 -119z"/>
<glyph glyph-name="Uacute" horiz-adv-x="682" unicode="Ú" d="M341 -16q-77 0 -129.5 19.5t-85 57.5t-47 94t-14.5 130v418h141v-404q0 -54 7 -91t23 -60t41.5 -33t63.5 -10q37 0 63 10t42 33t23 59.5t7 90.5v405h141v-419q0 -74 -14.5 -130t-47.5 -93.5t-85.5 -57t-128.5 -19.5zM474 960l42 -105l-273 -98l-33 84z"/>
<glyph glyph-name="Ucircumflex" horiz-adv-x="682" unicode="Û" d="M341 -16q-77 0 -129.5 19.5t-85 57.5t-47 94t-14.5 130v418h141v-404q0 -54 7 -91t23 -60t41.5 -33t63.5 -10q37 0 63 10t42 33t23 59.5t7 90.5v405h141v-419q0 -74 -14.5 -130t-47.5 -93.5t-85.5 -57t-128.5 -19.5zM487 759l-145 96l-145 -96l-58 69l158 138h90 l158 -138z"/>
<glyph glyph-name="Udieresis" horiz-adv-x="682" unicode="Ü" d="M341 -16q-77 0 -129.5 19.5t-85 57.5t-47 94t-14.5 130v418h141v-404q0 -54 7 -91t23 -60t41.5 -33t63.5 -10q37 0 63 10t42 33t23 59.5t7 90.5v405h141v-419q0 -74 -14.5 -130t-47.5 -93.5t-85.5 -57t-128.5 -19.5zM538 870q0 -35 -20.5 -57.5t-54.5 -22.5t-54.5 23.5 t-20.5 56.5t20.5 56.5t54.5 23.5t54.5 -22.5t20.5 -57.5zM300 870q0 -35 -20.5 -57.5t-54.5 -22.5t-54.5 23.5t-20.5 56.5t20.5 56.5t54.5 23.5t54.5 -22.5t20.5 -57.5z"/>
<glyph glyph-name="Yacute" horiz-adv-x="606" unicode="Ý" d="M232 308l-222 395h150l147 -273l146 273h143l-223 -395v-308h-141v308zM445 960l42 -105l-273 -98l-33 84z"/>
<glyph glyph-name="Thorn" horiz-adv-x="596" unicode="Þ" d="M425 358q0 31 -10 52.5t-27 34.5t-39 18.5t-47 5.5h-87v-222h79q28 0 52 6t41.5 19t27.5 34t10 52zM564 358q0 -41 -13.5 -82t-44.5 -73.5t-82.5 -53t-127.5 -20.5h-81v-129h-141v703h141v-116h89q73 0 123 -20t80.5 -52.5t43.5 -73.5t13 -83z"/>
<glyph glyph-name="germandbls" horiz-adv-x="647" unicode="ß" d="M387 92q14 0 29.5 3t28.5 10.5t21.5 20t8.5 31.5q0 31 -24.5 51.5t-78.5 42.5q-32 13 -52 27.5t-31 31t-15 34.5t-4 38q0 38 20 64t46 51q19 21 37.5 43.5t18.5 50.5q0 34 -27 49.5t-61 15.5q-31 0 -51.5 -10t-33 -27.5t-17.5 -40.5t-5 -49v-529h-136v531q0 109 64.5 170 t179.5 61q56 0 97.5 -12t69 -34t41 -51.5t13.5 -63.5q0 -43 -20 -73t-45 -54q-25 -23 -41 -41.5t-16 -38.5q0 -27 19.5 -41.5t61.5 -33.5q29 -14 52 -30t39.5 -36.5t25.5 -46.5t9 -60q0 -70 -52.5 -114.5t-155.5 -44.5q-52 0 -94 12.5t-58 23.5l36 96q25 -13 53.5 -20 t46.5 -7z"/>
<glyph glyph-name="agrave" horiz-adv-x="534" unicode="à" d="M208 -13q-33 0 -63.5 8t-54.5 27t-38.5 50t-14.5 78q0 85 50.5 128t155.5 43q14 0 30.5 -1t31.5 -2.5t26 -2.5t14 -2v18q0 40 -26 59.5t-71 19.5q-60 0 -98 -12t-53 -22l-39 89q7 5 23 14t41.5 17.5t59.5 15t78 6.5q113 0 163 -48.5t50 -133.5v-336h-116l-4 51 q-19 -23 -55 -43.5t-90 -20.5zM345 223q-19 3 -43 6t-56 3q-51 0 -70 -20t-19 -59q0 -32 22 -49.5t57 -17.5q21 0 41 5.5t35 16.5t24 26.5t9 35.5v53zM375 570l-246 111l50 101l236 -131z"/>
<glyph glyph-name="aacute" horiz-adv-x="534" unicode="á" d="M208 -13q-33 0 -63.5 8t-54.5 27t-38.5 50t-14.5 78q0 85 50.5 128t155.5 43q14 0 30.5 -1t31.5 -2.5t26 -2.5t14 -2v18q0 40 -26 59.5t-71 19.5q-60 0 -98 -12t-53 -22l-39 89q7 5 23 14t41.5 17.5t59.5 15t78 6.5q113 0 163 -48.5t50 -133.5v-336h-116l-4 51 q-19 -23 -55 -43.5t-90 -20.5zM345 223q-19 3 -43 6t-56 3q-51 0 -70 -20t-19 -59q0 -32 22 -49.5t57 -17.5q21 0 41 5.5t35 16.5t24 26.5t9 35.5v53zM341 782l50 -101l-246 -111l-40 81z"/>
<glyph glyph-name="acircumflex" horiz-adv-x="534" unicode="â" d="M208 -13q-33 0 -63.5 8t-54.5 27t-38.5 50t-14.5 78q0 85 50.5 128t155.5 43q14 0 30.5 -1t31.5 -2.5t26 -2.5t14 -2v18q0 40 -26 59.5t-71 19.5q-60 0 -98 -12t-53 -22l-39 89q7 5 23 14t41.5 17.5t59.5 15t78 6.5q113 0 163 -48.5t50 -133.5v-336h-116l-4 51 q-19 -23 -55 -43.5t-90 -20.5zM345 223q-19 3 -43 6t-56 3q-51 0 -70 -20t-19 -59q0 -32 22 -49.5t57 -17.5q21 0 41 5.5t35 16.5t24 26.5t9 35.5v53zM73 636l145 139h81l144 -139l-65 -64l-120 96l-119 -96z"/>
<glyph glyph-name="atilde" horiz-adv-x="534" unicode="ã" d="M208 -13q-33 0 -63.5 8t-54.5 27t-38.5 50t-14.5 78q0 85 50.5 128t155.5 43q14 0 30.5 -1t31.5 -2.5t26 -2.5t14 -2v18q0 40 -26 59.5t-71 19.5q-60 0 -98 -12t-53 -22l-39 89q7 5 23 14t41.5 17.5t59.5 15t78 6.5q113 0 163 -48.5t50 -133.5v-336h-116l-4 51 q-19 -23 -55 -43.5t-90 -20.5zM345 223q-19 3 -43 6t-56 3q-51 0 -70 -20t-19 -59q0 -32 22 -49.5t57 -17.5q21 0 41 5.5t35 16.5t24 26.5t9 35.5v53zM73 580q0 72 30 111t85 39q27 0 48 -9t39.5 -19.5t35.5 -19t36 -8.5q25 0 35.5 13.5t10.5 39.5h75q0 -73 -30 -111.5 t-85 -38.5q-27 0 -48 9t-39 19.5t-35 19.5t-36 9q-26 0 -36.5 -14t-10.5 -40h-75z"/>
<glyph glyph-name="adieresis" horiz-adv-x="534" unicode="ä" d="M208 -13q-33 0 -63.5 8t-54.5 27t-38.5 50t-14.5 78q0 85 50.5 128t155.5 43q14 0 30.5 -1t31.5 -2.5t26 -2.5t14 -2v18q0 40 -26 59.5t-71 19.5q-60 0 -98 -12t-53 -22l-39 89q7 5 23 14t41.5 17.5t59.5 15t78 6.5q113 0 163 -48.5t50 -133.5v-336h-116l-4 51 q-19 -23 -55 -43.5t-90 -20.5zM345 223q-19 3 -43 6t-56 3q-51 0 -70 -20t-19 -59q0 -32 22 -49.5t57 -17.5q21 0 41 5.5t35 16.5t24 26.5t9 35.5v53zM459 674q0 -35 -20.5 -57.5t-54.5 -22.5t-54.5 23.5t-20.5 56.5t20.5 56.5t54.5 23.5t54.5 -22.5t20.5 -57.5zM225 674 q0 -35 -20.5 -57.5t-54.5 -22.5t-54.5 23.5t-20.5 56.5t20.5 56.5t54.5 23.5t54.5 -22.5t20.5 -57.5z"/>
<glyph glyph-name="aring" horiz-adv-x="534" unicode="å" d="M208 -13q-33 0 -63.5 8t-54.5 27t-38.5 50t-14.5 78q0 85 50.5 128t155.5 43q14 0 30.5 -1t31.5 -2.5t26 -2.5t14 -2v18q0 40 -26 59.5t-71 19.5q-60 0 -98 -12t-53 -22l-39 89q7 5 23 14t41.5 17.5t59.5 15t78 6.5q113 0 163 -48.5t50 -133.5v-336h-116l-4 51 q-19 -23 -55 -43.5t-90 -20.5zM345 223q-19 3 -43 6t-56 3q-51 0 -70 -20t-19 -59q0 -32 22 -49.5t57 -17.5q21 0 41 5.5t35 16.5t24 26.5t9 35.5v53zM325 685q0 23 -15.5 38.5t-38.5 15.5q-22 0 -37.5 -15.5t-15.5 -38.5t15.5 -39t37.5 -16q23 0 38.5 16t15.5 39zM411 686 q0 -30 -11 -55t-30 -43t-44.5 -28t-53.5 -10q-29 0 -54.5 10t-45 28t-30.5 43t-11 54t11 54t30.5 43t44.5 28.5t54 10.5t54.5 -10.5t44.5 -28.5t30 -43t11 -53z"/>
<glyph glyph-name="ae" horiz-adv-x="848" unicode="æ" d="M679 305q-4 52 -25 78.5t-72 26.5t-77.5 -28.5t-31.5 -76.5h206zM345 223q-19 3 -43.5 6t-55.5 3q-49 0 -69 -20t-20 -59q0 -32 22 -49.5t57 -17.5q22 0 41.5 5.5t34.5 16t24 26t9 35.5v54zM615 99q51 0 83 7.5t49 12.5l32 -94q-19 -11 -64 -25t-117 -14t-122.5 23.5 t-81.5 65.5q-10 -13 -26 -28.5t-38.5 -28.5t-52.5 -22t-69 -9q-33 0 -64 8.5t-54.5 27.5t-38 50.5t-14.5 76.5q0 48 16 81t44 53t67 28.5t85 8.5q13 0 28.5 -1.5t29.5 -3t24.5 -2.5t13.5 -1v17q0 39 -26 59.5t-71 20.5q-58 0 -97 -12t-54 -22l-39 89q7 5 23 14t41 17.5 t59.5 15t78.5 6.5q58 0 98.5 -19t66.5 -51q31 31 70 50t87 19q108 0 165.5 -64.5t57.5 -212.5v-28h-332q4 -48 38 -80.5t104 -32.5z"/>
<glyph glyph-name="ccedilla" horiz-adv-x="480" unicode="ç" d="M177 252q0 -78 33.5 -114t96.5 -36q42 0 68 11t40 20l51 -91q-9 -6 -24 -15.5t-36.5 -18.5t-49.5 -15.5t-62 -6.5h-14l-7 -40q51 -5 81.5 -29.5t30.5 -72.5q0 -58 -42.5 -86t-111.5 -28q-43 0 -72 7.5t-34 9.5l21 72q17 -5 36 -9t39 -4q66 0 66 37q0 13 -13.5 23 t-45.5 10q-15 0 -26.5 -1t-18.5 -3l29 124q-85 21 -127.5 87.5t-42.5 168.5q0 59 17.5 108t50 84t79 54t104.5 19q37 0 68 -8.5t54 -19.5t37 -21.5t18 -14.5l-60 -92q-5 3 -15 10t-24 13.5t-31.5 11.5t-36.5 5q-57 0 -91.5 -37t-34.5 -112z"/>
<glyph glyph-name="egrave" horiz-adv-x="548" unicode="è" d="M379 305q-4 52 -25 78.5t-72 26.5t-77.5 -28.5t-31.5 -76.5h206zM315 99q49 0 82 7.5t50 12.5l32 -94q-20 -11 -65.5 -25t-115.5 -14q-126 0 -191 72t-65 197q0 59 15.5 107.5t46 83t75.5 53t104 18.5q53 0 94.5 -15.5t70 -48.5t43 -86t14.5 -128v-27h-332 q5 -48 38 -80.5t104 -32.5zM385 570l-246 111l50 101l236 -131z"/>
<glyph glyph-name="eacute" horiz-adv-x="548" unicode="é" d="M379 305q-4 52 -25 78.5t-72 26.5t-77.5 -28.5t-31.5 -76.5h206zM315 99q49 0 82 7.5t50 12.5l32 -94q-20 -11 -65.5 -25t-115.5 -14q-126 0 -191 72t-65 197q0 59 15.5 107.5t46 83t75.5 53t104 18.5q53 0 94.5 -15.5t70 -48.5t43 -86t14.5 -128v-27h-332 q5 -48 38 -80.5t104 -32.5zM362 782l50 -101l-246 -111l-40 81z"/>
<glyph glyph-name="ecircumflex" horiz-adv-x="548" unicode="ê" d="M379 305q-4 52 -25 78.5t-72 26.5t-77.5 -28.5t-31.5 -76.5h206zM315 99q49 0 82 7.5t50 12.5l32 -94q-20 -11 -65.5 -25t-115.5 -14q-126 0 -191 72t-65 197q0 59 15.5 107.5t46 83t75.5 53t104 18.5q53 0 94.5 -15.5t70 -48.5t43 -86t14.5 -128v-27h-332 q5 -48 38 -80.5t104 -32.5zM99 636l145 139h81l144 -139l-65 -64l-120 96l-119 -96z"/>
<glyph glyph-name="edieresis" horiz-adv-x="548" unicode="ë" d="M379 305q-4 52 -25 78.5t-72 26.5t-77.5 -28.5t-31.5 -76.5h206zM315 99q49 0 82 7.5t50 12.5l32 -94q-20 -11 -65.5 -25t-115.5 -14q-126 0 -191 72t-65 197q0 59 15.5 107.5t46 83t75.5 53t104 18.5q53 0 94.5 -15.5t70 -48.5t43 -86t14.5 -128v-27h-332 q5 -48 38 -80.5t104 -32.5zM480 674q0 -35 -20.5 -57.5t-54.5 -22.5t-54.5 23.5t-20.5 56.5t20.5 56.5t54.5 23.5t54.5 -22.5t20.5 -57.5zM246 674q0 -35 -20.5 -57.5t-54.5 -22.5t-54.5 23.5t-20.5 56.5t20.5 56.5t54.5 23.5t54.5 -22.5t20.5 -57.5z"/>
<glyph glyph-name="igrave" horiz-adv-x="266" unicode="ì" d="M66 504h134v-504h-134v504zM234 570l-246 111l50 101l236 -131z"/>
<glyph glyph-name="iacute" horiz-adv-x="266" unicode="í" d="M66 504h134v-504h-134v504zM236 782l50 -101l-246 -111l-40 81z"/>
<glyph glyph-name="icircumflex" horiz-adv-x="266" unicode="î" d="M66 504h134v-504h-134v504zM-50 636l145 139h81l144 -139l-65 -64l-120 96l-119 -96z"/>
<glyph glyph-name="idieresis" horiz-adv-x="266" unicode="ï" d="M66 504h134v-504h-134v504zM326 674q0 -35 -20.5 -57.5t-54.5 -22.5t-54.5 23.5t-20.5 56.5t20.5 56.5t54.5 23.5t54.5 -22.5t20.5 -57.5zM92 674q0 -35 -20.5 -57.5t-54.5 -22.5t-54.5 23.5t-20.5 56.5t20.5 56.5t54.5 23.5t54.5 -22.5t20.5 -57.5z"/>
<glyph glyph-name="eth" horiz-adv-x="577" unicode="ð" d="M290 99q68 0 95 37.5t27 98.5q0 57 -29 95.5t-94 38.5t-93.5 -37.5t-28.5 -97.5q0 -63 27 -99t96 -36zM390 654q72 -66 110.5 -157t38.5 -206q0 -68 -14 -124t-44 -96t-77 -62t-114 -22q-57 0 -103 17t-78.5 49t-50 77.5t-17.5 103.5q0 55 15.5 100.5t44.5 77.5 t70.5 49.5t93.5 17.5q35 0 68.5 -12t59.5 -40q-9 45 -28.5 85t-57.5 74l-94 -77l-61 68l75 62q-22 11 -48.5 20t-57.5 17l35 92q45 -9 84 -24.5t74 -35.5l87 72l61 -69z"/>
<glyph glyph-name="ntilde" d="M196 0h-134v504h122l5 -67q7 13 19.5 27t30.5 26t42 19.5t54 7.5q96 0 137 -52.5t41 -144.5v-320h-134v312q0 52 -22 71t-54 19q-33 0 -54 -13t-32.5 -36t-16 -53.5t-4.5 -64.5v-235zM93 580q0 72 30 111t85 39q27 0 48 -9t39.5 -19.5t35.5 -19t36 -8.5q25 0 35.5 13.5 t10.5 39.5h75q0 -73 -30 -111.5t-85 -38.5q-27 0 -48 9t-39 19.5t-35 19.5t-36 9q-26 0 -36.5 -14t-10.5 -40h-75z" unicode="ñ"/>
<glyph glyph-name="ograve" horiz-adv-x="584" unicode="ò" d="M292 517q58 0 104 -18.5t78.5 -53t49.5 -83.5t17 -110q0 -129 -66 -197.5t-183 -68.5t-183.5 69t-66.5 197q0 61 17.5 110t50 83.5t78.5 53t104 18.5zM292 101q62 0 88 40.5t26 110.5q0 69 -28.5 109.5t-85.5 40.5t-86 -40.5t-29 -109.5q0 -70 26 -110.5t89 -40.5z M394 570l-246 111l50 101l236 -131z"/>
<glyph glyph-name="oacute" horiz-adv-x="584" unicode="ó" d="M292 517q58 0 104 -18.5t78.5 -53t49.5 -83.5t17 -110q0 -129 -66 -197.5t-183 -68.5t-183.5 69t-66.5 197q0 61 17.5 110t50 83.5t78.5 53t104 18.5zM292 101q62 0 88 40.5t26 110.5q0 69 -28.5 109.5t-85.5 40.5t-86 -40.5t-29 -109.5q0 -70 26 -110.5t89 -40.5z M381 782l50 -101l-246 -111l-40 81z"/>
<glyph glyph-name="ocircumflex" horiz-adv-x="584" unicode="ô" d="M292 517q58 0 104 -18.5t78.5 -53t49.5 -83.5t17 -110q0 -129 -66 -197.5t-183 -68.5t-183.5 69t-66.5 197q0 61 17.5 110t50 83.5t78.5 53t104 18.5zM292 101q62 0 88 40.5t26 110.5q0 69 -28.5 109.5t-85.5 40.5t-86 -40.5t-29 -109.5q0 -70 26 -110.5t89 -40.5z M107 636l145 139h81l144 -139l-65 -64l-120 96l-119 -96z"/>
<glyph glyph-name="otilde" horiz-adv-x="584" unicode="õ" d="M292 517q58 0 104 -18.5t78.5 -53t49.5 -83.5t17 -110q0 -129 -66 -197.5t-183 -68.5t-183.5 69t-66.5 197q0 61 17.5 110t50 83.5t78.5 53t104 18.5zM292 101q62 0 88 40.5t26 110.5q0 69 -28.5 109.5t-85.5 40.5t-86 -40.5t-29 -109.5q0 -70 26 -110.5t89 -40.5z M103 580q0 72 30 111t85 39q27 0 48 -9t39.5 -19.5t35.5 -19t36 -8.5q25 0 35.5 13.5t10.5 39.5h75q0 -73 -30 -111.5t-85 -38.5q-27 0 -48 9t-39 19.5t-35 19.5t-36 9q-26 0 -36.5 -14t-10.5 -40h-75z"/>
<glyph glyph-name="odieresis" horiz-adv-x="584" unicode="ö" d="M292 517q58 0 104 -18.5t78.5 -53t49.5 -83.5t17 -110q0 -129 -66 -197.5t-183 -68.5t-183.5 69t-66.5 197q0 61 17.5 110t50 83.5t78.5 53t104 18.5zM292 101q62 0 88 40.5t26 110.5q0 69 -28.5 109.5t-85.5 40.5t-86 -40.5t-29 -109.5q0 -70 26 -110.5t89 -40.5z M484 674q0 -35 -20.5 -57.5t-54.5 -22.5t-54.5 23.5t-20.5 56.5t20.5 56.5t54.5 23.5t54.5 -22.5t20.5 -57.5zM250 674q0 -35 -20.5 -57.5t-54.5 -22.5t-54.5 23.5t-20.5 56.5t20.5 56.5t54.5 23.5t54.5 -22.5t20.5 -57.5z"/>
<glyph glyph-name="divide" horiz-adv-x="614" unicode="÷" d="M67 403h479v-116h-479v116zM229 540q0 33 23 56t55 23t55 -23t23 -56q0 -32 -23 -54.5t-55 -22.5t-55 22.5t-23 54.5zM307 69q-32 0 -55 22.5t-23 55.5q0 32 23 55t55 23t55 -23t23 -55q0 -33 -23 -55.5t-55 -22.5z"/>
<glyph glyph-name="oslash" horiz-adv-x="584" unicode="ø" d="M292 98q55 0 81 30.5t32 85.5q3 19 3 43q0 20 -4 40t-9 34l-154 -224q21 -9 51 -9zM176 252q0 -53 13 -85l155 226q-11 5 -24.5 8.5t-27.5 3.5q-58 0 -87 -41.5t-29 -111.5zM292 517q66 0 120 -26l40 60l65 -42l-43 -63q32 -35 49.5 -84t17.5 -110q0 -129 -66 -197.5 t-183 -68.5q-34 0 -63 6.5t-55 17.5l-42 -61l-65 42l44 63q-33 35 -51 83.5t-18 114.5q0 61 17.5 110t50 83.5t78.5 53t104 18.5z"/>
<glyph glyph-name="ugrave" d="M377 504h134v-504h-122l-5 66q-20 -32 -58.5 -55.5t-99.5 -23.5q-89 0 -127.5 52t-38.5 145v320h134v-312q0 -52 22 -71t53 -19q32 0 53 13t33 35.5t17 52.5t5 65v236zM377 570l-246 111l50 101l236 -131z" unicode="ù"/>
<glyph glyph-name="uacute" d="M377 504h134v-504h-122l-5 66q-20 -32 -58.5 -55.5t-99.5 -23.5q-89 0 -127.5 52t-38.5 145v320h134v-312q0 -52 22 -71t53 -19q32 0 53 13t33 35.5t17 52.5t5 65v236zM411 782l50 -101l-246 -111l-40 81z" unicode="ú"/>
<glyph glyph-name="ucircumflex" d="M377 504h134v-504h-122l-5 66q-20 -32 -58.5 -55.5t-99.5 -23.5q-89 0 -127.5 52t-38.5 145v320h134v-312q0 -52 22 -71t53 -19q32 0 53 13t33 35.5t17 52.5t5 65v236zM108 636l145 139h81l144 -139l-65 -64l-120 96l-119 -96z" unicode="û"/>
<glyph glyph-name="udieresis" d="M377 504h134v-504h-122l-5 66q-20 -32 -58.5 -55.5t-99.5 -23.5q-89 0 -127.5 52t-38.5 145v320h134v-312q0 -52 22 -71t53 -19q32 0 53 13t33 35.5t17 52.5t5 65v236zM477 674q0 -35 -20.5 -57.5t-54.5 -22.5t-54.5 23.5t-20.5 56.5t20.5 56.5t54.5 23.5t54.5 -22.5 t20.5 -57.5zM243 674q0 -35 -20.5 -57.5t-54.5 -22.5t-54.5 23.5t-20.5 56.5t20.5 56.5t54.5 23.5t54.5 -22.5t20.5 -57.5z" unicode="ü"/>
<glyph glyph-name="yacute" horiz-adv-x="528" unicode="ý" d="M8 504h149l110 -318l115 318h138l-305 -724h-128l107 257zM387 782l50 -101l-246 -111l-40 81z"/>
<glyph glyph-name="thorn" horiz-adv-x="587" unicode="þ" d="M332 517q57 0 97 -19.5t66 -54t38 -82.5t12 -105q0 -70 -19.5 -120t-51 -82.5t-73 -48t-84.5 -15.5q-65 0 -121 31v-241h-134v970h134v-295q18 23 52.5 42.5t83.5 19.5zM305 402q-33 0 -54 -13.5t-33.5 -36.5t-17 -53.5t-4.5 -64.5v-103q11 -8 36 -18t62 -10 q52 0 83.5 37t31.5 116q0 63 -25.5 104.5t-78.5 41.5z"/>
<glyph glyph-name="ydieresis" horiz-adv-x="528" unicode="ÿ" d="M8 504h149l110 -318l115 318h138l-305 -724h-128l107 257zM464 674q0 -35 -20.5 -57.5t-54.5 -22.5t-54.5 23.5t-20.5 56.5t20.5 56.5t54.5 23.5t54.5 -22.5t20.5 -57.5zM230 674q0 -35 -20.5 -57.5t-54.5 -22.5t-54.5 23.5t-20.5 56.5t20.5 56.5t54.5 23.5t54.5 -22.5 t20.5 -57.5z"/>
<glyph glyph-name="Amacron" horiz-adv-x="619" unicode="Ā" d="M220 263h169l-83 277zM424 146h-240l-44 -146h-130l230 703h140l229 -703h-141zM140 803v110h331v-110h-331z"/>
<glyph glyph-name="amacron" horiz-adv-x="534" unicode="ā" d="M208 -13q-33 0 -63.5 8t-54.5 27t-38.5 50t-14.5 78q0 85 50.5 128t155.5 43q14 0 30.5 -1t31.5 -2.5t26 -2.5t14 -2v18q0 40 -26 59.5t-71 19.5q-60 0 -98 -12t-53 -22l-39 89q7 5 23 14t41.5 17.5t59.5 15t78 6.5q113 0 163 -48.5t50 -133.5v-336h-116l-4 51 q-19 -23 -55 -43.5t-90 -20.5zM345 223q-19 3 -43 6t-56 3q-51 0 -70 -20t-19 -59q0 -32 22 -49.5t57 -17.5q21 0 41 5.5t35 16.5t24 26.5t9 35.5v53zM118 601v106h308v-106h-308z"/>
<glyph glyph-name="Abreve" horiz-adv-x="619" unicode="Ă" d="M220 263h169l-83 277zM424 146h-240l-44 -146h-130l230 703h140l229 -703h-141zM307 861q42 0 64 20.5t22 52.5h98q0 -33 -11 -65t-33.5 -56.5t-57.5 -39.5t-82 -15t-82 15t-58 39.5t-34 56.5t-11 65h99q0 -32 22 -52.5t64 -20.5z"/>
<glyph glyph-name="abreve" horiz-adv-x="534" unicode="ă" d="M208 -13q-33 0 -63.5 8t-54.5 27t-38.5 50t-14.5 78q0 85 50.5 128t155.5 43q14 0 30.5 -1t31.5 -2.5t26 -2.5t14 -2v18q0 40 -26 59.5t-71 19.5q-60 0 -98 -12t-53 -22l-39 89q7 5 23 14t41.5 17.5t59.5 15t78 6.5q113 0 163 -48.5t50 -133.5v-336h-116l-4 51 q-19 -23 -55 -43.5t-90 -20.5zM345 223q-19 3 -43 6t-56 3q-51 0 -70 -20t-19 -59q0 -32 22 -49.5t57 -17.5q21 0 41 5.5t35 16.5t24 26.5t9 35.5v53zM269 674q42 0 61 23t19 55h94q0 -34 -10 -65t-31.5 -55t-54.5 -38.5t-78 -14.5q-46 0 -79 14.5t-54.5 38.5t-32 55 t-10.5 65h95q0 -32 19.5 -55t61.5 -23z"/>
<glyph glyph-name="Aogonek" horiz-adv-x="619" unicode="Ą" d="M220 263h169l-83 277zM424 146h-240l-44 -146h-130l230 703h140l229 -703q-77 -56 -77 -98q0 -21 15.5 -29.5t37.5 -8.5h14t16 1v-86q-8 -1 -18 -1.5t-21 -0.5q-86 0 -118.5 26t-32.5 77q0 61 81 120h-38z"/>
<glyph glyph-name="aogonek" horiz-adv-x="534" unicode="ą" d="M208 -13q-33 0 -63.5 8t-54.5 27t-38.5 50t-14.5 78q0 85 50.5 128t155.5 43q14 0 30.5 -1t31.5 -2.5t26 -2.5t14 -2v18q0 40 -26 59.5t-71 19.5q-60 0 -98 -12t-53 -22l-39 89q7 5 23 14t41.5 17.5t59.5 15t78 6.5q113 0 163 -48.5t50 -133.5v-336q-38 -28 -56 -52 t-18 -44t14.5 -28.5t35.5 -8.5h14t16 1v-83q-8 -1 -18 -1.5t-21 -0.5q-84 0 -115.5 25t-31.5 74q0 29 18 58.5t60 59.5h-14l-4 51q-19 -23 -55 -43.5t-90 -20.5zM345 223q-19 3 -43 6t-56 3q-51 0 -70 -20t-19 -59q0 -32 22 -49.5t57 -17.5q21 0 41 5.5t35 16.5t24 26.5 t9 35.5v53z"/>
<glyph glyph-name="Cacute" horiz-adv-x="636" unicode="Ć" d="M386 595q-48 0 -83 -19.5t-58 -53t-34 -77.5t-11 -93q0 -50 9.5 -93.5t31 -75.5t55 -50t81.5 -18q25 0 50 4.5t47.5 12t40 16t27.5 16.5l54 -98q-42 -33 -103 -54t-134 -21q-75 0 -132.5 25t-95.5 71.5t-57.5 113.5t-19.5 151q0 79 20.5 145.5t61 114.5t100.5 75t138 27 q72 0 127.5 -20.5t97.5 -56.5l-62 -98q-21 20 -59 38t-92 18zM464 960l42 -105l-273 -98l-33 84z"/>
<glyph glyph-name="cacute" horiz-adv-x="480" unicode="ć" d="M177 252q0 -78 33.5 -114t96.5 -36q42 0 68 11t40 20l51 -91q-9 -6 -24 -15.5t-36.5 -18.5t-49.5 -15.5t-62 -6.5q-125 0 -188.5 71.5t-63.5 194.5q0 59 17.5 108t50 84t79 54t104.5 19q37 0 68 -8.5t54 -19.5t37 -21.5t18 -14.5l-60 -92q-5 3 -15 10t-24 13.5 t-31.5 11.5t-36.5 5q-57 0 -91.5 -37t-34.5 -112zM354 782l50 -101l-246 -111l-40 81z"/>
<glyph glyph-name="Ccircumflex" horiz-adv-x="636" unicode="Ĉ" d="M386 595q-48 0 -83 -19.5t-58 -53t-34 -77.5t-11 -93q0 -50 9.5 -93.5t31 -75.5t55 -50t81.5 -18q25 0 50 4.5t47.5 12t40 16t27.5 16.5l54 -98q-42 -33 -103 -54t-134 -21q-75 0 -132.5 25t-95.5 71.5t-57.5 113.5t-19.5 151q0 79 20.5 145.5t61 114.5t100.5 75t138 27 q72 0 127.5 -20.5t97.5 -56.5l-62 -98q-21 20 -59 38t-92 18zM506 759l-145 96l-145 -96l-58 69l158 138h90l158 -138z"/>
<glyph glyph-name="ccircumflex" horiz-adv-x="480" unicode="ĉ" d="M177 252q0 -78 33.5 -114t96.5 -36q42 0 68 11t40 20l51 -91q-9 -6 -24 -15.5t-36.5 -18.5t-49.5 -15.5t-62 -6.5q-125 0 -188.5 71.5t-63.5 194.5q0 59 17.5 108t50 84t79 54t104.5 19q37 0 68 -8.5t54 -19.5t37 -21.5t18 -14.5l-60 -92q-5 3 -15 10t-24 13.5 t-31.5 11.5t-36.5 5q-57 0 -91.5 -37t-34.5 -112zM99 636l145 139h81l144 -139l-65 -64l-120 96l-119 -96z"/>
<glyph glyph-name="Cdotaccent" horiz-adv-x="636" unicode="Ċ" d="M386 595q-48 0 -83 -19.5t-58 -53t-34 -77.5t-11 -93q0 -50 9.5 -93.5t31 -75.5t55 -50t81.5 -18q25 0 50 4.5t47.5 12t40 16t27.5 16.5l54 -98q-42 -33 -103 -54t-134 -21q-75 0 -132.5 25t-95.5 71.5t-57.5 113.5t-19.5 151q0 79 20.5 145.5t61 114.5t100.5 75t138 27 q72 0 127.5 -20.5t97.5 -56.5l-62 -98q-21 20 -59 38t-92 18zM434 871q0 -37 -21.5 -60.5t-57.5 -23.5t-57.5 24.5t-21.5 59.5t21.5 59.5t57.5 24.5t57.5 -23.5t21.5 -60.5z"/>
<glyph glyph-name="cdotaccent" horiz-adv-x="480" unicode="ċ" d="M177 252q0 -78 33.5 -114t96.5 -36q42 0 68 11t40 20l51 -91q-9 -6 -24 -15.5t-36.5 -18.5t-49.5 -15.5t-62 -6.5q-125 0 -188.5 71.5t-63.5 194.5q0 59 17.5 108t50 84t79 54t104.5 19q37 0 68 -8.5t54 -19.5t37 -21.5t18 -14.5l-60 -92q-5 3 -15 10t-24 13.5 t-31.5 11.5t-36.5 5q-57 0 -91.5 -37t-34.5 -112zM363 672q0 -35 -20.5 -58t-55.5 -23t-55.5 23.5t-20.5 57.5t20.5 57.5t55.5 23.5t55.5 -23t20.5 -58z"/>
<glyph glyph-name="Ccaron" horiz-adv-x="636" unicode="Č" d="M386 595q-48 0 -83 -19.5t-58 -53t-34 -77.5t-11 -93q0 -50 9.5 -93.5t31 -75.5t55 -50t81.5 -18q25 0 50 4.5t47.5 12t40 16t27.5 16.5l54 -98q-42 -33 -103 -54t-134 -21q-75 0 -132.5 25t-95.5 71.5t-57.5 113.5t-19.5 151q0 79 20.5 145.5t61 114.5t100.5 75t138 27 q72 0 127.5 -20.5t97.5 -56.5l-62 -98q-21 20 -59 38t-92 18zM317 759l-158 138l58 69l145 -96l145 96l58 -69l-158 -138h-90z"/>
<glyph glyph-name="ccaron" horiz-adv-x="480" unicode="č" d="M177 252q0 -78 33.5 -114t96.5 -36q42 0 68 11t40 20l51 -91q-9 -6 -24 -15.5t-36.5 -18.5t-49.5 -15.5t-62 -6.5q-125 0 -188.5 71.5t-63.5 194.5q0 59 17.5 108t50 84t79 54t104.5 19q37 0 68 -8.5t54 -19.5t37 -21.5t18 -14.5l-60 -92q-5 3 -15 10t-24 13.5 t-31.5 11.5t-36.5 5q-57 0 -91.5 -37t-34.5 -112zM282 675l120 95l65 -63l-144 -139h-81l-145 139l66 63z"/>
<glyph glyph-name="Dcaron" horiz-adv-x="713" unicode="Ď" d="M318 121q45 0 81.5 16.5t61.5 47t38.5 73t13.5 94.5q0 117 -53 173.5t-142 56.5h-103v-461h103zM318 703q87 0 151 -25.5t106 -72t63 -111t21 -143.5q0 -80 -21 -145t-63.5 -110.5t-106.5 -70.5t-150 -25h-244v703h244zM268 759l-158 138l58 69l145 -96l145 96l58 -69 l-158 -138h-90z"/>
<glyph glyph-name="dcaron" horiz-adv-x="691" unicode="ď" d="M407 50q-16 -19 -52 -37.5t-90 -18.5q-44 0 -84 12t-71 42t-49 79.5t-18 124.5q0 55 12.5 103t38.5 84t65.5 57t93.5 21q27 0 50 -6.5t40 -17t29.5 -22.5t18.5 -22v301h134v-750h-115zM281 402q-27 0 -46 -11.5t-32 -31.5t-19 -47.5t-6 -59.5q0 -79 27.5 -112t84.5 -33 q37 0 63.5 14t37.5 27v87q0 35 -5 65.5t-17.5 53t-34 35.5t-53.5 13zM597 680q0 38 21.5 60t58.5 22q36 0 58 -23.5t22 -66.5q0 -32 -13.5 -69.5t-31.5 -71t-35.5 -59.5t-24.5 -35l-59 36q6 12 14 29t15.5 36t13.5 37.5t8 32.5q-19 10 -33 28t-14 44z"/>
<glyph glyph-name="Dcroat" horiz-adv-x="734" unicode="Đ" d="M338 121q45 0 81.5 16.5t62 47t39 73t13.5 94.5q0 117 -53.5 173.5t-142.5 56.5h-103v-168h140v-112h-140v-181h103zM11 414h84v289h243q87 0 151 -25.5t106.5 -72t63.5 -111t21 -143.5q0 -80 -21 -145t-63.5 -110.5t-107 -70.5t-150.5 -25h-243v302h-84v112z"/>
<glyph glyph-name="dcroat" horiz-adv-x="597" unicode="đ" d="M407 50q-16 -19 -52 -37.5t-90 -18.5q-44 0 -84 12t-71 42t-49 79.5t-18 124.5q0 55 12.5 103t38.5 84t65.5 57t93.5 21q27 0 50 -6.5t40 -17t29.5 -22.5t18.5 -22v129h-170v90h170v82h134v-82h61v-90h-61v-578h-115zM281 402q-27 0 -46 -11.5t-32 -31.5t-19 -47.5 t-6 -59.5q0 -79 27.5 -112t84.5 -33q37 0 63.5 14t37.5 27v87q0 35 -5 65.5t-17.5 53t-34 35.5t-53.5 13z"/>
<glyph glyph-name="Emacron" horiz-adv-x="547" unicode="Ē" d="M74 703h438v-124h-298v-153h228v-124h-228v-178h308v-124h-448v703zM139 803v110h331v-110h-331z"/>
<glyph glyph-name="emacron" horiz-adv-x="548" unicode="ē" d="M379 305q-4 52 -25 78.5t-72 26.5t-77.5 -28.5t-31.5 -76.5h206zM315 99q49 0 82 7.5t50 12.5l32 -94q-20 -11 -65.5 -25t-115.5 -14q-126 0 -191 72t-65 197q0 59 15.5 107.5t46 83t75.5 53t104 18.5q53 0 94.5 -15.5t70 -48.5t43 -86t14.5 -128v-27h-332 q5 -48 38 -80.5t104 -32.5zM129 601v106h308v-106h-308z"/>
<glyph glyph-name="Ebreve" horiz-adv-x="547" unicode="Ĕ" d="M74 703h438v-124h-298v-153h228v-124h-228v-178h308v-124h-448v703zM304 861q42 0 64 20.5t22 52.5h98q0 -33 -11 -65t-33.5 -56.5t-57.5 -39.5t-82 -15t-82 15t-58 39.5t-34 56.5t-11 65h99q0 -32 22 -52.5t64 -20.5z"/>
<glyph glyph-name="ebreve" horiz-adv-x="548" unicode="ĕ" d="M379 305q-4 52 -25 78.5t-72 26.5t-77.5 -28.5t-31.5 -76.5h206zM315 99q49 0 82 7.5t50 12.5l32 -94q-20 -11 -65.5 -25t-115.5 -14q-126 0 -191 72t-65 197q0 59 15.5 107.5t46 83t75.5 53t104 18.5q53 0 94.5 -15.5t70 -48.5t43 -86t14.5 -128v-27h-332 q5 -48 38 -80.5t104 -32.5zM293 674q42 0 61 23t19 55h94q0 -34 -10 -65t-31.5 -55t-54.5 -38.5t-78 -14.5q-46 0 -79 14.5t-54.5 38.5t-32 55t-10.5 65h95q0 -32 19.5 -55t61.5 -23z"/>
<glyph glyph-name="Edotaccent" horiz-adv-x="547" unicode="Ė" d="M74 703h438v-124h-298v-153h228v-124h-228v-178h308v-124h-448v703zM388 871q0 -37 -21.5 -60.5t-57.5 -23.5t-57.5 24.5t-21.5 59.5t21.5 59.5t57.5 24.5t57.5 -23.5t21.5 -60.5z"/>
<glyph glyph-name="edotaccent" horiz-adv-x="548" unicode="ė" d="M379 305q-4 52 -25 78.5t-72 26.5t-77.5 -28.5t-31.5 -76.5h206zM315 99q49 0 82 7.5t50 12.5l32 -94q-20 -11 -65.5 -25t-115.5 -14q-126 0 -191 72t-65 197q0 59 15.5 107.5t46 83t75.5 53t104 18.5q53 0 94.5 -15.5t70 -48.5t43 -86t14.5 -128v-27h-332 q5 -48 38 -80.5t104 -32.5zM364 672q0 -35 -20.5 -58t-55.5 -23t-55.5 23.5t-20.5 57.5t20.5 57.5t55.5 23.5t55.5 -23t20.5 -58z"/>
<glyph glyph-name="Eogonek" horiz-adv-x="547" unicode="Ę" d="M74 703h438v-124h-298v-153h228v-124h-228v-178h308v-124q-38 -28 -56 -52t-18 -44t14.5 -28.5t35.5 -8.5h14t16 1v-83q-8 -1 -18 -1.5t-21 -0.5q-84 0 -115.5 25t-31.5 74q0 29 18 58.5t60 59.5h-346v703z"/>
<glyph glyph-name="eogonek" horiz-adv-x="548" unicode="ę" d="M379 305q-4 52 -25 78.5t-72 26.5t-77.5 -28.5t-31.5 -76.5h206zM416 -215q-8 -1 -18 -1.5t-21 -0.5q-84 0 -115.5 25t-31.5 74q0 26 14 52t46 52q-122 2 -185 73.5t-63 195.5q0 59 15.5 107.5t46 83t75.5 53t104 18.5q53 0 94.5 -15.5t70 -48.5t43 -86t14.5 -128v-27 h-332q5 -48 38 -80.5t104 -32.5q49 0 82 7.5t50 12.5l32 -94q-11 -6 -28.5 -13t-42.5 -13q-38 -27 -55 -51t-17 -44t14.5 -28.5t35.5 -8.5h14t16 1v-83z"/>
<glyph glyph-name="Ecaron" horiz-adv-x="547" unicode="Ě" d="M74 703h438v-124h-298v-153h228v-124h-228v-178h308v-124h-448v703zM252 759l-158 138l58 69l145 -96l145 96l58 -69l-158 -138h-90z"/>
<glyph glyph-name="ecaron" horiz-adv-x="548" unicode="ě" d="M379 305q-4 52 -25 78.5t-72 26.5t-77.5 -28.5t-31.5 -76.5h206zM315 99q49 0 82 7.5t50 12.5l32 -94q-20 -11 -65.5 -25t-115.5 -14q-126 0 -191 72t-65 197q0 59 15.5 107.5t46 83t75.5 53t104 18.5q53 0 94.5 -15.5t70 -48.5t43 -86t14.5 -128v-27h-332 q5 -48 38 -80.5t104 -32.5zM286 675l120 95l65 -63l-144 -139h-81l-145 139l66 63z"/>
<glyph glyph-name="Gcircumflex" horiz-adv-x="665" unicode="Ĝ" d="M390 600q-49 0 -85 -19t-59 -52.5t-34.5 -79t-11.5 -98.5t10.5 -97.5t33.5 -76.5t59 -50.5t86 -18.5q29 0 53 4t44 9v175h-129v116h254v-384q-11 -5 -31 -12.5t-49.5 -14.5t-69.5 -12t-91 -5q-77 0 -136 25t-99 72t-60.5 115t-20.5 155q0 81 21 148.5t62 116.5t101.5 76 t140.5 27q69 0 124 -19t97 -52l-59 -99q-22 16 -60.5 33.5t-90.5 17.5zM523 759l-145 96l-145 -96l-58 69l158 138h90l158 -138z"/>
<glyph glyph-name="gcircumflex" horiz-adv-x="555" unicode="ĝ" d="M376 337q0 24 -8 40.5t-21.5 26.5t-30.5 14.5t-35 4.5t-35 -4.5t-30.5 -14.5t-21.5 -26.5t-8 -40.5t8 -40.5t21.5 -26.5t30.5 -14t35 -4t35 4t30.5 13.5t21.5 26t8 41.5zM259 -20q-21 1 -49 3t-46 9q-8 -12 -13.5 -25.5t-5.5 -31.5q0 -23 10 -37.5t27 -22.5t39 -11t45 -3 q82 0 114.5 18t32.5 50q0 26 -18 37t-50 12zM463 417q20 -17 31.5 -42.5t11.5 -48.5q0 -48 -22 -80.5t-55 -52t-70.5 -28t-68.5 -8.5q-18 0 -50.5 4t-63.5 17q-6 -7 -9 -18.5t-3 -20.5q0 -23 16 -36.5t65 -15.5l104 -4q45 -2 81.5 -9.5t62 -24t39.5 -43t14 -65.5 q0 -38 -17 -70.5t-52.5 -56.5t-90.5 -37.5t-131 -13.5q-32 0 -70.5 5.5t-73 21.5t-57.5 44.5t-23 73.5q0 39 17.5 70.5t42.5 50.5q-20 16 -29 35.5t-9 44.5q0 35 17 64t38 49q-28 23 -40.5 53.5t-12.5 61.5q0 50 21 84.5t54 55.5t72.5 30.5t76.5 9.5q27 0 46.5 -2t35.5 -4.5 t29.5 -4.5t27.5 -2h127v-92h-15q-15 0 -33 1.5t-34 3.5zM109 636l145 139h81l144 -139l-65 -64l-120 96l-119 -96z"/>
<glyph glyph-name="Gbreve" horiz-adv-x="665" unicode="Ğ" d="M390 600q-49 0 -85 -19t-59 -52.5t-34.5 -79t-11.5 -98.5t10.5 -97.5t33.5 -76.5t59 -50.5t86 -18.5q29 0 53 4t44 9v175h-129v116h254v-384q-11 -5 -31 -12.5t-49.5 -14.5t-69.5 -12t-91 -5q-77 0 -136 25t-99 72t-60.5 115t-20.5 155q0 81 21 148.5t62 116.5t101.5 76 t140.5 27q69 0 124 -19t97 -52l-59 -99q-22 16 -60.5 33.5t-90.5 17.5zM376 861q42 0 64 20.5t22 52.5h98q0 -33 -11 -65t-33.5 -56.5t-57.5 -39.5t-82 -15t-82 15t-58 39.5t-34 56.5t-11 65h99q0 -32 22 -52.5t64 -20.5z"/>
<glyph glyph-name="gbreve" horiz-adv-x="555" unicode="ğ" d="M376 337q0 24 -8 40.5t-21.5 26.5t-30.5 14.5t-35 4.5t-35 -4.5t-30.5 -14.5t-21.5 -26.5t-8 -40.5t8 -40.5t21.5 -26.5t30.5 -14t35 -4t35 4t30.5 13.5t21.5 26t8 41.5zM259 -20q-21 1 -49 3t-46 9q-8 -12 -13.5 -25.5t-5.5 -31.5q0 -23 10 -37.5t27 -22.5t39 -11t45 -3 q82 0 114.5 18t32.5 50q0 26 -18 37t-50 12zM463 417q20 -17 31.5 -42.5t11.5 -48.5q0 -48 -22 -80.5t-55 -52t-70.5 -28t-68.5 -8.5q-18 0 -50.5 4t-63.5 17q-6 -7 -9 -18.5t-3 -20.5q0 -23 16 -36.5t65 -15.5l104 -4q45 -2 81.5 -9.5t62 -24t39.5 -43t14 -65.5 q0 -38 -17 -70.5t-52.5 -56.5t-90.5 -37.5t-131 -13.5q-32 0 -70.5 5.5t-73 21.5t-57.5 44.5t-23 73.5q0 39 17.5 70.5t42.5 50.5q-20 16 -29 35.5t-9 44.5q0 35 17 64t38 49q-28 23 -40.5 53.5t-12.5 61.5q0 50 21 84.5t54 55.5t72.5 30.5t76.5 9.5q27 0 46.5 -2t35.5 -4.5 t29.5 -4.5t27.5 -2h127v-92h-15q-15 0 -33 1.5t-34 3.5zM298 674q42 0 61 23t19 55h94q0 -34 -10 -65t-31.5 -55t-54.5 -38.5t-78 -14.5q-46 0 -79 14.5t-54.5 38.5t-32 55t-10.5 65h95q0 -32 19.5 -55t61.5 -23z"/>
<glyph glyph-name="Gdotaccent" horiz-adv-x="665" unicode="Ġ" d="M390 600q-49 0 -85 -19t-59 -52.5t-34.5 -79t-11.5 -98.5t10.5 -97.5t33.5 -76.5t59 -50.5t86 -18.5q29 0 53 4t44 9v175h-129v116h254v-384q-11 -5 -31 -12.5t-49.5 -14.5t-69.5 -12t-91 -5q-77 0 -136 25t-99 72t-60.5 115t-20.5 155q0 81 21 148.5t62 116.5t101.5 76 t140.5 27q69 0 124 -19t97 -52l-59 -99q-22 16 -60.5 33.5t-90.5 17.5zM446 871q0 -37 -21.5 -60.5t-57.5 -23.5t-57.5 24.5t-21.5 59.5t21.5 59.5t57.5 24.5t57.5 -23.5t21.5 -60.5z"/>
<glyph glyph-name="gdotaccent" horiz-adv-x="555" unicode="ġ" d="M376 337q0 24 -8 40.5t-21.5 26.5t-30.5 14.5t-35 4.5t-35 -4.5t-30.5 -14.5t-21.5 -26.5t-8 -40.5t8 -40.5t21.5 -26.5t30.5 -14t35 -4t35 4t30.5 13.5t21.5 26t8 41.5zM259 -20q-21 1 -49 3t-46 9q-8 -12 -13.5 -25.5t-5.5 -31.5q0 -23 10 -37.5t27 -22.5t39 -11t45 -3 q82 0 114.5 18t32.5 50q0 26 -18 37t-50 12zM463 417q20 -17 31.5 -42.5t11.5 -48.5q0 -48 -22 -80.5t-55 -52t-70.5 -28t-68.5 -8.5q-18 0 -50.5 4t-63.5 17q-6 -7 -9 -18.5t-3 -20.5q0 -23 16 -36.5t65 -15.5l104 -4q45 -2 81.5 -9.5t62 -24t39.5 -43t14 -65.5 q0 -38 -17 -70.5t-52.5 -56.5t-90.5 -37.5t-131 -13.5q-32 0 -70.5 5.5t-73 21.5t-57.5 44.5t-23 73.5q0 39 17.5 70.5t42.5 50.5q-20 16 -29 35.5t-9 44.5q0 35 17 64t38 49q-28 23 -40.5 53.5t-12.5 61.5q0 50 21 84.5t54 55.5t72.5 30.5t76.5 9.5q27 0 46.5 -2t35.5 -4.5 t29.5 -4.5t27.5 -2h127v-92h-15q-15 0 -33 1.5t-34 3.5zM370 672q0 -35 -20.5 -58t-55.5 -23t-55.5 23.5t-20.5 57.5t20.5 57.5t55.5 23.5t55.5 -23t20.5 -58z"/>
<glyph glyph-name="Gcommaaccent" horiz-adv-x="665" unicode="Ģ" d="M390 600q-49 0 -85 -19t-59 -52.5t-34.5 -79t-11.5 -98.5t10.5 -97.5t33.5 -76.5t59 -50.5t86 -18.5q29 0 53 4t44 9v175h-129v116h254v-384q-11 -5 -31 -12.5t-49.5 -14.5t-69.5 -12t-91 -5q-77 0 -136 25t-99 72t-60.5 115t-20.5 155q0 81 21 148.5t62 116.5t101.5 76 t140.5 27q69 0 124 -19t97 -52l-59 -99q-22 16 -60.5 33.5t-90.5 17.5zM431 -125q0 -29 -11.5 -57.5t-26.5 -52.5t-29 -40t-20 -20l-51 32q3 4 9 13.5t12.5 22t12.5 25.5t8 24q-17 7 -30.5 22.5t-13.5 36.5q0 29 19.5 46.5t50.5 17.5q30 0 50 -18.5t20 -51.5z"/>
<glyph glyph-name="gcommaaccent" horiz-adv-x="555" unicode="ģ" d="M376 337q0 24 -8 40.5t-21.5 26.5t-30.5 14.5t-35 4.5t-35 -4.5t-30.5 -14.5t-21.5 -26.5t-8 -40.5t8 -40.5t21.5 -26.5t30.5 -14t35 -4t35 4t30.5 13.5t21.5 26t8 41.5zM259 -20q-21 1 -49 3t-46 9q-8 -12 -13.5 -25.5t-5.5 -31.5q0 -23 10 -37.5t27 -22.5t39 -11t45 -3 q82 0 114.5 18t32.5 50q0 26 -18 37t-50 12zM463 417q20 -17 31.5 -42.5t11.5 -48.5q0 -48 -22 -80.5t-55 -52t-70.5 -28t-68.5 -8.5q-18 0 -50.5 4t-63.5 17q-6 -7 -9 -18.5t-3 -20.5q0 -23 16 -36.5t65 -15.5l104 -4q45 -2 81.5 -9.5t62 -24t39.5 -43t14 -65.5 q0 -38 -17 -70.5t-52.5 -56.5t-90.5 -37.5t-131 -13.5q-32 0 -70.5 5.5t-73 21.5t-57.5 44.5t-23 73.5q0 39 17.5 70.5t42.5 50.5q-20 16 -29 35.5t-9 44.5q0 35 17 64t38 49q-28 23 -40.5 53.5t-12.5 61.5q0 50 21 84.5t54 55.5t72.5 30.5t76.5 9.5q27 0 46.5 -2t35.5 -4.5 t29.5 -4.5t27.5 -2h127v-92h-15q-15 0 -33 1.5t-34 3.5zM223 644q0 29 11.5 57.5t26.5 52t29 39.5t20 21l49 -32q-3 -4 -9 -13.5t-13 -22t-12.5 -25.5t-7.5 -24q17 -7 30.5 -22.5t13.5 -36.5q0 -29 -19.5 -46.5t-48.5 -17.5q-30 0 -50 18.5t-20 51.5z"/>
<glyph glyph-name="Hcircumflex" horiz-adv-x="689" unicode="Ĥ" d="M475 703h140v-703h-140v310h-260v-310h-141v703h141v-267h260v267zM489 759l-145 96l-145 -96l-58 69l158 138h90l158 -138z"/>
<glyph glyph-name="hcircumflex" d="M196 438q7 14 19 28t30 25.5t41 18.5t53 7q92 0 133 -52.5t41 -144.5v-320h-134v312q0 51 -22.5 70.5t-53.5 19.5q-33 0 -54 -13.5t-32.5 -36.5t-16 -53t-4.5 -64v-235h-134v750h134v-312zM60 838l143 123h99l140 -123l-57 -64l-133 90l-135 -90z" unicode="ĥ"/>
<glyph glyph-name="Hbar" horiz-adv-x="721" unicode="Ħ" d="M490 522h-259v-90h259v90zM631 522v-522h-141v306h-259v-306h-141v522h-79v85h79v96h141v-96h259v96h141v-96h79v-85h-79z"/>
<glyph glyph-name="hbar" horiz-adv-x="582" unicode="ħ" d="M206 669h168v-90h-168v-141q7 14 19 28t30 25.5t41 18.5t53 7q92 0 133 -52.5t41 -144.5v-320h-134v312q0 51 -22.5 70.5t-53.5 19.5q-33 0 -54 -13.5t-32.5 -36.5t-16 -53t-4.5 -64v-235h-134v579h-61v90h61v81h134v-81z"/>
<glyph glyph-name="Itilde" horiz-adv-x="289" unicode="Ĩ" d="M215 0h-141v703h141v-703zM-54 781q0 72 30 111t87 39q27 0 48.5 -9t40.5 -19.5t37 -19t37 -8.5q25 0 35.5 13.5t10.5 39.5h77q0 -73 -30 -111.5t-87 -38.5q-27 0 -48.5 9t-40.5 19.5t-36.5 19.5t-36.5 9q-26 0 -36.5 -14t-10.5 -40h-77z"/>
<glyph glyph-name="itilde" horiz-adv-x="266" unicode="ĩ" d="M66 504h134v-504h-134v504zM-63 580q0 72 30 111t85 39q27 0 48 -9t39.5 -19.5t35.5 -19t36 -8.5q25 0 35.5 13.5t10.5 39.5h75q0 -73 -30 -111.5t-85 -38.5q-27 0 -48 9t-39 19.5t-35 19.5t-36 9q-26 0 -36.5 -14t-10.5 -40h-75z"/>
<glyph glyph-name="Imacron" horiz-adv-x="289" unicode="Ī" d="M215 0h-141v703h141v-703zM-19 803v110h331v-110h-331z"/>
<glyph glyph-name="imacron" horiz-adv-x="266" unicode="ī" d="M66 504h134v-504h-134v504zM-20 601v106h308v-106h-308z"/>
<glyph glyph-name="Ibreve" horiz-adv-x="289" unicode="Ĭ" d="M215 0h-141v703h141v-703zM148 861q42 0 64 20.5t22 52.5h98q0 -33 -11 -65t-33.5 -56.5t-57.5 -39.5t-82 -15t-82 15t-58 39.5t-34 56.5t-11 65h99q0 -32 22 -52.5t64 -20.5z"/>
<glyph glyph-name="ibreve" horiz-adv-x="266" unicode="ĭ" d="M66 504h134v-504h-134v504zM135 674q42 0 61 23t19 55h94q0 -34 -10 -65t-31.5 -55t-54.5 -38.5t-78 -14.5q-46 0 -79 14.5t-54.5 38.5t-32 55t-10.5 65h95q0 -32 19.5 -55t61.5 -23z"/>
<glyph glyph-name="Iogonek" horiz-adv-x="289" unicode="Į" d="M221 -221q-8 -1 -18 -1.5t-21 -0.5q-86 0 -118.5 26t-32.5 77q0 61 81 120h-38v703h141v-703q-77 -56 -77 -98q0 -21 15.5 -29.5t37.5 -8.5h14t16 1v-86z"/>
<glyph glyph-name="iogonek" horiz-adv-x="266" unicode="į" d="M209 676q0 -35 -20.5 -58t-55.5 -23t-55.5 23.5t-20.5 57.5t20.5 57.5t55.5 23.5t55.5 -23t20.5 -58zM66 504h134v-504q-38 -28 -56 -52t-18 -44t14.5 -28.5t35.5 -8.5h14t16 1v-83q-8 -1 -18 -1.5t-21 -0.5q-84 0 -115.5 25t-31.5 74q0 29 18 58.5t60 59.5h-32v504z"/>
<glyph glyph-name="Idotaccent" horiz-adv-x="289" unicode="İ" d="M215 0h-141v703h141v-703zM226 871q0 -37 -21.5 -60.5t-57.5 -23.5t-57.5 24.5t-21.5 59.5t21.5 59.5t57.5 24.5t57.5 -23.5t21.5 -60.5z"/>
<glyph glyph-name="dotlessi" horiz-adv-x="266" unicode="ı" d="M66 504h134v-504h-134v504z"/>
<glyph glyph-name="IJ" horiz-adv-x="787" unicode="Ĳ" d="M215 0h-141v703h141v-703zM582 703h141v-472q0 -129 -60 -188t-185 -59q-38 0 -72 7.5t-60 17t-43 18.5t-20 12l44 101q6 -3 19.5 -9.5t32.5 -12.5t42 -11t48 -5q24 0 45 5.5t36 20.5t23.5 42.5t8.5 71.5v461z"/>
<glyph glyph-name="ij" horiz-adv-x="511" unicode="ĳ" d="M209 676q0 -35 -20.5 -58t-55.5 -23t-55.5 23.5t-20.5 57.5t20.5 57.5t55.5 23.5t55.5 -23t20.5 -58zM66 504h134v-504h-134v504zM454 676q0 -35 -20.5 -58t-55.5 -23t-55.5 23.5t-20.5 57.5t20.5 57.5t55.5 23.5t55.5 -23t20.5 -58zM445 -11q0 -110 -47 -165t-152 -55 q-23 0 -49 4t-45 9l13 108q11 -2 27 -5t33 -3q27 0 44 9t26 25.5t12.5 41t3.5 55.5v491h134v-515z"/>
<glyph glyph-name="Jcircumflex" horiz-adv-x="518" unicode="Ĵ" d="M312 703h141v-472q0 -129 -60 -188t-185 -59q-38 0 -72 7.5t-60 17t-43 18.5t-20 12l44 101q6 -3 19.5 -9.5t32.5 -12.5t42 -11t48 -5q24 0 45 5.5t36 20.5t23.5 42.5t8.5 71.5v461zM514 759l-145 96l-145 -96l-58 69l158 138h90l158 -138z"/>
<glyph glyph-name="jcircumflex" horiz-adv-x="266" unicode="ĵ" d="M200 -11q0 -110 -47 -165t-152 -55q-23 0 -49 4t-45 9l13 108q11 -2 27 -5t33 -3q27 0 44 9t26 25.5t12.5 41t3.5 55.5v491h134v-515zM-51 636l145 139h81l144 -139l-65 -64l-120 96l-119 -96z"/>
<glyph glyph-name="Kcommaaccent" horiz-adv-x="668" unicode="Ķ" d="M215 0h-141v703h141v-325l261 325h153l-263 -323l292 -380h-168l-275 368v-368zM404 -125q0 -29 -11.5 -57.5t-26.5 -52.5t-29 -40t-20 -20l-51 32q3 4 9 13.5t12.5 22t12.5 25.5t8 24q-17 7 -30.5 22.5t-13.5 36.5q0 29 19.5 46.5t50.5 17.5q30 0 50 -18.5t20 -51.5z "/>
<glyph glyph-name="kcommaaccent" horiz-adv-x="559" unicode="ķ" d="M196 271l181 233h152l-186 -223l208 -281h-161l-194 268v-268h-134v750h134v-479zM344 -125q0 -29 -11 -57.5t-25.5 -52t-28.5 -40t-20 -20.5l-50 32q3 4 9 13.5t12.5 22t12.5 25.5t8 24q-17 7 -30 22.5t-13 36.5q0 29 18.5 46.5t49.5 17.5q30 0 49 -18.5t19 -51.5z"/>
<glyph glyph-name="kgreenlandic" horiz-adv-x="559" unicode="ĸ" d="M196 257l187 247h151l-191 -237l208 -267h-162l-193 254v-254h-134v504h134v-247z"/>
<glyph glyph-name="Lacute" horiz-adv-x="557" unicode="Ĺ" d="M227 124h296v-124h-437v703h141v-579zM258 960l42 -105l-273 -98l-33 84z"/>
<glyph glyph-name="lacute" horiz-adv-x="266" unicode="ĺ" d="M200 0h-134v750h134v-750zM-4 875l235 103l43 -104l-245 -83z"/>
<glyph glyph-name="Lcommaaccent" horiz-adv-x="557" unicode="Ļ" d="M227 124h296v-124h-437v703h141v-579zM366 -125q0 -29 -11.5 -57.5t-26.5 -52.5t-29 -40t-20 -20l-51 32q3 4 9 13.5t12.5 22t12.5 25.5t8 24q-17 7 -30.5 22.5t-13.5 36.5q0 29 19.5 46.5t50.5 17.5q30 0 50 -18.5t20 -51.5z"/>
<glyph glyph-name="lcommaaccent" horiz-adv-x="266" unicode="ļ" d="M200 0h-134v750h134v-750zM203 -125q0 -29 -11 -57.5t-25.5 -52t-28.5 -40t-20 -20.5l-50 32q3 4 9 13.5t12.5 22t12.5 25.5t8 24q-17 7 -30 22.5t-13 36.5q0 29 18.5 46.5t49.5 17.5q30 0 49 -18.5t19 -51.5z"/>
<glyph glyph-name="Lcaron" horiz-adv-x="557" unicode="Ľ" d="M227 124h296v-124h-437v703h141v-579zM334 636q0 38 21.5 60t58.5 22q36 0 58 -23.5t22 -66.5q0 -32 -13.5 -69.5t-31.5 -71t-35.5 -59.5t-24.5 -35l-59 36q6 12 14 29t15.5 36t13.5 37.5t8 32.5q-19 10 -33 28t-14 44z"/>
<glyph glyph-name="lcaron" horiz-adv-x="389" unicode="ľ" d="M200 0h-134v750h134v-750zM270 680q0 38 21.5 60t58.5 22q36 0 58 -23.5t22 -66.5q0 -32 -13.5 -69.5t-31.5 -71t-35.5 -59.5t-24.5 -35l-59 36q6 12 14 29t15.5 36t13.5 37.5t8 32.5q-19 10 -33 28t-14 44z"/>
<glyph glyph-name="Ldot" horiz-adv-x="557" unicode="Ŀ" d="M227 124h296v-124h-437v703h141v-579zM503 421q0 -37 -21 -60t-57 -23t-57 24t-21 59t21 59t57 24t57 -23t21 -60z"/>
<glyph glyph-name="ldot" horiz-adv-x="430" unicode="ŀ" d="M201 0h-134v750h134v-750zM425 371q0 -37 -21 -60t-57 -23t-57 24t-21 59t21 59t57 24t57 -23t21 -60z"/>
<glyph glyph-name="Lslash" horiz-adv-x="576" unicode="Ł" d="M247 124h297v-124h-437v269l-96 -50v118l96 51v315h140v-241l159 85v-119l-159 -85v-219z"/>
<glyph glyph-name="lslash" horiz-adv-x="319" unicode="ł" d="M226 501l82 59v-120l-82 -59v-381h-134v289l-81 -59v120l81 59v341h134v-249z"/>
<glyph glyph-name="Nacute" horiz-adv-x="698" unicode="Ń" d="M207 490v-490h-133v703h141l276 -480v480h133v-703h-130zM504 960l42 -105l-273 -98l-33 84z"/>
<glyph glyph-name="nacute" d="M196 0h-134v504h122l5 -67q7 13 19.5 27t30.5 26t42 19.5t54 7.5q96 0 137 -52.5t41 -144.5v-320h-134v312q0 52 -22 71t-54 19q-33 0 -54 -13t-32.5 -36t-16 -53.5t-4.5 -64.5v-235zM380 782l50 -101l-246 -111l-40 81z" unicode="ń"/>
<glyph glyph-name="Ncommaaccent" horiz-adv-x="698" unicode="Ņ" d="M207 490v-490h-133v703h141l276 -480v480h133v-703h-130zM425 -125q0 -29 -11.5 -57.5t-26.5 -52.5t-29 -40t-20 -20l-51 32q3 4 9 13.5t12.5 22t12.5 25.5t8 24q-17 7 -30.5 22.5t-13.5 36.5q0 29 19.5 46.5t50.5 17.5q30 0 50 -18.5t20 -51.5z"/>
<glyph glyph-name="ncommaaccent" d="M196 0h-134v504h122l5 -67q7 13 19.5 27t30.5 26t42 19.5t54 7.5q96 0 137 -52.5t41 -144.5v-320h-134v312q0 52 -22 71t-54 19q-33 0 -54 -13t-32.5 -36t-16 -53.5t-4.5 -64.5v-235zM359 -125q0 -29 -11 -57.5t-25.5 -52t-28.5 -40t-20 -20.5l-50 32q3 4 9 13.5t12.5 22 t12.5 25.5t8 24q-17 7 -30 22.5t-13 36.5q0 29 18.5 46.5t49.5 17.5q30 0 49 -18.5t19 -51.5z" unicode="ņ"/>
<glyph glyph-name="Ncaron" horiz-adv-x="698" unicode="Ň" d="M207 490v-490h-133v703h141l276 -480v480h133v-703h-130zM315 759l-158 138l58 69l145 -96l145 96l58 -69l-158 -138h-90z"/>
<glyph glyph-name="ncaron" d="M196 0h-134v504h122l5 -67q7 13 19.5 27t30.5 26t42 19.5t54 7.5q96 0 137 -52.5t41 -144.5v-320h-134v312q0 52 -22 71t-54 19q-33 0 -54 -13t-32.5 -36t-16 -53.5t-4.5 -64.5v-235zM291 675l120 95l65 -63l-144 -139h-81l-145 139l66 63z" unicode="ň"/>
<glyph glyph-name="napostrophe" horiz-adv-x="692" unicode="ŉ" d="M316 0h-134v504h122l5 -67q7 13 19.5 27t30.5 26t42 19.5t54 7.5q96 0 137 -52.5t41 -144.5v-320h-134v312q0 52 -22 71t-54 19q-33 0 -54 -13t-32.5 -36t-16 -53.5t-4.5 -64.5v-235zM26 688q0 35 19.5 54.5t52.5 19.5q34 0 53.5 -21t19.5 -61q0 -32 -14 -65.5t-33 -64.5 t-37.5 -55t-27.5 -36l-55 34q6 10 15.5 26t18.5 33.5t17 36t12 33.5q-17 10 -29 25t-12 41z"/>
<glyph glyph-name="Eng" horiz-adv-x="709" unicode="Ŋ" d="M503 351q0 66 -9.5 111.5t-27.5 74t-43 41.5t-56 13q-41 0 -70 -19t-48 -52t-28 -79t-9 -100v-341h-138v703h131l4 -87q8 15 21.5 32.5t34 33.5t49.5 26.5t68 10.5q58 0 107.5 -20t85 -62.5t55.5 -108t20 -155.5q0 -114 -18 -189.5t-50.5 -119.5t-78.5 -62t-101 -18 q-27 0 -52.5 4t-47.5 10l23 113q12 -4 27.5 -7t28.5 -3q28 0 50.5 11t38.5 39.5t24.5 76.5t8.5 123z"/>
<glyph glyph-name="eng" d="M196 0h-134v504h122l5 -67q7 13 19.5 27t30.5 26t42 19.5t54 7.5q96 0 137 -52.5t41 -144.5v-334q0 -109 -47 -163.5t-153 -54.5q-24 0 -50 4t-45 10l14 108q11 -2 27 -5.5t33 -3.5q53 0 70 33.5t17 96.5v301q0 52 -22 71t-54 19q-33 0 -54 -13t-32.5 -36t-16 -53.5 t-4.5 -64.5v-235z" unicode="ŋ"/>
<glyph glyph-name="Omacron" horiz-adv-x="747" unicode="Ō" d="M200 352q0 -112 42.5 -176t130.5 -64t130.5 64t42.5 176t-42.5 175.5t-130.5 63.5t-130.5 -63.5t-42.5 -175.5zM54 352q0 80 19 147.5t58.5 116t99.5 76t142 27.5t142.5 -27.5t100 -76t58.5 -116t19 -147.5t-19 -147.5t-58.5 -116.5t-100 -76.5t-142.5 -27.5t-142 27.5 t-99.5 76.5t-58.5 116.5t-19 147.5zM208 803v110h331v-110h-331z"/>
<glyph glyph-name="omacron" horiz-adv-x="584" unicode="ō" d="M292 517q58 0 104 -18.5t78.5 -53t49.5 -83.5t17 -110q0 -129 -66 -197.5t-183 -68.5t-183.5 69t-66.5 197q0 61 17.5 110t50 83.5t78.5 53t104 18.5zM292 101q62 0 88 40.5t26 110.5q0 69 -28.5 109.5t-85.5 40.5t-86 -40.5t-29 -109.5q0 -70 26 -110.5t89 -40.5z M138 601v106h308v-106h-308z"/>
<glyph glyph-name="Obreve" horiz-adv-x="747" unicode="Ŏ" d="M200 352q0 -112 42.5 -176t130.5 -64t130.5 64t42.5 176t-42.5 175.5t-130.5 63.5t-130.5 -63.5t-42.5 -175.5zM54 352q0 80 19 147.5t58.5 116t99.5 76t142 27.5t142.5 -27.5t100 -76t58.5 -116t19 -147.5t-19 -147.5t-58.5 -116.5t-100 -76.5t-142.5 -27.5t-142 27.5 t-99.5 76.5t-58.5 116.5t-19 147.5zM375 861q42 0 64 20.5t22 52.5h98q0 -33 -11 -65t-33.5 -56.5t-57.5 -39.5t-82 -15t-82 15t-58 39.5t-34 56.5t-11 65h99q0 -32 22 -52.5t64 -20.5z"/>
<glyph glyph-name="obreve" horiz-adv-x="584" unicode="ŏ" d="M292 517q58 0 104 -18.5t78.5 -53t49.5 -83.5t17 -110q0 -129 -66 -197.5t-183 -68.5t-183.5 69t-66.5 197q0 61 17.5 110t50 83.5t78.5 53t104 18.5zM292 101q62 0 88 40.5t26 110.5q0 69 -28.5 109.5t-85.5 40.5t-86 -40.5t-29 -109.5q0 -70 26 -110.5t89 -40.5z M293 674q42 0 61 23t19 55h94q0 -34 -10 -65t-31.5 -55t-54.5 -38.5t-78 -14.5q-46 0 -79 14.5t-54.5 38.5t-32 55t-10.5 65h95q0 -32 19.5 -55t61.5 -23z"/>
<glyph glyph-name="Ohungarumlaut" horiz-adv-x="747" unicode="Ő" d="M200 352q0 -112 42.5 -176t130.5 -64t130.5 64t42.5 176t-42.5 175.5t-130.5 63.5t-130.5 -63.5t-42.5 -175.5zM54 352q0 80 19 147.5t58.5 116t99.5 76t142 27.5t142.5 -27.5t100 -76t58.5 -116t19 -147.5t-19 -147.5t-58.5 -116.5t-100 -76.5t-142.5 -27.5t-142 27.5 t-99.5 76.5t-58.5 116.5t-19 147.5zM406 816l204 175l61 -81l-218 -158zM171 818l188 177l66 -77l-202 -161z"/>
<glyph glyph-name="ohungarumlaut" horiz-adv-x="584" unicode="ő" d="M292 517q58 0 104 -18.5t78.5 -53t49.5 -83.5t17 -110q0 -129 -66 -197.5t-183 -68.5t-183.5 69t-66.5 197q0 61 17.5 110t50 83.5t78.5 53t104 18.5zM292 101q62 0 88 40.5t26 110.5q0 69 -28.5 109.5t-85.5 40.5t-86 -40.5t-29 -109.5q0 -70 26 -110.5t89 -40.5z M325 614l181 177l71 -78l-196 -161zM90 616l182 177l69 -78l-195 -162z"/>
<glyph glyph-name="OE" horiz-adv-x="917" unicode="Œ" d="M468 124v455h-78q-93 0 -141.5 -54.5t-48.5 -172.5q0 -106 48 -167t141 -61h79zM904 703v-124h-297v-153h226v-124h-226v-178h307v-124h-520q-87 0 -151 24t-106 69.5t-62.5 110.5t-20.5 147q0 80 20 145t61 111t104 71t150 25h515z"/>
<glyph glyph-name="oe" horiz-adv-x="904" unicode="œ" d="M735 305q-4 52 -25 78.5t-72 26.5t-77.5 -28.5t-31.5 -76.5h206zM292 101q62 0 88 40.5t26 110.5q0 69 -28.5 109.5t-85.5 40.5t-86 -40.5t-29 -109.5q0 -70 26 -110.5t89 -40.5zM671 99q49 0 82 7.5t50 12.5l32 -94q-20 -11 -65.5 -25t-115.5 -14q-123 0 -186 80 q-63 -80 -176 -80q-117 0 -183.5 69t-66.5 197q0 61 17.5 110t50 83.5t78.5 53t104 18.5q55 0 99 -19.5t76 -56.5q29 37 71.5 56.5t99.5 19.5q53 0 94.5 -15.5t70 -48.5t43.5 -86t15 -128v-27h-333q3 -24 12.5 -44.5t26.5 -36t43 -24t61 -8.5z"/>
<glyph glyph-name="Racute" horiz-adv-x="628" unicode="Ŕ" d="M429 483q0 59 -35.5 80.5t-104.5 21.5h-76v-205h70q73 0 109.5 24.5t36.5 78.5zM610 0h-160l-155 262h-82v-262h-139v703h242q76 0 125 -20.5t77 -51.5t39 -68t11 -70q0 -75 -38 -124.5t-104 -71.5zM419 960l42 -105l-273 -98l-33 84z"/>
<glyph glyph-name="racute" horiz-adv-x="411" unicode="ŕ" d="M334 513q30 0 44.5 -3t22.5 -6l-10 -114q-5 2 -22.5 5.5t-40.5 3.5q-24 0 -47 -8.5t-42 -30t-30.5 -57.5t-11.5 -90v-213h-134v504h122l5 -77q7 14 21 29t33 28t42 21t48 8zM324 782l50 -101l-246 -111l-40 81z"/>
<glyph glyph-name="Rcommaaccent" horiz-adv-x="628" unicode="Ŗ" d="M429 483q0 59 -35.5 80.5t-104.5 21.5h-76v-205h70q73 0 109.5 24.5t36.5 78.5zM610 0h-160l-155 262h-82v-262h-139v703h242q76 0 125 -20.5t77 -51.5t39 -68t11 -70q0 -75 -38 -124.5t-104 -71.5zM391 -125q0 -29 -11.5 -57.5t-26.5 -52.5t-29 -40t-20 -20l-51 32 q3 4 9 13.5t12.5 22t12.5 25.5t8 24q-17 7 -30.5 22.5t-13.5 36.5q0 29 19.5 46.5t50.5 17.5q30 0 50 -18.5t20 -51.5z"/>
<glyph glyph-name="rcommaaccent" horiz-adv-x="411" unicode="ŗ" d="M334 513q30 0 44.5 -3t22.5 -6l-10 -114q-5 2 -22.5 5.5t-40.5 3.5q-24 0 -47 -8.5t-42 -30t-30.5 -57.5t-11.5 -90v-213h-134v504h122l5 -77q7 14 21 29t33 28t42 21t48 8zM201 -125q0 -29 -11 -57.5t-25.5 -52t-28.5 -40t-20 -20.5l-50 32q3 4 9 13.5t12.5 22 t12.5 25.5t8 24q-17 7 -30 22.5t-13 36.5q0 29 18.5 46.5t49.5 17.5q30 0 49 -18.5t19 -51.5z"/>
<glyph glyph-name="Rcaron" horiz-adv-x="628" unicode="Ř" d="M429 483q0 59 -35.5 80.5t-104.5 21.5h-76v-205h70q73 0 109.5 24.5t36.5 78.5zM610 0h-160l-155 262h-82v-262h-139v703h242q76 0 125 -20.5t77 -51.5t39 -68t11 -70q0 -75 -38 -124.5t-104 -71.5zM246 759l-158 138l58 69l145 -96l145 96l58 -69l-158 -138h-90z"/>
<glyph glyph-name="rcaron" horiz-adv-x="411" unicode="ř" d="M334 513q30 0 44.5 -3t22.5 -6l-10 -114q-5 2 -22.5 5.5t-40.5 3.5q-24 0 -47 -8.5t-42 -30t-30.5 -57.5t-11.5 -90v-213h-134v504h122l5 -77q7 14 21 29t33 28t42 21t48 8zM223 675l120 95l65 -63l-144 -139h-81l-145 139l66 63z"/>
<glyph glyph-name="Sacute" horiz-adv-x="577" unicode="Ś" d="M226 304q-38 11 -71.5 29t-58.5 42.5t-39.5 57t-14.5 71.5q0 105 62 160t180 55q33 0 65 -5t60 -13t51 -18t40 -20l-51 -106q-20 12 -63.5 27t-103.5 15q-17 0 -34.5 -4t-32 -13.5t-23.5 -25t-9 -37.5q0 -14 4 -26.5t15.5 -24.5t31 -22.5t50.5 -19.5l64 -18 q87 -24 134.5 -72.5t47.5 -133.5q0 -50 -19.5 -90t-53.5 -68.5t-80 -44t-99 -15.5q-49 0 -90.5 7.5t-73 17.5t-52 20t-27.5 15l51 111q12 -7 31.5 -15t44 -15.5t54.5 -12.5t63 -5q18 0 37.5 4.5t35 15t25.5 26t10 38.5q0 13 -4 26.5t-15 26t-29.5 23.5t-48.5 19zM377 960 l42 -105l-273 -98l-33 84z"/>
<glyph glyph-name="sacute" horiz-adv-x="490" unicode="ś" d="M72 135q27 -15 67 -29.5t105 -14.5q45 0 62 13t17 33t-14.5 33.5t-58.5 22.5l-57 12q-32 7 -59.5 18t-47.5 29t-31.5 44t-11.5 63q0 33 13.5 62t39 50t62.5 33.5t84 12.5q63 0 114.5 -14.5t80.5 -33.5l-39 -92q-21 10 -57.5 22t-88.5 12q-48 0 -67.5 -12.5t-19.5 -34.5 q0 -17 11.5 -29t52.5 -20l60 -12q85 -17 123.5 -53.5t38.5 -102.5q0 -75 -51 -118t-160 -43q-72 0 -128.5 19t-84.5 41zM341 782l50 -101l-246 -111l-40 81z"/>
<glyph glyph-name="Scircumflex" horiz-adv-x="577" unicode="Ŝ" d="M226 304q-38 11 -71.5 29t-58.5 42.5t-39.5 57t-14.5 71.5q0 105 62 160t180 55q33 0 65 -5t60 -13t51 -18t40 -20l-51 -106q-20 12 -63.5 27t-103.5 15q-17 0 -34.5 -4t-32 -13.5t-23.5 -25t-9 -37.5q0 -14 4 -26.5t15.5 -24.5t31 -22.5t50.5 -19.5l64 -18 q87 -24 134.5 -72.5t47.5 -133.5q0 -50 -19.5 -90t-53.5 -68.5t-80 -44t-99 -15.5q-49 0 -90.5 7.5t-73 17.5t-52 20t-27.5 15l51 111q12 -7 31.5 -15t44 -15.5t54.5 -12.5t63 -5q18 0 37.5 4.5t35 15t25.5 26t10 38.5q0 13 -4 26.5t-15 26t-29.5 23.5t-48.5 19zM436 759 l-145 96l-145 -96l-58 69l158 138h90l158 -138z"/>
<glyph glyph-name="scircumflex" horiz-adv-x="490" unicode="ŝ" d="M72 135q27 -15 67 -29.5t105 -14.5q45 0 62 13t17 33t-14.5 33.5t-58.5 22.5l-57 12q-32 7 -59.5 18t-47.5 29t-31.5 44t-11.5 63q0 33 13.5 62t39 50t62.5 33.5t84 12.5q63 0 114.5 -14.5t80.5 -33.5l-39 -92q-21 10 -57.5 22t-88.5 12q-48 0 -67.5 -12.5t-19.5 -34.5 q0 -17 11.5 -29t52.5 -20l60 -12q85 -17 123.5 -53.5t38.5 -102.5q0 -75 -51 -118t-160 -43q-72 0 -128.5 19t-84.5 41zM63 636l145 139h81l144 -139l-65 -64l-120 96l-119 -96z"/>
<glyph glyph-name="Scedilla" horiz-adv-x="577" unicode="Ş" d="M226 304q-38 11 -71.5 29t-58.5 42.5t-39.5 57t-14.5 71.5q0 105 62 160t180 55q33 0 65 -5t60 -13t51 -18t40 -20l-51 -106q-20 12 -63.5 27t-103.5 15q-17 0 -34.5 -4t-32 -13.5t-23.5 -25t-9 -37.5q0 -14 4 -26.5t15.5 -24.5t31 -22.5t50.5 -19.5l64 -18 q87 -24 134.5 -72.5t47.5 -133.5q0 -48 -18 -87t-49.5 -67.5t-74.5 -45t-93 -18.5l-8 -39q52 -6 84.5 -31t32.5 -73q0 -30 -12 -52t-33 -36.5t-50 -21.5t-63 -7q-44 0 -74.5 8t-35.5 10l22 73q17 -5 37 -9t40 -4q35 0 52 10.5t17 27.5q0 13 -14.5 23t-47.5 10q-15 0 -27 -1 t-19 -3l27 118q-38 4 -70 12t-56.5 17t-40 16.5t-21.5 11.5l51 111q12 -7 31.5 -15t44 -15.5t54.5 -12.5t63 -5q18 0 37.5 4.5t35 15t25.5 26t10 38.5q0 13 -4 26.5t-15 26t-29.5 23.5t-48.5 19z"/>
<glyph glyph-name="scedilla" horiz-adv-x="490" unicode="ş" d="M72 135q27 -15 67 -29.5t105 -14.5q45 0 62 13t17 33t-14.5 33.5t-58.5 22.5l-57 12q-32 7 -59.5 18t-47.5 29t-31.5 44t-11.5 63q0 33 13.5 62t39 50t62.5 33.5t84 12.5q63 0 114.5 -14.5t80.5 -33.5l-39 -92q-21 10 -57.5 22t-88.5 12q-48 0 -67.5 -12.5t-19.5 -34.5 q0 -17 11.5 -29t52.5 -20l60 -12q85 -17 123.5 -53.5t38.5 -102.5q0 -72 -45.5 -114t-145.5 -46l-7 -41q51 -5 81.5 -29.5t30.5 -72.5q0 -58 -42.5 -86t-111.5 -28q-43 0 -72 7.5t-34 9.5l21 72q17 -5 36 -9t39 -4q66 0 66 37q0 13 -13.5 23t-45.5 10q-15 0 -26.5 -1 t-18.5 -3l27 117q-55 6 -97.5 23t-65.5 34z"/>
<glyph glyph-name="Scaron" horiz-adv-x="577" unicode="Š" d="M226 304q-38 11 -71.5 29t-58.5 42.5t-39.5 57t-14.5 71.5q0 105 62 160t180 55q33 0 65 -5t60 -13t51 -18t40 -20l-51 -106q-20 12 -63.5 27t-103.5 15q-17 0 -34.5 -4t-32 -13.5t-23.5 -25t-9 -37.5q0 -14 4 -26.5t15.5 -24.5t31 -22.5t50.5 -19.5l64 -18 q87 -24 134.5 -72.5t47.5 -133.5q0 -50 -19.5 -90t-53.5 -68.5t-80 -44t-99 -15.5q-49 0 -90.5 7.5t-73 17.5t-52 20t-27.5 15l51 111q12 -7 31.5 -15t44 -15.5t54.5 -12.5t63 -5q18 0 37.5 4.5t35 15t25.5 26t10 38.5q0 13 -4 26.5t-15 26t-29.5 23.5t-48.5 19zM246 759 l-158 138l58 69l145 -96l145 96l58 -69l-158 -138h-90z"/>
<glyph glyph-name="scaron" horiz-adv-x="490" unicode="š" d="M72 135q27 -15 67 -29.5t105 -14.5q45 0 62 13t17 33t-14.5 33.5t-58.5 22.5l-57 12q-32 7 -59.5 18t-47.5 29t-31.5 44t-11.5 63q0 33 13.5 62t39 50t62.5 33.5t84 12.5q63 0 114.5 -14.5t80.5 -33.5l-39 -92q-21 10 -57.5 22t-88.5 12q-48 0 -67.5 -12.5t-19.5 -34.5 q0 -17 11.5 -29t52.5 -20l60 -12q85 -17 123.5 -53.5t38.5 -102.5q0 -75 -51 -118t-160 -43q-72 0 -128.5 19t-84.5 41zM252 675l120 95l65 -63l-144 -139h-81l-145 139l66 63z"/>
<glyph glyph-name="uni0162" horiz-adv-x="607" unicode="Ţ" d="M234 576h-203v127h545v-127h-201v-576h-37l-11 -55q52 -6 84.5 -31t32.5 -73q0 -30 -12 -52t-33 -36.5t-50 -21.5t-63 -7q-44 0 -74.5 8t-35.5 10l22 73q17 -5 37 -9t40 -4q35 0 52 10.5t17 27.5q0 13 -14.5 23t-47.5 10q-15 0 -27 -1t-19 -3l30 131h-32v576z"/>
<glyph glyph-name="uni0163" horiz-adv-x="411" unicode="ţ" d="M317 103q21 0 36.5 2t26.5 4l9 -108q-14 -3 -41.5 -7t-65.5 -4h-9l-8 -44q51 -5 81.5 -29.5t30.5 -72.5q0 -58 -42.5 -86t-111.5 -28q-43 0 -72 7.5t-34 9.5l21 72q17 -5 36 -9t39 -4q66 0 66 37q0 13 -13.5 23t-45.5 10q-15 0 -26.5 -1t-18.5 -3l29 128 q-51 17 -73.5 55.5t-22.5 95.5v240h-91v113h91v128l134 30v-158h130v-113h-130v-218q0 -44 20 -57t55 -13z"/>
<glyph glyph-name="Tcaron" horiz-adv-x="607" unicode="Ť" d="M234 576h-203v127h545v-127h-201v-576h-141v576zM258 759l-158 138l58 69l145 -96l145 96l58 -69l-158 -138h-90z"/>
<glyph glyph-name="tcaron" horiz-adv-x="411" unicode="ť" d="M317 103q21 0 36.5 2t26.5 4l9 -108q-14 -3 -41.5 -7t-65.5 -4q-94 0 -134 43.5t-40 117.5v240h-91v113h91v128l134 30v-158h130v-113h-130v-218q0 -44 20 -57t55 -13zM431 706q0 -21 -10 -46.5t-22.5 -49t-24.5 -41.5l-16 -24l-50 27l7 14t11 21t11.5 23t8.5 21 q-17 7 -31 23t-14 38q0 29 16 46.5t47 17.5t49 -18t18 -52z"/>
<glyph glyph-name="Tbar" horiz-adv-x="607" unicode="Ŧ" d="M234 277h-135v116h135v183h-203v127h545v-127h-201v-183h133v-116h-133v-277h-141v277z"/>
<glyph glyph-name="tbar" horiz-adv-x="411" unicode="ŧ" d="M242 206v-33q0 -44 20 -57t55 -13q21 0 36.5 2t26.5 4l9 -108q-14 -3 -41.5 -7t-65.5 -4q-94 0 -134 43.5t-40 117.5v55h-91v96h91v89h-91v113h91v128l134 30v-158h130v-113h-130v-89h130v-96h-130z"/>
<glyph glyph-name="Utilde" horiz-adv-x="682" unicode="Ũ" d="M341 -16q-77 0 -129.5 19.5t-85 57.5t-47 94t-14.5 130v418h141v-404q0 -54 7 -91t23 -60t41.5 -33t63.5 -10q37 0 63 10t42 33t23 59.5t7 90.5v405h141v-419q0 -74 -14.5 -130t-47.5 -93.5t-85.5 -57t-128.5 -19.5zM152 781q0 72 30 111t87 39q27 0 48.5 -9t40.5 -19.5 t37 -19t37 -8.5q25 0 35.5 13.5t10.5 39.5h77q0 -73 -30 -111.5t-87 -38.5q-27 0 -48.5 9t-40.5 19.5t-36.5 19.5t-36.5 9q-26 0 -36.5 -14t-10.5 -40h-77z"/>
<glyph glyph-name="utilde" d="M377 504h134v-504h-122l-5 66q-20 -32 -58.5 -55.5t-99.5 -23.5q-89 0 -127.5 52t-38.5 145v320h134v-312q0 -52 22 -71t53 -19q32 0 53 13t33 35.5t17 52.5t5 65v236zM100 580q0 72 30 111t85 39q27 0 48 -9t39.5 -19.5t35.5 -19t36 -8.5q25 0 35.5 13.5t10.5 39.5h75 q0 -73 -30 -111.5t-85 -38.5q-27 0 -48 9t-39 19.5t-35 19.5t-36 9q-26 0 -36.5 -14t-10.5 -40h-75z" unicode="ũ"/>
<glyph glyph-name="Umacron" horiz-adv-x="682" unicode="Ū" d="M341 -16q-77 0 -129.5 19.5t-85 57.5t-47 94t-14.5 130v418h141v-404q0 -54 7 -91t23 -60t41.5 -33t63.5 -10q37 0 63 10t42 33t23 59.5t7 90.5v405h141v-419q0 -74 -14.5 -130t-47.5 -93.5t-85.5 -57t-128.5 -19.5zM175 803v110h331v-110h-331z"/>
<glyph glyph-name="umacron" d="M377 504h134v-504h-122l-5 66q-20 -32 -58.5 -55.5t-99.5 -23.5q-89 0 -127.5 52t-38.5 145v320h134v-312q0 -52 22 -71t53 -19q32 0 53 13t33 35.5t17 52.5t5 65v236zM136 601v106h308v-106h-308z" unicode="ū"/>
<glyph glyph-name="Ubreve" horiz-adv-x="682" unicode="Ŭ" d="M341 -16q-77 0 -129.5 19.5t-85 57.5t-47 94t-14.5 130v418h141v-404q0 -54 7 -91t23 -60t41.5 -33t63.5 -10q37 0 63 10t42 33t23 59.5t7 90.5v405h141v-419q0 -74 -14.5 -130t-47.5 -93.5t-85.5 -57t-128.5 -19.5zM342 861q42 0 64 20.5t22 52.5h98q0 -33 -11 -65 t-33.5 -56.5t-57.5 -39.5t-82 -15t-82 15t-58 39.5t-34 56.5t-11 65h99q0 -32 22 -52.5t64 -20.5z"/>
<glyph glyph-name="ubreve" d="M377 504h134v-504h-122l-5 66q-20 -32 -58.5 -55.5t-99.5 -23.5q-89 0 -127.5 52t-38.5 145v320h134v-312q0 -52 22 -71t53 -19q32 0 53 13t33 35.5t17 52.5t5 65v236zM298 674q42 0 61 23t19 55h94q0 -34 -10 -65t-31.5 -55t-54.5 -38.5t-78 -14.5q-46 0 -79 14.5 t-54.5 38.5t-32 55t-10.5 65h95q0 -32 19.5 -55t61.5 -23z" unicode="ŭ"/>
<glyph glyph-name="Uring" horiz-adv-x="682" unicode="Ů" d="M341 -16q-77 0 -129.5 19.5t-85 57.5t-47 94t-14.5 130v418h141v-404q0 -54 7 -91t23 -60t41.5 -33t63.5 -10q37 0 63 10t42 33t23 59.5t7 90.5v405h141v-419q0 -74 -14.5 -130t-47.5 -93.5t-85.5 -57t-128.5 -19.5zM396 841q0 24 -16 39.5t-39 15.5t-38.5 -15.5 t-15.5 -39.5q0 -23 15.5 -39t38.5 -16t39 16t16 39zM471 842q0 -27 -10.5 -50t-28 -40t-41 -26.5t-49.5 -9.5q-27 0 -50.5 9.5t-41.5 26.5t-28.5 40t-10.5 49q0 27 10.5 50t28.5 40.5t41.5 27t49.5 9.5q27 0 50.5 -9.5t41 -26.5t28 -40t10.5 -50z"/>
<glyph glyph-name="uring" d="M377 504h134v-504h-122l-5 66q-20 -32 -58.5 -55.5t-99.5 -23.5q-89 0 -127.5 52t-38.5 145v320h134v-312q0 -52 22 -71t53 -19q32 0 53 13t33 35.5t17 52.5t5 65v236zM351 685q0 23 -15.5 38.5t-38.5 15.5q-22 0 -37.5 -15.5t-15.5 -38.5t15.5 -39t37.5 -16 q23 0 38.5 16t15.5 39zM437 686q0 -30 -11 -55t-30 -43t-44.5 -28t-53.5 -10q-29 0 -54.5 10t-45 28t-30.5 43t-11 54t11 54t30.5 43t44.5 28.5t54 10.5t54.5 -10.5t44.5 -28.5t30 -43t11 -53z" unicode="ů"/>
<glyph glyph-name="Uhungarumlaut" horiz-adv-x="682" unicode="Ű" d="M341 -16q-77 0 -129.5 19.5t-85 57.5t-47 94t-14.5 130v418h141v-404q0 -54 7 -91t23 -60t41.5 -33t63.5 -10q37 0 63 10t42 33t23 59.5t7 90.5v405h141v-419q0 -74 -14.5 -130t-47.5 -93.5t-85.5 -57t-128.5 -19.5zM365 816l204 175l61 -81l-218 -158zM130 818l188 177 l66 -77l-202 -161z"/>
<glyph glyph-name="uhungarumlaut" d="M377 504h134v-504h-122l-5 66q-20 -32 -58.5 -55.5t-99.5 -23.5q-89 0 -127.5 52t-38.5 145v320h134v-312q0 -52 22 -71t53 -19q32 0 53 13t33 35.5t17 52.5t5 65v236zM314 614l181 177l71 -78l-196 -161zM79 616l182 177l69 -78l-195 -162z" unicode="ű"/>
<glyph glyph-name="Uogonek" horiz-adv-x="682" unicode="Ų" d="M341 -16q-77 0 -129.5 19.5t-85 57.5t-47 94t-14.5 130v418h141v-404q0 -54 7 -91t23 -60t41.5 -33t63.5 -10q37 0 63 10t42 33t23 59.5t7 90.5v405h141v-419q0 -109 -31.5 -177.5t-106.5 -99.5q-35 -26 -60 -52.5t-25 -52.5q0 -21 15.5 -29.5t37.5 -8.5h14t16 1v-86 q-8 -1 -18 -1.5t-21 -0.5q-86 0 -118.5 26t-32.5 77q0 54 60 104h-6z"/>
<glyph glyph-name="uogonek" d="M517 -215q-8 -1 -18 -1.5t-21 -0.5q-84 0 -115.5 25t-31.5 74q0 29 18 58.5t60 59.5h-20l-5 66q-20 -32 -58.5 -55.5t-99.5 -23.5q-89 0 -127.5 52t-38.5 145v320h134v-312q0 -52 22 -71t53 -19q32 0 53 13t33 35.5t17 52.5t5 65v236h134v-504q-38 -28 -56 -52t-18 -44 t14.5 -28.5t35.5 -8.5h14t16 1v-83z" unicode="ų"/>
<glyph glyph-name="Wcircumflex" horiz-adv-x="854" unicode="Ŵ" d="M305 0h-157l-152 703h149l92 -508l104 492h144l103 -492l93 508h149l-153 -703h-157l-107 487zM572 759l-145 96l-145 -96l-58 69l158 138h90l158 -138z"/>
<glyph glyph-name="wcircumflex" horiz-adv-x="710" unicode="ŵ" d="M8 504h139l79 -362l78 341h112l76 -341l78 362h132l-137 -504h-136l-74 307l-75 -307h-134zM170 636l145 139h81l144 -139l-65 -64l-120 96l-119 -96z"/>
<glyph glyph-name="Ycircumflex" horiz-adv-x="606" unicode="Ŷ" d="M232 308l-222 395h150l147 -273l146 273h143l-223 -395v-308h-141v308zM452 759l-145 96l-145 -96l-58 69l158 138h90l158 -138z"/>
<glyph glyph-name="ycircumflex" horiz-adv-x="528" unicode="ŷ" d="M8 504h149l110 -318l115 318h138l-305 -724h-128l107 257zM89 636l145 139h81l144 -139l-65 -64l-120 96l-119 -96z"/>
<glyph glyph-name="Ydieresis" horiz-adv-x="606" unicode="Ÿ" d="M232 308l-222 395h150l147 -273l146 273h143l-223 -395v-308h-141v308zM501 870q0 -35 -20.5 -57.5t-54.5 -22.5t-54.5 23.5t-20.5 56.5t20.5 56.5t54.5 23.5t54.5 -22.5t20.5 -57.5zM263 870q0 -35 -20.5 -57.5t-54.5 -22.5t-54.5 23.5t-20.5 56.5t20.5 56.5t54.5 23.5 t54.5 -22.5t20.5 -57.5z"/>
<glyph glyph-name="Zacute" horiz-adv-x="615" unicode="Ź" d="M40 108l353 471h-335v124h508v-108l-359 -471h376v-124h-543v108zM433 960l42 -105l-273 -98l-33 84z"/>
<glyph glyph-name="zacute" horiz-adv-x="511" unicode="ź" d="M43 98l262 298h-253v108h416v-99l-267 -297h266v-108h-424v98zM374 782l50 -101l-246 -111l-40 81z"/>
<glyph glyph-name="Zdotaccent" horiz-adv-x="615" unicode="Ż" d="M40 108l353 471h-335v124h508v-108l-359 -471h376v-124h-543v108zM392 871q0 -37 -21.5 -60.5t-57.5 -23.5t-57.5 24.5t-21.5 59.5t21.5 59.5t57.5 24.5t57.5 -23.5t21.5 -60.5z"/>
<glyph glyph-name="zdotaccent" horiz-adv-x="511" unicode="ż" d="M43 98l262 298h-253v108h416v-99l-267 -297h266v-108h-424v98zM345 672q0 -35 -20.5 -58t-55.5 -23t-55.5 23.5t-20.5 57.5t20.5 57.5t55.5 23.5t55.5 -23t20.5 -58z"/>
<glyph glyph-name="Zcaron" horiz-adv-x="615" unicode="Ž" d="M40 108l353 471h-335v124h508v-108l-359 -471h376v-124h-543v108zM268 759l-158 138l58 69l145 -96l145 96l58 -69l-158 -138h-90z"/>
<glyph glyph-name="zcaron" horiz-adv-x="511" unicode="ž" d="M43 98l262 298h-253v108h416v-99l-267 -297h266v-108h-424v98zM267 675l120 95l65 -63l-144 -139h-81l-145 139l66 63z"/>
<glyph glyph-name="longs" horiz-adv-x="257" unicode="ſ" d="M62 542q0 43 9 83t31 70.5t59.5 48.5t95.5 18q45 0 74 -4.5t41 -7.5l-12 -105q-11 2 -27.5 3.5t-42.5 1.5q-24 0 -42 -5.5t-29 -18.5t-16.5 -35.5t-5.5 -56.5v-534h-135v542z"/>
<glyph glyph-name="uni0181" horiz-adv-x="765" unicode="Ɓ" d="M442 421q54 0 75 25t21 63q0 36 -24.5 56t-62.5 20h-101v-164h92zM469 118q30 0 50 7t32 19.5t17 29t5 35.5q0 96 -125 96h-98v-187h119zM456 703q64 0 106.5 -16.5t68 -42.5t36 -58.5t10.5 -63.5q0 -37 -11.5 -63.5t-28.5 -44.5t-37.5 -28t-39.5 -14q23 -3 50 -13 t50 -30t38.5 -53t15.5 -81q0 -42 -15.5 -78t-46.5 -62t-77.5 -40.5t-108.5 -14.5h-252v585q-42 0 -59 -22t-17 -59v-14t2 -15l-113 -11q-7 28 -7 58q0 39 14 72t42.5 57.5t70.5 38t99 13.5h210z"/>
<glyph glyph-name="uni0186" horiz-adv-x="636" unicode="Ɔ" d="M95 165q10 -8 27 -16.5t38.5 -16t46 -12.5t49.5 -5q45 0 79 17.5t56.5 49t33.5 76t11 97.5t-11 97.5t-34 76t-58.5 49t-84.5 17.5q-51 0 -90 -17t-60 -37l-61 96q39 33 98.5 55t132.5 22q76 0 134.5 -25t98.5 -71t60.5 -111.5t20.5 -147.5q0 -75 -19 -142t-57.5 -117 t-97 -79.5t-138.5 -29.5q-72 0 -131 22t-99 53z"/>
<glyph glyph-name="uni018A" horiz-adv-x="853" unicode="Ɗ" d="M458 121q45 0 81.5 16.5t61.5 47t38.5 73t13.5 94.5q0 117 -53 173.5t-142 56.5h-103v-461h103zM214 0v585q-42 0 -59 -22t-17 -59v-14t2 -15l-113 -11q-7 28 -7 58q0 39 14 72t42.5 57.5t70.5 38t99 13.5h212q87 0 151 -25.5t106 -72t63 -111t21 -143.5q0 -80 -21 -145 t-63.5 -110.5t-106.5 -70.5t-150 -25h-244z"/>
<glyph glyph-name="uni018F" horiz-adv-x="714" unicode="Ə" d="M54 406h461q-3 39 -15 73t-35 59.5t-58 40t-85 14.5q-54 0 -96.5 -16.5t-66.5 -36.5l-61 99q44 34 104 55t135 21q83 0 144 -25.5t100.5 -73t59 -116t19.5 -155.5q0 -82 -20.5 -148.5t-60 -113.5t-97.5 -72.5t-132 -25.5q-65 0 -119 21t-93.5 66.5t-61.5 118t-22 176.5 v39zM198 287q5 -86 44.5 -134.5t107.5 -48.5q36 0 65 14t49.5 38.5t32.5 58t15 72.5h-314z"/>
<glyph glyph-name="uni0190" horiz-adv-x="590" unicode="Ɛ" d="M553 45q-9 -6 -29 -16.5t-50.5 -20.5t-70.5 -17t-88 -7q-68 0 -117.5 15.5t-82 42.5t-48.5 64.5t-16 82.5q0 30 7.5 58t24 51.5t43 41.5t65.5 27q-60 21 -88 65t-28 98q0 41 16 75.5t47 60t77 39.5t107 14q40 0 72 -5.5t58 -14.5t46.5 -20t37.5 -21l-49 -106 q-20 12 -61 29t-99 17q-59 0 -86 -22t-27 -63t27.5 -66.5t87.5 -25.5h97v-123h-96q-66 0 -101 -22.5t-35 -73.5q0 -95 125 -95q31 0 59 5.5t52 13t42.5 16t29.5 14.5z"/>
<glyph glyph-name="florin" horiz-adv-x="592" unicode="ƒ" d="M215 347h-104v103h114l7 83q9 112 66 170.5t168 58.5q21 0 40.5 -2.5t35.5 -5.5t27 -6t15 -4l-26 -104q-11 3 -30.5 6.5t-46.5 3.5q-33 0 -54 -9.5t-33 -28t-17.5 -46t-8.5 -62.5l-5 -54h145v-103h-154l-33 -375q-10 -105 -70 -154.5t-153 -49.5q-9 0 -23.5 1.5t-30 4 t-30.5 5.5t-25 6l26 105q9 -2 20.5 -4t23.5 -3.5t22.5 -2.5t17.5 -1q45 0 63 38.5t25 116.5z"/>
<glyph glyph-name="uni0198" horiz-adv-x="678" unicode="Ƙ" d="M658 0h-168l-275 368v-368h-141v703h141v-325l189 248q34 45 69 65.5t83 20.5q18 0 34 -2.5t26 -4.5l-9 -116q-6 1 -14 1.5t-16 0.5q-32 0 -50 -11t-35 -34l-126 -166z"/>
<glyph glyph-name="uni0199" horiz-adv-x="559" unicode="ƙ" d="M551 0h-161l-194 268v-268h-134v542q0 221 194 221q25 0 47 -3t42 -8l-13 -108q-13 2 -27 4t-26 2q-45 0 -64 -29.5t-19 -85.5v-264l181 233h152l-186 -223z"/>
<glyph glyph-name="Ohorn" horiz-adv-x="747" unicode="Ơ" d="M200 352q0 -112 42.5 -176t130.5 -64t130.5 64t42.5 176t-42.5 175.5t-130.5 63.5t-130.5 -63.5t-42.5 -175.5zM712 741q0 -92 -94 -132q38 -49 56.5 -114.5t18.5 -142.5q0 -80 -19 -147.5t-58.5 -116.5t-100 -76.5t-142.5 -27.5t-142 27.5t-99.5 76.5t-58.5 116.5 t-19 147.5t19 147.5t58.5 116t99.5 76t142 27.5q44 0 81.5 -8.5t69.5 -23.5q32 6 49 22.5t17 48.5q0 20 -5 38t-10 27h119q5 -10 11.5 -32t6.5 -50z"/>
<glyph glyph-name="ohorn" horiz-adv-x="597" unicode="ơ" d="M292 101q62 0 88 40.5t26 110.5q0 69 -28.5 109.5t-85.5 40.5t-86 -40.5t-29 -109.5q0 -70 26 -110.5t89 -40.5zM292 517q28 0 57 -6t52 -17q28 5 46 23t18 44q0 20 -4.5 34.5t-9.5 23.5h118q4 -12 8.5 -32t4.5 -45q0 -45 -23 -74.5t-66 -44.5q48 -68 48 -171 q0 -129 -66 -197.5t-183 -68.5t-183.5 69t-66.5 197q0 61 17.5 110t50 83.5t78.5 53t104 18.5z"/>
<glyph glyph-name="Uhorn" horiz-adv-x="730" unicode="Ư" d="M745 748q0 -29 -10 -52.5t-27.5 -41.5t-41 -29.5t-49.5 -15.5v-325q0 -74 -14.5 -130t-47.5 -93.5t-85.5 -57t-128.5 -19.5q-77 0 -129.5 19.5t-85 57.5t-47 94t-14.5 130v418h141v-404q0 -54 7 -91t23 -60t41.5 -33t63.5 -10q37 0 63 10t42 33t23 59.5t7 90.5v405h78 q29 0 50.5 16t21.5 48q0 20 -4.5 33.5t-9.5 22.5h120q5 -13 9 -31t4 -44z"/>
<glyph glyph-name="uhorn" horiz-adv-x="621" unicode="ư" d="M631 548q0 -27 -9.5 -49.5t-26 -39.5t-38.5 -28t-46 -15v-416h-122l-5 66q-20 -32 -58.5 -55.5t-99.5 -23.5q-89 0 -127.5 52t-38.5 145v320h134v-312q0 -52 22 -71t53 -19q32 0 53 13t33 35.5t17 52.5t5 65v236h77q30 0 46.5 16t16.5 46q0 20 -5 32.5t-10 21.5h116 q4 -12 8.5 -29.5t4.5 -42.5z"/>
<glyph glyph-name="uni01B3" horiz-adv-x="606" unicode="Ƴ" d="M373 0h-141v308l-222 395h150l147 -273l86 176q26 54 59 80t89 26q27 0 41 -2.5t24 -4.5l-9 -116q-6 1 -13.5 1.5t-15.5 0.5q-29 0 -43.5 -11t-30.5 -41l-121 -231v-308z"/>
<glyph glyph-name="uni01B4" horiz-adv-x="557" unicode="ƴ" d="M157 504l110 -318l70 206q7 21 16 42t24.5 38.5t38.5 28.5t59 11q23 0 42 -3t30 -6l-12 -105q-6 1 -14 1.5t-14 0.5q-23 0 -34.5 -11t-20.5 -34l-226 -575h-128l98 251l-188 473h149z"/>
<glyph glyph-name="uni01B7" horiz-adv-x="598" unicode="Ʒ" d="M88 156q12 -7 31 -15.5t43.5 -16t54 -12.5t63.5 -5q56 0 90 25t34 71q0 27 -8.5 47t-30 34t-59 21t-94.5 7h-20v97l167 171h-283v123h456v-110l-181 -182q40 -6 75.5 -21t62.5 -40.5t42.5 -61.5t15.5 -83q0 -55 -19.5 -96.5t-55 -69t-85.5 -41.5t-110 -14q-48 0 -89 7.5 t-72.5 18t-51.5 20.5t-27 15z"/>
<glyph glyph-name="uni01CD" horiz-adv-x="619" unicode="Ǎ" d="M220 263h169l-83 277zM424 146h-240l-44 -146h-130l230 703h140l229 -703h-141zM260 759l-158 138l58 69l145 -96l145 96l58 -69l-158 -138h-90z"/>
<glyph glyph-name="uni01CE" horiz-adv-x="534" unicode="ǎ" d="M208 -13q-33 0 -63.5 8t-54.5 27t-38.5 50t-14.5 78q0 85 50.5 128t155.5 43q14 0 30.5 -1t31.5 -2.5t26 -2.5t14 -2v18q0 40 -26 59.5t-71 19.5q-60 0 -98 -12t-53 -22l-39 89q7 5 23 14t41.5 17.5t59.5 15t78 6.5q113 0 163 -48.5t50 -133.5v-336h-116l-4 51 q-19 -23 -55 -43.5t-90 -20.5zM345 223q-19 3 -43 6t-56 3q-51 0 -70 -20t-19 -59q0 -32 22 -49.5t57 -17.5q21 0 41 5.5t35 16.5t24 26.5t9 35.5v53zM258 675l120 95l65 -63l-144 -139h-81l-145 139l66 63z"/>
<glyph glyph-name="uni01CF" horiz-adv-x="289" unicode="Ǐ" d="M215 0h-141v703h141v-703zM101 759l-158 138l58 69l145 -96l145 96l58 -69l-158 -138h-90z"/>
<glyph glyph-name="uni01D0" horiz-adv-x="266" unicode="ǐ" d="M66 504h134v-504h-134v504zM135 675l120 95l65 -63l-144 -139h-81l-145 139l66 63z"/>
<glyph glyph-name="uni01D1" horiz-adv-x="747" unicode="Ǒ" d="M200 352q0 -112 42.5 -176t130.5 -64t130.5 64t42.5 176t-42.5 175.5t-130.5 63.5t-130.5 -63.5t-42.5 -175.5zM54 352q0 80 19 147.5t58.5 116t99.5 76t142 27.5t142.5 -27.5t100 -76t58.5 -116t19 -147.5t-19 -147.5t-58.5 -116.5t-100 -76.5t-142.5 -27.5t-142 27.5 t-99.5 76.5t-58.5 116.5t-19 147.5zM330 759l-158 138l58 69l145 -96l145 96l58 -69l-158 -138h-90z"/>
<glyph glyph-name="uni01D2" horiz-adv-x="584" unicode="ǒ" d="M292 517q58 0 104 -18.5t78.5 -53t49.5 -83.5t17 -110q0 -129 -66 -197.5t-183 -68.5t-183.5 69t-66.5 197q0 61 17.5 110t50 83.5t78.5 53t104 18.5zM292 101q62 0 88 40.5t26 110.5q0 69 -28.5 109.5t-85.5 40.5t-86 -40.5t-29 -109.5q0 -70 26 -110.5t89 -40.5z M292 675l120 95l65 -63l-144 -139h-81l-145 139l66 63z"/>
<glyph glyph-name="uni01D3" horiz-adv-x="682" unicode="Ǔ" d="M341 -16q-77 0 -129.5 19.5t-85 57.5t-47 94t-14.5 130v418h141v-404q0 -54 7 -91t23 -60t41.5 -33t63.5 -10q37 0 63 10t42 33t23 59.5t7 90.5v405h141v-419q0 -74 -14.5 -130t-47.5 -93.5t-85.5 -57t-128.5 -19.5zM297 759l-158 138l58 69l145 -96l145 96l58 -69 l-158 -138h-90z"/>
<glyph glyph-name="uni01D4" d="M377 504h134v-504h-122l-5 66q-20 -32 -58.5 -55.5t-99.5 -23.5q-89 0 -127.5 52t-38.5 145v320h134v-312q0 -52 22 -71t53 -19q32 0 53 13t33 35.5t17 52.5t5 65v236zM293 675l120 95l65 -63l-144 -139h-81l-145 139l66 63z" unicode="ǔ"/>
<glyph glyph-name="uni01E4" horiz-adv-x="706" unicode="Ǥ" d="M357 187v80h129v60h-129v100h254v-160h84v-80h-84v-159q-11 -5 -31 -12.5t-49.5 -14.5t-69.5 -12t-91 -5q-77 0 -136 25t-99 72t-60.5 115t-20.5 155q0 81 21 148.5t62 116.5t101.5 76t140.5 27q69 0 124 -19t97 -52l-59 -99q-22 16 -60.5 33.5t-90.5 17.5q-49 0 -85 -19 t-59 -52.5t-34.5 -79t-11.5 -98.5t10.5 -97.5t33.5 -76.5t59 -50.5t86 -18.5q29 0 53 4t44 9v66h-129z"/>
<glyph glyph-name="uni01E5" horiz-adv-x="556" unicode="ǥ" d="M136 -40h295q-8 25 -31 34t-58 11l-85 4q-29 2 -54.5 4t-48.5 8q-7 -14 -11.5 -29t-6.5 -32zM276 -162q69 0 105 16.5t47 47.5h-287q14 -39 50.5 -51.5t84.5 -12.5zM377 342q0 22 -8 37.5t-21.5 25.5t-30.5 14t-35 4t-35 -4t-30.5 -14t-21.5 -25.5t-8 -37.5 q0 -23 8 -38.5t21.5 -24.5t30.5 -13t35 -4t35 3.5t30.5 12.5t21.5 24.5t8 39.5zM-24 -98v58h64q5 26 16.5 50t28.5 43q-31 26 -31 69q0 29 14 56t37 50q-23 22 -36 50.5t-13 63.5q0 48 20.5 81.5t53.5 54.5t74 30t82 9q44 0 75.5 -6.5t57.5 -6.5h127v-92h-15q-15 0 -33 1.5 t-34 3.5q43 -37 43 -89q0 -44 -21 -75t-53.5 -50t-72 -27.5t-76.5 -8.5q-63 0 -114 21q-5 -8 -7.5 -18t-2.5 -18q0 -22 14 -34t52 -14l122 -6q42 -2 77 -9.5t60 -23.5t39.5 -41.5t16.5 -63.5h62v-58h-66q-16 -66 -82.5 -107.5t-191.5 -41.5q-32 0 -69 6t-70.5 22t-57.5 45 t-28 76h-62z"/>
<glyph glyph-name="uni01E6" horiz-adv-x="665" unicode="Ǧ" d="M390 600q-49 0 -85 -19t-59 -52.5t-34.5 -79t-11.5 -98.5t10.5 -97.5t33.5 -76.5t59 -50.5t86 -18.5q29 0 53 4t44 9v175h-129v116h254v-384q-11 -5 -31 -12.5t-49.5 -14.5t-69.5 -12t-91 -5q-77 0 -136 25t-99 72t-60.5 115t-20.5 155q0 81 21 148.5t62 116.5t101.5 76 t140.5 27q69 0 124 -19t97 -52l-59 -99q-22 16 -60.5 33.5t-90.5 17.5zM333 759l-158 138l58 69l145 -96l145 96l58 -69l-158 -138h-90z"/>
<glyph glyph-name="uni01E7" horiz-adv-x="555" unicode="ǧ" d="M376 337q0 24 -8 40.5t-21.5 26.5t-30.5 14.5t-35 4.5t-35 -4.5t-30.5 -14.5t-21.5 -26.5t-8 -40.5t8 -40.5t21.5 -26.5t30.5 -14t35 -4t35 4t30.5 13.5t21.5 26t8 41.5zM259 -20q-21 1 -49 3t-46 9q-8 -12 -13.5 -25.5t-5.5 -31.5q0 -23 10 -37.5t27 -22.5t39 -11t45 -3 q82 0 114.5 18t32.5 50q0 26 -18 37t-50 12zM463 417q20 -17 31.5 -42.5t11.5 -48.5q0 -48 -22 -80.5t-55 -52t-70.5 -28t-68.5 -8.5q-18 0 -50.5 4t-63.5 17q-6 -7 -9 -18.5t-3 -20.5q0 -23 16 -36.5t65 -15.5l104 -4q45 -2 81.5 -9.5t62 -24t39.5 -43t14 -65.5 q0 -38 -17 -70.5t-52.5 -56.5t-90.5 -37.5t-131 -13.5q-32 0 -70.5 5.5t-73 21.5t-57.5 44.5t-23 73.5q0 39 17.5 70.5t42.5 50.5q-20 16 -29 35.5t-9 44.5q0 35 17 64t38 49q-28 23 -40.5 53.5t-12.5 61.5q0 50 21 84.5t54 55.5t72.5 30.5t76.5 9.5q27 0 46.5 -2t35.5 -4.5 t29.5 -4.5t27.5 -2h127v-92h-15q-15 0 -33 1.5t-34 3.5zM294 675l120 95l65 -63l-144 -139h-81l-145 139l66 63z"/>
<glyph glyph-name="uni01E8" horiz-adv-x="668" unicode="Ǩ" d="M215 0h-141v703h141v-325l261 325h153l-263 -323l292 -380h-168l-275 368v-368zM296 759l-158 138l58 69l145 -96l145 96l58 -69l-158 -138h-90z"/>
<glyph glyph-name="uni01E9" horiz-adv-x="559" unicode="ǩ" d="M551 0h-161l-194 268v-268h-134v750h134v-479l181 233h152l-186 -223zM116 961l133 -90l135 90l57 -64l-143 -123h-99l-140 123z"/>
<glyph glyph-name="uni01EE" horiz-adv-x="598" unicode="Ǯ" d="M88 156q12 -7 31 -15.5t43.5 -16t54 -12.5t63.5 -5q56 0 90 25t34 71q0 27 -8.5 47t-30 34t-59 21t-94.5 7h-20v97l167 171h-283v123h456v-110l-181 -182q40 -6 75.5 -21t62.5 -40.5t42.5 -61.5t15.5 -83q0 -55 -19.5 -96.5t-55 -69t-85.5 -41.5t-110 -14q-48 0 -89 7.5 t-72.5 18t-51.5 20.5t-27 15zM262 759l-158 138l58 69l145 -96l145 96l58 -69l-158 -138h-90z"/>
<glyph glyph-name="uni01EF" horiz-adv-x="500" unicode="ǯ" d="M46 -65q11 -7 28 -15.5t39 -16t48 -12.5t54 -5q57 0 90 27.5t33 75.5q0 57 -42.5 87t-145.5 30v99l165 186h-281v113h421v-111l-174 -196q85 -13 137 -63t52 -138q0 -53 -18.5 -94.5t-51.5 -70.5t-79 -44.5t-102 -15.5q-45 0 -83 7.5t-67.5 18t-48.5 20.5t-25 15z M249 675l120 95l65 -63l-144 -139h-81l-145 139l66 63z"/>
<glyph glyph-name="Aringacute" horiz-adv-x="619" unicode="Ǻ" d="M305 684q20 0 33 13.5t13 33.5q0 19 -13 32.5t-33 13.5q-19 0 -32.5 -13.5t-13.5 -32.5q0 -20 13.5 -33.5t32.5 -13.5zM426 731q0 -47 -30 -79l213 -652h-141l-44 146h-240l-44 -146h-130l210 646q-17 16 -26.5 37t-9.5 47q0 25 9.5 46.5t26 37.5t38.5 25t47 9t47 -9 t38.5 -25t26 -37t9.5 -46zM420 897l-224 -33l-16 77l219 54zM389 263l-83 277l-86 -277h169z"/>
<glyph glyph-name="aringacute" horiz-adv-x="534" unicode="ǻ" d="M393 859l-219 -59l-25 77l211 79zM267 621q20 0 33.5 14t13.5 34t-13.5 33.5t-33.5 13.5q-19 0 -32.5 -13.5t-13.5 -33.5t13.5 -34t32.5 -14zM390 670q0 -26 -9.5 -48t-26 -38t-39 -25t-47.5 -9q-26 0 -48.5 9t-39 25t-26.5 37.5t-10 47.5q0 25 10 47t26.5 38.5t39 25.5 t47.5 9t47.5 -9t39.5 -25t26.5 -38t9.5 -47zM208 -13q-33 0 -63.5 8t-54.5 27t-38.5 50t-14.5 78q0 85 50.5 128t155.5 43q14 0 30.5 -1t31.5 -2.5t26 -2.5t14 -2v18q0 40 -26 59.5t-71 19.5q-60 0 -98 -12t-53 -22l-39 89q7 5 23 14t41.5 17.5t59.5 15t78 6.5 q113 0 163 -48.5t50 -133.5v-336h-116l-4 51q-19 -23 -55 -43.5t-90 -20.5zM345 223q-19 3 -43 6t-56 3q-51 0 -70 -20t-19 -59q0 -32 22 -49.5t57 -17.5q21 0 41 5.5t35 16.5t24 26.5t9 35.5v53z"/>
<glyph glyph-name="AEacute" horiz-adv-x="939" unicode="Ǽ" d="M313 298h156v308zM392 703h511v-124h-296v-153h226v-124h-226v-178h306v-124h-444v186h-216l-99 -186h-144zM723 960l42 -105l-273 -98l-33 84z"/>
<glyph glyph-name="aeacute" horiz-adv-x="848" unicode="ǽ" d="M679 305q-4 52 -25 78.5t-72 26.5t-77.5 -28.5t-31.5 -76.5h206zM345 223q-19 3 -43.5 6t-55.5 3q-49 0 -69 -20t-20 -59q0 -32 22 -49.5t57 -17.5q22 0 41.5 5.5t34.5 16t24 26t9 35.5v54zM615 99q51 0 83 7.5t49 12.5l32 -94q-19 -11 -64 -25t-117 -14t-122.5 23.5 t-81.5 65.5q-10 -13 -26 -28.5t-38.5 -28.5t-52.5 -22t-69 -9q-33 0 -64 8.5t-54.5 27.5t-38 50.5t-14.5 76.5q0 48 16 81t44 53t67 28.5t85 8.5q13 0 28.5 -1.5t29.5 -3t24.5 -2.5t13.5 -1v17q0 39 -26 59.5t-71 20.5q-58 0 -97 -12t-54 -22l-39 89q7 5 23 14t41 17.5 t59.5 15t78.5 6.5q58 0 98.5 -19t66.5 -51q31 31 70 50t87 19q108 0 165.5 -64.5t57.5 -212.5v-28h-332q4 -48 38 -80.5t104 -32.5zM567 782l50 -101l-246 -111l-40 81z"/>
<glyph glyph-name="Oslashacute" horiz-adv-x="747" unicode="Ǿ" d="M293 131q34 -19 80 -19q88 0 130.5 64t42.5 176q0 81 -24 137zM453 572q-34 19 -80 19q-88 0 -130.5 -63.5t-42.5 -175.5q0 -84 24 -139zM167 -67l-88 52l59 93q-43 51 -63.5 120t-20.5 154q0 80 19 147.5t58.5 116t99.5 76t142 27.5q89 0 153 -34l53 83l88 -52l-59 -92 q85 -101 85 -272q0 -80 -19 -147.5t-58.5 -116.5t-100 -76.5t-142.5 -27.5q-45 0 -83 8.5t-70 24.5zM491 960l42 -105l-273 -98l-33 84z"/>
<glyph glyph-name="oslashacute" horiz-adv-x="584" unicode="ǿ" d="M292 98q55 0 81 30.5t32 85.5q3 19 3 43q0 20 -4 40t-9 34l-154 -224q21 -9 51 -9zM176 252q0 -53 13 -85l155 226q-11 5 -24.5 8.5t-27.5 3.5q-58 0 -87 -41.5t-29 -111.5zM292 517q66 0 120 -26l40 60l65 -42l-43 -63q32 -35 49.5 -84t17.5 -110q0 -129 -66 -197.5 t-183 -68.5q-34 0 -63 6.5t-55 17.5l-42 -61l-65 42l44 63q-33 35 -51 83.5t-18 114.5q0 61 17.5 110t50 83.5t78.5 53t104 18.5zM381 782l50 -101l-246 -111l-40 81z"/>
<glyph glyph-name="Scommaaccent" horiz-adv-x="577" unicode="Ș" d="M226 304q-38 11 -71.5 29t-58.5 42.5t-39.5 57t-14.5 71.5q0 105 62 160t180 55q33 0 65 -5t60 -13t51 -18t40 -20l-51 -106q-20 12 -63.5 27t-103.5 15q-17 0 -34.5 -4t-32 -13.5t-23.5 -25t-9 -37.5q0 -14 4 -26.5t15.5 -24.5t31 -22.5t50.5 -19.5l64 -18 q87 -24 134.5 -72.5t47.5 -133.5q0 -50 -19.5 -90t-53.5 -68.5t-80 -44t-99 -15.5q-49 0 -90.5 7.5t-73 17.5t-52 20t-27.5 15l51 111q12 -7 31.5 -15t44 -15.5t54.5 -12.5t63 -5q18 0 37.5 4.5t35 15t25.5 26t10 38.5q0 13 -4 26.5t-15 26t-29.5 23.5t-48.5 19zM349 -125 q0 -29 -11.5 -57.5t-26.5 -52.5t-29 -40t-20 -20l-51 32q3 4 9 13.5t12.5 22t12.5 25.5t8 24q-17 7 -30.5 22.5t-13.5 36.5q0 29 19.5 46.5t50.5 17.5q30 0 50 -18.5t20 -51.5z"/>
<glyph glyph-name="scommaaccent" horiz-adv-x="490" unicode="ș" d="M72 135q27 -15 67 -29.5t105 -14.5q45 0 62 13t17 33t-14.5 33.5t-58.5 22.5l-57 12q-32 7 -59.5 18t-47.5 29t-31.5 44t-11.5 63q0 33 13.5 62t39 50t62.5 33.5t84 12.5q63 0 114.5 -14.5t80.5 -33.5l-39 -92q-21 10 -57.5 22t-88.5 12q-48 0 -67.5 -12.5t-19.5 -34.5 q0 -17 11.5 -29t52.5 -20l60 -12q85 -17 123.5 -53.5t38.5 -102.5q0 -75 -51 -118t-160 -43q-72 0 -128.5 19t-84.5 41zM315 -125q0 -29 -11 -57.5t-25.5 -52t-28.5 -40t-20 -20.5l-50 32q3 4 9 13.5t12.5 22t12.5 25.5t8 24q-17 7 -30 22.5t-13 36.5q0 29 18.5 46.5 t49.5 17.5q30 0 49 -18.5t19 -51.5z"/>
<glyph glyph-name="uni021A" horiz-adv-x="607" unicode="Ț" d="M234 576h-203v127h545v-127h-201v-576h-141v576zM375 -125q0 -29 -11.5 -57.5t-26.5 -52.5t-29 -40t-20 -20l-51 32q3 4 9 13.5t12.5 22t12.5 25.5t8 24q-17 7 -30.5 22.5t-13.5 36.5q0 29 19.5 46.5t50.5 17.5q30 0 50 -18.5t20 -51.5z"/>
<glyph glyph-name="uni021B" horiz-adv-x="411" unicode="ț" d="M317 103q21 0 36.5 2t26.5 4l9 -108q-14 -3 -41.5 -7t-65.5 -4q-94 0 -134 43.5t-40 117.5v240h-91v113h91v128l134 30v-158h130v-113h-130v-218q0 -44 20 -57t55 -13zM298 -125q0 -29 -11 -57.5t-25.5 -52t-28.5 -40t-20 -20.5l-50 32q3 4 9 13.5t12.5 22t12.5 25.5 t8 24q-17 7 -30 22.5t-13 36.5q0 29 18.5 46.5t49.5 17.5q30 0 49 -18.5t19 -51.5z"/>
<glyph glyph-name="uni021E" horiz-adv-x="689" unicode="Ȟ" d="M475 703h140v-703h-140v310h-260v-310h-141v703h141v-267h260v267zM299 759l-158 138l58 69l145 -96l145 96l58 -69l-158 -138h-90z"/>
<glyph glyph-name="uni021F" d="M513 0h-134v312q0 51 -22.5 70.5t-53.5 19.5q-33 0 -54 -13.5t-32.5 -36.5t-16 -53t-4.5 -64v-235h-134v750h134v-312q7 14 19 28t30 25.5t41 18.5t53 7q92 0 133 -52.5t41 -144.5v-320zM441 897l-140 -123h-99l-143 123l57 64l135 -90l133 90z" unicode="ȟ"/>
<glyph glyph-name="uni0250" horiz-adv-x="534" unicode="ɐ" d="M61 505h116l4 -51q19 23 55 43.5t90 20.5q33 0 63.5 -8t54.5 -27t38.5 -50.5t14.5 -77.5q0 -85 -50 -128t-156 -43q-14 0 -30.5 1t-31.5 2.5t-26 2.5t-14 2v-18q0 -40 26 -59.5t71 -19.5q60 0 98 12t53 22l39 -89q-7 -5 -23 -14t-41.5 -17.5t-60 -15t-77.5 -6.5 q-113 0 -163 48.5t-50 133.5v336zM189 282q19 -3 43 -6t56 -3q51 0 70 20t19 59q0 32 -22 49.5t-57 17.5q-21 0 -41 -5.5t-35 -16.5t-24 -26.5t-9 -35.5v-53z"/>
<glyph glyph-name="uni0251" horiz-adv-x="586" unicode="ɑ" d="M524 0h-115l-3 50q-16 -19 -52 -37.5t-90 -18.5q-44 0 -84 12t-71 42t-49 79.5t-18 124.5q0 60 12.5 108.5t39 83.5t67 54t97.5 19q31 0 55 -7.5t41 -18.5t28 -23.5t17 -21.5l4 58h121v-504zM390 235q0 35 -5 65.5t-17.5 53t-34 35.5t-53.5 13q-27 0 -46 -11.5t-32 -31.5 t-19 -47.5t-6 -59.5q0 -79 27.5 -112t84.5 -33q37 0 63.5 14t37.5 27v87z"/>
<glyph glyph-name="uni0252" horiz-adv-x="587" unicode="ɒ" d="M177 0h-115v504h121l4 -62q7 13 20.5 26.5t32 24t42 17.5t50.5 7q57 0 97 -19.5t66 -54t38 -82.5t12 -105q0 -74 -18.5 -124t-50 -80.5t-72 -44t-83.5 -13.5q-50 0 -87 19t-54 37zM196 148q13 -16 39.5 -28.5t61.5 -12.5q57 0 84.5 35t27.5 114q0 64 -25 105t-78 41 q-54 0 -82 -41t-28 -119v-94z"/>
<glyph glyph-name="uni0253" horiz-adv-x="587" unicode="ɓ" d="M196 148q13 -16 39.5 -28.5t61.5 -12.5q57 0 84.5 35t27.5 114q0 64 -25 105t-78 41q-54 0 -82 -41t-28 -119v-94zM177 0h-115v541q0 221 194 221q25 0 47 -3t42 -8l-13 -108q-13 2 -27 4t-26 2q-45 0 -64 -29.5t-19 -85.5v-89q6 12 18 25t29.5 23.5t39.5 17t49 6.5 q55 0 95 -19.5t66 -54.5t39 -83t13 -104q0 -74 -18.5 -124t-50 -80.5t-72 -44t-83.5 -13.5q-50 0 -87 19t-54 37z"/>
<glyph glyph-name="uni0254" horiz-adv-x="480" unicode="ɔ" d="M65 131q14 -9 42 -19t67 -10q62 0 95.5 36.5t33.5 113.5q0 74 -31.5 111.5t-90.5 37.5q-21 0 -38.5 -4.5t-31 -11t-23.5 -14t-18 -12.5l-60 94q7 6 22 16.5t38 21t54.5 18.5t70.5 8q60 0 105 -19t76 -54t46.5 -83.5t15.5 -107.5q0 -61 -16.5 -110t-48.5 -84t-78 -54 t-104 -19q-51 0 -96.5 14.5t-80.5 41.5z"/>
<glyph glyph-name="uni0255" horiz-adv-x="495" unicode="ɕ" d="M309 77q29 0 51.5 12t22.5 38q0 17 -12 28.5t-35 11.5q-27 0 -51 -17.5t-48 -50.5q31 -22 72 -22zM75 -27q9 20 18.5 40t19.5 40q-35 36 -53 86.5t-18 110.5t17.5 109t50 84t78 54.5t101.5 19.5q39 0 70.5 -8.5t54.5 -19.5t37 -21.5t19 -14.5l-60 -92q-7 4 -17.5 11 t-24 13.5t-30.5 11t-36 4.5q-56 0 -90.5 -41t-34.5 -116q0 -41 10 -72q31 36 68 58t85 22q31 0 56.5 -10t42.5 -26.5t26.5 -39.5t9.5 -48q0 -33 -15 -59.5t-41.5 -45t-61 -28t-73.5 -9.5q-55 0 -101 19q-8 -15 -16.5 -32t-16.5 -36z"/>
<glyph glyph-name="uni0256" horiz-adv-x="587" unicode="ɖ" d="M391 233q0 33 -5 64t-17 54t-33 37t-54 14q-53 0 -78.5 -41t-25.5 -106q0 -78 27.5 -115t75.5 -37q33 0 61.5 9t48.5 26v95zM525 750v-739q0 -32 3.5 -56t12.5 -40.5t24.5 -25t40.5 -8.5q17 0 31 3.5t25 5.5l14 -108q-18 -6 -43.5 -10t-48.5 -4q-102 0 -147.5 53 t-45.5 165v47q-23 -20 -57.5 -31.5t-73.5 -11.5q-41 0 -80.5 14t-70 45.5t-49 81t-18.5 120.5q0 61 14.5 110t41.5 83.5t65.5 53.5t86.5 19q32 0 55.5 -7.5t40.5 -18t28 -22t17 -20.5v301h134z"/>
<glyph glyph-name="uni0257" horiz-adv-x="587" unicode="ɗ" d="M525 0h-115l-3 50q-7 -8 -19 -18t-30 -18.5t-42 -14t-55 -5.5q-42 0 -81.5 13t-70 42.5t-48.5 78t-18 119.5q0 56 12.5 105.5t38 86t64 57.5t90.5 21q30 0 53 -6.5t41 -16.5t30 -22t19 -23v92q0 221 187 221q24 0 45 -3t41 -8l-13 -108q-12 2 -25 4t-24 2 q-42 0 -59.5 -29.5t-17.5 -85.5v-534zM391 235q0 34 -5 64t-17.5 53t-33 36.5t-51.5 13.5q-29 0 -49 -11.5t-33 -32.5t-18.5 -49t-5.5 -61q0 -75 27.5 -108t81.5 -33q41 0 67 14t37 27v87z"/>
<glyph glyph-name="uni0258" horiz-adv-x="548" unicode="ɘ" d="M169 305h206q-6 48 -30 76.5t-76 28.5q-48 0 -72 -26.5t-28 -78.5zM43 239q0 142 60.5 210t164.5 68q58 0 102.5 -19t74.5 -53t45.5 -82t15.5 -106q0 -132 -67 -201.5t-195 -69.5q-32 0 -59.5 4t-50.5 10t-39.5 13t-25.5 12l32 94q12 -4 46.5 -12t79.5 -8q72 0 106 28.5 t42 84.5h-332v27z"/>
<glyph glyph-name="uni0259" horiz-adv-x="548" unicode="ə" d="M43 292h332q-2 23 -10.5 43.5t-25 36.5t-42 25t-60.5 9q-51 0 -79.5 -9t-46.5 -19l-41 87q11 9 27 18t38 16.5t51.5 12.5t68.5 5q126 0 188.5 -72t62.5 -197q0 -59 -15 -107.5t-45 -83t-74.5 -53t-104.5 -18.5q-49 0 -90 15t-71 48t-46.5 85.5t-16.5 127.5v30zM169 199 q2 -51 25.5 -78.5t74.5 -27.5t76.5 29.5t29.5 76.5h-206z"/>
<glyph glyph-name="uni025A" horiz-adv-x="764" unicode="ɚ" d="M173 160q3 -11 9 -23t17 -21.5t27.5 -16t41.5 -6.5q32 0 53.5 10.5t34.5 29t19 45t7 58.5zM230 406q-44 0 -76.5 -10.5t-44.5 -17.5l-41 87q9 7 26 16.5t41 17t53.5 13t64.5 5.5q92 0 149 -37.5t83 -106.5l98 36l75 -21v-62q0 -44 11 -68t44 -24q8 0 15.5 2t15.5 4 l10 -86q-27 -11 -62 -11q-62 0 -97 40t-35 117l-57 -20q0 -8 0.5 -14.5t0.5 -14.5q0 -60 -15 -109t-44.5 -83.5t-74 -53.5t-103.5 -19q-101 0 -158 59t-66 167l326 119q-14 36 -46.5 55.5t-92.5 19.5z"/>
<glyph glyph-name="uni025B" horiz-adv-x="503" unicode="ɛ" d="M477 54q-25 -22 -79.5 -43t-130.5 -21q-51 0 -92 10.5t-70.5 29.5t-45.5 46t-16 60q0 28 8.5 50t22 37.5t30.5 25.5t33 13q-32 10 -55 36t-23 69q0 30 13.5 57.5t40.5 48t68 32.5t95 12q72 0 122 -22t75 -49l-58 -81q-20 22 -54.5 35t-79.5 13q-42 0 -68 -13.5t-26 -38.5 q0 -54 76 -54h102v-99h-113q-39 0 -56.5 -14.5t-17.5 -40.5q0 -58 102 -58q49 0 90 14t59 30z"/>
<glyph glyph-name="uni025C" horiz-adv-x="503" unicode="ɜ" d="M74 139q18 -16 59 -30t95 -14q97 0 97 59q0 25 -17 39.5t-57 14.5h-113v99h102q38 0 57 13.5t19 36.5q0 29 -26.5 42.5t-68.5 13.5q-45 0 -79 -13t-54 -35l-58 81q12 13 30 25.5t43 22.5t57 16.5t72 6.5q103 0 157.5 -40.5t54.5 -106.5q0 -43 -23 -70.5t-55 -37.5 q17 -3 33.5 -12.5t30 -25t22 -36.5t8.5 -47q0 -35 -16 -63t-45.5 -47.5t-70.5 -30t-90 -10.5q-39 0 -72.5 6t-60.5 15t-47 20.5t-32 22.5z"/>
<glyph glyph-name="uni025D" horiz-adv-x="686" unicode="ɝ" d="M74 139q18 -16 59 -30t95 -14q97 0 97 59q0 25 -17 39.5t-57 14.5h-113v99h102q38 0 57 13.5t19 36.5q0 29 -26.5 42.5t-68.5 13.5q-45 0 -79 -13t-54 -35l-58 81q12 13 30.5 25.5t44 22.5t58.5 16.5t74 6.5t76 -8.5t61 -25t41 -40t15 -53.5q0 -12 -3 -22l101 42l54 -15 v-62q0 -44 11 -68t43 -24q8 0 15.5 2t14.5 4l10 -86q-27 -11 -62 -11q-62 0 -97 40t-35 117l-116 -50q17 -3 33.5 -12t30 -23t22 -34.5t8.5 -46.5q0 -35 -16 -63t-45.5 -47.5t-70.5 -30t-90 -10.5q-39 0 -72.5 6t-60.5 15t-47 20.5t-32 22.5z"/>
<glyph glyph-name="uni025E" d="M304 93q43 0 67 14.5t24 41.5t-18 42t-65 15h-54v99h52q76 0 76 53q0 29 -22 41t-56 12q-66 -1 -98.5 -39t-32.5 -119q0 -78 30 -119t97 -41zM314 -14q-135 0 -203.5 66t-68.5 200q0 61 19 110.5t53.5 83.5t83.5 52.5t110 18.5q47 0 85 -10.5t65 -30t41.5 -46.5t14.5 -60 q0 -43 -23 -70.5t-55 -37.5q17 -3 33.5 -12.5t30 -25t22 -36.5t8.5 -47q0 -35 -17 -64t-46.5 -49t-68.5 -31t-84 -11z" unicode="ɞ"/>
<glyph glyph-name="uni025F" horiz-adv-x="313" unicode="ɟ" d="M241 -11q0 -110 -47 -165t-152 -55q-23 0 -49 4t-45 9l13 108q11 -3 27 -5.5t33 -2.5q27 0 44 9t26 25.5t12.5 41t3.5 55.5v204h-96v96h96v191h134v-191h61v-96h-61v-228z"/>
<glyph glyph-name="uni0260" horiz-adv-x="587" unicode="ɠ" d="M391 449v92q0 221 187 221q24 0 45 -3t41 -8l-13 -108q-12 2 -25 4t-24 2q-42 0 -59.5 -29.5t-17.5 -85.5v-498q0 -69 -17.5 -118t-49.5 -80.5t-77.5 -46.5t-101.5 -15q-65 0 -122 14t-85 31l38 100q34 -15 72 -23t87 -8q57 0 89.5 30.5t32.5 93.5v29 q-23 -20 -57.5 -31.5t-70.5 -11.5q-46 0 -86 15t-70 47t-47.5 81t-17.5 117q0 56 13.5 103.5t40 81.5t66 53t91.5 19q27 0 50 -7t40.5 -17.5t29.5 -22.5t18 -21zM391 239q0 32 -5 61.5t-17 52t-33 36t-54 13.5q-53 0 -78.5 -39.5t-25.5 -101.5q0 -75 27.5 -111.5t75.5 -36.5 q33 0 61.5 9t48.5 26v91z"/>
<glyph glyph-name="uni0261" horiz-adv-x="587" unicode="ɡ" d="M525 504v-468q0 -69 -17.5 -118t-49.5 -80.5t-77.5 -46.5t-101.5 -15q-65 0 -122 14t-85 31l38 100q34 -15 72 -23t87 -8q57 0 89.5 30.5t32.5 93.5v29q-23 -20 -57.5 -31.5t-70.5 -11.5q-46 0 -86 15t-70 47t-47.5 81t-17.5 117q0 56 12.5 103.5t39 81.5t67 53t97.5 19 q31 0 55 -7.5t41.5 -18.5t28.5 -23.5t17 -21.5l4 58h121zM391 239q0 32 -5 61.5t-17 52t-33 36t-54 13.5q-53 0 -78.5 -39.5t-25.5 -101.5q0 -75 27.5 -111.5t75.5 -36.5q33 0 61.5 9t48.5 26v91z"/>
<glyph glyph-name="uni0262" horiz-adv-x="554" unicode="ɢ" d="M492 17q-9 -4 -27 -9.5t-42.5 -10t-53.5 -8t-59 -3.5q-69 0 -119.5 18.5t-83.5 52.5t-49 82t-16 107q0 62 17 112t50.5 85.5t82.5 54.5t112 19q57 0 100.5 -14.5t77.5 -37.5l-54 -90q-17 11 -47.5 22.5t-68.5 11.5t-64.5 -11.5t-43 -32.5t-24.5 -50.5t-8 -65.5t7.5 -65 t24.5 -49t44.5 -31t68.5 -11q13 0 28 1.5t31 3.5v101h-83v94h199v-276z"/>
<glyph glyph-name="uni0263" horiz-adv-x="521" unicode="ɣ" d="M264 22l-27 -61q-9 -20 -13 -31.5t-4 -22.5q0 -20 12.5 -32t31.5 -12t31.5 12t12.5 32q0 11 -4 22.5t-13 31.5zM146 504l119 -322l114 322h134l-176 -406l39 -80q13 -26 24.5 -56.5t11.5 -65.5q0 -26 -9.5 -49.5t-28 -40.5t-46.5 -27t-64 -10t-64 10t-46.5 27t-28 40.5 t-9.5 49.5q0 35 11.5 65.5t24.5 56.5l35 74l-179 412h138z"/>
<glyph glyph-name="uni0264" horiz-adv-x="513" unicode="ɤ" d="M258 76q16 0 25 10t9 24q0 7 -2.5 16t-9.5 20l-22 38l-22 -38q-7 -11 -9.5 -20t-2.5 -16q0 -14 9 -24t25 -10zM126 103q0 24 7.5 44t21.5 42l30 48l-75 124q-13 21 -23.5 33t-36.5 12q-6 0 -14 -0.5t-15 -1.5l-11 99q9 3 27 6t38 3q25 0 43.5 -6t32 -16.5t23.5 -24.5 t18 -30l67 -129l67 128q8 16 17.5 30.5t22.5 25t30.5 16.5t41.5 6q20 0 38 -3t27 -6l-11 -99q-7 1 -15 1.5t-14 0.5q-26 0 -36.5 -12t-23.5 -33l-74 -122l32 -50q14 -22 21.5 -42t7.5 -44q0 -22 -9 -42t-26 -35t-41.5 -24t-55.5 -9t-55.5 9t-41.5 24t-26 35t-9 42z"/>
<glyph glyph-name="uni0265" d="M511 -220h-134v286q-18 -32 -54.5 -55.5t-96.5 -23.5q-89 0 -127.5 52t-38.5 145v320h134v-312q0 -52 22 -71t53 -19q32 0 53 13t33 35.5t17 52.5t5 65v236h134v-724z" unicode="ɥ"/>
<glyph glyph-name="uni0266" d="M513 0h-134v312q0 51 -22.5 70.5t-53.5 19.5q-33 0 -54 -13.5t-32.5 -36.5t-16 -53t-4.5 -64v-235h-134v539q0 221 194 221q25 0 47 -3t42 -8l-13 -108q-13 2 -27 4t-26 2q-45 0 -64 -29.5t-19 -85.5v-94q7 14 19 28t30 25.5t41 18.5t53 7q92 0 133 -52.5t41 -144.5v-320 z" unicode="ɦ"/>
<glyph glyph-name="uni0267" d="M513 -14q0 -108 -46 -163t-149 -55q-29 0 -55 4t-45 10l14 108q11 -2 26.5 -5.5t34.5 -3.5q26 0 43 8.5t26.5 25t13 41t3.5 55.5v301q0 52 -23 71t-56 19q-32 0 -52 -14t-31.5 -37t-16 -53t-4.5 -63v-235h-134v539q0 221 194 221q25 0 47 -3t42 -8l-13 -108q-13 2 -27 4 t-26 2q-45 0 -64 -29.5t-19 -85.5v-94q7 13 18.5 27t29 25.5t42 19t58.5 7.5q87 0 128 -52.5t41 -144.5v-334z" unicode="ɧ"/>
<glyph glyph-name="uni0268" horiz-adv-x="338" unicode="ɨ" d="M169 595q-35 0 -55.5 23.5t-20.5 57.5t20.5 57.5t55.5 23.5t55.5 -23t20.5 -58t-20.5 -58t-55.5 -23zM236 0h-134v217h-91v96h91v191h134v-191h91v-96h-91v-217z"/>
<glyph glyph-name="uni0269" horiz-adv-x="327" unicode="ɩ" d="M317 11q-11 -6 -38.5 -13.5t-64.5 -7.5q-78 0 -115 39t-37 120v355h134v-336q0 -32 12 -48.5t44 -16.5q25 0 43 8z"/>
<glyph glyph-name="uni026A" horiz-adv-x="356" unicode="ɪ" d="M40 0v96h71v312h-71v96h276v-96h-71v-312h71v-96h-276z"/>
<glyph glyph-name="uni026B" horiz-adv-x="442" unicode="ɫ" d="M288 0h-134v381q-10 5 -18 5q-23 0 -32 -18t-9 -51h-85q0 72 29 111t83 39q9 0 16.5 -1t15.5 -3v287h134v-349q7 -4 18 -4q23 0 32 18t9 51h85q0 -72 -29 -111t-83 -39q-20 0 -32 4v-320z"/>
<glyph glyph-name="uni026C" horiz-adv-x="474" unicode="ɬ" d="M141 486q-24 0 -36 -12.5t-12 -32.5q0 -17 14.5 -28.5t41.5 -11.5h52v6q0 79 -60 79zM335 0h-134v319h-58q-29 0 -54 8.5t-44 24t-29.5 39t-10.5 53.5q0 51 32 85t84 34q49 0 80 -31v218h134v-349h123v-82h-123v-319z"/>
<glyph glyph-name="uni026D" horiz-adv-x="266" unicode="ɭ" d="M200 750v-739q0 -32 3.5 -56t12.5 -40.5t24.5 -25t40.5 -8.5q17 0 31 3.5t25 5.5l14 -108q-18 -6 -43.5 -10t-48.5 -4q-102 0 -147.5 53t-45.5 165v764h134z"/>
<glyph glyph-name="uni026E" horiz-adv-x="663" unicode="ɮ" d="M209 -65q11 -7 28 -15.5t39 -16t48 -12.5t54 -5q57 0 90 27.5t33 75.5q0 57 -42.5 87t-145.5 30v99l165 186h-281v-391h-134v750h134v-246h421v-111l-174 -196q85 -13 137 -63t52 -138q0 -53 -18.5 -94.5t-51.5 -70.5t-79 -44.5t-102 -15.5q-45 0 -83 7.5t-67.5 18 t-48.5 20.5t-25 15z"/>
<glyph glyph-name="uni026F" horiz-adv-x="866" unicode="ɯ" d="M60 504h134v-314q0 -48 18 -68t50 -20t52 14.5t31.5 38t15.5 53t4 60.5v236h134v-314q0 -48 18.5 -68t50.5 -20t52 14.5t31 38t15 53.5t4 61v235h134v-504h-122l-5 67q-7 -14 -20 -28t-30.5 -25.5t-39.5 -19t-48 -7.5q-106 0 -143 78q-11 -15 -24.5 -29.5t-33 -25 t-45.5 -17t-60 -6.5q-89 0 -131 51.5t-42 145.5v320z"/>
<glyph glyph-name="uni0270" horiz-adv-x="866" unicode="ɰ" d="M60 504h134v-314q0 -48 18 -68t50 -20t52 14.5t31.5 38t15.5 53t4 60.5v236h134v-314q0 -48 18.5 -68t50.5 -20t52 14.5t31 38t15 53.5t4 61v235h134v-724h-134v286q-7 -14 -19.5 -28t-29.5 -25.5t-39 -18.5t-47 -7q-50 0 -85 19.5t-54 58.5q-11 -15 -24.5 -29.5t-33 -25 t-45.5 -17t-60 -6.5q-89 0 -131 51.5t-42 145.5v320z"/>
<glyph glyph-name="uni0271" horiz-adv-x="866" unicode="ɱ" d="M806 -14q0 -109 -47 -163.5t-153 -54.5q-24 0 -50 4t-45 10l14 108q11 -2 27 -5.5t33 -3.5q53 0 70 33.5t17 96.5v303q0 48 -18 68t-50 20t-52.5 -14.5t-31.5 -38t-15 -53t-4 -60.5v-236h-134v314q0 48 -18.5 68t-50.5 20t-52 -14.5t-31 -38t-15 -53.5t-4 -61v-235h-134 v504h122l5 -67q7 13 20 27.5t30.5 26t39.5 19t48 7.5q105 0 143 -78q21 31 56 54.5t94 23.5q96 0 141 -52t45 -145v-334z"/>
<glyph glyph-name="uni0272" d="M513 0h-134v312q0 52 -22 71t-54 19q-33 0 -54 -13t-32.5 -36t-16 -53.5t-4.5 -64.5v-249q0 -109 -45.5 -163.5t-147.5 -54.5q-23 0 -48.5 4t-43.5 10l14 108q11 -2 25 -5.5t31 -3.5q49 0 65 33.5t16 96.5v493h122l5 -67q7 13 19.5 27t30.5 26t42 19.5t54 7.5 q96 0 137 -52.5t41 -144.5v-320z" unicode="ɲ"/>
<glyph glyph-name="uni0273" d="M594 -119q17 0 31 3.5t25 5.5l14 -108q-18 -6 -43.5 -10t-48.5 -4q-102 0 -147.5 53t-45.5 165v326q0 52 -22 71t-54 19q-33 0 -54 -13t-32.5 -36t-16 -53.5t-4.5 -64.5v-235h-134v504h122l5 -67q7 13 19.5 27t30.5 26t42 19.5t54 7.5q96 0 137 -52.5t41 -144.5v-309 q0 -32 3.5 -56t12.5 -40.5t24.5 -25t40.5 -8.5z" unicode="ɳ"/>
<glyph glyph-name="uni0274" horiz-adv-x="577" unicode="ɴ" d="M515 0h-117l-216 339v-339h-120v508h127l206 -324v324h120v-508z"/>
<glyph glyph-name="uni0275" horiz-adv-x="583" unicode="ɵ" d="M409 297q-8 50 -37 79.5t-80 29.5t-80 -29.5t-38 -79.5h235zM174 208q8 -51 37.5 -81t80.5 -30t80.5 30t37.5 81h-236zM292 -14q-117 0 -183.5 69t-66.5 197q0 61 17.5 110t50 83.5t78.5 53t104 18.5t104 -18.5t78.5 -53t49.5 -83.5t17 -110q0 -129 -66 -197.5 t-183 -68.5z"/>
<glyph glyph-name="uni0276" horiz-adv-x="781" unicode="ɶ" d="M374 101v302h-66q-67 0 -99 -35t-32 -115q0 -34 6.5 -62t22 -48t40.5 -31t61 -11h67zM736 0h-422q-140 0 -206 64.5t-66 187.5q0 57 15.5 103.5t48 79.5t83 51t119.5 18h420v-101h-229v-94h174v-97h-174v-111h237v-101z"/>
<glyph glyph-name="uni0277" horiz-adv-x="776" unicode="ɷ" d="M323 290h129v-95q0 -50 19 -72t51 -22q38 0 58 29.5t20 83.5q0 97 -50.5 144.5t-159.5 47.5t-161.5 -50t-52.5 -139q0 -52 18 -84t60 -32q32 0 50.5 21.5t18.5 72.5v95zM42 212q0 75 24.5 132t70 95.5t109.5 58t144 19.5q79 0 143 -19.5t108.5 -58t68.5 -94.5t24 -129 q0 -50 -14.5 -92t-40.5 -72.5t-62 -48t-79 -17.5q-33 0 -57.5 7t-42.5 18.5t-30.5 27t-21.5 33.5q-18 -36 -54.5 -61t-90.5 -25q-46 0 -83 17t-62.5 47t-39.5 71.5t-14 90.5z"/>
<glyph glyph-name="uni0278" horiz-adv-x="747" unicode="ɸ" d="M308 401q-37 -2 -63 -14t-42 -32t-23 -46.5t-7 -56.5q0 -29 7.5 -55.5t23.5 -47t41.5 -33.5t62.5 -14v299zM439 102q37 1 62.5 14t41.5 33.5t23.5 47t7.5 55.5q0 30 -7 56.5t-23 46.5t-42 32t-63 14v-299zM308 -220v216q-64 3 -113.5 23t-83.5 54t-51.5 80t-17.5 99 t17.5 98.5t51.5 79.5t83.5 54t113.5 23v243h131v-243q64 -3 113.5 -23t83.5 -54t51.5 -79.5t17.5 -98.5t-17.5 -99t-51.5 -80t-83.5 -54t-113.5 -23v-216h-131z"/>
<glyph glyph-name="uni0279" horiz-adv-x="411" unicode="ɹ" d="M214 504h134v-504h-122l-5 70q-7 -13 -21 -27t-33 -25.5t-42 -19t-48 -7.5q-30 0 -44.5 3t-22.5 6l10 114q5 -2 22.5 -5.5t40.5 -3.5q24 0 47 8.5t42 30t30.5 57.5t11.5 90v213z"/>
<glyph glyph-name="uni027A" horiz-adv-x="411" unicode="ɺ" d="M214 750h134v-750h-122l-5 70q-7 -13 -21 -27t-33 -25.5t-42 -19t-48 -7.5q-30 0 -44.5 3t-22.5 6l10 114q5 -2 22.5 -5.5t40.5 -3.5q24 0 47 8.5t42 30t30.5 57.5t11.5 90v459z"/>
<glyph glyph-name="uni027B" horiz-adv-x="411" unicode="ɻ" d="M214 504h134v-493q0 -32 3.5 -56t12.5 -40.5t24.5 -25t40.5 -8.5q17 0 31 3.5t25 5.5l14 -108q-18 -6 -43.5 -10t-48.5 -4q-102 0 -147.5 53t-45.5 165v82q-19 -31 -55.5 -54t-81.5 -23q-30 0 -44.5 3t-22.5 6l10 114q5 -2 22.5 -5.5t40.5 -3.5q24 0 47 8.5t42 30 t30.5 57.5t11.5 90v213z"/>
<glyph glyph-name="uni027C" horiz-adv-x="411" unicode="ɼ" d="M197 -220h-134v724h122l5 -77q7 14 21 29t33 28t42 21t48 8q30 0 44.5 -3t22.5 -6l-10 -114q-5 2 -22.5 5.5t-40.5 3.5q-24 0 -47 -8.5t-42 -30t-30.5 -57.5t-11.5 -90v-433z"/>
<glyph glyph-name="uni027D" horiz-adv-x="411" unicode="ɽ" d="M197 0q1 -58 17.5 -88.5t63.5 -30.5q17 0 31 3.5t25 5.5l14 -108q-18 -6 -43.5 -10t-48.5 -4q-102 0 -147.5 53t-45.5 165v518h122l5 -77q7 14 21 29t33 28t42 21t48 8q30 0 44.5 -3t22.5 -6l-10 -114q-5 2 -22.5 5.5t-40.5 3.5q-24 0 -47 -8.5t-42 -30t-30.5 -57.5 t-11.5 -90v-213z"/>
<glyph glyph-name="uni027E" horiz-adv-x="393" unicode="ɾ" d="M189 0h-134v260q0 67 20 115t53 79t77 45.5t92 14.5q22 0 44.5 -2.5t41.5 -7.5l-10 -114q-15 5 -30.5 7t-28.5 2q-27 0 -49.5 -8t-39.5 -25.5t-26.5 -44.5t-9.5 -66v-255z"/>
<glyph glyph-name="uni027F" horiz-adv-x="393" unicode="ɿ" d="M204 255q0 39 -9.5 66t-26.5 44.5t-39.5 25.5t-49.5 8q-13 0 -28.5 -2t-30.5 -7l-10 114q19 5 41.5 7.5t44.5 2.5q48 0 92 -13t77 -42.5t53 -76.5t20 -115v-267h-134v255z"/>
<glyph glyph-name="uni0280" horiz-adv-x="539" unicode="ʀ" d="M247 269q52 0 80.5 14t28.5 54q0 22 -7 35t-19.5 20t-31.5 9t-43 2h-69v-134h61zM514 0h-143l-116 168h-69v-168h-124v504h214q63 0 102.5 -16t62 -40t31 -51.5t8.5 -50.5q0 -55 -27.5 -93.5t-81.5 -55.5z"/>
<glyph glyph-name="uni0281" horiz-adv-x="539" unicode="ʁ" d="M186 240v-139h69q23 0 42 2t32 9t20 20t7 35q0 43 -27.5 58t-81.5 15h-61zM371 312q61 -18 85 -57t24 -84q0 -29 -9.5 -59.5t-33 -55t-62.5 -40.5t-99 -16h-214v504h124v-163h74l116 163h138z"/>
<glyph glyph-name="uni0282" horiz-adv-x="490" unicode="ʂ" d="M89 119q29 -12 69 -20t86 -8q45 0 62 13t17 33t-14.5 33.5t-58.5 22.5l-57 12q-32 7 -59.5 18t-47.5 29t-31.5 44t-11.5 63q0 33 13.5 62t39 50t62.5 33.5t84 12.5q63 0 114.5 -14.5t80.5 -33.5l-39 -92q-21 10 -57.5 22t-88.5 12q-48 0 -67.5 -12.5t-19.5 -34.5 q0 -17 11.5 -29t52.5 -20l60 -12q85 -17 123.5 -53.5t38.5 -102.5q0 -75 -49.5 -118t-148.5 -43q-32 0 -60 3.5t-52 9.5v-20q0 -58 20 -83t73 -25q20 0 35 2.5t29 6.5l14 -98q-18 -6 -43.5 -10t-48.5 -4q-102 0 -147.5 53t-45.5 165v98z"/>
<glyph glyph-name="uni0283" horiz-adv-x="280" unicode="ʃ" d="M207 -11q0 -111 -45 -165.5t-147 -54.5q-23 0 -48 4t-43 9l13 108q11 -2 25 -5t31 -3q25 0 40.5 9t24.5 25.5t12 41t3 55.5v529q0 111 45 165.5t147 54.5q23 0 48 -4t43 -9l-13 -108q-11 2 -25 5t-31 3q-25 0 -40.5 -9t-24.5 -25.5t-12 -41t-3 -55.5v-529z"/>
<glyph glyph-name="uni0284" horiz-adv-x="323" unicode="ʄ" d="M11 0v96h96v446q0 111 45 165.5t147 54.5q23 0 48 -4t43 -9l-13 -108q-11 2 -25 5t-31 3q-25 0 -40.5 -9t-24.5 -25.5t-12 -41t-3 -55.5v-422h61v-96h-61v-11q0 -111 -45 -165.5t-147 -54.5q-23 0 -48 4t-43 9l13 108q11 -2 25 -5t31 -3q24 0 39 8t24 23t12.5 37t4.5 50 h-96z"/>
<glyph glyph-name="uni0285" horiz-adv-x="280" unicode="ʅ" d="M207 550v-537q0 -31 3 -55.5t12 -41t24.5 -25.5t40.5 -9q17 0 31 3t25 5l13 -108q-18 -5 -43 -9t-55 -4q-99 0 -142 49.5t-43 162.5v537q0 31 -3 55.5t-12 41t-24.5 25.5t-40.5 9q-17 0 -31 -3t-25 -5l-13 108q18 5 43 9t55 4q99 0 142 -49.5t43 -162.5z"/>
<glyph glyph-name="uni0286" horiz-adv-x="374" unicode="ʆ" d="M99 -149q29 0 45 19t21 45q-24 40 -65 40q-23 0 -39 -14.5t-16 -37.5q0 -22 14 -37t40 -15zM437 641q-11 2 -25 5t-31 3q-25 0 -40.5 -9t-24.5 -25.5t-12 -41t-3 -55.5v-498q0 -38 -7.5 -73t-22.5 -66q14 -26 27.5 -54.5t28.5 -62.5l-77 -32q-11 23 -20 42t-17 33 q-23 -18 -52 -28t-64 -10q-32 0 -58.5 9.5t-46.5 27t-31 42t-11 54.5q0 31 11.5 56t30.5 42t43.5 26t51.5 9q24 0 44 -5.5t36 -15.5v528q0 109 44.5 164.5t142.5 55.5q28 0 53 -4t43 -9z"/>
<glyph glyph-name="uni0287" horiz-adv-x="411" unicode="ʇ" d="M22 503q14 3 41.5 7t65.5 4q94 0 134 -43.5t40 -117.5v-240h91v-113h-91v-128l-134 -30v158h-130v113h130v218q0 44 -20 57t-55 13q-21 0 -36.5 -2t-26.5 -4z"/>
<glyph glyph-name="uni0288" horiz-adv-x="411" unicode="ʈ" d="M242 391v-391q0 -58 16 -88.5t62 -30.5q16 0 30 3.5t24 5.5l14 -108q-18 -6 -42.5 -10t-47.5 -4q-101 0 -145.5 53t-44.5 165v405h-91v113h91v128l134 30v-158h130v-113h-130z"/>
<glyph glyph-name="uni0289" horiz-adv-x="591" unicode="ʉ" d="M279 102q31 0 52 13t33.5 35t17.5 52t5 65h-183v-75q0 -52 22 -71t53 -19zM11 267v90h61v147h132v-147h183v147h132v-147h61v-90h-61v-267h-120l-5 66q-20 -32 -58.5 -55.5t-98.5 -23.5q-89 0 -127 52t-38 145v83h-61z"/>
<glyph glyph-name="uni028A" horiz-adv-x="605" unicode="ʊ" d="M302 102q60 0 88.5 36t28.5 107q0 52 -17.5 91.5t-55.5 65.5v102h219v-106h-91q12 -8 26 -23t26.5 -37t20.5 -50.5t8 -64.5q0 -52 -15.5 -95t-47 -74.5t-79 -49t-111.5 -17.5t-111 17.5t-78.5 48.5t-47 74t-15.5 94q0 35 8 64t20 51t26.5 37.5t27.5 24.5h-92v106h218 v-102q-39 -26 -56 -67t-17 -91q0 -142 117 -142z"/>
<glyph glyph-name="uni028B" horiz-adv-x="571" unicode="ʋ" d="M395 271q0 63 -21.5 98t-70.5 35h-6l-6 102q22 3 45 3q42 0 77.5 -14t61 -42.5t40 -72.5t14.5 -104v-18q0 -129 -63 -200.5t-179 -71.5q-56 0 -98.5 15t-71 43t-43 66.5t-14.5 86.5v307h134v-306q0 -50 26.5 -75t65.5 -25q52 0 80.5 37.5t28.5 117.5v18z"/>
<glyph glyph-name="uni028C" horiz-adv-x="521" unicode="ʌ" d="M188 504h145l180 -504h-148l-109 372l-104 -372h-144z"/>
<glyph glyph-name="uni028D" horiz-adv-x="710" unicode="ʍ" d="M145 504h136l74 -307l75 307h134l138 -504h-139l-79 362l-78 -341h-112l-76 341l-78 -362h-132z"/>
<glyph glyph-name="uni028E" horiz-adv-x="528" unicode="ʎ" d="M313 724h128l-107 -257l186 -467h-149l-110 318l-115 -318h-138z"/>
<glyph glyph-name="uni028F" horiz-adv-x="530" unicode="ʏ" d="M330 0h-130v194l-192 310h143l118 -202l116 202h137l-192 -308v-196z"/>
<glyph glyph-name="uni0290" horiz-adv-x="511" unicode="ʐ" d="M462 108v-129q0 -58 18 -83t66 -25q17 0 31.5 2.5t26.5 6.5l14 -98q-17 -6 -41 -10t-46 -4q-97 0 -140 53t-43 165v14h-305v98l262 298h-253v108h416v-99l-267 -297h261z"/>
<glyph glyph-name="uni0291" horiz-adv-x="616" unicode="ʑ" d="M452 98q29 0 46.5 13t17.5 35q0 16 -9 26t-25 10q-22 0 -42.5 -21t-43.5 -63h56zM468 504v-99l-276 -307h110q19 38 38.5 69t40.5 52.5t45.5 33t54.5 11.5q25 0 47.5 -8.5t39.5 -24.5t27.5 -39t10.5 -53q0 -25 -8.5 -50t-28 -44.5t-50.5 -32t-76 -12.5h-94 q-11 -23 -21.5 -48.5t-22.5 -54.5l-77 34l29 69h-214v98l262 298h-253v108h416z"/>
<glyph glyph-name="uni0292" horiz-adv-x="500" unicode="ʒ" d="M46 -65q11 -7 28 -15.5t39 -16t48 -12.5t54 -5q57 0 90 27.5t33 75.5q0 57 -42.5 87t-145.5 30v99l165 186h-281v113h421v-111l-174 -196q85 -13 137 -63t52 -138q0 -53 -18.5 -94.5t-51.5 -70.5t-79 -44.5t-102 -15.5q-45 0 -83 7.5t-67.5 18t-48.5 20.5t-25 15z"/>
<glyph glyph-name="uni0293" horiz-adv-x="500" unicode="ʓ" d="M200 -137q51 0 84 15q-27 35 -58 52.5t-73 17.5q-30 0 -43.5 -11.5t-13.5 -26.5q0 -25 29.5 -36t74.5 -11zM150 215l163 176h-279v113h421v-111l-172 -187q42 -6 76 -22.5t59 -42t38.5 -60t13.5 -76.5q0 -47 -17 -87t-49 -71q12 -23 23 -46.5t22 -46.5l-77 -33 q-10 22 -19.5 41.5t-18.5 37.5q-61 -28 -137 -28q-39 0 -75 8t-64 24.5t-45 41.5t-17 60q0 54 40 90.5t119 36.5q62 0 107 -25t80 -65q6 19 6 45q0 31 -10.5 55t-34 40t-61 24.5t-92.5 8.5v99z"/>
<glyph glyph-name="uni0294" horiz-adv-x="410" unicode="ʔ" d="M211 0h-134v346h29q67 0 107 38t40 114q0 73 -33.5 110t-96.5 37q-23 0 -41 -4.5t-32.5 -11t-25.5 -13.5t-19 -11l-60 92q6 6 21.5 16.5t39.5 21t56.5 18.5t71.5 8q121 0 187.5 -67t66.5 -184q0 -53 -13.5 -96t-37 -76t-56 -55t-70.5 -33v-250z"/>
<glyph glyph-name="uni0295" horiz-adv-x="410" unicode="ʕ" d="M199 250q-83 22 -130 87t-47 164q0 60 18.5 108t51.5 82t80 52t104 18q39 0 71 -8t56 -18.5t40 -21t22 -16.5l-60 -92q-8 4 -19 11t-25.5 13.5t-32.5 11t-41 4.5q-63 0 -96.5 -37t-33.5 -107q0 -79 40 -117t107 -38h29v-346h-134v250z"/>
<glyph glyph-name="uni0296" horiz-adv-x="510" unicode="ʖ" d="M291 500q83 -22 130 -87t47 -164q0 -60 -18.5 -108t-51.5 -82t-80 -52t-104 -18q-39 0 -71.5 8t-56.5 18.5t-39.5 21t-21.5 16.5l60 92q8 -5 19 -11.5t25.5 -13t32.5 -11t41 -4.5q63 0 96.5 37t33.5 107q0 79 -40 117t-107 38h-29v346h134v-250z"/>
<glyph glyph-name="uni0297" horiz-adv-x="500" unicode="ʗ" d="M486 -175q-10 -7 -25.5 -16.5t-37 -18.5t-48.5 -15t-60 -6q-65 0 -114 20.5t-82 65.5t-50 116t-17 173q0 189 70 281t198 92q34 0 62.5 -8t51 -18.5t37 -21.5t19.5 -16l-60 -97q-6 4 -16 11t-24 13.5t-31 11t-35 4.5q-32 0 -57.5 -13t-43 -42.5t-27 -78t-9.5 -119.5 q0 -74 9 -122.5t27 -77.5t44.5 -41t62.5 -12q38 0 64 11t41 20z"/>
<glyph glyph-name="uni0298" horiz-adv-x="757" unicode="ʘ" d="M378 273q-35 0 -54.5 22.5t-19.5 56.5t19.5 56.5t54.5 22.5t54.5 -22t19.5 -57t-19.5 -57t-54.5 -22zM378 112q91 0 134.5 64t43.5 176t-43.5 175.5t-134.5 63.5t-134.5 -63.5t-43.5 -175.5t43.5 -176t134.5 -64zM378 -16q-83 0 -144 27.5t-101 76.5t-59.5 116.5 t-19.5 147.5t19.5 147.5t59.5 116t101 76t144 27.5q84 0 145 -27.5t101 -76t59.5 -116t19.5 -147.5t-19.5 -147.5t-59.5 -116.5t-101 -76.5t-145 -27.5z"/>
<glyph glyph-name="uni0299" horiz-adv-x="557" unicode="ʙ" d="M292 303q75 0 75 53q0 24 -15.5 39t-57.5 15h-103v-107h101zM309 94q44 0 62.5 16.5t18.5 43.5q0 58 -82 58h-117v-118h118zM64 0v504h235q59 0 97 -12t59.5 -31.5t29.5 -44t8 -48.5q0 -31 -19.5 -58.5t-51.5 -41.5q47 -17 71.5 -48t24.5 -71q0 -27 -8 -53.5t-30.5 -48 t-62.5 -34.5t-104 -13h-249z"/>
<glyph glyph-name="uni029A" d="M265 93q70 0 100.5 41t30.5 118q0 84 -32.5 121.5t-96.5 37.5q-35 0 -57.5 -12t-22.5 -41q0 -53 76 -53h52v-99h-54q-45 0 -64 -14.5t-19 -40.5q0 -29 23.5 -43.5t63.5 -14.5zM259 -14q-48 0 -87.5 10.5t-68 30.5t-44.5 48.5t-16 63.5q0 27 8.5 48.5t22 37t30.5 25 t33 12.5q-32 10 -55 37.5t-23 70.5q0 66 57.5 106.5t156.5 40.5q63 0 111 -18t81 -52t49.5 -81.5t16.5 -107.5q0 -63 -18.5 -113.5t-53.5 -86t-85.5 -54t-114.5 -18.5z" unicode="ʚ"/>
<glyph glyph-name="uni029B" horiz-adv-x="554" unicode="ʛ" d="M425 388q-17 8 -46 14.5t-61 6.5q-76 0 -111 -41t-35 -119q0 -36 7.5 -65t24.5 -49t44.5 -31t68.5 -11q13 0 28 1.5t31 3.5v101h-83v94h199v-276q-9 -4 -27 -9.5t-42.5 -10t-53.5 -8t-59 -3.5q-69 0 -119.5 18.5t-83.5 52.5t-49 82t-16 107q0 62 17 112t50.5 85.5 t82.5 54.5t113 19q18 0 35.5 -2t31.5 -5v51q0 102 47.5 151.5t131.5 49.5q20 0 40 -3t39 -8l-13 -103q-12 2 -24.5 4t-25.5 2q-42 0 -59 -25t-17 -70v-130z"/>
<glyph glyph-name="uni029C" horiz-adv-x="576" unicode="ʜ" d="M378 0v201h-180v-201h-134v504h134v-191h180v191h134v-504h-134z"/>
<glyph glyph-name="uni029D" horiz-adv-x="367" unicode="ʝ" d="M99 -149q29 0 45 19t21 45q-24 40 -65 40q-23 0 -39 -14.5t-16 -37.5q0 -22 14 -37t40 -15zM234 595q-35 0 -55.5 23.5t-20.5 57.5t20.5 57.5t55.5 23.5t55.5 -23t20.5 -58t-20.5 -58t-55.5 -23zM301 20q0 -38 -7.5 -73t-22.5 -66q14 -26 27.5 -54.5t28.5 -62.5l-77 -32 q-11 23 -20 42t-17 33q-23 -18 -52 -28t-64 -10q-32 0 -58.5 9.5t-46.5 27t-31 42t-11 54.5q0 31 11.5 56t30.5 42t43.5 26t51.5 9q24 0 44 -5.5t36 -15.5v490h134v-484z"/>
<glyph glyph-name="uni029E" horiz-adv-x="549" unicode="ʞ" d="M356 513h151v-729h-151v466l-179 -250h-170l203 267l-181 246h164l163 -241v241z"/>
<glyph glyph-name="uni029F" horiz-adv-x="451" unicode="ʟ" d="M426 0h-364v504h131v-392h233v-112z"/>
<glyph glyph-name="uni02A0" horiz-adv-x="587" unicode="ʠ" d="M391 235q0 35 -5 65.5t-17.5 53t-34 35.5t-53.5 13q-27 0 -46 -11.5t-32 -31.5t-19 -47.5t-6 -59.5q0 -79 27.5 -112t84.5 -33q37 0 63.5 12.5t37.5 25.5v90zM525 -220h-134v257q-20 -16 -51.5 -29.5t-74.5 -13.5q-44 0 -84 12t-71 42t-49 79.5t-18 124.5q0 55 12.5 103 t38.5 84t65.5 57t93.5 21q27 0 50 -6.5t40 -17t29.5 -22.5t18.5 -22v92q0 221 187 221q24 0 45 -3t41 -8l-13 -108q-12 2 -25 4t-24 2q-42 0 -59.5 -29.5t-17.5 -85.5v-754z"/>
<glyph glyph-name="uni02A1" horiz-adv-x="439" unicode="ʡ" d="M232 0h-123v108h-94v90h94v158h26q67 0 107 36.5t40 110.5q0 71 -33.5 106.5t-96.5 35.5q-23 0 -41 -4.5t-32.5 -11t-25.5 -13.5t-19 -11l-60 92q6 6 21.5 16.5t39.5 21t56.5 18.5t71.5 8q121 0 187.5 -65.5t66.5 -180.5q0 -51 -14 -94t-38.5 -75.5t-58.5 -54t-74 -31.5 v-62h99v-90h-99v-108z"/>
<glyph glyph-name="uni02A2" horiz-adv-x="439" unicode="ʢ" d="M108 108v90h99v62q-86 19 -135.5 84t-49.5 162q0 59 18.5 106t51.5 80t80 51t104 18q39 0 71 -8t56 -18.5t40 -21t22 -16.5l-60 -92q-16 11 -46 25.5t-73 14.5q-62 0 -95.5 -35.5t-33.5 -103.5q0 -77 40 -113.5t107 -36.5h26v-158h94v-90h-94v-108h-123v108h-99z"/>
<glyph glyph-name="uni02A3" horiz-adv-x="998" unicode="ʣ" d="M792 396h-267v-304zM391 235q0 35 -5 65.5t-17.5 53t-34 35.5t-53.5 13q-27 0 -46 -11.5t-32 -31.5t-19 -47.5t-6 -59.5q0 -79 27.5 -112t84.5 -33q37 0 63.5 14t37.5 27v87zM954 0h-544l-3 50q-16 -19 -52 -37.5t-90 -18.5q-44 0 -84 12t-71 42t-49 79.5t-18 124.5 q0 55 12.5 103t38.5 84t65.5 57t93.5 21q27 0 50 -6.5t40 -17t29.5 -22.5t18.5 -22v301h134v-246h430v-99l-267 -297h266v-108z"/>
<glyph glyph-name="uni02A4" horiz-adv-x="991" unicode="ʤ" d="M391 235q0 35 -5 65.5t-17.5 53t-34 35.5t-53.5 13q-27 0 -46 -11.5t-32 -31.5t-19 -47.5t-6 -59.5q0 -79 27.5 -112t84.5 -33q37 0 63.5 14t37.5 27v87zM537 -65q11 -7 28 -15.5t39 -16t48 -12.5t54 -5q57 0 90 27.5t33 75.5q0 57 -42.5 87t-145.5 30v99l165 186h-281 v-391h-115l-3 50q-16 -19 -52 -37.5t-90 -18.5q-44 0 -84 12t-71 42t-49 79.5t-18 124.5q0 55 12.5 103t38.5 84t65.5 57t93.5 21q27 0 50 -6.5t40 -17t29.5 -22.5t18.5 -22v301h134v-246h421v-111l-174 -196q85 -13 137 -63t52 -138q0 -53 -18.5 -94.5t-51.5 -70.5 t-79 -44.5t-102 -15.5q-45 0 -83 7.5t-67.5 18t-48.5 20.5t-25 15z"/>
<glyph glyph-name="uni02A5" horiz-adv-x="1103" unicode="ʥ" d="M939 98q29 0 46.5 13t17.5 35q0 16 -9 26t-25 10q-22 0 -42.5 -21t-43.5 -63h56zM792 396h-267v-304zM391 235q0 35 -5 65.5t-17.5 53t-34 35.5t-53.5 13q-27 0 -46 -11.5t-32 -31.5t-19 -47.5t-6 -59.5q0 -79 27.5 -112t84.5 -33q37 0 63.5 14t37.5 27v87zM955 504v-99 l-276 -307h110q19 38 38.5 69t40.5 52.5t45.5 33t54.5 11.5q25 0 47.5 -8.5t39.5 -24.5t27.5 -39t10.5 -53q0 -25 -8.5 -50t-28 -44.5t-50.5 -32t-76 -12.5h-94q-11 -23 -21.5 -48.5t-22.5 -54.5l-77 34l29 69h-334l-3 50q-16 -19 -52 -37.5t-90 -18.5q-44 0 -84 12t-71 42 t-49 79.5t-18 124.5q0 55 12.5 103t38.5 84t65.5 57t93.5 21q27 0 50 -6.5t40 -17t29.5 -22.5t18.5 -22v301h134v-246h430z"/>
<glyph glyph-name="uni02A6" horiz-adv-x="790" unicode="ʦ" d="M242 183q0 -44 21.5 -57t65.5 -13h231q28 0 45.5 9t17.5 32q0 20 -13 32.5t-50 20.5l-67 14q-30 6 -55.5 16.5t-44.5 27t-29.5 41t-10.5 60.5q0 15 3 30h-114v-213zM303 0q-55 0 -92 11t-60 32t-33 51t-10 67v235h-91v108h91v128l134 30v-158h225q20 6 43.5 9.5t49.5 3.5 q57 0 102.5 -14.5t74.5 -33.5l-39 -92q-21 10 -57.5 22t-88.5 12q-48 0 -67.5 -11.5t-19.5 -31.5q0 -17 11.5 -29t52.5 -19l60 -11q85 -16 123.5 -51t38.5 -100q0 -74 -51 -116t-160 -42h-237z"/>
<glyph glyph-name="uni02A7" horiz-adv-x="569" unicode="ʧ" d="M242 391v-214q0 -44 20 -57t55 -13q17 0 30.5 1t24.5 3v280h-130zM506 -11q0 -111 -45 -165.5t-147 -54.5q-23 0 -48 4t-43 9l13 108q11 -2 25 -5t31 -3q48 0 63.5 32t16.5 89q-16 -5 -38.5 -9t-51.5 -4q-88 0 -131 43t-43 118v240h-91v113h91v128l134 30v-158h130v38 q0 111 45 165.5t147 54.5q23 0 48 -4t43 -9l-13 -108q-11 2 -25 5t-31 3q-25 0 -40.5 -9t-24.5 -25.5t-12 -41t-3 -55.5v-529z"/>
<glyph glyph-name="uni02A8" horiz-adv-x="813" unicode="ʨ" d="M626 77q31 0 53.5 12t22.5 36q0 17 -12.5 30t-41.5 13q-32 0 -59.5 -14t-54.5 -34q18 -22 42 -32.5t50 -10.5zM272 -10q-89 0 -129 43.5t-40 117.5v245h-86v108h86v128l134 30v-158h105v-108h-105v-238q0 -33 15 -54t52 -21q23 0 44 8t41 22q-14 29 -21 64.5t-7 74.5 q0 59 17.5 108t49.5 84t77.5 54t101.5 19q39 0 70.5 -8.5t54.5 -19.5t37 -21.5t19 -14.5l-60 -92q-14 10 -41 25t-68 15q-55 0 -89 -40.5t-34 -121.5q0 -22 3 -41q32 23 70 38.5t88 15.5q63 0 100 -35.5t37 -92.5q0 -33 -16.5 -58.5t-42.5 -43.5t-58 -27t-64 -9 q-57 0 -100 15.5t-75 44.5q-35 -23 -75 -39.5t-91 -16.5z"/>
<glyph glyph-name="uni02A9" horiz-adv-x="884" unicode="ʩ" d="M824 -14q0 -109 -47 -163.5t-153 -54.5q-24 0 -50 4t-45 10l14 108q11 -2 27 -5.5t33 -3.5q53 0 70 33.5t17 96.5v301q0 52 -22 71t-54 19q-33 0 -54 -13t-32.5 -36t-16 -53.5t-4.5 -64.5v-235h-134v391h-133v-391h-135v391h-88v113h88v38q0 43 9 83t31 70.5t59.5 48.5 t95.5 18q45 0 74 -4.5t41 -7.5l-12 -105q-11 2 -28 3.5t-41 1.5q-48 0 -71 -24.5t-23 -87.5v-34h255l5 -67q7 13 19.5 27t30.5 26t42 19.5t54 7.5q96 0 137 -52.5t41 -144.5v-334z"/>
<glyph glyph-name="uni02AA" horiz-adv-x="726" unicode="ʪ" d="M200 750v-567q0 -44 21.5 -57t65.5 -13h209q63 0 63 42q0 20 -13 32t-50 20l-67 14q-31 6 -58 16.5t-47.5 27t-32.5 41t-12 60.5q0 33 14 60.5t40 48t63 31.5t83 11q62 0 113.5 -14.5t80.5 -33.5l-39 -92q-21 10 -57.5 22t-88.5 12q-48 0 -67.5 -11.5t-19.5 -31.5 q0 -17 11.5 -28.5t52.5 -19.5l60 -11q85 -16 123.5 -51t38.5 -100q0 -74 -51 -116t-160 -42h-215q-55 0 -92 11t-60 32t-33 51t-10 67v589h134z"/>
<glyph glyph-name="uni02AB" horiz-adv-x="673" unicode="ʫ" d="M467 396h-267v-304zM629 0h-563v750h134v-246h430v-99l-267 -297h266v-108z"/>
<glyph glyph-name="uni02AC" horiz-adv-x="555" unicode="ʬ" d="M432 393h-109l-45 164l-46 -164h-108l-94 310h113l46 -206l48 192h89l47 -192l46 206h106zM432 0h-109l-45 164l-46 -164h-108l-94 310h113l46 -206l48 192h89l47 -192l46 206h106z"/>
<glyph glyph-name="uni02AD" horiz-adv-x="599" unicode="ʭ" d="M69 -1v298h461v-297h-113v167h-236v-168h-112zM69 405v298h461v-297h-113v167h-236v-168h-112z"/>
<glyph glyph-name="circumflex" horiz-adv-x="505" unicode="ˆ" d="M67 636l145 139h81l144 -139l-65 -64l-120 96l-119 -96z"/>
<glyph glyph-name="caron" horiz-adv-x="505" unicode="ˇ" d="M253 675l120 95l65 -63l-144 -139h-81l-145 139l66 63z"/>
<glyph glyph-name="uni02C9" horiz-adv-x="505" unicode="ˉ" d="M98 601v106h308v-106h-308z"/>
<glyph glyph-name="uni02CF" horiz-adv-x="514" unicode="ˏ" d="M346 -50l50 -101l-246 -111l-40 81z"/>
<glyph glyph-name="breve" horiz-adv-x="505" unicode="˘" d="M253 674q42 0 61 23t19 55h94q0 -34 -10 -65t-31.5 -55t-54.5 -38.5t-78 -14.5q-46 0 -79 14.5t-54.5 38.5t-32 55t-10.5 65h95q0 -32 19.5 -55t61.5 -23z"/>
<glyph glyph-name="dotaccent" horiz-adv-x="504" unicode="˙" d="M328 672q0 -35 -20.5 -58t-55.5 -23t-55.5 23.5t-20.5 57.5t20.5 57.5t55.5 23.5t55.5 -23t20.5 -58z"/>
<glyph glyph-name="ring" horiz-adv-x="505" unicode="˚" d="M306 685q0 23 -15.5 38.5t-38.5 15.5q-22 0 -37.5 -15.5t-15.5 -38.5t15.5 -39t37.5 -16q23 0 38.5 16t15.5 39zM392 686q0 -30 -11 -55t-30 -43t-44.5 -28t-53.5 -10q-29 0 -54.5 10t-45 28t-30.5 43t-11 54t11 54t30.5 43t44.5 28.5t54 10.5t54.5 -10.5t44.5 -28.5 t30 -43t11 -53z"/>
<glyph glyph-name="ogonek" horiz-adv-x="505" unicode="˛" d="M334 -215q-8 -1 -18 -1.5t-21 -0.5q-84 0 -115.5 25t-31.5 74q0 29 18 58.5t60 59.5h102q-38 -28 -56 -52t-18 -44t14.5 -28.5t35.5 -8.5h14t16 1v-83z"/>
<glyph glyph-name="tilde" horiz-adv-x="505" unicode="˜" d="M55 580q0 72 30 111t85 39q27 0 48 -9t39.5 -19.5t35.5 -19t36 -8.5q25 0 35.5 13.5t10.5 39.5h75q0 -73 -30 -111.5t-85 -38.5q-27 0 -48 9t-39 19.5t-35 19.5t-36 9q-26 0 -36.5 -14t-10.5 -40h-75z"/>
<glyph glyph-name="hungarumlaut" horiz-adv-x="505" unicode="˝" d="M244 614l181 177l71 -78l-196 -161zM9 616l182 177l69 -78l-195 -162z"/>
<glyph glyph-name="gravecomb" horiz-adv-x="0" unicode="̀" d="M104 570l-246 111l50 101l236 -131z"/>
<glyph glyph-name="acutecomb" horiz-adv-x="0" unicode="́" d="M94 782l50 -101l-246 -111l-40 81z"/>
<glyph glyph-name="uni0302" horiz-adv-x="0" unicode="̂" d="M-187 636l145 139h81l144 -139l-65 -64l-120 96l-119 -96z"/>
<glyph glyph-name="tildecomb" horiz-adv-x="0" unicode="̃" d="M-192 580q0 72 30 111t85 39q27 0 48 -9t39.5 -19.5t35.5 -19t36 -8.5q25 0 35.5 13.5t10.5 39.5h75q0 -73 -30 -111.5t-85 -38.5q-27 0 -48 9t-39 19.5t-35 19.5t-36 9q-26 0 -36.5 -14t-10.5 -40h-75z"/>
<glyph glyph-name="uni0304" horiz-adv-x="0" unicode="̄" d="M-154 601v106h308v-106h-308z"/>
<glyph glyph-name="uni0306" horiz-adv-x="0" unicode="̆" d="M5 674q42 0 61 23t19 55h94q0 -34 -10 -65t-31.5 -55t-54.5 -38.5t-78 -14.5q-46 0 -79 14.5t-54.5 38.5t-32 55t-10.5 65h95q0 -32 19.5 -55t61.5 -23z"/>
<glyph glyph-name="hookabovecomb" horiz-adv-x="281" unicode="̉" d="M96 614q17 13 29.5 31.5t12.5 38.5q0 17 -11.5 28.5t-37.5 11.5q-8 0 -15 -0.5t-14 -1.5v78q6 2 20.5 4t33.5 2q66 0 97 -27t31 -73q0 -39 -26.5 -74t-63.5 -61z"/>
<glyph glyph-name="uni030C" horiz-adv-x="0" unicode="̌" d="M-1 675l120 95l65 -63l-144 -139h-81l-145 139l66 63z"/>
<glyph glyph-name="uni031B" horiz-adv-x="0" unicode="̛" d="M-88 410v94q30 0 46.5 16t16.5 46q0 20 -5 32.5t-10 21.5h116q5 -12 9 -29.5t4 -42.5q0 -27 -10.5 -52t-32.5 -44t-55.5 -30.5t-78.5 -11.5z"/>
<glyph glyph-name="dotbelowcomb" horiz-adv-x="504" unicode="̣" d="M252 -209q-32 0 -51 21.5t-19 53.5t19 53.5t51 21.5t51 -21t19 -54t-19 -54t-51 -21z"/>
<glyph glyph-name="uni0335" horiz-adv-x="0" unicode="̵" d="M128 208h-255v89h255v-89z"/>
<glyph glyph-name="epsilon" horiz-adv-x="503" unicode="ε" d="M477 54q-25 -22 -79.5 -43t-130.5 -21q-51 0 -92 10.5t-70.5 29.5t-45.5 46t-16 60q0 28 8.5 50t22 37.5t30.5 25.5t33 13q-32 10 -55 36t-23 69q0 30 13.5 57.5t40.5 48t68 32.5t95 12q72 0 122 -22t75 -49l-58 -81q-20 22 -54.5 35t-79.5 13q-42 0 -68 -13.5t-26 -38.5 q0 -54 76 -54h102v-99h-113q-39 0 -56.5 -14.5t-17.5 -40.5q0 -58 102 -58q49 0 90 14t59 30z"/>
<glyph glyph-name="iota" horiz-adv-x="327" unicode="ι" d="M317 11q-11 -6 -38.5 -13.5t-64.5 -7.5q-78 0 -115 39t-37 120v355h134v-336q0 -32 12 -48.5t44 -16.5q25 0 43 8z"/>
<glyph glyph-name="afii10067" horiz-adv-x="557" unicode="в" d="M292 303q75 0 75 53q0 24 -15.5 39t-57.5 15h-103v-107h101zM309 94q44 0 62.5 16.5t18.5 43.5q0 58 -82 58h-117v-118h118zM64 0v504h235q59 0 97 -12t59.5 -31.5t29.5 -44t8 -48.5q0 -31 -19.5 -58.5t-51.5 -41.5q47 -17 71.5 -48t24.5 -71q0 -27 -8 -53.5t-30.5 -48 t-62.5 -34.5t-104 -13h-249z"/>
<glyph glyph-name="afii10079" horiz-adv-x="576" unicode="н" d="M378 0v201h-180v-201h-134v504h134v-191h180v191h134v-504h-134z"/>
<glyph glyph-name="afii10086" horiz-adv-x="747" unicode="ф" d="M308 401q-37 -2 -63 -14t-42 -32t-23 -46.5t-7 -56.5q0 -29 7.5 -55.5t23.5 -47t41.5 -33.5t62.5 -14v299zM439 102q37 1 62.5 14t41.5 33.5t23.5 47t7.5 55.5q0 30 -7 56.5t-23 46.5t-42 32t-63 14v-299zM308 -220v216q-64 3 -113.5 23t-83.5 54t-51.5 80t-17.5 99 t17.5 98.5t51.5 79.5t83.5 54t113.5 23v243h131v-243q64 -3 113.5 -23t83.5 -54t51.5 -79.5t17.5 -98.5t-17.5 -99t-51.5 -80t-83.5 -54t-113.5 -23v-216h-131z"/>
<glyph glyph-name="uni04D8" horiz-adv-x="714" unicode="Ә" d="M54 406h461q-3 39 -15 73t-35 59.5t-58 40t-85 14.5q-54 0 -96.5 -16.5t-66.5 -36.5l-61 99q44 34 104 55t135 21q83 0 144 -25.5t100.5 -73t59 -116t19.5 -155.5q0 -82 -20.5 -148.5t-60 -113.5t-97.5 -72.5t-132 -25.5q-65 0 -119 21t-93.5 66.5t-61.5 118t-22 176.5 v39zM198 287q5 -86 44.5 -134.5t107.5 -48.5q36 0 65 14t49.5 38.5t32.5 58t15 72.5h-314z"/>
<glyph glyph-name="uni04D9" horiz-adv-x="548" unicode="ә" d="M43 292h332q-2 23 -10.5 43.5t-25 36.5t-42 25t-60.5 9q-51 0 -79.5 -9t-46.5 -19l-41 87q11 9 27 18t38 16.5t51.5 12.5t68.5 5q126 0 188.5 -72t62.5 -197q0 -59 -15 -107.5t-45 -83t-74.5 -53t-104.5 -18.5q-49 0 -90 15t-71 48t-46.5 85.5t-16.5 127.5v30zM169 199 q2 -51 25.5 -78.5t74.5 -27.5t76.5 29.5t29.5 76.5h-206z"/>
<glyph glyph-name="uni04E0" horiz-adv-x="598" unicode="Ӡ" d="M88 156q12 -7 31 -15.5t43.5 -16t54 -12.5t63.5 -5q56 0 90 25t34 71q0 27 -8.5 47t-30 34t-59 21t-94.5 7h-20v97l167 171h-283v123h456v-110l-181 -182q40 -6 75.5 -21t62.5 -40.5t42.5 -61.5t15.5 -83q0 -55 -19.5 -96.5t-55 -69t-85.5 -41.5t-110 -14q-48 0 -89 7.5 t-72.5 18t-51.5 20.5t-27 15z"/>
<glyph glyph-name="uni04E9" horiz-adv-x="584" unicode="ө" d="M409 297q-8 50 -37 79.5t-80 29.5t-80 -29.5t-38 -79.5h235zM174 208q8 -51 37.5 -81t80.5 -30t80.5 30t37.5 81h-236zM292 -14q-117 0 -183.5 69t-66.5 197q0 61 17.5 110t50 83.5t78.5 53t104 18.5t104 -18.5t78.5 -53t49.5 -83.5t17 -110q0 -129 -66 -197.5 t-183 -68.5z"/>
<glyph glyph-name="uni1E62" horiz-adv-x="558" unicode="Ṣ" d="M358 -138q0 -37 -21.5 -60.5t-57.5 -23.5t-57.5 24.5t-21.5 59.5t21.5 59.5t57.5 24.5t57.5 -23.5t21.5 -60.5zM226 304q-38 11 -71.5 29t-58.5 42.5t-39.5 57t-14.5 71.5q0 105 62 160t180 55q33 0 65 -5t60 -13t51 -18t40 -20l-51 -106q-20 12 -63.5 27t-103.5 15 q-17 0 -34.5 -4t-32 -13.5t-23.5 -25t-9 -37.5q0 -14 4 -26.5t15.5 -24.5t31 -22.5t50.5 -19.5l64 -18q87 -24 134.5 -72.5t47.5 -133.5q0 -50 -19.5 -90t-53.5 -68.5t-80 -44t-99 -15.5q-49 0 -90.5 7.5t-73 17.5t-52 20t-27.5 15l51 111q12 -7 31.5 -15t44 -15.5 t54.5 -12.5t63 -5q18 0 37.5 4.5t35 15t25.5 26t10 38.5q0 13 -4 26.5t-15 26t-29.5 23.5t-48.5 19z"/>
<glyph glyph-name="uni1E63" horiz-adv-x="490" unicode="ṣ" d="M72 135q27 -15 67 -29.5t105 -14.5q45 0 62 13t17 33t-14.5 33.5t-58.5 22.5l-57 12q-32 7 -59.5 18t-47.5 29t-31.5 44t-11.5 63q0 33 13.5 62t39 50t62.5 33.5t84 12.5q63 0 114.5 -14.5t80.5 -33.5l-39 -92q-21 10 -57.5 22t-88.5 12q-48 0 -67.5 -12.5t-19.5 -34.5 q0 -17 11.5 -29t52.5 -20l60 -12q85 -17 123.5 -53.5t38.5 -102.5q0 -75 -51 -118t-160 -43q-72 0 -128.5 19t-84.5 41zM328 -138q0 -37 -21.5 -60.5t-57.5 -23.5t-57.5 24.5t-21.5 59.5t21.5 59.5t57.5 24.5t57.5 -23.5t21.5 -60.5z"/>
<glyph glyph-name="Wgrave" horiz-adv-x="854" unicode="Ẁ" d="M305 0h-157l-152 703h149l92 -508l104 492h144l103 -492l93 508h149l-153 -703h-157l-107 487zM547 757l-273 98l42 105l264 -119z"/>
<glyph glyph-name="wgrave" horiz-adv-x="710" unicode="ẁ" d="M8 504h139l79 -362l78 341h112l76 -341l78 362h132l-137 -504h-136l-74 307l-75 -307h-134zM458 570l-246 111l50 101l236 -131z"/>
<glyph glyph-name="Wacute" horiz-adv-x="854" unicode="Ẃ" d="M305 0h-157l-152 703h149l92 -508l104 492h144l103 -492l93 508h149l-153 -703h-157l-107 487zM545 960l42 -105l-273 -98l-33 84z"/>
<glyph glyph-name="wacute" horiz-adv-x="710" unicode="ẃ" d="M8 504h139l79 -362l78 341h112l76 -341l78 362h132l-137 -504h-136l-74 307l-75 -307h-134zM475 782l50 -101l-246 -111l-40 81z"/>
<glyph glyph-name="Wdieresis" horiz-adv-x="854" unicode="Ẅ" d="M305 0h-157l-152 703h149l92 -508l104 492h144l103 -492l93 508h149l-153 -703h-157l-107 487zM621 870q0 -35 -20.5 -57.5t-54.5 -22.5t-54.5 23.5t-20.5 56.5t20.5 56.5t54.5 23.5t54.5 -22.5t20.5 -57.5zM383 870q0 -35 -20.5 -57.5t-54.5 -22.5t-54.5 23.5 t-20.5 56.5t20.5 56.5t54.5 23.5t54.5 -22.5t20.5 -57.5z"/>
<glyph glyph-name="wdieresis" horiz-adv-x="710" unicode="ẅ" d="M8 504h139l79 -362l78 341h112l76 -341l78 362h132l-137 -504h-136l-74 307l-75 -307h-134zM546 674q0 -35 -20.5 -57.5t-54.5 -22.5t-54.5 23.5t-20.5 56.5t20.5 56.5t54.5 23.5t54.5 -22.5t20.5 -57.5zM312 674q0 -35 -20.5 -57.5t-54.5 -22.5t-54.5 23.5t-20.5 56.5 t20.5 56.5t54.5 23.5t54.5 -22.5t20.5 -57.5z"/>
<glyph glyph-name="Ygrave" horiz-adv-x="606" unicode="Ỳ" d="M232 308l-222 395h150l147 -273l146 273h143l-223 -395v-308h-141v308zM424 757l-273 98l42 105l264 -119z"/>
<glyph glyph-name="ygrave" horiz-adv-x="528" unicode="ỳ" d="M8 504h149l110 -318l115 318h138l-305 -724h-128l107 257zM355 570l-246 111l50 101l236 -131z"/>
<glyph glyph-name="uni1EF4" horiz-adv-x="606" unicode="Ỵ" d="M232 308l-222 395h150l147 -273l146 273h143l-223 -395v-308h-141v308zM302 -209q-32 0 -51 21.5t-19 53.5t19 53.5t51 21.5t51 -21t19 -54t-19 -54t-51 -21z"/>
<glyph glyph-name="uni1EF5" horiz-adv-x="528" unicode="ỵ" d="M8 504h149l110 -318l115 318h138l-305 -724h-128l107 257zM402 -209q-32 0 -51 21.5t-19 53.5t19 53.5t51 21.5t51 -21t19 -54t-19 -54t-51 -21z"/>
<glyph glyph-name="uni1EF6" horiz-adv-x="606" unicode="Ỷ" d="M232 308l-222 395h150l147 -273l146 273h143l-223 -395v-308h-141v308zM270 805q14 11 25 29t11 36q0 17 -12 27.5t-37 10.5q-17 0 -25 -1t-13 -2v82q7 2 22 3.5t38 1.5q58 0 94.5 -23t36.5 -74q0 -40 -24 -72t-60 -59z"/>
<glyph glyph-name="uni1EF7" horiz-adv-x="528" unicode="ỷ" d="M8 504h149l110 -318l115 318h138l-305 -724h-128l107 257zM222 614q17 13 29.5 31.5t12.5 38.5q0 17 -11.5 28.5t-37.5 11.5q-8 0 -15 -0.5t-14 -1.5v78q6 2 20.5 4t33.5 2q66 0 97 -27t31 -73q0 -39 -26.5 -74t-63.5 -61z"/>
<glyph glyph-name="uni1EF8" horiz-adv-x="606" unicode="Ỹ" d="M232 308l-222 395h150l147 -273l146 273h143l-223 -395v-308h-141v308zM107 781q0 72 30 111t87 39q27 0 48.5 -9t40.5 -19.5t37 -19t37 -8.5q25 0 35.5 13.5t10.5 39.5h77q0 -73 -30 -111.5t-87 -38.5q-27 0 -48.5 9t-40.5 19.5t-36.5 19.5t-36.5 9q-26 0 -36.5 -14 t-10.5 -40h-77z"/>
<glyph glyph-name="uni1EF9" horiz-adv-x="528" unicode="ỹ" d="M8 504h149l110 -318l115 318h138l-305 -724h-128l107 257zM66 580q0 72 30 111t85 39q27 0 48 -9t39.5 -19.5t35.5 -19t36 -8.5q25 0 35.5 13.5t10.5 39.5h75q0 -73 -30 -111.5t-85 -38.5q-27 0 -48 9t-39 19.5t-35 19.5t-36 9q-26 0 -36.5 -14t-10.5 -40h-75z"/>
<glyph glyph-name="endash" horiz-adv-x="506" unicode="–" d="M0 353h506v-117h-506v117z"/>
<glyph glyph-name="emdash" horiz-adv-x="1011" unicode="—" d="M0 353h1011v-117h-1011v117z"/>
<glyph glyph-name="quoteleft" horiz-adv-x="266" unicode="‘" d="M201 519q0 -35 -20 -54.5t-53 -19.5q-34 0 -53.5 21t-19.5 61q0 31 13.5 65.5t32 65.5t36.5 55.5t27 36.5l60 -37q-6 -11 -15 -26.5t-18.5 -33t-18 -35.5t-12.5 -33q17 -10 29 -25t12 -41z"/>
<glyph glyph-name="quoteright" horiz-adv-x="266" unicode="’" d="M65 676q0 35 20 54.5t53 19.5q34 0 53.5 -21t19.5 -61q0 -31 -13.5 -65.5t-32 -65.5t-36.5 -55.5t-27 -36.5l-60 37q6 10 15 26t18.5 33.5t17.5 35.5t13 33q-17 10 -29 25t-12 41z"/>
<glyph glyph-name="quotesinglbase" horiz-adv-x="269" unicode="‚" d="M63 63q0 35 20 54.5t53 19.5q34 0 53.5 -21t19.5 -61q0 -31 -13.5 -65.5t-32 -65.5t-36.5 -55.5t-27 -36.5l-60 37q6 10 15 26t18.5 33.5t17.5 35.5t13 33q-17 10 -29 25t-12 41z"/>
<glyph glyph-name="quotedblleft" horiz-adv-x="469" unicode="“" d="M201 519q0 -35 -20 -54.5t-53 -19.5q-34 0 -53.5 21t-19.5 61q0 31 13.5 65.5t32 65.5t36.5 55.5t27 36.5l60 -37q-6 -11 -15 -26.5t-18.5 -33t-18 -35.5t-12.5 -33q17 -10 29 -25t12 -41zM404 519q0 -35 -20 -54.5t-53 -19.5q-34 0 -53.5 21t-19.5 61q0 31 13.5 65.5 t32 65.5t36.5 55.5t27 36.5l60 -37q-6 -11 -15 -26.5t-18.5 -33t-18 -35.5t-12.5 -33q17 -10 29 -25t12 -41z"/>
<glyph glyph-name="quotedblright" horiz-adv-x="469" unicode="”" d="M268 676q0 35 20 54.5t53 19.5q34 0 53.5 -21t19.5 -61q0 -31 -13.5 -65.5t-32 -65.5t-36.5 -55.5t-27 -36.5l-60 37q6 10 15 26t18.5 33.5t17.5 35.5t13 33q-17 10 -29 25t-12 41zM65 676q0 35 20 54.5t53 19.5q34 0 53.5 -21t19.5 -61q0 -31 -13.5 -65.5t-32 -65.5 t-36.5 -55.5t-27 -36.5l-60 37q6 10 15 26t18.5 33.5t17.5 35.5t13 33q-17 10 -29 25t-12 41z"/>
<glyph glyph-name="quotedblbase" horiz-adv-x="472" unicode="„" d="M63 63q0 35 20 54.5t53 19.5q34 0 53.5 -21t19.5 -61q0 -31 -13.5 -65.5t-32 -65.5t-36.5 -55.5t-27 -36.5l-60 37q6 10 15 26t18.5 33.5t17.5 35.5t13 33q-17 10 -29 25t-12 41zM266 63q0 35 20 54.5t53 19.5q34 0 53.5 -21t19.5 -61q0 -31 -13.5 -65.5t-32 -65.5 t-36.5 -55.5t-27 -36.5l-60 37q6 10 15 26t18.5 33.5t17.5 35.5t13 33q-17 10 -29 25t-12 41z"/>
<glyph glyph-name="bullet" horiz-adv-x="543" unicode="•" d="M70 339q0 42 15.5 78.5t43 64t64 43t78.5 15.5t79 -15.5t64 -43t43 -64t16 -78.5q0 -43 -16 -80t-43 -64t-64 -42.5t-79 -15.5t-78.5 15.5t-64 42.5t-43 64t-15.5 80z"/>
<glyph glyph-name="guilsinglleft" horiz-adv-x="322" unicode="‹" d="M157 57l-115 193l115 193h123l-111 -193l111 -193h-123z"/>
<glyph glyph-name="guilsinglright" horiz-adv-x="322" unicode="›" d="M153 250l-111 193h123l115 -193l-115 -193h-123z"/>
<glyph glyph-name="fraction" horiz-adv-x="126" unicode="⁄" d="M187 690h125l-373 -690h-125z"/>
<glyph glyph-name="zerosuperior" horiz-adv-x="424" unicode="⁰" d="M159 503q0 -112 54 -112q52 0 52 112t-52 112q-54 0 -54 -112zM47 503q0 97 40.5 148.5t125.5 51.5t124.5 -51.5t39.5 -148.5t-39.5 -148t-124.5 -51q-87 0 -126.5 50t-39.5 149z"/>
<glyph glyph-name="foursuperior" horiz-adv-x="424" unicode="⁴" d="M329 533v-65h48v-85h-48v-71h-93v71h-187v66l121 247h108l-110 -228h68v65h93z"/>
<glyph glyph-name="fivesuperior" horiz-adv-x="424" unicode="⁵" d="M175 387q30 0 53.5 12t23.5 41q0 20 -14.5 33.5t-46.5 13.5q-20 0 -36 -5t-26 -12l-48 24l22 202h240v-83h-169l-6 -58q10 3 24.5 5.5t28.5 2.5q28 0 53 -8t43.5 -23t29 -37t10.5 -50q0 -35 -14.5 -61t-39.5 -44t-57 -27t-67 -9q-42 0 -74.5 6.5t-50.5 13.5l16 77 q8 -2 37.5 -8t67.5 -6z"/>
<glyph glyph-name="sixsuperior" horiz-adv-x="424" unicode="⁶" d="M214 382q32 0 44 17t12 42q0 60 -54 60q-29 0 -45 -16t-16 -39q0 -24 13.5 -44t45.5 -20zM333 607q-14 5 -34.5 9.5t-46.5 4.5q-42 0 -65.5 -19.5t-33.5 -64.5q12 15 36 24t50 9t50 -8t42 -24t29 -40.5t11 -56.5t-12 -57.5t-32.5 -43t-48.5 -27t-61 -9.5q-35 0 -65 11 t-52 32.5t-34.5 55t-12.5 78.5q0 57 14 98.5t39.5 69t60.5 41t77 13.5q19 0 37 -2.5t32.5 -6t24 -6.5t12.5 -4z"/>
<glyph glyph-name="sevensuperior" horiz-adv-x="424" unicode="⁷" d="M101 312l138 298h-172v86h284v-71l-142 -313h-108z"/>
<glyph glyph-name="eightsuperior" horiz-adv-x="424" unicode="⁸" d="M263 595q0 17 -12.5 28t-38.5 11t-38.5 -11.5t-12.5 -27.5q0 -17 17.5 -28.5t37.5 -17.5q21 7 34 18.5t13 27.5zM270 418q0 20 -19 32t-44 20q-23 -8 -38.5 -20.5t-15.5 -32.5q0 -16 14.5 -29t44.5 -13q58 0 58 43zM361 602q0 -32 -17.5 -53t-43.5 -35q73 -34 73 -100 q0 -51 -43 -80.5t-118 -29.5t-118 28t-43 76q0 39 21 62t53 38q-30 18 -45.5 39.5t-15.5 51.5q0 45 38 74.5t110 29.5q76 0 112.5 -29t36.5 -72z"/>
<glyph glyph-name="ninesuperior" horiz-adv-x="424" unicode="⁹" d="M219 625q-32 0 -44 -17t-12 -42q0 -60 55 -60q28 0 44 16t16 39q0 24 -13.5 44t-45.5 20zM104 394q12 -2 36.5 -5t44.5 -3q40 0 65 21t30 63q-12 -15 -36 -24t-50 -9t-49.5 8t-42 24t-29.5 40.5t-11 56.5t12 57.5t32.5 43t49 27t61.5 9.5q34 0 64 -11t52 -32.5t34.5 -55 t12.5 -78.5q0 -44 -10.5 -84.5t-34 -71t-60.5 -48.5t-90 -18q-32 0 -59.5 4t-37.5 9z"/>
<glyph glyph-name="nsuperior" horiz-adv-x="468" unicode="ⁿ" d="M413 314h-114v231q0 35 -15 48t-38 13q-26 0 -41 -9.5t-23 -26t-10.5 -38.5t-2.5 -48v-170h-114v379h103l5 -49q4 9 13.5 19t23 19t31.5 15t41 6q77 0 109 -40.5t32 -110.5v-238z"/>
<glyph glyph-name="zeroinferior" horiz-adv-x="424" unicode="₀" d="M159 193q0 -112 54 -112q52 0 52 112t-52 112q-54 0 -54 -112zM47 193q0 97 40.5 148.5t125.5 51.5t124.5 -51.5t39.5 -148.5t-39.5 -148t-124.5 -51q-87 0 -126.5 50t-39.5 149z"/>
<glyph glyph-name="oneinferior" horiz-adv-x="424" unicode="₁" d="M183 280l-96 -53l-42 75l156 84h87v-384h-105v278z"/>
<glyph glyph-name="twoinferior" horiz-adv-x="424" unicode="₂" d="M167 198q36 23 50.5 41t14.5 34q0 17 -11 27.5t-34 10.5q-20 0 -42.5 -13.5t-43.5 -36.5l-56 58q7 9 20.5 22t33 24.5t44.5 19.5t57 8q41 0 68.5 -10.5t44.5 -27t24 -35.5t7 -35q0 -44 -28 -75t-67 -57q-19 -12 -31 -20.5t-19 -15.5t-11 -14t-7 -16h174v-85h-296v20 q0 54 23.5 96t84.5 80z"/>
<glyph glyph-name="threeinferior" horiz-adv-x="424" unicode="₃" d="M143 235h38q42 0 57.5 11.5t15.5 28.5q0 14 -13.5 25t-43.5 11q-18 0 -33.5 -4t-27.5 -9.5t-20.5 -11t-12.5 -8.5l-34 67q18 16 58 32t91 16q39 0 65.5 -8.5t43 -22.5t24 -32.5t7.5 -39.5q0 -31 -18 -53t-43 -34q30 -10 49.5 -33.5t19.5 -56.5q0 -58 -44 -88.5 t-122 -30.5q-36 0 -73 6t-57 12l16 82q20 -7 47.5 -11.5t50.5 -4.5q42 0 59.5 11.5t17.5 33.5q0 17 -16 27.5t-62 10.5h-40v74z"/>
<glyph glyph-name="fourinferior" horiz-adv-x="424" unicode="₄" d="M329 223v-65h48v-85h-48v-71h-93v71h-187v66l121 247h108l-110 -228h68v65h93z"/>
<glyph glyph-name="fiveinferior" horiz-adv-x="424" unicode="₅" d="M175 77q30 0 53.5 12t23.5 41q0 20 -14.5 33.5t-46.5 13.5q-20 0 -36 -5t-26 -12l-48 24l22 202h240v-83h-169l-6 -58q10 3 24.5 5.5t28.5 2.5q28 0 53 -8t43.5 -23t29 -37t10.5 -50q0 -35 -14.5 -61t-39.5 -44t-57 -27t-67 -9q-42 0 -74.5 6.5t-50.5 13.5l16 77 q8 -2 37.5 -8t67.5 -6z"/>
<glyph glyph-name="sixinferior" horiz-adv-x="424" unicode="₆" d="M214 72q32 0 44 17t12 42q0 60 -54 60q-29 0 -45 -16t-16 -39q0 -24 13.5 -44t45.5 -20zM333 297q-14 5 -34.5 9.5t-46.5 4.5q-42 0 -65.5 -19.5t-33.5 -64.5q12 15 36 24t50 9t50 -8t42 -24t29 -40.5t11 -56.5t-12 -57.5t-32.5 -43t-48.5 -27t-61 -9.5q-35 0 -65 11 t-52 32.5t-34.5 55t-12.5 78.5q0 57 14 98.5t39.5 69t60.5 41t77 13.5q19 0 37 -2.5t32.5 -6t24 -6.5t12.5 -4z"/>
<glyph glyph-name="seveninferior" horiz-adv-x="424" unicode="₇" d="M101 2l138 298h-172v86h284v-71l-142 -313h-108z"/>
<glyph glyph-name="eightinferior" horiz-adv-x="424" unicode="₈" d="M263 285q0 17 -12.5 28t-38.5 11t-38.5 -11.5t-12.5 -27.5q0 -17 17.5 -28.5t37.5 -17.5q21 7 34 18.5t13 27.5zM270 108q0 20 -19 32t-44 20q-23 -8 -38.5 -20.5t-15.5 -32.5q0 -16 14.5 -29t44.5 -13q58 0 58 43zM361 292q0 -32 -17.5 -53t-43.5 -35q73 -34 73 -100 q0 -51 -43 -80.5t-118 -29.5t-118 28t-43 76q0 39 21 62t53 38q-30 18 -45.5 39.5t-15.5 51.5q0 45 38 74.5t110 29.5q76 0 112.5 -29t36.5 -72z"/>
<glyph glyph-name="nineinferior" horiz-adv-x="424" unicode="₉" d="M219 315q-32 0 -44 -17t-12 -42q0 -60 55 -60q28 0 44 16t16 39q0 24 -13.5 44t-45.5 20zM104 84q12 -2 36.5 -5t44.5 -3q40 0 65 21t30 63q-12 -15 -36 -24t-50 -9t-49.5 8t-42 24t-29.5 40.5t-11 56.5t12 57.5t32.5 43t49 27t61.5 9.5q34 0 64 -11t52 -32.5t34.5 -55 t12.5 -78.5q0 -44 -10.5 -84.5t-34 -71t-60.5 -48.5t-90 -18q-32 0 -59.5 4t-37.5 9z"/>
<glyph glyph-name="franc" horiz-adv-x="592" unicode="₣" d="M246 0h-141v119h-80v94h80v477h434v-124h-293v-142h224v-124h-224v-87h145v-94h-145v-119z"/>
<glyph glyph-name="lira" horiz-adv-x="592" unicode="₤" d="M85 384v87h62q-1 10 -1.5 20.5t-0.5 21.5q0 43 13 80.5t41 65.5t71.5 44t104.5 16q36 0 66.5 -7.5t53.5 -19t39.5 -23.5t25.5 -21l-63 -97q-4 4 -14 12t-25.5 16t-35 14.5t-42.5 6.5q-45 0 -71 -24t-26 -72v-16.5t1 -16.5h159v-87h-149q4 -20 7.5 -38t5.5 -35h136v-86 h-138q-5 -23 -14 -40.5t-19.5 -30.5t-20.5 -22t-17 -15h313v-117h-455v109q21 23 41.5 50.5t30.5 65.5h-80v86h85q-2 19 -4.5 37t-5.5 36h-74z"/>
<glyph glyph-name="uni20A6" horiz-adv-x="592" unicode="₦" d="M403 173v87h-31zM190 436h34l-34 91v-91zM350 321h53v53h-72zM190 321h76l-19 53h-57v-53zM586 321v-61h-70v-260h-130l-97 260h-99v-260h-113v260h-71v61h71v53h-70v62h70v254h141l91 -254h94v254h113v-254h70v-62h-70v-53h70z"/>
<glyph glyph-name="peseta" horiz-adv-x="1410" unicode="₧" d="M1318 377q-20 10 -52.5 22t-80.5 12q-45 0 -62.5 -12.5t-17.5 -34.5q0 -17 10.5 -29t49.5 -20l55 -12q79 -17 115 -53.5t36 -102.5q0 -75 -48.5 -118t-152.5 -43q-69 0 -123 19t-80 41l45 89q25 -15 61.5 -29.5t96.5 -14.5q42 0 57.5 13t15.5 33t-13.5 33.5t-54.5 22.5 l-53 12q-30 7 -55 18t-44 29t-29.5 44t-10.5 63q0 33 13 62t37 50t59 33.5t80 12.5q60 0 108.5 -14.5t76.5 -33.5zM932 1q-14 -3 -39 -7t-60 -4q-88 0 -125 43.5t-37 117.5v240h-81v113h81v128l134 30v-158h110v-113h-110v-218q0 -44 17 -57t47 -13q18 0 31.5 2t22.5 4z M215 0h-141v690h210q74 0 124 -20.5t80 -52.5t43 -73t13 -81q0 -41 -13 -81.5t-44 -72.5t-83 -52.5t-129 -20.5h-60v-236zM273 354q28 0 52 5.5t42 18t28 33.5t10 52t-10 51.5t-27 33.5t-39 18.5t-47 5.5h-67v-218h58z"/>
<glyph glyph-name="uni20A8" horiz-adv-x="1050" unicode="₨" d="M958 377q-20 10 -52.5 22t-80.5 12q-45 0 -62.5 -12.5t-17.5 -34.5q0 -17 10.5 -29t49.5 -20l55 -12q79 -17 115 -53.5t36 -102.5q0 -75 -48.5 -118t-152.5 -43q-69 0 -123 19t-80 41l45 89q25 -15 61.5 -29.5t96.5 -14.5q42 0 57.5 13t15.5 33t-13.5 33.5t-54.5 22.5 l-53 12q-30 7 -55 18t-44 29t-29.5 44t-10.5 63q0 33 13 62t37 50t59 33.5t80 12.5q60 0 108.5 -14.5t76.5 -33.5zM278 373q68 0 102 23.5t34 76.5q0 58 -33 78.5t-98 20.5h-70v-199h65zM595 0h-160l-145 255h-77v-255h-139v690h235q73 0 120.5 -20t75 -51t38 -67t10.5 -69 q0 -74 -38 -122.5t-104 -70.5z"/>
<glyph glyph-name="dong" horiz-adv-x="592" unicode="₫" d="M362 314q0 23 -3.5 44.5t-13 38t-27 26.5t-44.5 10q-48 0 -68 -30t-20 -78q0 -52 23 -75.5t71 -23.5q28 0 49.5 8t32.5 16v64zM474 137h-97l-1 36q-17 -14 -47 -27.5t-77 -13.5q-33 0 -65 9t-58 31.5t-42 59t-16 92.5q0 42 10.5 79.5t32.5 65t55 43.5t78 16q47 0 74 -16 t41 -30v82h-143v78h143v48h112v-48h53v-78h-53v-427zM94 0v86h395v-86h-395z"/>
<glyph glyph-name="Euro" horiz-adv-x="592" unicode="€" d="M400 597q-57 0 -92 -37.5t-43 -97.5h229l-25 -87h-219q-1 -5 -1.5 -14.5t-0.5 -17.5v-14t1 -17h207l-23 -86h-173q3 -25 15.5 -47t31.5 -38t43.5 -25.5t51.5 -9.5q28 0 51.5 5t42.5 11.5t32.5 14t21.5 13.5l54 -98q-14 -12 -33.5 -24t-46 -21.5t-60 -16t-75.5 -6.5 q-64 0 -112.5 19.5t-82.5 52.5t-54.5 77t-27.5 93h-79v86h70q-1 10 -1 21v13t0.5 13t1.5 16h-70v87h83q8 49 28.5 95t54.5 82t81 58t107 22q69 0 123 -19t90 -48l-59 -99q-25 17 -58 30.5t-84 13.5z"/>
<glyph glyph-name="uni20AE" horiz-adv-x="592" unicode="₮" d="M230 0v162l-118 -50l-34 79l152 65v74l-118 -51l-34 79l152 65v162h-193v118h518v-118h-193v-114l118 50l34 -79l-152 -65v-74l118 51l34 -79l-152 -65v-210h-132z"/>
<glyph glyph-name="uni20B4" horiz-adv-x="592" unicode="₴" d="M547 50q-12 -8 -32 -18.5t-49.5 -20.5t-69 -16.5t-90.5 -6.5q-60 0 -104.5 14t-73 38.5t-42.5 57.5t-14 71q0 22 4 39t11 32h-53v78h96q23 17 57 35.5t67 32.5l29 13h-249v78h338q8 13 10 24.5t2 25.5q0 35 -25 53t-80 18q-29 0 -53 -5t-43 -12t-33 -14.5t-23 -12.5 l-48 98q37 23 89.5 43t119.5 20q61 0 104.5 -13.5t71 -37.5t40 -56.5t12.5 -71.5q0 -22 -3 -35t-8 -24h53v-78h-93q-20 -17 -54 -35.5t-66 -32.5l-29 -13h242v-78h-338q-10 -14 -12.5 -28t-2.5 -28q0 -17 5 -31.5t18.5 -25.5t36.5 -17t58 -6q29 0 55.5 5.5t49 13t39.5 16 t28 14.5z"/>
<glyph glyph-name="tenge" horiz-adv-x="613" unicode="₸" d="M45 596v107h502v-107h-502zM230 0v426h-185v107h502v-107h-185v-426h-132z"/>
<glyph glyph-name="uni20B9" horiz-adv-x="592" unicode="₹" d="M74 532h258q-14 34 -46.5 53t-89.5 19h-122v98h484l-19 -100h-131q32 -27 45 -70h71l-20 -96h-47q-6 -38 -26.5 -67.5t-51 -49.5t-69.5 -32t-82 -15l252 -272h-160l-246 265v98h118q33 0 56.5 5.5t40.5 15t28 23t18 29.5h-261v96z"/>
<glyph glyph-name="uni2215" horiz-adv-x="126" unicode="∕" d="M187 690h125l-373 -690h-125z"/>
<glyph glyph-name="dotlessj" d="M200 -11q0 -110 -47 -165t-152 -55q-23 0 -49 4t-45 9l13 108q11 -2 27 -5t33 -3q27 0 44 9t26 25.5t12.5 41t3.5 55.5v491h134v-515z" horiz-adv-x="266"/>
<glyph glyph-name="apostrophe" d="M66 676q0 35 19.5 54.5t52.5 19.5q34 0 53.5 -21t19.5 -61q0 -32 -14 -65.5t-33 -64.5t-37.5 -55t-27.5 -36l-55 34q6 10 15.5 26t18.5 33.5t17 36t12 33.5q-17 10 -29 25t-12 41z" horiz-adv-x="272"/>
<glyph glyph-name="hungarumlaut.cap" d="M238 816l204 175l61 -81l-218 -158zM3 818l188 177l66 -77l-202 -161z" horiz-adv-x="505"/>
<glyph glyph-name="tilde.cap" d="M51 781q0 72 30 111t87 39q27 0 48.5 -9t40.5 -19.5t37 -19t37 -8.5q25 0 35.5 13.5t10.5 39.5h77q0 -73 -30 -111.5t-87 -38.5q-27 0 -48.5 9t-40.5 19.5t-36.5 19.5t-36.5 9q-26 0 -36.5 -14t-10.5 -40h-77z" horiz-adv-x="505"/>
<glyph glyph-name="ring.cap" d="M307 841q0 24 -16 39.5t-39 15.5t-38.5 -15.5t-15.5 -39.5q0 -23 15.5 -39t38.5 -16t39 16t16 39zM382 842q0 -27 -10.5 -50t-28 -40t-41 -26.5t-49.5 -9.5q-27 0 -50.5 9.5t-41.5 26.5t-28.5 40t-10.5 49q0 27 10.5 50t28.5 40.5t41.5 27t49.5 9.5q27 0 50.5 -9.5 t41 -26.5t28 -40t10.5 -50z" horiz-adv-x="505"/>
<glyph glyph-name="caron.cap" d="M207 759l-158 138l58 69l145 -96l145 96l58 -69l-158 -138h-90z" horiz-adv-x="505"/>
<glyph glyph-name="macron.cap" d="M87 803v110h331v-110h-331z" horiz-adv-x="505"/>
<glyph glyph-name="dieresis.cap" d="M446 870q0 -35 -20.5 -57.5t-54.5 -22.5t-54.5 23.5t-20.5 56.5t20.5 56.5t54.5 23.5t54.5 -22.5t20.5 -57.5zM208 870q0 -35 -20.5 -57.5t-54.5 -22.5t-54.5 23.5t-20.5 56.5t20.5 56.5t54.5 23.5t54.5 -22.5t20.5 -57.5z" horiz-adv-x="504"/>
<glyph glyph-name="dotaccent.cap" d="M331 871q0 -37 -21.5 -60.5t-57.5 -23.5t-57.5 24.5t-21.5 59.5t21.5 59.5t57.5 24.5t57.5 -23.5t21.5 -60.5z" horiz-adv-x="504"/>
<glyph glyph-name="circumflex.cap" d="M397 759l-145 96l-145 -96l-58 69l158 138h90l158 -138z" horiz-adv-x="505"/>
<glyph glyph-name="acute.cap" d="M364 960l42 -105l-273 -98l-33 84z" horiz-adv-x="505"/>
<glyph glyph-name="grave.cap" d="M372 757l-273 98l42 105l264 -119z" horiz-adv-x="505"/>
<glyph glyph-name="breve.cap" d="M253 861q42 0 64 20.5t22 52.5h98q0 -33 -11 -65t-33.5 -56.5t-57.5 -39.5t-82 -15t-82 15t-58 39.5t-34 56.5t-11 65h99q0 -32 22 -52.5t64 -20.5z" horiz-adv-x="505"/>
<glyph glyph-name="commaaccent.cap" d="M322 -125q0 -29 -11.5 -57.5t-26.5 -52.5t-29 -40t-20 -20l-51 32q3 4 9 13.5t12.5 22t12.5 25.5t8 24q-17 7 -30.5 22.5t-13.5 36.5q0 29 19.5 46.5t50.5 17.5q30 0 50 -18.5t20 -51.5z" horiz-adv-x="505"/>
<glyph glyph-name="caron.alt" d="M174 680q0 38 21.5 60t58.5 22q36 0 58 -23.5t22 -66.5q0 -32 -13.5 -69.5t-31.5 -71t-35.5 -59.5t-24.5 -35l-59 36q6 12 14 29t15.5 36t13.5 37.5t8 32.5q-19 10 -33 28t-14 44z" horiz-adv-x="505"/>
<glyph glyph-name="commaaccent" d="M320 -125q0 -29 -11 -57.5t-25.5 -52t-28.5 -40t-20 -20.5l-50 32q3 4 9 13.5t12.5 22t12.5 25.5t8 24q-17 7 -30 22.5t-13 36.5q0 29 18.5 46.5t49.5 17.5q30 0 49 -18.5t19 -51.5z" horiz-adv-x="505"/>
<glyph glyph-name="revcommaaccent" d="M183 644q0 29 11.5 57.5t26.5 52t29 39.5t20 21l49 -32q-3 -4 -9 -13.5t-13 -22t-12.5 -25.5t-7.5 -24q17 -7 30.5 -22.5t13.5 -36.5q0 -29 -19.5 -46.5t-48.5 -17.5q-30 0 -50 18.5t-20 51.5z" horiz-adv-x="505"/>
<glyph glyph-name="acute.asc" d="M113 875l235 103l43 -104l-245 -83z" horiz-adv-x="505"/>
<glyph glyph-name="circumflex.asc" d="M61 838l143 123h99l140 -123l-57 -64l-133 90l-135 -90z" horiz-adv-x="505"/>
<glyph glyph-name="caron.alt.short" d="M317 706q0 -21 -10 -46.5t-22.5 -49t-24.5 -41.5l-16 -24l-50 27l7 14t11 21t11.5 23t8.5 21q-17 7 -31 23t-14 38q0 29 16 46.5t47 17.5t49 -18t18 -52z" horiz-adv-x="505"/>
<glyph glyph-name="hook.cap" d="M101 805q14 11 25 29t11 36q0 17 -12 27.5t-37 10.5q-17 0 -25 -1t-13 -2v82q7 2 22 3.5t38 1.5q58 0 94.5 -23t36.5 -74q0 -40 -24 -72t-60 -59z" horiz-adv-x="291"/>
<glyph glyph-name="hook" d="M96 614q17 13 29.5 31.5t12.5 38.5q0 17 -11.5 28.5t-37.5 11.5q-8 0 -15 -0.5t-14 -1.5v78q6 2 20.5 4t33.5 2q66 0 97 -27t31 -73q0 -39 -26.5 -74t-63.5 -61z" horiz-adv-x="281"/>
<glyph glyph-name="ring_acute" d="M379 859l-219 -59l-25 77l211 79zM253 621q20 0 33.5 14t13.5 34t-13.5 33.5t-33.5 13.5q-19 0 -32.5 -13.5t-13.5 -33.5t13.5 -34t32.5 -14zM376 670q0 -26 -9.5 -48t-26 -38t-39 -25t-47.5 -9q-26 0 -48.5 9t-39 25t-26.5 37.5t-10 47.5q0 25 10 47t26.5 38.5t39 25.5 t47.5 9t47.5 -9t39.5 -25t26.5 -38t9.5 -47z" horiz-adv-x="506"/>
</font>
</defs>
</svg>
