<?xml version="1.0" encoding="UTF-8" standalone="no"?>
<!DOCTYPE svg  PUBLIC '-//W3C//DTD SVG 1.1//EN'  'http://www.w3.org/Graphics/SVG/1.1/DTD/svg11.dtd'>
<svg xmlns="http://www.w3.org/2000/svg">
<defs>
<font id="NokiaPureHeadline-Regular" horiz-adv-x="469">
<font-face underline-position="-32" font-weight="400" descent="-200" panose-1="2 11 5 4 4 6 2 6 3 3" units-per-em="1000" unicode-range="U+0008-2215" bbox="-209 -250 1000 947" x-height="500" underline-thickness="68" font-family="NokiaPureHeadline" ascent="800" cap-height="703"/>
<missing-glyph horiz-adv-x="1000"/>
<glyph glyph-name=".notdef" horiz-adv-x="1000"/>
<glyph glyph-name=".null" horiz-adv-x="0"/>
<glyph glyph-name=".null" horiz-adv-x="0"/>
<glyph glyph-name=".null" horiz-adv-x="0"/>
<glyph glyph-name="nonmarkingreturn" horiz-adv-x="1000" unicode="	"/>
<glyph glyph-name="nonmarkingreturn" horiz-adv-x="1000" unicode=""/>
<glyph glyph-name="space" horiz-adv-x="218" unicode=" "/>
<glyph glyph-name="exclam" horiz-adv-x="266" unicode="!" d="M197 54q0 -29 -17.5 -48t-46.5 -19t-46.5 19t-17.5 48t17.5 48t46.5 19t46.5 -19t17.5 -48zM179 193h-92v510h92v-510z"/>
<glyph glyph-name="quotedbl" horiz-adv-x="414" unicode='&quot;' d="M70 703h95l-9 -262h-76zM249 703h95l-9 -262h-76z"/>
<glyph glyph-name="numbersign" horiz-adv-x="565" unicode="#" d="M193 263h143l38 190h-143zM54 525h112l35 178h79l-35 -178h143l35 178h79l-35 -178h97l-13 -72h-98l-38 -190h109l-13 -72h-109l-38 -191h-79l38 191h-144l-38 -191h-79l38 191h-99l13 72h100l38 190h-111z"/>
<glyph glyph-name="dollar" horiz-adv-x="556" unicode="$" d="M138 514q0 -21 4.5 -38t15.5 -30.5t30 -25t49 -21.5v223q-48 -8 -73.5 -35.5t-25.5 -72.5zM401 183q0 40 -20.5 69.5t-76.5 49.5v-234q55 11 76 41t21 74zM304 -109h-67v101q-45 1 -81 10t-62 20t-42 20.5t-20 12.5l37 65q12 -7 28 -16t37 -17t46.5 -14.5t56.5 -7.5v255 l-34 11q-33 12 -60.5 27t-47 36t-30 48.5t-10.5 65.5q0 76 47 126.5t135 61.5v94h67v-92q55 -5 97 -20.5t68 -32.5l-33 -66q-17 10 -50.5 24.5t-81.5 19.5v-242l27 -9q77 -26 116.5 -68.5t39.5 -114.5q0 -78 -46 -130.5t-137 -63.5v-104z"/>
<glyph glyph-name="percent" horiz-adv-x="880" unicode="%" d="M606 192q0 -134 80 -134q39 0 59.5 34t20.5 100q0 134 -80 134t-80 -134zM529 192q0 97 39 148.5t118 51.5q78 0 117.5 -51.5t39.5 -148.5t-39.5 -148t-117.5 -51q-157 0 -157 199zM114 510q0 -134 80 -134q39 0 59.5 34t20.5 100q0 134 -80 134t-80 -134zM37 510 q0 97 39 148.5t118 51.5q78 0 117.5 -51.5t39.5 -148.5t-39.5 -148t-117.5 -51q-157 0 -157 199zM585 703h91l-381 -703h-91z"/>
<glyph glyph-name="ampersand" horiz-adv-x="651" unicode="&amp;" d="M269 430q25 12 47 24.5t38 27.5t25 34t9 45q0 42 -25.5 65.5t-65.5 23.5q-45 0 -69.5 -26t-24.5 -70q0 -35 19 -63.5t47 -60.5zM233 341q-51 -28 -78.5 -64t-27.5 -83q0 -128 148 -128q84 0 152 43zM632 0h-112l-44 51q-45 -29 -95 -46.5t-110 -17.5q-63 0 -108 15 t-74 41t-43 62.5t-14 80.5q0 74 42 124.5t114 84.5q-36 43 -53.5 78.5t-17.5 79.5q0 75 47 120.5t134 45.5q35 0 66.5 -9.5t55.5 -28.5t38 -48t14 -67q0 -35 -11 -62.5t-31.5 -50t-49.5 -41t-65 -35.5l176 -210q22 24 40.5 52.5t35.5 63.5l67 -34q-17 -38 -41 -75t-52 -67z "/>
<glyph glyph-name="quotesingle" horiz-adv-x="235" unicode="&apos;" d="M70 703h95l-9 -262h-76z"/>
<glyph glyph-name="parenleft" horiz-adv-x="250" unicode="(" d="M42 327q0 78 10.5 145t25.5 121t32 94t30 63h88q-16 -30 -32 -73.5t-29 -97.5t-21 -117.5t-8 -134.5t8 -134.5t21 -117.5t29 -97.5t32 -73.5h-88q-13 23 -30 63t-32 94t-25.5 121t-10.5 145z"/>
<glyph glyph-name="parenright" horiz-adv-x="250" unicode=")" d="M208 327q0 -78 -10.5 -145t-25.5 -121t-32 -94t-30 -63h-88q16 30 32 73.5t29 97.5t21 117.5t8 134.5t-8 134.5t-21 117.5t-29 97.5t-32 73.5h88q13 -23 30 -63t32 -94t25.5 -121t10.5 -145z"/>
<glyph glyph-name="asterisk" horiz-adv-x="371" unicode="*" d="M229 750l-15 -138l119 57l26 -70l-128 -39l100 -109l-62 -48l-84 116l-84 -116l-61 48l99 109l-127 39l25 70l119 -57l-15 138h88z"/>
<glyph glyph-name="plus" horiz-adv-x="556" unicode="+" d="M57 392h179v195h84v-195h179v-80h-179v-195h-84v195h-179v80z"/>
<glyph glyph-name="comma" horiz-adv-x="234" unicode="," d="M181 49q0 -33 -15.5 -70.5t-35.5 -71t-38 -58t-24 -31.5l-51 35q6 9 16.5 26t21 37t20 40.5t13.5 35.5q-16 8 -26.5 23t-10.5 38q0 32 18 50t48 18q28 0 46 -19.5t18 -52.5z"/>
<glyph glyph-name="hyphen" horiz-adv-x="371" unicode="-" d="M42 326h287v-92h-287v92z"/>
<glyph glyph-name="period" horiz-adv-x="234" unicode="." d="M181 54q0 -29 -17.5 -48t-46.5 -19t-46.5 19t-17.5 48t17.5 48t46.5 19t46.5 -19t17.5 -48z"/>
<glyph glyph-name="slash" horiz-adv-x="402" unicode="/" d="M-3 -47l312 797h96l-312 -797h-96z"/>
<glyph glyph-name="zero" horiz-adv-x="588" unicode="0" d="M294 638q-82 0 -120 -71.5t-38 -214.5t38 -215t120 -72t120 72t38 215t-38 214.5t-120 71.5zM294 717q129 0 190.5 -93.5t61.5 -271.5q0 -179 -61.5 -272.5t-190.5 -93.5t-190.5 93.5t-61.5 272.5q0 178 61.5 271.5t190.5 93.5z"/>
<glyph glyph-name="one" horiz-adv-x="440" unicode="1" d="M215 596l-167 -97l-35 68l229 136h64v-703h-91v596z"/>
<glyph glyph-name="two" horiz-adv-x="502" unicode="2" d="M218 345q32 25 57 47t42 43t25.5 43.5t8.5 49.5q0 48 -29 79.5t-92 31.5q-31 0 -55.5 -8.5t-43 -20.5t-32.5 -26.5t-23 -26.5l-57 49q10 16 29.5 35.5t46.5 36t62.5 28t78.5 11.5q55 0 95 -16t65 -42.5t37 -60t12 -67.5q0 -38 -13 -70.5t-34.5 -61t-49.5 -53.5t-59 -49 q-77 -60 -119 -110t-49 -109h333v-78h-427v15q0 55 12 99.5t35.5 83.5t59.5 74.5t84 72.5z"/>
<glyph glyph-name="three" horiz-adv-x="499" unicode="3" d="M121 398h67q39 0 67.5 10t47 27t27 40t8.5 49q0 49 -29 82.5t-94 33.5q-30 0 -53.5 -6t-42 -15t-32.5 -19.5t-23 -19.5l-49 52q10 11 28 26t43.5 28t58.5 22t72 9q56 0 96 -15t66 -40t38 -57t12 -66q0 -33 -10 -60.5t-27 -49t-40 -38t-48 -27.5q29 -8 54 -22.5t44 -35.5 t29.5 -48.5t10.5 -61.5q0 -51 -19.5 -90t-53.5 -66t-80.5 -40.5t-100.5 -13.5q-62 0 -107 9t-71 18l20 72q19 -5 55 -12.5t96 -7.5q76 0 122 32t46 99q0 53 -38 88.5t-120 35.5h-70v78z"/>
<glyph glyph-name="four" horiz-adv-x="536" unicode="4" d="M23 249l264 454h95l-264 -451h198v184h86v-184h104v-76h-104v-176h-86v176h-293v73z"/>
<glyph glyph-name="five" horiz-adv-x="498" unicode="5" d="M183 66q79 0 127 39.5t48 117.5q0 25 -6.5 51t-23 46.5t-44.5 33.5t-70 13q-41 0 -69.5 -11t-45.5 -21l-50 36l40 332h337v-79h-272l-23 -204q8 5 36 12.5t71 7.5q46 0 85 -13t67.5 -39.5t44.5 -67.5t16 -97q0 -49 -17 -92t-50.5 -75.5t-82.5 -51t-113 -18.5 q-62 0 -107 8.5t-71 17.5l20 72q19 -5 54.5 -11.5t98.5 -6.5z"/>
<glyph glyph-name="six" horiz-adv-x="533" unicode="6" d="M279 62q36 0 62.5 12.5t43 34t24.5 50.5t8 62q0 83 -34.5 122t-98.5 39q-69 0 -106 -43.5t-37 -112.5q0 -30 8 -59.5t24.5 -52.5t43 -37.5t62.5 -14.5zM134 377q22 36 65.5 59.5t98.5 23.5q42 0 79.5 -13t66 -41t45 -71t16.5 -103q0 -59 -16 -104.5t-46 -77t-71.5 -48 t-92.5 -16.5q-108 0 -170 78.5t-62 238.5q0 204 69.5 309t203.5 105q51 0 91 -12.5t70 -31.5l-35 -64q-56 30 -126 30q-88 0 -133 -67.5t-53 -194.5z"/>
<glyph glyph-name="seven" horiz-adv-x="490" unicode="7" d="M89 0l290 624h-363v79h454v-74l-287 -629h-94z"/>
<glyph glyph-name="eight" horiz-adv-x="574" unicode="8" d="M421 537q0 48 -33 79t-101 31q-67 0 -101 -31t-34 -78q0 -30 11.5 -52.5t32 -39t47.5 -29t59 -21.5q55 24 87 56.5t32 84.5zM438 178q0 59 -40 92t-116 59q-30 -13 -56.5 -27.5t-47 -32.5t-32 -41.5t-11.5 -53.5q0 -52 38 -83.5t114 -31.5q72 0 111.5 30t39.5 89z M506 540q0 -31 -9.5 -56.5t-26 -47t-38.5 -39t-47 -31.5q34 -16 60 -33.5t44 -39.5t27 -50t9 -64q0 -91 -63 -142t-175 -51q-57 0 -101.5 13t-75 37t-46 57t-15.5 73q0 37 11.5 66.5t31 52.5t46.5 40.5t59 32.5q-25 12 -48.5 28t-41.5 37.5t-29 49.5t-11 65t14 69.5t42 57 t69 38.5t95 14q57 0 98 -14t68 -38t40 -56t13 -69z"/>
<glyph glyph-name="nine" horiz-adv-x="533" unicode="9" d="M255 641q-36 0 -62.5 -12t-43.5 -33.5t-25 -50.5t-8 -62q0 -83 34.5 -122t98.5 -39q34 0 60.5 11.5t45 32.5t28 49.5t9.5 62.5q0 30 -8 59t-25 52.5t-42.5 37.5t-61.5 14zM399 327q-10 -18 -26.5 -33t-38 -26t-47 -17.5t-52.5 -6.5q-42 0 -79.5 13t-66 40.5t-45 70.5 t-16.5 103q0 59 16 105t46 77.5t72 47.5t93 16q107 0 169 -79.5t62 -242.5q0 -104 -19.5 -180.5t-56.5 -127.5t-90 -76t-120 -25q-57 0 -91.5 7.5t-44.5 11.5l18 73q6 -2 17.5 -4.5t27.5 -4.5t34 -4t36 -2q52 0 88.5 17.5t60 51t36 83t17.5 112.5z"/>
<glyph glyph-name="colon" horiz-adv-x="234" unicode=":" d="M181 54q0 -29 -17.5 -48t-46.5 -19t-46.5 19t-17.5 48t17.5 48t46.5 19t46.5 -19t17.5 -48zM181 435q0 -29 -17.5 -48t-46.5 -19t-46.5 19t-17.5 48t17.5 48t46.5 19t46.5 -19t17.5 -48z"/>
<glyph glyph-name="semicolon" horiz-adv-x="234" unicode=";" d="M181 433q0 -29 -17.5 -48t-46.5 -19t-46.5 19t-17.5 48t17.5 48t46.5 19t46.5 -19t17.5 -48zM181 49q0 -33 -15.5 -70.5t-35.5 -71t-38 -58t-24 -31.5l-51 35q6 9 16.5 26t21 37t20 40.5t13.5 35.5q-16 8 -26.5 23t-10.5 38q0 32 18 50t48 18q28 0 46 -19.5t18 -52.5z "/>
<glyph glyph-name="less" horiz-adv-x="556" unicode="&lt;" d="M160 352l328 -148l-31 -76l-389 187v74l389 187l31 -76z"/>
<glyph glyph-name="equal" horiz-adv-x="556" unicode="=" d="M77 292h402v-80h-402v80zM77 492h402v-80h-402v80z"/>
<glyph glyph-name="greater" horiz-adv-x="556" unicode="&gt;" d="M68 500l31 76l389 -187v-74l-389 -187l-31 76l328 148z"/>
<glyph glyph-name="question" horiz-adv-x="507" unicode="?" d="M284 54q0 -29 -17.5 -48t-46.5 -19t-46.5 19t-17.5 48t17.5 48t46.5 19t46.5 -19t17.5 -48zM174 193q0 38 8.5 67.5t23.5 53.5t35 44.5t42 40.5q12 11 25.5 24t25 29t18.5 34.5t7 41.5q0 47 -29.5 78t-97.5 31q-52 0 -87 -22.5t-64 -55.5l-56 51q11 16 30.5 35t46.5 35.5 t62 27.5t76 11q62 0 103.5 -17t66 -44t35 -60.5t10.5 -65.5q0 -31 -8.5 -56t-22 -46t-30.5 -38.5t-34 -32.5q-19 -17 -36 -33t-29.5 -34.5t-20 -42.5t-7.5 -56h-93z"/>
<glyph glyph-name="at" horiz-adv-x="976" unicode="@" d="M463 86q45 0 73.5 18t41.5 33l20 107q2 10 4 29t2 41q0 44 -23 74.5t-72 30.5q-30 0 -56 -15.5t-45.5 -44t-30.5 -69.5t-11 -92q0 -54 26 -83t71 -29zM908 -85q-71 -65 -167.5 -106t-224.5 -41q-129 0 -219 35t-145.5 95.5t-80.5 142.5t-25 175q0 109 34.5 206t97.5 170 t152 115.5t198 42.5q98 0 175 -27.5t130.5 -78t81.5 -120t28 -153.5t-23.5 -150.5t-61 -112.5t-84 -70t-92.5 -24q-29 0 -47 5.5t-28.5 13.5t-15.5 16.5t-7 14.5q-22 -17 -55 -33.5t-86 -16.5q-36 0 -66.5 12t-52.5 35.5t-34.5 57.5t-12.5 79q0 65 17 119t47 93t71.5 61 t90.5 22q34 0 58 -9.5t39 -21.5t23 -23.5t10 -16.5l16 60h79l-58 -309q-3 -16 -5 -30t-2 -23q0 -17 9.5 -24t28.5 -7q20 0 47.5 16t52.5 50t42.5 87.5t17.5 128.5q0 73 -24 129.5t-68 95t-105 58.5t-136 20q-90 0 -163 -36.5t-124.5 -99t-80 -146t-28.5 -176.5 q0 -77 20 -144.5t65.5 -117.5t119 -79.5t180.5 -29.5q65 0 119 14t96.5 33.5t73 41.5t49.5 39z"/>
<glyph glyph-name="A" horiz-adv-x="574" unicode="A" d="M178 261h210l-104 325zM414 180h-262l-58 -180h-88l232 703h97l233 -703h-96z"/>
<glyph glyph-name="B" horiz-adv-x="571" unicode="B" d="M294 80q40 0 67.5 10t44.5 26.5t24 38t7 45.5q0 35 -12.5 58.5t-35 38t-54 21t-70.5 6.5h-108v-244h137zM260 402q41 0 68.5 10t44 26.5t23 37t6.5 41.5q0 54 -34.5 80t-98.5 26h-112v-221h103zM272 703q65 0 108 -17t68.5 -43t35.5 -58t10 -63q0 -38 -12 -66 t-29.5 -46.5t-37.5 -28.5t-36 -13q19 -3 45 -12t50 -28.5t40.5 -51.5t16.5 -81q0 -42 -14 -78t-44.5 -62t-78 -40.5t-113.5 -14.5h-214v703h205z"/>
<glyph glyph-name="C" horiz-adv-x="585" unicode="C" d="M354 627q-107 0 -159 -73.5t-52 -202.5t51.5 -202t158.5 -73q30 0 56.5 5.5t48 13.5t38.5 18t28 18l48 -67q-31 -27 -88 -51t-135 -24q-76 0 -133 25t-95.5 71.5t-58 114t-19.5 151.5q0 81 19.5 148t58.5 114.5t97 74t136 26.5q71 0 124 -20.5t95 -55.5l-48 -67 q-13 10 -29 20t-37 18t-46.5 13t-58.5 5z"/>
<glyph glyph-name="D" horiz-adv-x="661" unicode="D" d="M301 83q109 0 163 72t54 197t-54.5 196.5t-162.5 71.5h-142v-537h142zM301 703q77 0 136.5 -26t99.5 -72.5t60.5 -111t20.5 -142.5q0 -79 -20.5 -144t-60.5 -111t-99.5 -71t-136.5 -25h-234v703h234z"/>
<glyph glyph-name="E" horiz-adv-x="511" unicode="E" d="M67 703h414v-83h-322v-213h252v-83h-252v-241h332v-83h-424v703z"/>
<glyph glyph-name="F" horiz-adv-x="479" unicode="F" d="M67 0v703h394v-83h-302v-213h242v-83h-242v-324h-92z"/>
<glyph glyph-name="G" horiz-adv-x="649" unicode="G" d="M506 293h-126v82h217v-348q-9 -5 -28.5 -12t-49 -14t-69 -12t-88.5 -5q-81 0 -140.5 25.5t-99.5 73.5t-59.5 116t-19.5 152q0 81 19.5 148.5t58.5 116.5t97 76t136 27q72 0 130 -20t100 -55l-48 -67q-26 20 -71 38t-111 18q-54 0 -93.5 -20t-65.5 -56.5t-39 -89 t-13 -116.5q0 -65 13 -117t40 -89t68.5 -57t99.5 -20q51 0 84.5 5.5t57.5 13.5v206z"/>
<glyph glyph-name="H" horiz-adv-x="642" unicode="H" d="M483 703h92v-703h-92v334h-324v-334h-92v703h92v-286h324v286z"/>
<glyph glyph-name="I" horiz-adv-x="226" unicode="I" d="M159 0h-92v703h92v-703z"/>
<glyph glyph-name="J" horiz-adv-x="449" unicode="J" d="M295 703h92v-508q0 -60 -16.5 -100t-44.5 -65t-65 -35.5t-79 -10.5q-41 0 -73.5 7.5t-55.5 16.5t-36 17t-15 10l32 67q3 -2 14.5 -8.5t29.5 -13t42 -11.5t52 -5q25 0 47.5 5.5t39.5 20t26.5 40t9.5 66.5v507z"/>
<glyph glyph-name="K" horiz-adv-x="570" unicode="K" d="M571 0h-118l-294 368v-368h-92v703h92v-325l282 325h105l-281 -324z"/>
<glyph glyph-name="L" horiz-adv-x="481" unicode="L" d="M159 83h307v-83h-399v703h92v-620z"/>
<glyph glyph-name="M" horiz-adv-x="755" unicode="M" d="M67 703h104l208 -427l205 427h104v-703h-92v545l-182 -370h-80l-176 362v-537h-91v703z"/>
<glyph glyph-name="N" horiz-adv-x="646" unicode="N" d="M489 703h90v-703h-90l-332 545v-545h-90v703h96l326 -536v536z"/>
<glyph glyph-name="O" horiz-adv-x="708" unicode="O" d="M354 68q54 0 94 20t66 57t38.5 89t12.5 117q0 64 -13 116.5t-39 89t-65.5 56.5t-93.5 20t-93.5 -20t-65.5 -56.5t-39 -89t-13 -116.5q0 -65 12.5 -117t39 -89t66 -57t93.5 -20zM354 -16q-78 0 -136 26.5t-97 75t-58.5 116t-19.5 149.5q0 81 19.5 148.5t58.5 116.5t97 76 t136 27q77 0 135.5 -27t97.5 -76t58.5 -116.5t19.5 -148.5q0 -82 -19.5 -149.5t-58.5 -116t-97.5 -75t-135.5 -26.5z"/>
<glyph glyph-name="P" horiz-adv-x="532" unicode="P" d="M500 483q0 -36 -12.5 -75t-41.5 -71.5t-75.5 -53t-115.5 -20.5h-98v-263h-90v703h197q65 0 110 -20.5t73 -53t40.5 -71.5t12.5 -75zM408 483q0 65 -39 102.5t-107 37.5h-105v-280h96q75 0 115 37.5t40 102.5z"/>
<glyph glyph-name="Q" horiz-adv-x="708" unicode="Q" d="M354 68q54 0 94 20t66 57t38.5 89t12.5 117q0 64 -13 116.5t-39 89t-65.5 56.5t-93.5 20t-93.5 -20t-65.5 -56.5t-39 -89t-13 -116.5q0 -65 12.5 -117t39 -89t66 -57t93.5 -20zM501 16q29 -29 75.5 -49t97.5 -28l-19 -77q-36 3 -74.5 14.5t-73 28.5t-63.5 38t-47 44 q-21 -3 -43 -3q-78 0 -136 26.5t-97 75t-58.5 116t-19.5 149.5q0 81 19.5 148.5t58.5 116.5t97 76t136 27q77 0 135.5 -27t97.5 -76t58.5 -116.5t19.5 -148.5q0 -121 -41.5 -207.5t-122.5 -127.5z"/>
<glyph glyph-name="R" horiz-adv-x="554" unicode="R" d="M405 493q0 60 -35.5 95t-101.5 35h-111v-260h104q72 0 108 34.5t36 95.5zM536 0h-108l-167 283h-104v-283h-90v703h203q65 0 108.5 -20.5t70 -52t37.5 -68t11 -69.5q0 -74 -37.5 -123t-103.5 -72z"/>
<glyph glyph-name="S" horiz-adv-x="535" unicode="S" d="M212 324q-80 22 -128.5 67.5t-48.5 124.5q0 42 15 78.5t44.5 64.5t73 44t99.5 16q69 0 124.5 -16.5t87.5 -37.5l-34 -71q-10 6 -29 13t-43 14t-52 11.5t-56 4.5q-67 0 -103 -31t-36 -81q0 -44 27.5 -71t91.5 -45l82 -23q88 -25 133 -70.5t45 -128.5q0 -45 -16 -82.5 t-47 -64.5t-75.5 -41.5t-101.5 -14.5q-50 0 -91 8t-72 18.5t-51 21.5t-28 16l39 72q13 -8 33 -17.5t46.5 -17t57.5 -12.5t66 -5q75 0 110 31.5t35 81.5q0 18 -5 35.5t-18 33t-35.5 28.5t-57.5 23z"/>
<glyph glyph-name="T" horiz-adv-x="548" unicode="T" d="M228 620h-213v83h518v-83h-213v-620h-92v620z"/>
<glyph glyph-name="U" horiz-adv-x="645" unicode="U" d="M322 -16q-71 0 -120 18t-80.5 54t-45.5 90.5t-14 128.5v428h92v-417q0 -62 8.5 -104t28 -67.5t52 -36.5t79.5 -11q48 0 80 11t52 36.5t28.5 67.5t8.5 104v417h92v-428q0 -74 -14 -128.5t-45.5 -90.5t-81 -54t-120.5 -18z"/>
<glyph glyph-name="V" horiz-adv-x="578" unicode="V" d="M482 703h90l-233 -703h-100l-233 703h97l189 -593z"/>
<glyph glyph-name="W" horiz-adv-x="810" unicode="W" d="M587 126l123 577h90l-162 -703h-106l-126 551l-127 -551h-107l-162 703h99l120 -576l129 560h104z"/>
<glyph glyph-name="X" horiz-adv-x="583" unicode="X" d="M448 703h102l-203 -328l229 -375h-111l-176 298l-178 -298h-105l231 371l-200 332h109l149 -255z"/>
<glyph glyph-name="Y" horiz-adv-x="551" unicode="Y" d="M229 318l-224 385h102l173 -302l171 302h95l-225 -385v-318h-92v318z"/>
<glyph glyph-name="Z" horiz-adv-x="552" unicode="Z" d="M136 83h389v-83h-499v75l381 545h-364v83h473v-76z"/>
<glyph glyph-name="bracketleft" horiz-adv-x="310" unicode="[" d="M67 750h226v-76h-131v-695h131v-75h-226v846z"/>
<glyph glyph-name="backslash" horiz-adv-x="402" unicode="\" d="M309 -47l-312 797h96l312 -797h-96z"/>
<glyph glyph-name="bracketright" horiz-adv-x="310" unicode="]" d="M243 -96h-226v75h131v695h-131v76h226v-846z"/>
<glyph glyph-name="asciicircum" horiz-adv-x="552" unicode="^" d="M513 316h-97l-143 296l-143 -296h-91l187 374h99z"/>
<glyph glyph-name="underscore" horiz-adv-x="500" unicode="_" d="M0 -100h500v-83h-500v83z"/>
<glyph glyph-name="grave" d="M330 568l-223 102l39 79l216 -117z" unicode="`"/>
<glyph glyph-name="a" horiz-adv-x="488" unicode="a" d="M356 0l-4 56q-23 -32 -67 -50.5t-91 -18.5q-30 0 -60 8t-54 26t-39.5 48t-15.5 74q0 77 50 124t150 47q16 0 36 -1.5t38 -3t32 -3t19 -2.5v30q0 55 -32.5 79t-92.5 24q-54 0 -91.5 -12.5t-54.5 -22.5l-27 64q9 6 25 14t39.5 15.5t54 12.5t68.5 5q91 0 144 -44.5 t53 -129.5v-339h-80zM350 233q-1 0 -13 2t-30 3.5t-39 3t-39 1.5q-32 0 -54.5 -8t-36.5 -21.5t-20.5 -31.5t-6.5 -39q0 -43 28.5 -64t74.5 -21q25 0 49 8.5t43.5 24t31.5 38t12 49.5v55z"/>
<glyph glyph-name="b" horiz-adv-x="542" unicode="b" d="M271 69q67 0 106.5 44.5t39.5 142.5q0 38 -8 70.5t-25 56t-42.5 36.5t-60.5 13q-69 0 -105 -53.5t-36 -154.5v-92q6 -10 18 -21t29 -20.5t38 -15.5t46 -6zM52 750h89v-312q4 9 15.5 21.5t30.5 24.5t45 20.5t60 8.5q55 0 96 -20t68 -55t40 -81.5t13 -100.5 q0 -74 -20 -124.5t-52 -81.5t-72.5 -44.5t-81.5 -13.5q-30 0 -53.5 5.5t-41.5 13.5t-30.5 17t-19.5 17l-4 -45h-82v750z"/>
<glyph glyph-name="c" horiz-adv-x="443" unicode="c" d="M125 250q0 -95 40 -138.5t102 -43.5q47 0 79.5 12t43.5 18l35 -63q-2 -3 -15 -10.5t-34 -15.5t-49.5 -14.5t-62.5 -6.5q-110 0 -170.5 68.5t-60.5 193.5q0 58 16 106.5t46 83t73 53.5t97 19q36 0 65 -7.5t50 -16.5t33.5 -17.5t14.5 -11.5l-39 -64q-3 3 -13.5 9t-26.5 12 t-37 10.5t-45 4.5q-62 0 -102 -44.5t-40 -136.5z"/>
<glyph glyph-name="d" horiz-adv-x="542" unicode="d" d="M408 0l-4 44q-21 -20 -56 -36t-94 -16q-42 0 -81.5 12.5t-70.5 42.5t-50 79.5t-19 123.5q0 54 13.5 102t40.5 84t68 56.5t95 20.5q35 0 61.5 -9t44.5 -21t29 -24t16 -19v310h89v-750h-82zM272 69q24 0 45.5 6t38 15t28.5 20t18 21v92q0 102 -36 155.5t-105 53.5 q-35 0 -60.5 -13.5t-42.5 -37.5t-25 -57.5t-8 -73.5q0 -49 10.5 -83.5t29.5 -56t46 -31.5t61 -10z"/>
<glyph glyph-name="e" horiz-adv-x="511" unicode="e" d="M387 297q-5 67 -33.5 104t-91.5 37q-64 0 -95.5 -37.5t-41.5 -103.5h262zM448 23q-5 -3 -19 -9t-35 -12t-48.5 -10.5t-61.5 -4.5q-125 0 -188 70t-63 194q0 58 15 106.5t44 83t71.5 53.5t98.5 19q51 0 91 -15.5t68 -48.5t43 -84.5t15 -123.5v-16h-356q5 -71 45 -115 t123 -44q52 0 85.5 9t47.5 14z"/>
<glyph glyph-name="f" horiz-adv-x="363" unicode="f" d="M12 425v75h95v57q0 45 11 83t34 65t60 42.5t88 15.5q34 0 59 -4.5t32 -6.5l-10 -68q-5 1 -24.5 3t-40.5 2q-57 0 -88.5 -30.5t-31.5 -108.5v-50h155v-75h-155v-425h-89v425h-95z"/>
<glyph glyph-name="g" horiz-adv-x="543" unicode="g" d="M244 -26q-37 1 -62 4t-32 5q-17 -12 -27 -30t-10 -41t12 -36.5t32.5 -21.5t46.5 -10.5t53 -2.5q38 0 70 4.5t55.5 14.5t36.5 25t13 35q0 9 -3 18.5t-12 16.5t-27 12t-48 5zM268 208q24 0 47 7t40.5 21.5t28.5 37t11 54.5t-11 54.5t-28.5 37t-40.5 21.5t-47 7t-47 -7 t-40.5 -21.5t-28.5 -37t-11 -54.5t11 -54.5t28.5 -37t40.5 -21.5t47 -7zM438 433q12 -10 21 -23.5t14 -28.5t7.5 -29.5t2.5 -26.5q0 -52 -19.5 -87t-50 -56t-69 -30t-76.5 -9q-25 0 -54 4.5t-52 13.5q-7 -5 -19 -18t-12 -33q0 -10 3.5 -19.5t14.5 -17t30.5 -12t52.5 -5.5 l105 -2q38 -1 72.5 -6t60.5 -19t41.5 -38.5t15.5 -63.5q0 -70 -72.5 -114.5t-206.5 -44.5q-39 0 -79 6t-72.5 21t-53.5 40.5t-21 64.5q0 35 19.5 62t46.5 49q-25 17 -33 39.5t-8 41.5q0 35 20 60t40 42q-26 23 -40.5 56t-14.5 78q0 51 19 86.5t50 57t69.5 31.5t77.5 10 q24 0 41 -2t31 -4.5t27 -4.5t28 -2h136v-67h-93z"/>
<glyph glyph-name="h" horiz-adv-x="528" unicode="h" d="M476 0h-89v307q0 38 -7.5 63t-21.5 39.5t-33 20t-41 5.5q-38 0 -65.5 -16.5t-44.5 -43.5t-25 -62t-8 -72v-241h-89v750h89v-314q7 12 20.5 25.5t33 25t46 19t59.5 7.5q86 0 131 -50t45 -137v-326z"/>
<glyph glyph-name="i" horiz-adv-x="203" unicode="i" d="M159 662q0 -27 -15.5 -44t-42.5 -17t-42.5 17.5t-15.5 43.5t15.5 43.5t42.5 17.5t42.5 -17t15.5 -44zM57 500h89v-500h-89v500z"/>
<glyph glyph-name="j" horiz-adv-x="203" unicode="j" d="M159 662q0 -27 -15.5 -44t-42.5 -17t-42.5 17.5t-15.5 43.5t15.5 43.5t42.5 17.5t42.5 -17t15.5 -44zM57 500h89v-528q0 -106 -45.5 -155t-139.5 -49q-37 0 -79 12l9 69q19 -5 35 -6.5t30 -1.5q30 0 49.5 8t31 26t16 46t4.5 69v510z"/>
<glyph glyph-name="k" horiz-adv-x="492" unicode="k" d="M141 0h-89v750h89v-474l217 224h105l-218 -224l247 -276h-116l-235 266v-266z"/>
<glyph glyph-name="l" horiz-adv-x="203" unicode="l" d="M57 750h89v-750h-89v750z"/>
<glyph glyph-name="m" horiz-adv-x="825" unicode="m" d="M141 0h-89v500h82l4 -68q7 12 19 26t30 26.5t43.5 20.5t58.5 8q58 0 93 -24.5t54 -66.5q9 15 23.5 31.5t35 29.5t47 21.5t59.5 8.5q88 0 130 -49.5t42 -134.5v-329h-89v314q0 69 -24.5 95t-71.5 26q-36 0 -60.5 -17t-40.5 -44.5t-23 -62.5t-7 -72v-239h-89v314 q0 69 -25.5 95t-70.5 26q-36 0 -60.5 -17.5t-40.5 -45t-23 -62.5t-7 -71v-239z"/>
<glyph glyph-name="n" horiz-adv-x="528" unicode="n" d="M476 0h-89v307q0 38 -7.5 63t-21.5 39.5t-33 20t-41 5.5q-40 0 -67 -17t-44 -45.5t-24.5 -64.5t-7.5 -74v-234h-89v500h82l4 -69q6 12 19 26.5t33.5 27t47.5 20.5t62 8q86 0 131 -50t45 -137v-326z"/>
<glyph glyph-name="o" horiz-adv-x="536" unicode="o" d="M268 66q73 0 108 51t35 133q0 40 -9 73.5t-26.5 58t-44.5 38.5t-63 14q-71 0 -107 -51t-36 -133q0 -85 35 -134.5t108 -49.5zM268 -13q-56 0 -99.5 19t-73.5 53.5t-46 83t-16 107.5q0 58 16 106.5t46.5 83.5t74 54t98.5 19t98.5 -19t74 -53.5t46.5 -83t16 -107.5 q0 -60 -16 -108.5t-46 -83t-74 -53t-99 -18.5z"/>
<glyph glyph-name="p" horiz-adv-x="542" unicode="p" d="M140 119q14 -16 48.5 -33t82.5 -17q67 0 106.5 44.5t39.5 142.5q0 38 -8 70.5t-25 56t-42.5 36.5t-60.5 13q-70 0 -105.5 -53.5t-35.5 -154.5v-105zM52 -220v720h82l4 -65q7 12 20 26t32.5 25.5t44.5 19t57 7.5q55 0 96 -20t68 -55t40 -81.5t13 -100.5q0 -74 -20 -124 t-52.5 -81.5t-74 -45t-83.5 -13.5q-51 0 -84 11.5t-54 23.5v-247h-89z"/>
<glyph glyph-name="q" horiz-adv-x="542" unicode="q" d="M261 432q-35 0 -60.5 -13.5t-42.5 -37.5t-25 -57.5t-8 -73.5q0 -49 10.5 -83.5t29.5 -56t46 -31.5t61 -10q24 0 45.5 5.5t38 14.5t28.5 19.5t18 20.5v95q0 101 -35.5 154.5t-105.5 53.5zM250 513q31 0 56.5 -7.5t45 -18.5t32.5 -24t20 -25l4 62h82v-720h-89v254 q-10 -6 -23 -13.5t-30.5 -14t-40.5 -10.5t-53 -4q-42 0 -81.5 12.5t-70.5 42.5t-50 79.5t-19 123.5q0 54 13.5 102t40.5 84t68 56.5t95 20.5z"/>
<glyph glyph-name="r" horiz-adv-x="352" unicode="r" d="M344 424q-5 2 -19.5 4t-29.5 2q-71 0 -112.5 -59t-41.5 -162v-209h-89v500h82l4 -85q9 17 23.5 33.5t34.5 29t45.5 20.5t56.5 8q14 0 32.5 -2.5t21.5 -3.5z"/>
<glyph glyph-name="s" horiz-adv-x="449" unicode="s" d="M48 108q25 -13 69 -29t104 -16q33 0 54.5 5.5t34 15t18 22t5.5 27.5q0 27 -20.5 45.5t-71.5 28.5l-61 12q-32 6 -59.5 17t-47.5 28.5t-31.5 41.5t-11.5 57q0 68 53 109t142 41q58 0 104 -14t75 -31l-28 -66q-7 4 -22.5 10t-36 11.5t-44.5 9.5t-48 4q-55 0 -81 -19 t-26 -51q0 -27 18.5 -43t73.5 -26l62 -12q72 -14 112 -46t40 -99q0 -70 -52.5 -112t-149.5 -42q-71 0 -123.5 18t-82.5 38z"/>
<glyph glyph-name="t" horiz-adv-x="368" unicode="t" d="M8 500h100v138l89 24v-162h149v-75h-149v-270q0 -30 7.5 -48t21 -27.5t32 -13t41.5 -3.5t37.5 2t19.5 3l7 -67q-13 -3 -36.5 -6t-52.5 -3q-86 0 -126 37.5t-40 115.5v280h-100v75z"/>
<glyph glyph-name="u" horiz-adv-x="528" unicode="u" d="M52 500h89v-313q0 -36 7.5 -59.5t21 -37.5t32.5 -19.5t42 -5.5q40 0 67 17t44 45.5t24.5 64.5t7.5 74v234h89v-500h-82l-4 67q-6 -12 -19 -26t-33 -26t-47 -20t-62 -8q-86 0 -131.5 50t-45.5 137v326z"/>
<glyph glyph-name="v" horiz-adv-x="483" unicode="v" d="M6 500h95l144 -413l142 413h90l-185 -500h-100z"/>
<glyph glyph-name="w" horiz-adv-x="687" unicode="w" d="M8 500h94l105 -405l95 388h91l94 -388l103 405h89l-147 -500h-97l-90 371l-93 -371h-97z"/>
<glyph glyph-name="x" horiz-adv-x="481" unicode="x" d="M20 500h105l117 -173l116 173h95l-164 -236l184 -264h-106l-132 195l-133 -195h-96l181 259z"/>
<glyph glyph-name="y" horiz-adv-x="494" unicode="y" d="M96 -220l104 248l-194 472h100l142 -365l146 365h94l-301 -720h-91z"/>
<glyph glyph-name="z" horiz-adv-x="465" unicode="z" d="M32 71l292 354h-283v75h389v-72l-291 -353h294v-75h-401v71z"/>
<glyph glyph-name="braceleft" horiz-adv-x="313" unicode="{" d="M37 364q39 8 54.5 33.5t15.5 60.5v128q0 37 8 67.5t29.5 52t58 33t93.5 11.5v-76q-35 -1 -55 -7.5t-29.5 -19t-12 -30.5t-2.5 -40v-139q0 -38 -16 -64.5t-49 -46.5q33 -20 49 -46.5t16 -64.5v-139q0 -23 2.5 -40.5t12 -30t29.5 -19t55 -7.5v-76q-57 0 -93.5 11.5t-58 33 t-29.5 51.5t-8 68v128q0 35 -15.5 60.5t-54.5 33.5v74z"/>
<glyph glyph-name="bar" horiz-adv-x="234" unicode="|" d="M72 -220v970h90v-970h-90z"/>
<glyph glyph-name="braceright" horiz-adv-x="313" unicode="}" d="M276 290q-40 -8 -55 -33.5t-15 -60.5v-128q0 -38 -8 -68t-29.5 -51.5t-58 -33t-93.5 -11.5v76q34 1 54 7.5t30 19t12.5 30t2.5 40.5v139q0 38 16 64.5t48 46.5q-32 20 -48 46.5t-16 64.5v139q0 22 -2.5 40t-12.5 30.5t-30 19t-54 7.5v76q57 0 93.5 -11.5t58 -33t29.5 -52 t8 -67.5v-128q0 -35 15 -60.5t55 -33.5v-74z"/>
<glyph glyph-name="asciitilde" horiz-adv-x="555" unicode="~" d="M368 415q34 0 59 13t55 41l51 -62q-14 -14 -31 -28.5t-37.5 -25.5t-43 -18t-47.5 -7q-35 0 -63 13t-51 27q-18 11 -36.5 20t-36.5 9q-35 0 -59.5 -13t-54.5 -41l-51 62q13 14 30.5 28t37.5 25.5t43 18.5t48 7q35 0 63 -13t51 -27q18 -11 36.5 -20t36.5 -9z"/>
<glyph glyph-name="uni00A0" horiz-adv-x="218" unicode=" "/>
<glyph glyph-name="exclamdown" horiz-adv-x="266" unicode="¡" d="M69 446q0 29 17.5 48t46.5 19t46.5 -19t17.5 -48t-17.5 -48t-46.5 -19t-46.5 19t-17.5 48zM87 290h92v-510h-92v510z"/>
<glyph glyph-name="cent" horiz-adv-x="556" unicode="¢" d="M168 345q0 -81 28 -124.5t78 -56.5v360q-50 -14 -78 -58t-28 -121zM274 -13v99q-95 13 -145 80t-50 179q0 52 13 96.5t38 78.5t61 55.5t83 28.5v99h65v-97q33 -2 59 -10t45 -17.5t30 -17.5t13 -10l-36 -61q-6 5 -35.5 20t-75.5 19v-370q44 3 72.5 15.5t39.5 17.5l32 -60 q-2 -3 -13 -10t-30 -15t-44.5 -15t-56.5 -9v-96h-65z"/>
<glyph glyph-name="sterling" horiz-adv-x="556" unicode="£" d="M54 423h73q-3 26 -5 49.5t-2 41.5q0 43 12 80.5t37 65t63.5 43.5t92.5 16q41 0 74 -10t56 -22.5t37 -25t18 -16.5l-48 -60q-3 3 -14 12t-28 18.5t-40.5 17t-53.5 7.5q-60 0 -88.5 -32.5t-28.5 -97.5q0 -42 6 -87h168v-75h-157q4 -29 7 -54.5t3 -42.5q0 -37 -9.5 -66.5 t-22.5 -51t-25.5 -35.5t-18.5 -20h338v-78h-431v71l25.5 34t25.5 40.5t20 50t8 63.5q0 16 -2.5 39t-5.5 50h-84v75z"/>
<glyph glyph-name="currency" horiz-adv-x="556" unicode="¤" d="M398 352q0 29 -9.5 52.5t-26 40t-38.5 25t-46 8.5t-46 -8.5t-38.5 -25t-26 -40t-9.5 -52.5t9.5 -52.5t26 -40t38.5 -25t46 -8.5t46 8.5t38.5 25t26 40t9.5 52.5zM440 459q14 -22 22 -48.5t8 -58.5q0 -61 -30 -108l76 -75l-55 -55l-76 76q-47 -30 -107 -30q-61 0 -107 30 l-76 -76l-55 55l75 75q-14 23 -21.5 49.5t-7.5 58.5t7.5 58.5t21.5 48.5l-75 76l55 55l76 -76q23 14 50 22t57 8q29 0 56.5 -8t50.5 -22l76 76l55 -55z"/>
<glyph glyph-name="yen" horiz-adv-x="556" unicode="¥" d="M78 205h156v90h-156v68h127l-190 340h100l168 -311l166 311h93l-191 -340h129v-68h-158v-90h158v-68h-158v-137h-88v137h-156v68z"/>
<glyph glyph-name="brokenbar" horiz-adv-x="234" unicode="¦" d="M162 -220h-90v323h90v-323zM72 750h90v-323h-90v323z"/>
<glyph glyph-name="section" horiz-adv-x="547" unicode="§" d="M350 193q18 17 31 38t13 50q0 21 -8 37.5t-22 30t-32.5 24t-38.5 18.5l-76 31q-8 3 -15 6t-12 6q-17 -19 -30.5 -39t-13.5 -49q0 -21 8.5 -37.5t22.5 -30t32 -24t38 -18.5q26 -11 53 -21.5t50 -21.5zM256 -61q21 0 42.5 3.5t38.5 13.5t27.5 28t10.5 47q0 24 -10 40.5 t-24.5 28.5t-30.5 20t-29 13l-88 35q-28 11 -52 26t-42 34t-28 43.5t-10 55.5q0 47 19 80t52 64q-54 46 -54 119q0 46 17 79t44.5 54t64 30.5t75.5 9.5q38 0 70 -7.5t55.5 -16.5t37.5 -17.5t16 -11.5l-37 -61q-3 3 -16 9t-32.5 13t-43.5 12t-50 5q-19 0 -39 -3.5 t-36.5 -13.5t-27.5 -28t-11 -47q0 -24 10 -40.5t24.5 -28.5t30.5 -20t29 -13l88 -35q28 -11 52 -26t42 -34t28 -43.5t10 -55.5q0 -48 -19 -80.5t-53 -63.5q28 -24 42.5 -53t14.5 -66q0 -46 -17.5 -79t-46.5 -54t-66.5 -30.5t-77.5 -9.5q-38 0 -70.5 7.5t-56.5 16.5t-39 17.5 t-17 11.5l34 62q3 -3 17 -9.5t34.5 -13t46 -12t51.5 -5.5z"/>
<glyph glyph-name="dieresis" d="M195 650q0 -26 -15.5 -43t-41.5 -17t-41.5 17t-15.5 43t15.5 43t41.5 17t41.5 -17t15.5 -43zM388 650q0 -26 -15.5 -43t-41.5 -17t-41.5 17t-15.5 43t15.5 43t41.5 17t41.5 -17t15.5 -43z" unicode="¨"/>
<glyph glyph-name="copyright" horiz-adv-x="786" unicode="©" d="M295 352q0 -66 29.5 -96t79.5 -30q37 0 63 8.5t34 12.5l28 -50q-2 -2 -12 -8t-26.5 -12t-39 -11t-49.5 -5q-88 0 -135 50t-47 141q0 86 47.5 138.5t134.5 52.5q29 0 52.5 -5.5t40 -13t25.5 -14t11 -8.5l-30 -51q-5 4 -32 15t-65 11q-50 0 -79.5 -30.5t-29.5 -94.5z M680 352q0 62 -21.5 116t-60 94t-91 63t-113.5 23q-62 0 -114.5 -23t-91 -63t-60.5 -94t-22 -116t21.5 -116t60 -94t91 -62.5t114.5 -22.5t114.5 22.5t91 62.5t60 94t21.5 116zM757 353q0 -77 -28 -143.5t-77 -116t-115.5 -78t-143.5 -28.5t-143.5 28.5t-115.5 78t-77 116 t-28 143.5q0 76 28 143t77 116.5t116 78t144 28.5q76 0 142.5 -28.5t115.5 -78t77 -116.5t28 -143z"/>
<glyph glyph-name="ordfeminine" horiz-adv-x="337" unicode="ª" d="M295 289h-271v63h271v-63zM232 411l-3 34q-16 -20 -42 -31t-60 -11q-19 0 -37.5 5t-33 16.5t-23.5 30t-9 44.5q0 46 31.5 75t100.5 29q21 0 42.5 -2t29.5 -3v8q0 28 -17 43t-57 15q-35 0 -58.5 -7.5t-34.5 -13.5l-19 48q11 7 40.5 17.5t80.5 10.5q62 0 97 -28t35 -88 v-192h-63zM228 547q-15 2 -34.5 4t-38.5 2q-26 0 -45 -12.5t-19 -37.5q0 -46 53 -46q37 0 60.5 21t23.5 50v19z"/>
<glyph glyph-name="guillemotleft" horiz-adv-x="461" unicode="«" d="M147 57l-115 193l115 193h85l-111 -193l111 -193h-85zM344 57l-115 193l115 193h85l-111 -193l111 -193h-85z"/>
<glyph glyph-name="logicalnot" horiz-adv-x="556" unicode="¬" d="M77 402v80h402v-260h-84v180h-318z"/>
<glyph glyph-name="uni00AD" horiz-adv-x="371" unicode="­" d="M42 326h287v-92h-287v92z"/>
<glyph glyph-name="registered" horiz-adv-x="786" unicode="®" d="M680 352q0 62 -21.5 116t-60 94t-91 63t-113.5 23q-62 0 -114.5 -23t-91 -63t-60.5 -94t-22 -116t21.5 -116t60 -94t91 -62.5t114.5 -22.5t114.5 22.5t91 62.5t60 94t21.5 116zM757 353q0 -77 -28 -143.5t-77 -116t-115.5 -78t-143.5 -28.5t-143.5 28.5t-115.5 78 t-77 116t-28 143.5q0 76 28 143t77 116.5t116 78t144 28.5q76 0 142.5 -28.5t115.5 -78t77 -116.5t28 -143zM469 422q0 33 -20.5 46t-58.5 13h-63v-116h60q40 0 61 12.5t21 44.5zM558 165h-78l-90 142h-63v-142h-67v373h147q37 0 62 -11.5t40 -28.5t21.5 -37.5t6.5 -38.5 q0 -41 -21.5 -66.5t-59.5 -38.5z"/>
<glyph glyph-name="macron" d="M90 600v72h290v-72h-290z" unicode="¯"/>
<glyph glyph-name="degree" horiz-adv-x="365" unicode="°" d="M262 557q0 33 -22.5 56t-57.5 23q-33 0 -55.5 -23t-22.5 -57t22.5 -57t56.5 -23t56.5 23t22.5 58zM333 557q0 -32 -11.5 -59t-32 -46.5t-48 -30.5t-58.5 -11q-32 0 -59.5 11t-48 30.5t-32 46t-11.5 58.5t11.5 59t32 46.5t47.5 30.5t59 11t59.5 -11t48 -30.5t32 -46.5 t11.5 -58z"/>
<glyph glyph-name="plusminus" horiz-adv-x="556" unicode="±" d="M499 80v-80h-442v80h442zM57 400h179v180h84v-180h179v-80h-179v-180h-84v180h-179v80z"/>
<glyph glyph-name="twosuperior" horiz-adv-x="370" unicode="²" d="M160 516q36 23 56 42t20 42q0 19 -15.5 32.5t-47.5 13.5q-17 0 -32.5 -5.5t-28 -13t-22 -16t-14.5 -14.5l-45 43q7 9 20.5 21.5t31.5 23t41 18t50 7.5q36 0 61.5 -9t42.5 -24t25 -34.5t8 -40.5q0 -23 -8.5 -42t-23 -34.5t-32.5 -29.5t-37 -26q-40 -26 -61.5 -44.5 t-28.5 -41.5h196v-65h-277v20q0 30 7.5 54.5t22.5 45.5t38 39.5t53 37.5z"/>
<glyph glyph-name="threesuperior" horiz-adv-x="370" unicode="³" d="M107 547h45q42 0 60 15t18 37q0 20 -14.5 34t-46.5 14q-34 0 -61 -13.5t-39 -23.5l-36 47q7 7 20.5 16.5t31 17.5t39 13.5t46.5 5.5q70 0 102.5 -31t32.5 -73q0 -30 -18 -52t-43 -34q30 -10 49 -33.5t19 -55.5q0 -59 -45.5 -89.5t-114.5 -30.5q-38 0 -68.5 5t-50.5 11 l17 62q14 -5 38.5 -9.5t59.5 -4.5q89 0 89 56q0 23 -18.5 37.5t-64.5 14.5h-47v64z"/>
<glyph glyph-name="acute" d="M107 632l216 117l39 -79l-223 -102z" unicode="´"/>
<glyph glyph-name="mu" horiz-adv-x="528" unicode="µ" d="M390 67q-16 -30 -54 -55t-96 -25q-37 0 -62 10.5t-37 22.5v-240h-89v720h89v-310q0 -36 7.5 -60.5t21.5 -38.5t32.5 -20t41.5 -6q40 0 67 17t44 45.5t24.5 64.5t7.5 74v234h89v-500h-82z"/>
<glyph glyph-name="paragraph" horiz-adv-x="611" unicode="¶" d="M248 338q-50 0 -90 13t-68 37t-43 57t-15 72q0 51 17 86.5t48.5 57.5t74.5 32t96 10h271v-839h-88v769h-115v-769h-88v474z"/>
<glyph glyph-name="periodcentered" horiz-adv-x="234" unicode="·" d="M181 352q0 -29 -17.5 -48t-46.5 -19t-46.5 19t-17.5 48t17.5 48t46.5 19t46.5 -19t17.5 -48z"/>
<glyph glyph-name="cedilla" d="M203 0h59l-10 -49q46 -4 70.5 -28t24.5 -59q0 -24 -10 -42t-27.5 -30.5t-40 -18.5t-47.5 -6q-43 0 -69 7t-31 9l16 51q17 -5 34.5 -8.5t36.5 -3.5q32 0 48.5 10.5t16.5 28.5q0 14 -13.5 24.5t-44.5 10.5q-18 0 -36 -3z" unicode="¸"/>
<glyph glyph-name="onesuperior" horiz-adv-x="370" unicode="¹" d="M172 619l-94 -52l-32 59l145 77h56v-384h-75v300z"/>
<glyph glyph-name="ordmasculine" horiz-adv-x="352" unicode="º" d="M327 289h-302v63h302v-63zM176 459q45 0 64 28.5t19 73.5t-19.5 74t-63.5 29q-43 0 -63 -29t-20 -74q0 -46 19 -74t64 -28zM176 403q-75 0 -114.5 43t-39.5 115q0 71 40 115t114 44t114 -43.5t40 -115.5t-39.5 -115t-114.5 -43z"/>
<glyph glyph-name="guillemotright" horiz-adv-x="461" unicode="»" d="M229 57l111 193l-111 193h85l115 -193l-115 -193h-85zM32 57l111 193l-111 193h85l115 -193l-115 -193h-85z"/>
<glyph glyph-name="onequarter" horiz-adv-x="880" unicode="¼" d="M160 619l-94 -52l-32 59l145 77h56v-384h-75v300zM556 703h89l-381 -703h-89zM745 227v-77h52v-63h-52v-86h-68v86h-179v54l161 244h78l-157 -235h97v77h68z"/>
<glyph glyph-name="onehalf" horiz-adv-x="880" unicode="½" d="M160 619l-94 -52l-32 59l145 77h56v-384h-75v300zM556 703h89l-381 -703h-89zM658 198q36 23 56 42t20 42q0 19 -15.5 32.5t-47.5 13.5q-17 0 -32.5 -5.5t-28 -13t-22 -16t-14.5 -14.5l-45 43q7 9 20.5 21.5t31.5 23t41 18t50 7.5q36 0 61.5 -9t42.5 -24t25 -34.5 t8 -40.5q0 -23 -8.5 -42t-23 -34.5t-32.5 -29.5t-37 -26q-40 -26 -61.5 -44.5t-28.5 -41.5h196v-65h-277v20q0 30 7.5 54.5t22.5 45.5t38 39.5t53 37.5z"/>
<glyph glyph-name="threequarters" horiz-adv-x="880" unicode="¾" d="M116 547h45q42 0 60 15t18 37q0 20 -14.5 34t-46.5 14q-34 0 -61 -13.5t-39 -23.5l-36 47q7 7 20.5 16.5t31 17.5t39 13.5t46.5 5.5q70 0 102.5 -31t32.5 -73q0 -30 -18 -52t-43 -34q30 -10 49 -33.5t19 -55.5q0 -59 -45.5 -89.5t-114.5 -30.5q-38 0 -68.5 5t-50.5 11 l17 62q14 -5 38.5 -9.5t59.5 -4.5q89 0 89 56q0 23 -18.5 37.5t-64.5 14.5h-47v64zM586 703h89l-381 -703h-89zM775 227v-77h52v-63h-52v-86h-68v86h-179v54l161 244h78l-157 -235h97v77h68z"/>
<glyph glyph-name="questiondown" horiz-adv-x="507" unicode="¿" d="M223 446q0 29 17.5 48t46.5 19t46.5 -19t17.5 -48t-17.5 -48t-46.5 -19t-46.5 19t-17.5 48zM333 294q0 -38 -8.5 -67.5t-23.5 -53.5t-35 -44.5t-42 -40.5q-12 -11 -25.5 -24.5t-25 -29t-18.5 -34.5t-7 -41q0 -47 29.5 -78t97.5 -31q52 0 87 22.5t64 55.5l56 -51 q-11 -16 -30.5 -35t-46.5 -35.5t-62 -27.5t-76 -11q-62 0 -103.5 17t-66.5 44t-35 60.5t-10 65.5q0 31 8.5 56t22 46t30.5 38.5t34 32.5q19 17 36 33t29.5 34.5t20 42.5t7.5 56h93z"/>
<glyph glyph-name="Agrave" horiz-adv-x="574" unicode="À" d="M178 261h210l-104 325zM414 180h-262l-58 -180h-88l232 703h97l233 -703h-96zM377 756l-248 89l33 81l243 -105z"/>
<glyph glyph-name="Aacute" horiz-adv-x="574" unicode="Á" d="M178 261h210l-104 325zM414 180h-262l-58 -180h-88l232 703h97l233 -703h-96zM169 821l243 105l33 -81l-248 -89z"/>
<glyph glyph-name="Acircumflex" horiz-adv-x="574" unicode="Â" d="M178 261h210l-104 325zM414 180h-262l-58 -180h-88l232 703h97l233 -703h-96zM108 803l138 110h83l138 -110l-38 -47l-142 90l-141 -90z"/>
<glyph glyph-name="Atilde" horiz-adv-x="574" unicode="Ã" d="M178 261h210l-104 325zM414 180h-262l-58 -180h-88l232 703h97l233 -703h-96zM102 775q0 58 28 88t77 30q25 0 43.5 -8.5t34.5 -18t31 -18t33 -8.5q26 0 36 14t10 37h66q0 -60 -28 -89t-77 -29q-25 0 -43.5 8.5t-34.5 18t-31 18t-33 8.5q-26 0 -36 -14t-10 -37h-66z"/>
<glyph glyph-name="Adieresis" horiz-adv-x="574" unicode="Ä" d="M178 261h210l-104 325zM414 180h-262l-58 -180h-88l232 703h97l233 -703h-96zM245 837q0 -28 -16 -45.5t-44 -17.5t-44 18t-16 45t16 45t44 18t44 -17.5t16 -45.5zM450 837q0 -28 -16 -45.5t-44 -17.5t-44 18t-16 45t16 45t44 18t44 -17.5t16 -45.5z"/>
<glyph glyph-name="Aring" horiz-adv-x="574" unicode="Å" d="M342 739q0 23 -16 39t-39 16t-38.5 -16t-15.5 -39t15.5 -39.5t38.5 -16.5t39 16.5t16 39.5zM178 261h210l-104 335zM414 180h-262l-58 -180h-88l214 650q-21 14 -33.5 37t-12.5 52q0 24 9 44t24.5 35t36 23t43.5 8q48 0 80.5 -30.5t32.5 -78.5q0 -29 -13 -52.5t-35 -38.5 l216 -649h-96z"/>
<glyph glyph-name="AE" horiz-adv-x="861" unicode="Æ" d="M243 285h187v345zM831 703v-83h-312v-213h242v-83h-242v-241h322v-83h-411v207h-229l-112 -207h-91l382 703h451z"/>
<glyph glyph-name="Ccedilla" horiz-adv-x="585" unicode="Ç" d="M301 -8q-128 15 -193 109.5t-65 249.5q0 81 19.5 148t58.5 114.5t97 74t136 26.5q71 0 124 -20.5t95 -55.5l-48 -67q-13 10 -29 20t-37 18t-46.5 13t-58.5 5q-107 0 -159 -73.5t-52 -202.5t51.5 -202t158.5 -73q30 0 56.5 5.5t48 13.5t38.5 18t28 18l48 -67 q-29 -26 -82.5 -49.5t-127.5 -25.5l-8 -39q49 -4 74 -28.5t25 -60.5q0 -26 -10.5 -44.5t-28 -31.5t-41 -19t-49.5 -6q-45 0 -72 7t-32 9l16 53q17 -5 35.5 -8.5t37.5 -3.5q33 0 51 10.5t18 30.5q0 14 -14.5 24.5t-45.5 10.5q-20 0 -38 -3z"/>
<glyph glyph-name="Egrave" horiz-adv-x="511" unicode="È" d="M67 703h414v-83h-322v-213h252v-83h-252v-241h332v-83h-424v703zM391 756l-248 89l33 81l243 -105z"/>
<glyph glyph-name="Eacute" horiz-adv-x="511" unicode="É" d="M67 703h414v-83h-322v-213h252v-83h-252v-241h332v-83h-424v703zM143 821l243 105l33 -81l-248 -89z"/>
<glyph glyph-name="Ecircumflex" horiz-adv-x="511" unicode="Ê" d="M67 703h414v-83h-322v-213h252v-83h-252v-241h332v-83h-424v703zM102 803l138 110h83l138 -110l-38 -47l-142 90l-141 -90z"/>
<glyph glyph-name="Edieresis" horiz-adv-x="511" unicode="Ë" d="M67 703h414v-83h-322v-213h252v-83h-252v-241h332v-83h-424v703zM229 837q0 -28 -16 -45.5t-44 -17.5t-44 18t-16 45t16 45t44 18t44 -17.5t16 -45.5zM434 837q0 -28 -16 -45.5t-44 -17.5t-44 18t-16 45t16 45t44 18t44 -17.5t16 -45.5z"/>
<glyph glyph-name="Igrave" horiz-adv-x="226" unicode="Ì" d="M159 0h-92v703h92v-703zM197 756l-248 89l33 81l243 -105z"/>
<glyph glyph-name="Iacute" horiz-adv-x="226" unicode="Í" d="M159 0h-92v703h92v-703zM3 821l243 105l33 -81l-248 -89z"/>
<glyph glyph-name="Icircumflex" horiz-adv-x="226" unicode="Î" d="M159 0h-92v703h92v-703zM-65 803l138 110h83l138 -110l-38 -47l-142 90l-141 -90z"/>
<glyph glyph-name="Idieresis" horiz-adv-x="226" unicode="Ï" d="M159 0h-92v703h92v-703zM72 837q0 -28 -16 -45.5t-44 -17.5t-44 18t-16 45t16 45t44 18t44 -17.5t16 -45.5zM277 837q0 -28 -16 -45.5t-44 -17.5t-44 18t-16 45t16 45t44 18t44 -17.5t16 -45.5z"/>
<glyph glyph-name="Eth" horiz-adv-x="661" unicode="Ð" d="M301 83q109 0 163 72t54 197t-54.5 196.5t-162.5 71.5h-142v-222h160v-79h-160v-236h142zM0 398h67v305h234q77 0 136.5 -26t99.5 -72.5t60.5 -111t20.5 -142.5q0 -79 -20.5 -144t-60.5 -111t-99.5 -71t-136.5 -25h-234v319h-67v79z"/>
<glyph glyph-name="Ntilde" horiz-adv-x="646" unicode="Ñ" d="M489 703h90v-703h-90l-332 545v-545h-90v703h96l326 -536v536zM138 775q0 58 28 88t77 30q25 0 43.5 -8.5t34.5 -18t31 -18t33 -8.5q26 0 36 14t10 37h66q0 -60 -28 -89t-77 -29q-25 0 -43.5 8.5t-34.5 18t-31 18t-33 8.5q-26 0 -36 -14t-10 -37h-66z"/>
<glyph glyph-name="Ograve" horiz-adv-x="708" unicode="Ò" d="M354 68q54 0 94 20t66 57t38.5 89t12.5 117q0 64 -13 116.5t-39 89t-65.5 56.5t-93.5 20t-93.5 -20t-65.5 -56.5t-39 -89t-13 -116.5q0 -65 12.5 -117t39 -89t66 -57t93.5 -20zM354 -16q-78 0 -136 26.5t-97 75t-58.5 116t-19.5 149.5q0 81 19.5 148.5t58.5 116.5t97 76 t136 27q77 0 135.5 -27t97.5 -76t58.5 -116.5t19.5 -148.5q0 -82 -19.5 -149.5t-58.5 -116t-97.5 -75t-135.5 -26.5zM454 756l-248 89l33 81l243 -105z"/>
<glyph glyph-name="Oacute" horiz-adv-x="708" unicode="Ó" d="M354 68q54 0 94 20t66 57t38.5 89t12.5 117q0 64 -13 116.5t-39 89t-65.5 56.5t-93.5 20t-93.5 -20t-65.5 -56.5t-39 -89t-13 -116.5q0 -65 12.5 -117t39 -89t66 -57t93.5 -20zM354 -16q-78 0 -136 26.5t-97 75t-58.5 116t-19.5 149.5q0 81 19.5 148.5t58.5 116.5t97 76 t136 27q77 0 135.5 -27t97.5 -76t58.5 -116.5t19.5 -148.5q0 -82 -19.5 -149.5t-58.5 -116t-97.5 -75t-135.5 -26.5zM226 821l243 105l33 -81l-248 -89z"/>
<glyph glyph-name="Ocircumflex" horiz-adv-x="708" unicode="Ô" d="M354 68q54 0 94 20t66 57t38.5 89t12.5 117q0 64 -13 116.5t-39 89t-65.5 56.5t-93.5 20t-93.5 -20t-65.5 -56.5t-39 -89t-13 -116.5q0 -65 12.5 -117t39 -89t66 -57t93.5 -20zM354 -16q-78 0 -136 26.5t-97 75t-58.5 116t-19.5 149.5q0 81 19.5 148.5t58.5 116.5t97 76 t136 27q77 0 135.5 -27t97.5 -76t58.5 -116.5t19.5 -148.5q0 -82 -19.5 -149.5t-58.5 -116t-97.5 -75t-135.5 -26.5zM175 803l138 110h83l138 -110l-38 -47l-142 90l-141 -90z"/>
<glyph glyph-name="Otilde" horiz-adv-x="708" unicode="Õ" d="M354 68q54 0 94 20t66 57t38.5 89t12.5 117q0 64 -13 116.5t-39 89t-65.5 56.5t-93.5 20t-93.5 -20t-65.5 -56.5t-39 -89t-13 -116.5q0 -65 12.5 -117t39 -89t66 -57t93.5 -20zM354 -16q-78 0 -136 26.5t-97 75t-58.5 116t-19.5 149.5q0 81 19.5 148.5t58.5 116.5t97 76 t136 27q77 0 135.5 -27t97.5 -76t58.5 -116.5t19.5 -148.5q0 -82 -19.5 -149.5t-58.5 -116t-97.5 -75t-135.5 -26.5zM169 775q0 58 28 88t77 30q25 0 43.5 -8.5t34.5 -18t31 -18t33 -8.5q26 0 36 14t10 37h66q0 -60 -28 -89t-77 -29q-25 0 -43.5 8.5t-34.5 18t-31 18 t-33 8.5q-26 0 -36 -14t-10 -37h-66z"/>
<glyph glyph-name="Odieresis" horiz-adv-x="708" unicode="Ö" d="M354 68q54 0 94 20t66 57t38.5 89t12.5 117q0 64 -13 116.5t-39 89t-65.5 56.5t-93.5 20t-93.5 -20t-65.5 -56.5t-39 -89t-13 -116.5q0 -65 12.5 -117t39 -89t66 -57t93.5 -20zM354 -16q-78 0 -136 26.5t-97 75t-58.5 116t-19.5 149.5q0 81 19.5 148.5t58.5 116.5t97 76 t136 27q77 0 135.5 -27t97.5 -76t58.5 -116.5t19.5 -148.5q0 -82 -19.5 -149.5t-58.5 -116t-97.5 -75t-135.5 -26.5zM312 837q0 -28 -16 -45.5t-44 -17.5t-44 18t-16 45t16 45t44 18t44 -17.5t16 -45.5zM517 837q0 -28 -16 -45.5t-44 -17.5t-44 18t-16 45t16 45t44 18 t44 -17.5t16 -45.5z"/>
<glyph glyph-name="multiply" horiz-adv-x="556" unicode="×" d="M465 495l-138 -147l138 -146l-55 -51l-133 143l-132 -143l-55 51l137 146l-137 147l55 51l132 -144l133 144z"/>
<glyph glyph-name="Oslash" horiz-adv-x="708" unicode="Ø" d="M143 351q0 -59 10.5 -107.5t31.5 -84.5l282 442q-46 32 -113 32q-54 0 -93.5 -20t-65.5 -56.5t-39 -89t-13 -116.5zM354 68q54 0 94 20t66 57t38.5 89t12.5 117q0 120 -44 193l-282 -443q23 -16 51.5 -24.5t63.5 -8.5zM575 629q45 -49 67.5 -120t22.5 -158 q0 -82 -19.5 -149.5t-58.5 -116t-97.5 -75t-135.5 -26.5q-49 0 -89.5 10.5t-74.5 30.5l-53 -84l-66 38l60 94q-45 49 -66.5 119.5t-21.5 158.5q0 81 19.5 148.5t58.5 116.5t97 76t136 27q48 0 88 -10.5t74 -30.5l55 86l66 -38z"/>
<glyph glyph-name="Ugrave" horiz-adv-x="645" unicode="Ù" d="M322 -16q-71 0 -120 18t-80.5 54t-45.5 90.5t-14 128.5v428h92v-417q0 -62 8.5 -104t28 -67.5t52 -36.5t79.5 -11q48 0 80 11t52 36.5t28.5 67.5t8.5 104v417h92v-428q0 -74 -14 -128.5t-45.5 -90.5t-81 -54t-120.5 -18zM422 756l-248 89l33 81l243 -105z"/>
<glyph glyph-name="Uacute" horiz-adv-x="645" unicode="Ú" d="M322 -16q-71 0 -120 18t-80.5 54t-45.5 90.5t-14 128.5v428h92v-417q0 -62 8.5 -104t28 -67.5t52 -36.5t79.5 -11q48 0 80 11t52 36.5t28.5 67.5t8.5 104v417h92v-428q0 -74 -14 -128.5t-45.5 -90.5t-81 -54t-120.5 -18zM194 821l243 105l33 -81l-248 -89z"/>
<glyph glyph-name="Ucircumflex" horiz-adv-x="645" unicode="Û" d="M322 -16q-71 0 -120 18t-80.5 54t-45.5 90.5t-14 128.5v428h92v-417q0 -62 8.5 -104t28 -67.5t52 -36.5t79.5 -11q48 0 80 11t52 36.5t28.5 67.5t8.5 104v417h92v-428q0 -74 -14 -128.5t-45.5 -90.5t-81 -54t-120.5 -18zM143 803l138 110h83l138 -110l-38 -47l-142 90 l-141 -90z"/>
<glyph glyph-name="Udieresis" horiz-adv-x="645" unicode="Ü" d="M322 -16q-71 0 -120 18t-80.5 54t-45.5 90.5t-14 128.5v428h92v-417q0 -62 8.5 -104t28 -67.5t52 -36.5t79.5 -11q48 0 80 11t52 36.5t28.5 67.5t8.5 104v417h92v-428q0 -74 -14 -128.5t-45.5 -90.5t-81 -54t-120.5 -18zM280 837q0 -28 -16 -45.5t-44 -17.5t-44 18 t-16 45t16 45t44 18t44 -17.5t16 -45.5zM485 837q0 -28 -16 -45.5t-44 -17.5t-44 18t-16 45t16 45t44 18t44 -17.5t16 -45.5z"/>
<glyph glyph-name="Yacute" horiz-adv-x="551" unicode="Ý" d="M229 318l-224 385h102l173 -302l171 302h95l-225 -385v-318h-92v318zM157 821l243 105l33 -81l-248 -89z"/>
<glyph glyph-name="Thorn" horiz-adv-x="532" unicode="Þ" d="M408 358q0 65 -39 102.5t-107 37.5h-105v-280h96q75 0 115 37.5t40 102.5zM500 358q0 -36 -12.5 -75t-41.5 -71.5t-75.5 -53t-115.5 -20.5h-98v-138h-90v703h90v-125h107q65 0 110 -20.5t73 -53t40.5 -71.5t12.5 -75z"/>
<glyph glyph-name="germandbls" horiz-adv-x="580" unicode="ß" d="M427 310q27 -13 50.5 -27t41 -33t27 -44t9.5 -59q0 -72 -46 -116t-139 -44q-24 0 -46.5 3.5t-41.5 9t-33.5 11.5t-22.5 12l30 66q24 -13 53 -20t58 -7q50 0 73.5 24t23.5 59q0 19 -6 33.5t-18 26.5t-31.5 23t-46.5 23q-32 15 -53 28t-34 26.5t-18 29t-5 34.5q0 21 6 37 t16 30t22.5 26.5t24.5 25.5q20 20 40 47.5t20 64.5q0 35 -28.5 61.5t-80.5 26.5q-131 0 -131 -156v-532h-89v534q0 108 52.5 168.5t167.5 60.5q50 0 87.5 -12.5t62 -34t37 -51.5t12.5 -64q0 -23 -6.5 -43t-17 -37t-23 -31t-24.5 -26q-25 -25 -41 -40.5t-16 -40.5 q0 -15 7.5 -26t19.5 -19t27 -14.5t30 -13.5z"/>
<glyph glyph-name="agrave" horiz-adv-x="488" unicode="à" d="M356 0l-4 56q-23 -32 -67 -50.5t-91 -18.5q-30 0 -60 8t-54 26t-39.5 48t-15.5 74q0 77 50 124t150 47q16 0 36 -1.5t38 -3t32 -3t19 -2.5v30q0 55 -32.5 79t-92.5 24q-54 0 -91.5 -12.5t-54.5 -22.5l-27 64q9 6 25 14t39.5 15.5t54 12.5t68.5 5q91 0 144 -44.5 t53 -129.5v-339h-80zM350 233q-1 0 -13 2t-30 3.5t-39 3t-39 1.5q-32 0 -54.5 -8t-36.5 -21.5t-20.5 -31.5t-6.5 -39q0 -43 28.5 -64t74.5 -21q25 0 49 8.5t43.5 24t31.5 38t12 49.5v55zM340 568l-223 102l39 79l216 -117z"/>
<glyph glyph-name="aacute" horiz-adv-x="488" unicode="á" d="M356 0l-4 56q-23 -32 -67 -50.5t-91 -18.5q-30 0 -60 8t-54 26t-39.5 48t-15.5 74q0 77 50 124t150 47q16 0 36 -1.5t38 -3t32 -3t19 -2.5v30q0 55 -32.5 79t-92.5 24q-54 0 -91.5 -12.5t-54.5 -22.5l-27 64q9 6 25 14t39.5 15.5t54 12.5t68.5 5q91 0 144 -44.5 t53 -129.5v-339h-80zM350 233q-1 0 -13 2t-30 3.5t-39 3t-39 1.5q-32 0 -54.5 -8t-36.5 -21.5t-20.5 -31.5t-6.5 -39q0 -43 28.5 -64t74.5 -21q25 0 49 8.5t43.5 24t31.5 38t12 49.5v55zM127 632l216 117l39 -79l-223 -102z"/>
<glyph glyph-name="acircumflex" horiz-adv-x="488" unicode="â" d="M356 0l-4 56q-23 -32 -67 -50.5t-91 -18.5q-30 0 -60 8t-54 26t-39.5 48t-15.5 74q0 77 50 124t150 47q16 0 36 -1.5t38 -3t32 -3t19 -2.5v30q0 55 -32.5 79t-92.5 24q-54 0 -91.5 -12.5t-54.5 -22.5l-27 64q9 6 25 14t39.5 15.5t54 12.5t68.5 5q91 0 144 -44.5 t53 -129.5v-339h-80zM350 233q-1 0 -13 2t-30 3.5t-39 3t-39 1.5q-32 0 -54.5 -8t-36.5 -21.5t-20.5 -31.5t-6.5 -39q0 -43 28.5 -64t74.5 -21q25 0 49 8.5t43.5 24t31.5 38t12 49.5v55zM84 618l123 113h75l123 -113l-46 -44l-115 89l-114 -89z"/>
<glyph glyph-name="atilde" horiz-adv-x="488" unicode="ã" d="M356 0l-4 56q-23 -32 -67 -50.5t-91 -18.5q-30 0 -60 8t-54 26t-39.5 48t-15.5 74q0 77 50 124t150 47q16 0 36 -1.5t38 -3t32 -3t19 -2.5v30q0 55 -32.5 79t-92.5 24q-54 0 -91.5 -12.5t-54.5 -22.5l-27 64q9 6 25 14t39.5 15.5t54 12.5t68.5 5q91 0 144 -44.5 t53 -129.5v-339h-80zM350 233q-1 0 -13 2t-30 3.5t-39 3t-39 1.5q-32 0 -54.5 -8t-36.5 -21.5t-20.5 -31.5t-6.5 -39q0 -43 28.5 -64t74.5 -21q25 0 49 8.5t43.5 24t31.5 38t12 49.5v55zM72 581q0 58 27 87.5t75 29.5q24 0 42.5 -8t34.5 -18t31.5 -18t32.5 -8q24 0 34 13 t10 36h64q0 -58 -27 -87.5t-75 -29.5q-24 0 -42.5 8.5t-34.5 18t-31 18t-32 8.5q-25 0 -35 -13.5t-10 -36.5h-64z"/>
<glyph glyph-name="adieresis" horiz-adv-x="488" unicode="ä" d="M356 0l-4 56q-23 -32 -67 -50.5t-91 -18.5q-30 0 -60 8t-54 26t-39.5 48t-15.5 74q0 77 50 124t150 47q16 0 36 -1.5t38 -3t32 -3t19 -2.5v30q0 55 -32.5 79t-92.5 24q-54 0 -91.5 -12.5t-54.5 -22.5l-27 64q9 6 25 14t39.5 15.5t54 12.5t68.5 5q91 0 144 -44.5 t53 -129.5v-339h-80zM350 233q-1 0 -13 2t-30 3.5t-39 3t-39 1.5q-32 0 -54.5 -8t-36.5 -21.5t-20.5 -31.5t-6.5 -39q0 -43 28.5 -64t74.5 -21q25 0 49 8.5t43.5 24t31.5 38t12 49.5v55zM205 650q0 -26 -15.5 -43t-41.5 -17t-41.5 17t-15.5 43t15.5 43t41.5 17t41.5 -17 t15.5 -43zM398 650q0 -26 -15.5 -43t-41.5 -17t-41.5 17t-15.5 43t15.5 43t41.5 17t41.5 -17t15.5 -43z"/>
<glyph glyph-name="aring" horiz-adv-x="488" unicode="å" d="M356 0l-4 56q-23 -32 -67 -50.5t-91 -18.5q-30 0 -60 8t-54 26t-39.5 48t-15.5 74q0 77 50 124t150 47q16 0 36 -1.5t38 -3t32 -3t19 -2.5v30q0 55 -32.5 79t-92.5 24q-54 0 -91.5 -12.5t-54.5 -22.5l-27 64q9 6 25 14t39.5 15.5t54 12.5t68.5 5q91 0 144 -44.5 t53 -129.5v-339h-80zM350 233q-1 0 -13 2t-30 3.5t-39 3t-39 1.5q-32 0 -54.5 -8t-36.5 -21.5t-20.5 -31.5t-6.5 -39q0 -43 28.5 -64t74.5 -21q25 0 49 8.5t43.5 24t31.5 38t12 49.5v55zM298 676q0 23 -15.5 38t-37.5 15t-37 -15t-15 -38t15 -38.5t37 -15.5t37.5 15.5 t15.5 38.5zM355 677q0 -23 -8.5 -43t-23.5 -34t-35 -22t-42 -8q-23 0 -43 8t-35 22t-24 33.5t-9 42.5t8.5 42.5t23.5 34t35 22.5t43 8t43 -8t35 -22t23.5 -33.5t8.5 -42.5z"/>
<glyph glyph-name="ae" horiz-adv-x="824" unicode="æ" d="M350 233q-1 0 -13 2t-30 3.5t-39 3t-39 1.5q-32 0 -54.5 -8t-36.5 -21.5t-20.5 -31.5t-6.5 -39q0 -43 28.5 -64t74.5 -21q31 0 56.5 9.5t43 25.5t27 38t9.5 46v56zM233 513q62 0 108.5 -19.5t67.5 -64.5q25 37 67.5 60.5t98.5 23.5q51 0 91 -15.5t68 -48.5t43 -84.5 t15 -123.5v-16h-356q5 -71 45 -115t123 -44q52 0 85.5 9t47.5 14l24 -66q-5 -3 -19 -9t-35 -12t-48.5 -10.5t-61.5 -4.5q-44 0 -76.5 8t-57 21t-42 29t-29.5 33q-8 -11 -22 -26.5t-36 -29.5t-54 -24.5t-76 -10.5q-35 0 -67 8t-57 26t-40 48t-15 74q0 77 50 124t150 47 q16 0 36 -1.5t38 -3t32 -3t19 -2.5v30q0 55 -32.5 79t-92.5 24q-54 0 -91.5 -12.5t-54.5 -22.5l-27 64q9 6 25 14t39 15.5t52.5 12.5t64.5 5zM700 297q-5 67 -33.5 104t-91.5 37q-64 0 -95.5 -37.5t-41.5 -103.5h262z"/>
<glyph glyph-name="ccedilla" horiz-adv-x="443" unicode="ç" d="M218 -8q-89 14 -137 80.5t-48 177.5q0 58 16 106.5t46 83t73 53.5t97 19q36 0 65 -7.5t50 -16.5t33.5 -17.5t14.5 -11.5l-39 -64q-3 3 -13.5 9t-26.5 12t-37 10.5t-45 4.5q-62 0 -102 -44.5t-40 -136.5q0 -95 40 -138.5t102 -43.5q47 0 79.5 12t43.5 18l35 -63 q-2 -3 -14 -10t-31.5 -14.5t-46 -14.5t-57.5 -8l-7 -37q46 -4 70.5 -28t24.5 -59q0 -24 -10 -42t-27.5 -30.5t-40 -18.5t-47.5 -6q-43 0 -69 7t-31 9l16 51q17 -5 34.5 -8.5t36.5 -3.5q32 0 48.5 10.5t16.5 28.5q0 14 -13.5 24.5t-44.5 10.5q-18 0 -36 -3z"/>
<glyph glyph-name="egrave" horiz-adv-x="511" unicode="è" d="M387 297q-5 67 -33.5 104t-91.5 37q-64 0 -95.5 -37.5t-41.5 -103.5h262zM448 23q-5 -3 -19 -9t-35 -12t-48.5 -10.5t-61.5 -4.5q-125 0 -188 70t-63 194q0 58 15 106.5t44 83t71.5 53.5t98.5 19q51 0 91 -15.5t68 -48.5t43 -84.5t15 -123.5v-16h-356q5 -71 45 -115 t123 -44q52 0 85.5 9t47.5 14zM371 568l-223 102l39 79l216 -117z"/>
<glyph glyph-name="eacute" horiz-adv-x="511" unicode="é" d="M387 297q-5 67 -33.5 104t-91.5 37q-64 0 -95.5 -37.5t-41.5 -103.5h262zM448 23q-5 -3 -19 -9t-35 -12t-48.5 -10.5t-61.5 -4.5q-125 0 -188 70t-63 194q0 58 15 106.5t44 83t71.5 53.5t98.5 19q51 0 91 -15.5t68 -48.5t43 -84.5t15 -123.5v-16h-356q5 -71 45 -115 t123 -44q52 0 85.5 9t47.5 14zM143 632l216 117l39 -79l-223 -102z"/>
<glyph glyph-name="ecircumflex" horiz-adv-x="511" unicode="ê" d="M387 297q-5 67 -33.5 104t-91.5 37q-64 0 -95.5 -37.5t-41.5 -103.5h262zM448 23q-5 -3 -19 -9t-35 -12t-48.5 -10.5t-61.5 -4.5q-125 0 -188 70t-63 194q0 58 15 106.5t44 83t71.5 53.5t98.5 19q51 0 91 -15.5t68 -48.5t43 -84.5t15 -123.5v-16h-356q5 -71 45 -115 t123 -44q52 0 85.5 9t47.5 14zM100 618l123 113h75l123 -113l-46 -44l-115 89l-114 -89z"/>
<glyph glyph-name="edieresis" horiz-adv-x="511" unicode="ë" d="M387 297q-5 67 -33.5 104t-91.5 37q-64 0 -95.5 -37.5t-41.5 -103.5h262zM448 23q-5 -3 -19 -9t-35 -12t-48.5 -10.5t-61.5 -4.5q-125 0 -188 70t-63 194q0 58 15 106.5t44 83t71.5 53.5t98.5 19q51 0 91 -15.5t68 -48.5t43 -84.5t15 -123.5v-16h-356q5 -71 45 -115 t123 -44q52 0 85.5 9t47.5 14zM221 650q0 -26 -15.5 -43t-41.5 -17t-41.5 17t-15.5 43t15.5 43t41.5 17t41.5 -17t15.5 -43zM414 650q0 -26 -15.5 -43t-41.5 -17t-41.5 17t-15.5 43t15.5 43t41.5 17t41.5 -17t15.5 -43z"/>
<glyph glyph-name="igrave" horiz-adv-x="203" unicode="ì" d="M57 500h89v-500h-89v500zM186 568l-223 102l39 79l216 -117z"/>
<glyph glyph-name="iacute" horiz-adv-x="203" unicode="í" d="M57 500h89v-500h-89v500zM-12 632l216 117l39 -79l-223 -102z"/>
<glyph glyph-name="icircumflex" horiz-adv-x="203" unicode="î" d="M57 500h89v-500h-89v500zM-58 618l123 113h75l123 -113l-46 -44l-115 89l-114 -89z"/>
<glyph glyph-name="idieresis" horiz-adv-x="203" unicode="ï" d="M57 500h89v-500h-89v500zM63 650q0 -26 -15.5 -43t-41.5 -17t-41.5 17t-15.5 43t15.5 43t41.5 17t41.5 -17t15.5 -43zM256 650q0 -26 -15.5 -43t-41.5 -17t-41.5 17t-15.5 43t15.5 43t41.5 17t41.5 -17t15.5 -43z"/>
<glyph glyph-name="eth" horiz-adv-x="543" unicode="ð" d="M377 764l40 -49l-70 -58q78 -69 120 -170.5t42 -229.5q0 -136 -62 -203t-176 -67q-57 0 -101.5 17.5t-74.5 50.5t-46 80t-16 105q0 57 16 103t45.5 78t71.5 49t94 17q45 0 80.5 -14t48.5 -29q-17 51 -42.5 92.5t-58.5 73.5l-93 -76l-40 49l82 67q-27 17 -55.5 29 t-56.5 19l22 65q41 -11 77.5 -28t70.5 -39zM271 411q-74 0 -110 -46t-36 -125q0 -81 35 -128.5t111 -47.5t111 48.5t35 128.5q0 77 -35.5 123.5t-110.5 46.5z"/>
<glyph glyph-name="ntilde" horiz-adv-x="528" unicode="ñ" d="M476 0h-89v307q0 38 -7.5 63t-21.5 39.5t-33 20t-41 5.5q-40 0 -67 -17t-44 -45.5t-24.5 -64.5t-7.5 -74v-234h-89v500h82l4 -69q6 12 19 26.5t33.5 27t47.5 20.5t62 8q86 0 131 -50t45 -137v-326zM92 581q0 58 27 87.5t75 29.5q24 0 42.5 -8t34.5 -18t31.5 -18t32.5 -8 q24 0 34 13t10 36h64q0 -58 -27 -87.5t-75 -29.5q-24 0 -42.5 8.5t-34.5 18t-31 18t-32 8.5q-25 0 -35 -13.5t-10 -36.5h-64z"/>
<glyph glyph-name="ograve" horiz-adv-x="536" unicode="ò" d="M268 66q73 0 108 51t35 133q0 40 -9 73.5t-26.5 58t-44.5 38.5t-63 14q-71 0 -107 -51t-36 -133q0 -85 35 -134.5t108 -49.5zM268 -13q-56 0 -99.5 19t-73.5 53.5t-46 83t-16 107.5q0 58 16 106.5t46.5 83.5t74 54t98.5 19t98.5 -19t74 -53.5t46.5 -83t16 -107.5 q0 -60 -16 -108.5t-46 -83t-74 -53t-99 -18.5zM364 568l-223 102l39 79l216 -117z"/>
<glyph glyph-name="oacute" horiz-adv-x="536" unicode="ó" d="M268 66q73 0 108 51t35 133q0 40 -9 73.5t-26.5 58t-44.5 38.5t-63 14q-71 0 -107 -51t-36 -133q0 -85 35 -134.5t108 -49.5zM268 -13q-56 0 -99.5 19t-73.5 53.5t-46 83t-16 107.5q0 58 16 106.5t46.5 83.5t74 54t98.5 19t98.5 -19t74 -53.5t46.5 -83t16 -107.5 q0 -60 -16 -108.5t-46 -83t-74 -53t-99 -18.5zM141 632l216 117l39 -79l-223 -102z"/>
<glyph glyph-name="ocircumflex" horiz-adv-x="536" unicode="ô" d="M268 66q73 0 108 51t35 133q0 40 -9 73.5t-26.5 58t-44.5 38.5t-63 14q-71 0 -107 -51t-36 -133q0 -85 35 -134.5t108 -49.5zM268 -13q-56 0 -99.5 19t-73.5 53.5t-46 83t-16 107.5q0 58 16 106.5t46.5 83.5t74 54t98.5 19t98.5 -19t74 -53.5t46.5 -83t16 -107.5 q0 -60 -16 -108.5t-46 -83t-74 -53t-99 -18.5zM108 618l123 113h75l123 -113l-46 -44l-115 89l-114 -89z"/>
<glyph glyph-name="otilde" horiz-adv-x="536" unicode="õ" d="M268 66q73 0 108 51t35 133q0 40 -9 73.5t-26.5 58t-44.5 38.5t-63 14q-71 0 -107 -51t-36 -133q0 -85 35 -134.5t108 -49.5zM268 -13q-56 0 -99.5 19t-73.5 53.5t-46 83t-16 107.5q0 58 16 106.5t46.5 83.5t74 54t98.5 19t98.5 -19t74 -53.5t46.5 -83t16 -107.5 q0 -60 -16 -108.5t-46 -83t-74 -53t-99 -18.5zM96 581q0 58 27 87.5t75 29.5q24 0 42.5 -8t34.5 -18t31.5 -18t32.5 -8q24 0 34 13t10 36h64q0 -58 -27 -87.5t-75 -29.5q-24 0 -42.5 8.5t-34.5 18t-31 18t-32 8.5q-25 0 -35 -13.5t-10 -36.5h-64z"/>
<glyph glyph-name="odieresis" horiz-adv-x="536" unicode="ö" d="M268 66q73 0 108 51t35 133q0 40 -9 73.5t-26.5 58t-44.5 38.5t-63 14q-71 0 -107 -51t-36 -133q0 -85 35 -134.5t108 -49.5zM268 -13q-56 0 -99.5 19t-73.5 53.5t-46 83t-16 107.5q0 58 16 106.5t46.5 83.5t74 54t98.5 19t98.5 -19t74 -53.5t46.5 -83t16 -107.5 q0 -60 -16 -108.5t-46 -83t-74 -53t-99 -18.5zM229 650q0 -26 -15.5 -43t-41.5 -17t-41.5 17t-15.5 43t15.5 43t41.5 17t41.5 -17t15.5 -43zM422 650q0 -26 -15.5 -43t-41.5 -17t-41.5 17t-15.5 43t15.5 43t41.5 17t41.5 -17t15.5 -43z"/>
<glyph glyph-name="divide" horiz-adv-x="556" unicode="÷" d="M342 518q0 -29 -17.5 -48t-46.5 -19t-46.5 19t-17.5 48t17.5 48t46.5 19t46.5 -19t17.5 -48zM342 186q0 -29 -17.5 -48t-46.5 -19t-46.5 19t-17.5 48t17.5 48t46.5 19t46.5 -19t17.5 -48zM57 392h442v-80h-442v80z"/>
<glyph glyph-name="oslash" horiz-adv-x="536" unicode="ø" d="M124 250q0 -72 25 -118l194 282q-16 10 -34.5 15.5t-40.5 5.5q-35 0 -62 -13.5t-45 -38t-27.5 -58.5t-9.5 -75zM268 65q36 0 63 13.5t45 38t27 58.5t9 75q0 69 -26 116l-194 -281q31 -20 76 -20zM438 443q32 -35 48.5 -84t16.5 -109t-16 -108.5t-46 -83t-74 -53 t-99 -18.5q-36 0 -66.5 8t-56.5 22l-43 -63l-52 34l47 69q-31 35 -47.5 83.5t-16.5 109.5q0 58 16 106.5t46.5 83.5t74 54t98.5 19q69 0 122 -31l44 64l52 -34z"/>
<glyph glyph-name="ugrave" horiz-adv-x="528" unicode="ù" d="M52 500h89v-313q0 -36 7.5 -59.5t21 -37.5t32.5 -19.5t42 -5.5q40 0 67 17t44 45.5t24.5 64.5t7.5 74v234h89v-500h-82l-4 67q-6 -12 -19 -26t-33 -26t-47 -20t-62 -8q-86 0 -131.5 50t-45.5 137v326zM340 568l-223 102l39 79l216 -117z"/>
<glyph glyph-name="uacute" horiz-adv-x="528" unicode="ú" d="M52 500h89v-313q0 -36 7.5 -59.5t21 -37.5t32.5 -19.5t42 -5.5q40 0 67 17t44 45.5t24.5 64.5t7.5 74v234h89v-500h-82l-4 67q-6 -12 -19 -26t-33 -26t-47 -20t-62 -8q-86 0 -131.5 50t-45.5 137v326zM157 632l216 117l39 -79l-223 -102z"/>
<glyph glyph-name="ucircumflex" horiz-adv-x="528" unicode="û" d="M52 500h89v-313q0 -36 7.5 -59.5t21 -37.5t32.5 -19.5t42 -5.5q40 0 67 17t44 45.5t24.5 64.5t7.5 74v234h89v-500h-82l-4 67q-6 -12 -19 -26t-33 -26t-47 -20t-62 -8q-86 0 -131.5 50t-45.5 137v326zM104 618l123 113h75l123 -113l-46 -44l-115 89l-114 -89z"/>
<glyph glyph-name="udieresis" horiz-adv-x="528" unicode="ü" d="M52 500h89v-313q0 -36 7.5 -59.5t21 -37.5t32.5 -19.5t42 -5.5q40 0 67 17t44 45.5t24.5 64.5t7.5 74v234h89v-500h-82l-4 67q-6 -12 -19 -26t-33 -26t-47 -20t-62 -8q-86 0 -131.5 50t-45.5 137v326zM225 650q0 -26 -15.5 -43t-41.5 -17t-41.5 17t-15.5 43t15.5 43 t41.5 17t41.5 -17t15.5 -43zM418 650q0 -26 -15.5 -43t-41.5 -17t-41.5 17t-15.5 43t15.5 43t41.5 17t41.5 -17t15.5 -43z"/>
<glyph glyph-name="yacute" horiz-adv-x="494" unicode="ý" d="M96 -220l104 248l-194 472h100l142 -365l146 365h94l-301 -720h-91zM149 632l216 117l39 -79l-223 -102z"/>
<glyph glyph-name="thorn" horiz-adv-x="542" unicode="þ" d="M140 119q14 -16 48.5 -33t82.5 -17q67 0 106.5 44.5t39.5 142.5q0 38 -8 70.5t-25 56t-42.5 36.5t-60.5 13q-70 0 -105.5 -53.5t-35.5 -154.5v-105zM141 750v-310q8 12 21.5 25t32 23.5t43 17.5t54.5 7q55 0 96 -20t68 -55t40 -81.5t13 -100.5q0 -74 -20 -124 t-52.5 -81.5t-74 -45t-83.5 -13.5q-51 0 -84 11.5t-54 23.5v-247h-89v970h89z"/>
<glyph glyph-name="ydieresis" horiz-adv-x="494" unicode="ÿ" d="M96 -220l104 248l-194 472h100l142 -365l146 365h94l-301 -720h-91zM207 650q0 -26 -15.5 -43t-41.5 -17t-41.5 17t-15.5 43t15.5 43t41.5 17t41.5 -17t15.5 -43zM400 650q0 -26 -15.5 -43t-41.5 -17t-41.5 17t-15.5 43t15.5 43t41.5 17t41.5 -17t15.5 -43z"/>
<glyph glyph-name="Amacron" horiz-adv-x="574" unicode="Ā" d="M178 261h210l-104 325zM414 180h-262l-58 -180h-88l232 703h97l233 -703h-96zM130 793v77h314v-77h-314z"/>
<glyph glyph-name="amacron" horiz-adv-x="488" unicode="ā" d="M356 0l-4 56q-23 -32 -67 -50.5t-91 -18.5q-30 0 -60 8t-54 26t-39.5 48t-15.5 74q0 77 50 124t150 47q16 0 36 -1.5t38 -3t32 -3t19 -2.5v30q0 55 -32.5 79t-92.5 24q-54 0 -91.5 -12.5t-54.5 -22.5l-27 64q9 6 25 14t39.5 15.5t54 12.5t68.5 5q91 0 144 -44.5 t53 -129.5v-339h-80zM350 233q-1 0 -13 2t-30 3.5t-39 3t-39 1.5q-32 0 -54.5 -8t-36.5 -21.5t-20.5 -31.5t-6.5 -39q0 -43 28.5 -64t74.5 -21q25 0 49 8.5t43.5 24t31.5 38t12 49.5v55zM100 600v72h290v-72h-290z"/>
<glyph glyph-name="Abreve" horiz-adv-x="574" unicode="Ă" d="M178 261h210l-104 325zM414 180h-262l-58 -180h-88l232 703h97l233 -703h-96zM288 825q41 0 59.5 21t18.5 52h75q0 -27 -9.5 -52.5t-28 -45t-47.5 -31t-68 -11.5t-68 11.5t-48 31t-28.5 45t-9.5 52.5h76q0 -31 18.5 -52t59.5 -21z"/>
<glyph glyph-name="abreve" horiz-adv-x="488" unicode="ă" d="M356 0l-4 56q-23 -32 -67 -50.5t-91 -18.5q-30 0 -60 8t-54 26t-39.5 48t-15.5 74q0 77 50 124t150 47q16 0 36 -1.5t38 -3t32 -3t19 -2.5v30q0 55 -32.5 79t-92.5 24q-54 0 -91.5 -12.5t-54.5 -22.5l-27 64q9 6 25 14t39.5 15.5t54 12.5t68.5 5q91 0 144 -44.5 t53 -129.5v-339h-80zM350 233q-1 0 -13 2t-30 3.5t-39 3t-39 1.5q-32 0 -54.5 -8t-36.5 -21.5t-20.5 -31.5t-6.5 -39q0 -43 28.5 -64t74.5 -21q25 0 49 8.5t43.5 24t31.5 38t12 49.5v55zM245 638q38 0 56 20.5t18 49.5h72q0 -26 -9 -50.5t-27 -43t-45.5 -29.5t-64.5 -11 t-64.5 11t-46 29.5t-27.5 43t-9 50.5h73q0 -29 18 -49.5t56 -20.5z"/>
<glyph glyph-name="Aogonek" horiz-adv-x="574" unicode="Ą" d="M472 0l-58 180h-262l-58 -180h-88l232 703h97l233 -703q-66 -47 -66 -88q0 -21 12.5 -28t30.5 -7h13t12 1v-62q-5 -1 -14.5 -1.5t-17.5 -0.5q-64 0 -90.5 21.5t-26.5 60.5q0 27 17 52.5t51 51.5h-17zM178 261h210l-104 325z"/>
<glyph glyph-name="aogonek" horiz-adv-x="488" unicode="ą" d="M436 0q-63 -47 -63 -86q0 -20 12.5 -27t29.5 -7h11.5t13.5 1v-59q-7 -1 -15.5 -1.5t-16.5 -0.5q-63 0 -88 20.5t-25 58.5q0 52 67 101h-6l-4 56q-23 -32 -67 -50.5t-91 -18.5q-30 0 -60 8t-54 26t-39.5 48t-15.5 74q0 77 50 124t150 47q16 0 36 -1.5t38 -3t32 -3t19 -2.5 v30q0 55 -32.5 79t-92.5 24q-54 0 -91.5 -12.5t-54.5 -22.5l-27 64q9 6 25 14t39.5 15.5t54 12.5t68.5 5q91 0 144 -44.5t53 -129.5v-339zM350 233q-1 0 -13 2t-30 3.5t-39 3t-39 1.5q-32 0 -54.5 -8t-36.5 -21.5t-20.5 -31.5t-6.5 -39q0 -43 28.5 -64t74.5 -21q25 0 49 8.5 t43.5 24t31.5 38t12 49.5v55z"/>
<glyph glyph-name="Cacute" horiz-adv-x="585" unicode="Ć" d="M354 627q-107 0 -159 -73.5t-52 -202.5t51.5 -202t158.5 -73q30 0 56.5 5.5t48 13.5t38.5 18t28 18l48 -67q-31 -27 -88 -51t-135 -24q-76 0 -133 25t-95.5 71.5t-58 114t-19.5 151.5q0 81 19.5 148t58.5 114.5t97 74t136 26.5q71 0 124 -20.5t95 -55.5l-48 -67 q-13 10 -29 20t-37 18t-46.5 13t-58.5 5zM204 821l243 105l33 -81l-248 -89z"/>
<glyph glyph-name="cacute" horiz-adv-x="443" unicode="ć" d="M125 250q0 -95 40 -138.5t102 -43.5q47 0 79.5 12t43.5 18l35 -63q-2 -3 -15 -10.5t-34 -15.5t-49.5 -14.5t-62.5 -6.5q-110 0 -170.5 68.5t-60.5 193.5q0 58 16 106.5t46 83t73 53.5t97 19q36 0 65 -7.5t50 -16.5t33.5 -17.5t14.5 -11.5l-39 -64q-3 3 -13.5 9t-26.5 12 t-37 10.5t-45 4.5q-62 0 -102 -44.5t-40 -136.5zM133 632l216 117l39 -79l-223 -102z"/>
<glyph glyph-name="Ccircumflex" horiz-adv-x="585" unicode="Ĉ" d="M354 627q-107 0 -159 -73.5t-52 -202.5t51.5 -202t158.5 -73q30 0 56.5 5.5t48 13.5t38.5 18t28 18l48 -67q-31 -27 -88 -51t-135 -24q-76 0 -133 25t-95.5 71.5t-58 114t-19.5 151.5q0 81 19.5 148t58.5 114.5t97 74t136 26.5q71 0 124 -20.5t95 -55.5l-48 -67 q-13 10 -29 20t-37 18t-46.5 13t-58.5 5zM175 803l138 110h83l138 -110l-38 -47l-142 90l-141 -90z"/>
<glyph glyph-name="ccircumflex" horiz-adv-x="443" unicode="ĉ" d="M125 250q0 -95 40 -138.5t102 -43.5q47 0 79.5 12t43.5 18l35 -63q-2 -3 -15 -10.5t-34 -15.5t-49.5 -14.5t-62.5 -6.5q-110 0 -170.5 68.5t-60.5 193.5q0 58 16 106.5t46 83t73 53.5t97 19q36 0 65 -7.5t50 -16.5t33.5 -17.5t14.5 -11.5l-39 -64q-3 3 -13.5 9t-26.5 12 t-37 10.5t-45 4.5q-62 0 -102 -44.5t-40 -136.5zM95 618l123 113h75l123 -113l-46 -44l-115 89l-114 -89z"/>
<glyph glyph-name="Cdotaccent" horiz-adv-x="585" unicode="Ċ" d="M354 627q-107 0 -159 -73.5t-52 -202.5t51.5 -202t158.5 -73q30 0 56.5 5.5t48 13.5t38.5 18t28 18l48 -67q-31 -27 -88 -51t-135 -24q-76 0 -133 25t-95.5 71.5t-58 114t-19.5 151.5q0 81 19.5 148t58.5 114.5t97 74t136 26.5q71 0 124 -20.5t95 -55.5l-48 -67 q-13 10 -29 20t-37 18t-46.5 13t-58.5 5zM421 837q0 -29 -16.5 -47t-45.5 -18t-45.5 18.5t-16.5 46.5t16.5 46.5t45.5 18.5t45.5 -18t16.5 -47z"/>
<glyph glyph-name="cdotaccent" horiz-adv-x="443" unicode="ċ" d="M125 250q0 -95 40 -138.5t102 -43.5q47 0 79.5 12t43.5 18l35 -63q-2 -3 -15 -10.5t-34 -15.5t-49.5 -14.5t-62.5 -6.5q-110 0 -170.5 68.5t-60.5 193.5q0 58 16 106.5t46 83t73 53.5t97 19q36 0 65 -7.5t50 -16.5t33.5 -17.5t14.5 -11.5l-39 -64q-3 3 -13.5 9t-26.5 12 t-37 10.5t-45 4.5q-62 0 -102 -44.5t-40 -136.5zM320 650q0 -27 -15.5 -44.5t-42.5 -17.5t-42.5 18t-15.5 44t15.5 43.5t42.5 17.5t42.5 -17t15.5 -44z"/>
<glyph glyph-name="Ccaron" horiz-adv-x="585" unicode="Č" d="M354 627q-107 0 -159 -73.5t-52 -202.5t51.5 -202t158.5 -73q30 0 56.5 5.5t48 13.5t38.5 18t28 18l48 -67q-31 -27 -88 -51t-135 -24q-76 0 -133 25t-95.5 71.5t-58 114t-19.5 151.5q0 81 19.5 148t58.5 114.5t97 74t136 26.5q71 0 124 -20.5t95 -55.5l-48 -67 q-13 10 -29 20t-37 18t-46.5 13t-58.5 5zM533 866l-138 -110h-83l-138 110l38 47l142 -90l141 90z"/>
<glyph glyph-name="ccaron" horiz-adv-x="443" unicode="č" d="M125 250q0 -95 40 -138.5t102 -43.5q47 0 79.5 12t43.5 18l35 -63q-2 -3 -15 -10.5t-34 -15.5t-49.5 -14.5t-62.5 -6.5q-110 0 -170.5 68.5t-60.5 193.5q0 58 16 106.5t46 83t73 53.5t97 19q36 0 65 -7.5t50 -16.5t33.5 -17.5t14.5 -11.5l-39 -64q-3 3 -13.5 9t-26.5 12 t-37 10.5t-45 4.5q-62 0 -102 -44.5t-40 -136.5zM148 731l114 -89l115 89l46 -44l-123 -113h-75l-123 113z"/>
<glyph glyph-name="Dcaron" horiz-adv-x="661" unicode="Ď" d="M301 83q109 0 163 72t54 197t-54.5 196.5t-162.5 71.5h-142v-537h142zM301 703q77 0 136.5 -26t99.5 -72.5t60.5 -111t20.5 -142.5q0 -79 -20.5 -144t-60.5 -111t-99.5 -71t-136.5 -25h-234v703h234zM490 866l-138 -110h-83l-138 110l38 47l142 -90l141 90z"/>
<glyph glyph-name="dcaron" horiz-adv-x="603" unicode="ď" d="M408 0l-4 44q-21 -20 -56 -36t-94 -16q-42 0 -81.5 12.5t-70.5 42.5t-50 79.5t-19 123.5q0 54 13.5 102t40.5 84t68 56.5t95 20.5q35 0 61.5 -9t44.5 -21t29 -24t16 -19v310h89v-750h-82zM272 69q24 0 45.5 6t38 15t28.5 20t18 21v92q0 102 -36 155.5t-105 53.5 q-35 0 -60.5 -13.5t-42.5 -37.5t-25 -57.5t-8 -73.5q0 -49 10.5 -83.5t29.5 -56t46 -31.5t61 -10zM665 698q0 -29 -12.5 -62t-28 -62t-30.5 -51t-20 -29l-49 28q5 9 13.5 24.5t17 33.5t15.5 35.5t10 30.5q-14 7 -25.5 21.5t-11.5 34.5q0 26 17.5 43.5t44.5 17.5q25 0 42 -18 t17 -47z"/>
<glyph glyph-name="Dcroat" horiz-adv-x="661" unicode="Đ" d="M301 83q109 0 163 72t54 197t-54.5 196.5t-162.5 71.5h-142v-222h160v-79h-160v-236h142zM0 398h67v305h234q77 0 136.5 -26t99.5 -72.5t60.5 -111t20.5 -142.5q0 -79 -20.5 -144t-60.5 -111t-99.5 -71t-136.5 -25h-234v319h-67v79z"/>
<glyph glyph-name="dcroat" horiz-adv-x="578" unicode="đ" d="M290 69q49 0 82.5 19t47.5 38v109q0 102 -35.5 149.5t-105.5 47.5q-35 0 -60.5 -13.5t-42.5 -37.5t-25 -57.5t-8 -73.5q0 -49 10.5 -83.5t29.5 -56t46 -31.5t61 -10zM239 663h180v87h89v-87h60v-61h-60v-602h-82l-4 44q-21 -20 -56 -36t-94 -16q-42 0 -81.5 12.5 t-70.5 42.5t-50 79.5t-19 123.5q0 54 13.5 102t40.5 84t68 56.5t95 20.5q35 0 61.5 -9t44.5 -21t29 -24t16 -19v162h-180v61z"/>
<glyph glyph-name="Emacron" horiz-adv-x="511" unicode="Ē" d="M67 703h414v-83h-322v-213h252v-83h-252v-241h332v-83h-424v703zM117 793v77h314v-77h-314z"/>
<glyph glyph-name="emacron" horiz-adv-x="511" unicode="ē" d="M387 297q-5 67 -33.5 104t-91.5 37q-64 0 -95.5 -37.5t-41.5 -103.5h262zM448 23q-5 -3 -19 -9t-35 -12t-48.5 -10.5t-61.5 -4.5q-125 0 -188 70t-63 194q0 58 15 106.5t44 83t71.5 53.5t98.5 19q51 0 91 -15.5t68 -48.5t43 -84.5t15 -123.5v-16h-356q5 -71 45 -115 t123 -44q52 0 85.5 9t47.5 14zM118 600v72h290v-72h-290z"/>
<glyph glyph-name="Ebreve" horiz-adv-x="511" unicode="Ĕ" d="M67 703h414v-83h-322v-213h252v-83h-252v-241h332v-83h-424v703zM281 825q41 0 59.5 21t18.5 52h75q0 -27 -9.5 -52.5t-28 -45t-47.5 -31t-68 -11.5t-68 11.5t-48 31t-28.5 45t-9.5 52.5h76q0 -31 18.5 -52t59.5 -21z"/>
<glyph glyph-name="ebreve" horiz-adv-x="511" unicode="ĕ" d="M387 297q-5 67 -33.5 104t-91.5 37q-64 0 -95.5 -37.5t-41.5 -103.5h262zM448 23q-5 -3 -19 -9t-35 -12t-48.5 -10.5t-61.5 -4.5q-125 0 -188 70t-63 194q0 58 15 106.5t44 83t71.5 53.5t98.5 19q51 0 91 -15.5t68 -48.5t43 -84.5t15 -123.5v-16h-356q5 -71 45 -115 t123 -44q52 0 85.5 9t47.5 14zM262 638q38 0 56 20.5t18 49.5h72q0 -26 -9 -50.5t-27 -43t-45.5 -29.5t-64.5 -11t-64.5 11t-46 29.5t-27.5 43t-9 50.5h73q0 -29 18 -49.5t56 -20.5z"/>
<glyph glyph-name="Edotaccent" horiz-adv-x="511" unicode="Ė" d="M67 703h414v-83h-322v-213h252v-83h-252v-241h332v-83h-424v703zM345 837q0 -29 -16.5 -47t-45.5 -18t-45.5 18.5t-16.5 46.5t16.5 46.5t45.5 18.5t45.5 -18t16.5 -47z"/>
<glyph glyph-name="edotaccent" horiz-adv-x="511" unicode="ė" d="M387 297q-5 67 -33.5 104t-91.5 37q-64 0 -95.5 -37.5t-41.5 -103.5h262zM448 23q-5 -3 -19 -9t-35 -12t-48.5 -10.5t-61.5 -4.5q-125 0 -188 70t-63 194q0 58 15 106.5t44 83t71.5 53.5t98.5 19q51 0 91 -15.5t68 -48.5t43 -84.5t15 -123.5v-16h-356q5 -71 45 -115 t123 -44q52 0 85.5 9t47.5 14zM323 650q0 -27 -15.5 -44.5t-42.5 -17.5t-42.5 18t-15.5 44t15.5 43.5t42.5 17.5t42.5 -17t15.5 -44z"/>
<glyph glyph-name="Eogonek" horiz-adv-x="511" unicode="Ę" d="M67 703h414v-83h-322v-213h252v-83h-252v-241h332v-83q-66 -47 -66 -88q0 -21 12.5 -28t30.5 -7h13t12 1v-62q-5 -1 -14.5 -1.5t-17.5 -0.5q-64 0 -90.5 21.5t-26.5 60.5q0 27 17 52.5t51 51.5h-345v703z"/>
<glyph glyph-name="eogonek" horiz-adv-x="511" unicode="ę" d="M387 297q-5 67 -33.5 104t-91.5 37q-64 0 -95.5 -37.5t-41.5 -103.5h262zM284 -13q-125 0 -188 70t-63 194q0 58 15 106.5t44 83t71.5 53.5t98.5 19q51 0 91 -15.5t68 -48.5t43 -84.5t15 -123.5v-16h-356q5 -71 45 -115t123 -44q52 0 85.5 9t47.5 14l24 -66 q-6 -4 -21.5 -10.5t-39.5 -12.5q-62 -47 -62 -86q0 -20 12.5 -27t29.5 -7h11.5t13.5 1v-59q-7 -1 -15.5 -1.5t-16.5 -0.5q-63 0 -88 20.5t-25 58.5q0 47 50 88h-13z"/>
<glyph glyph-name="Ecaron" horiz-adv-x="511" unicode="Ě" d="M67 703h414v-83h-322v-213h252v-83h-252v-241h332v-83h-424v703zM452 866l-138 -110h-83l-138 110l38 47l142 -90l141 90z"/>
<glyph glyph-name="ecaron" horiz-adv-x="511" unicode="ě" d="M387 297q-5 67 -33.5 104t-91.5 37q-64 0 -95.5 -37.5t-41.5 -103.5h262zM448 23q-5 -3 -19 -9t-35 -12t-48.5 -10.5t-61.5 -4.5q-125 0 -188 70t-63 194q0 58 15 106.5t44 83t71.5 53.5t98.5 19q51 0 91 -15.5t68 -48.5t43 -84.5t15 -123.5v-16h-356q5 -71 45 -115 t123 -44q52 0 85.5 9t47.5 14zM148 731l114 -89l115 89l46 -44l-123 -113h-75l-123 113z"/>
<glyph glyph-name="Gcircumflex" horiz-adv-x="649" unicode="Ĝ" d="M506 293h-126v82h217v-348q-9 -5 -28.5 -12t-49 -14t-69 -12t-88.5 -5q-81 0 -140.5 25.5t-99.5 73.5t-59.5 116t-19.5 152q0 81 19.5 148.5t58.5 116.5t97 76t136 27q72 0 130 -20t100 -55l-48 -67q-26 20 -71 38t-111 18q-54 0 -93.5 -20t-65.5 -56.5t-39 -89 t-13 -116.5q0 -65 13 -117t40 -89t68.5 -57t99.5 -20q51 0 84.5 5.5t57.5 13.5v206zM175 803l138 110h83l138 -110l-38 -47l-142 90l-141 -90z"/>
<glyph glyph-name="gcircumflex" horiz-adv-x="543" unicode="ĝ" d="M244 -26q-37 1 -62 4t-32 5q-17 -12 -27 -30t-10 -41t12 -36.5t32.5 -21.5t46.5 -10.5t53 -2.5q38 0 70 4.5t55.5 14.5t36.5 25t13 35q0 9 -3 18.5t-12 16.5t-27 12t-48 5zM268 208q24 0 47 7t40.5 21.5t28.5 37t11 54.5t-11 54.5t-28.5 37t-40.5 21.5t-47 7t-47 -7 t-40.5 -21.5t-28.5 -37t-11 -54.5t11 -54.5t28.5 -37t40.5 -21.5t47 -7zM438 433q12 -10 21 -23.5t14 -28.5t7.5 -29.5t2.5 -26.5q0 -52 -19.5 -87t-50 -56t-69 -30t-76.5 -9q-25 0 -54 4.5t-52 13.5q-7 -5 -19 -18t-12 -33q0 -10 3.5 -19.5t14.5 -17t30.5 -12t52.5 -5.5 l105 -2q38 -1 72.5 -6t60.5 -19t41.5 -38.5t15.5 -63.5q0 -70 -72.5 -114.5t-206.5 -44.5q-39 0 -79 6t-72.5 21t-53.5 40.5t-21 64.5q0 35 19.5 62t46.5 49q-25 17 -33 39.5t-8 41.5q0 35 20 60t40 42q-26 23 -40.5 56t-14.5 78q0 51 19 86.5t50 57t69.5 31.5t77.5 10 q24 0 41 -2t31 -4.5t27 -4.5t28 -2h136v-67h-93zM125 618l123 113h75l123 -113l-46 -44l-115 89l-114 -89z"/>
<glyph glyph-name="Gbreve" horiz-adv-x="649" unicode="Ğ" d="M506 293h-126v82h217v-348q-9 -5 -28.5 -12t-49 -14t-69 -12t-88.5 -5q-81 0 -140.5 25.5t-99.5 73.5t-59.5 116t-19.5 152q0 81 19.5 148.5t58.5 116.5t97 76t136 27q72 0 130 -20t100 -55l-48 -67q-26 20 -71 38t-111 18q-54 0 -93.5 -20t-65.5 -56.5t-39 -89 t-13 -116.5q0 -65 13 -117t40 -89t68.5 -57t99.5 -20q51 0 84.5 5.5t57.5 13.5v206zM357 825q41 0 59.5 21t18.5 52h75q0 -27 -9.5 -52.5t-28 -45t-47.5 -31t-68 -11.5t-68 11.5t-48 31t-28.5 45t-9.5 52.5h76q0 -31 18.5 -52t59.5 -21z"/>
<glyph glyph-name="gbreve" horiz-adv-x="543" unicode="ğ" d="M244 -26q-37 1 -62 4t-32 5q-17 -12 -27 -30t-10 -41t12 -36.5t32.5 -21.5t46.5 -10.5t53 -2.5q38 0 70 4.5t55.5 14.5t36.5 25t13 35q0 9 -3 18.5t-12 16.5t-27 12t-48 5zM268 208q24 0 47 7t40.5 21.5t28.5 37t11 54.5t-11 54.5t-28.5 37t-40.5 21.5t-47 7t-47 -7 t-40.5 -21.5t-28.5 -37t-11 -54.5t11 -54.5t28.5 -37t40.5 -21.5t47 -7zM438 433q12 -10 21 -23.5t14 -28.5t7.5 -29.5t2.5 -26.5q0 -52 -19.5 -87t-50 -56t-69 -30t-76.5 -9q-25 0 -54 4.5t-52 13.5q-7 -5 -19 -18t-12 -33q0 -10 3.5 -19.5t14.5 -17t30.5 -12t52.5 -5.5 l105 -2q38 -1 72.5 -6t60.5 -19t41.5 -38.5t15.5 -63.5q0 -70 -72.5 -114.5t-206.5 -44.5q-39 0 -79 6t-72.5 21t-53.5 40.5t-21 64.5q0 35 19.5 62t46.5 49q-25 17 -33 39.5t-8 41.5q0 35 20 60t40 42q-26 23 -40.5 56t-14.5 78q0 51 19 86.5t50 57t69.5 31.5t77.5 10 q24 0 41 -2t31 -4.5t27 -4.5t28 -2h136v-67h-93zM276 638q38 0 56 20.5t18 49.5h72q0 -26 -9 -50.5t-27 -43t-45.5 -29.5t-64.5 -11t-64.5 11t-46 29.5t-27.5 43t-9 50.5h73q0 -29 18 -49.5t56 -20.5z"/>
<glyph glyph-name="Gdotaccent" horiz-adv-x="649" unicode="Ġ" d="M506 293h-126v82h217v-348q-9 -5 -28.5 -12t-49 -14t-69 -12t-88.5 -5q-81 0 -140.5 25.5t-99.5 73.5t-59.5 116t-19.5 152q0 81 19.5 148.5t58.5 116.5t97 76t136 27q72 0 130 -20t100 -55l-48 -67q-26 20 -71 38t-111 18q-54 0 -93.5 -20t-65.5 -56.5t-39 -89 t-13 -116.5q0 -65 13 -117t40 -89t68.5 -57t99.5 -20q51 0 84.5 5.5t57.5 13.5v206zM421 837q0 -29 -16.5 -47t-45.5 -18t-45.5 18.5t-16.5 46.5t16.5 46.5t45.5 18.5t45.5 -18t16.5 -47z"/>
<glyph glyph-name="gdotaccent" horiz-adv-x="543" unicode="ġ" d="M244 -26q-37 1 -62 4t-32 5q-17 -12 -27 -30t-10 -41t12 -36.5t32.5 -21.5t46.5 -10.5t53 -2.5q38 0 70 4.5t55.5 14.5t36.5 25t13 35q0 9 -3 18.5t-12 16.5t-27 12t-48 5zM268 208q24 0 47 7t40.5 21.5t28.5 37t11 54.5t-11 54.5t-28.5 37t-40.5 21.5t-47 7t-47 -7 t-40.5 -21.5t-28.5 -37t-11 -54.5t11 -54.5t28.5 -37t40.5 -21.5t47 -7zM438 433q12 -10 21 -23.5t14 -28.5t7.5 -29.5t2.5 -26.5q0 -52 -19.5 -87t-50 -56t-69 -30t-76.5 -9q-25 0 -54 4.5t-52 13.5q-7 -5 -19 -18t-12 -33q0 -10 3.5 -19.5t14.5 -17t30.5 -12t52.5 -5.5 l105 -2q38 -1 72.5 -6t60.5 -19t41.5 -38.5t15.5 -63.5q0 -70 -72.5 -114.5t-206.5 -44.5q-39 0 -79 6t-72.5 21t-53.5 40.5t-21 64.5q0 35 19.5 62t46.5 49q-25 17 -33 39.5t-8 41.5q0 35 20 60t40 42q-26 23 -40.5 56t-14.5 78q0 51 19 86.5t50 57t69.5 31.5t77.5 10 q24 0 41 -2t31 -4.5t27 -4.5t28 -2h136v-67h-93zM338 650q0 -27 -15.5 -44.5t-42.5 -17.5t-42.5 18t-15.5 44t15.5 43.5t42.5 17.5t42.5 -17t15.5 -44z"/>
<glyph glyph-name="Gcommaaccent" horiz-adv-x="649" unicode="Ģ" d="M506 293h-126v82h217v-348q-9 -5 -28.5 -12t-49 -14t-69 -12t-88.5 -5q-81 0 -140.5 25.5t-99.5 73.5t-59.5 116t-19.5 152q0 81 19.5 148.5t58.5 116.5t97 76t136 27q72 0 130 -20t100 -55l-48 -67q-26 20 -71 38t-111 18q-54 0 -93.5 -20t-65.5 -56.5t-39 -89 t-13 -116.5q0 -65 13 -117t40 -89t68.5 -57t99.5 -20q51 0 84.5 5.5t57.5 13.5v206zM425 -105q0 -25 -10 -49.5t-22.5 -45t-24.5 -34t-15 -16.5l-41 27q2 3 7.5 11t11.5 18.5t11 21.5t7 20q-14 6 -26 20.5t-12 31.5q0 24 15.5 39t41.5 15q23 0 40 -15.5t17 -43.5z"/>
<glyph glyph-name="gcommaaccent" horiz-adv-x="543" unicode="ģ" d="M244 -26q-37 1 -62 4t-32 5q-17 -12 -27 -30t-10 -41t12 -36.5t32.5 -21.5t46.5 -10.5t53 -2.5q38 0 70 4.5t55.5 14.5t36.5 25t13 35q0 9 -3 18.5t-12 16.5t-27 12t-48 5zM268 208q24 0 47 7t40.5 21.5t28.5 37t11 54.5t-11 54.5t-28.5 37t-40.5 21.5t-47 7t-47 -7 t-40.5 -21.5t-28.5 -37t-11 -54.5t11 -54.5t28.5 -37t40.5 -21.5t47 -7zM438 433q12 -10 21 -23.5t14 -28.5t7.5 -29.5t2.5 -26.5q0 -52 -19.5 -87t-50 -56t-69 -30t-76.5 -9q-25 0 -54 4.5t-52 13.5q-7 -5 -19 -18t-12 -33q0 -10 3.5 -19.5t14.5 -17t30.5 -12t52.5 -5.5 l105 -2q38 -1 72.5 -6t60.5 -19t41.5 -38.5t15.5 -63.5q0 -70 -72.5 -114.5t-206.5 -44.5q-39 0 -79 6t-72.5 21t-53.5 40.5t-21 64.5q0 35 19.5 62t46.5 49q-25 17 -33 39.5t-8 41.5q0 35 20 60t40 42q-26 23 -40.5 56t-14.5 78q0 51 19 86.5t50 57t69.5 31.5t77.5 10 q24 0 41 -2t31 -4.5t27 -4.5t28 -2h136v-67h-93zM239 633q0 25 9.5 49.5t21.5 44.5t23 34t14 17l40 -26q-2 -3 -7 -11t-11 -18.5t-11 -22t-7 -20.5q13 -6 24.5 -20.5t11.5 -31.5q0 -24 -15 -39t-39 -15q-23 0 -38.5 15.5t-15.5 43.5z"/>
<glyph glyph-name="Hcircumflex" horiz-adv-x="642" unicode="Ĥ" d="M483 703h92v-703h-92v334h-324v-334h-92v703h92v-286h324v286zM142 803l138 110h83l138 -110l-38 -47l-142 90l-141 -90z"/>
<glyph glyph-name="hcircumflex" horiz-adv-x="528" unicode="ĥ" d="M476 0h-89v307q0 38 -7.5 63t-21.5 39.5t-33 20t-41 5.5q-38 0 -65.5 -16.5t-44.5 -43.5t-25 -62t-8 -72v-241h-89v750h89v-314q7 12 20.5 25.5t33 25t46 19t59.5 7.5q86 0 131 -50t45 -137v-326zM52 823l123 90h83l123 -90l-33 -47l-132 70l-131 -70z"/>
<glyph glyph-name="Hbar" horiz-adv-x="642" unicode="Ħ" d="M483 515h-324v-98h324v98zM575 515v-515h-92v334h-324v-334h-92v515h-62v74h62v114h92v-114h324v114h92v-114h62v-74h-62z"/>
<glyph glyph-name="hbar" horiz-adv-x="528" unicode="ħ" d="M141 436q7 12 20.5 25.5t33 25t46 19t59.5 7.5q86 0 131 -50t45 -137v-326h-89v307q0 38 -7.5 63t-21.5 39.5t-33 20t-41 5.5q-38 0 -65.5 -16.5t-44.5 -43.5t-25 -62t-8 -72v-241h-89v598h-52v69h52v83h89v-83h180v-69h-180v-162z"/>
<glyph glyph-name="Itilde" horiz-adv-x="226" unicode="Ĩ" d="M159 0h-92v703h92v-703zM-71 775q0 58 28 88t77 30q25 0 43.5 -8.5t34.5 -18t31 -18t33 -8.5q26 0 36 14t10 37h66q0 -60 -28 -89t-77 -29q-25 0 -43.5 8.5t-34.5 18t-31 18t-33 8.5q-26 0 -36 -14t-10 -37h-66z"/>
<glyph glyph-name="itilde" horiz-adv-x="203" unicode="ĩ" d="M57 500h89v-500h-89v500zM-70 581q0 58 27 87.5t75 29.5q24 0 42.5 -8t34.5 -18t31.5 -18t32.5 -8q24 0 34 13t10 36h64q0 -58 -27 -87.5t-75 -29.5q-24 0 -42.5 8.5t-34.5 18t-31 18t-32 8.5q-25 0 -35 -13.5t-10 -36.5h-64z"/>
<glyph glyph-name="Imacron" horiz-adv-x="226" unicode="Ī" d="M159 0h-92v703h92v-703zM-43 793v77h314v-77h-314z"/>
<glyph glyph-name="imacron" horiz-adv-x="203" unicode="ī" d="M57 500h89v-500h-89v500zM-42 600v72h290v-72h-290z"/>
<glyph glyph-name="Ibreve" horiz-adv-x="226" unicode="Ĭ" d="M159 0h-92v703h92v-703zM115 825q41 0 59.5 21t18.5 52h75q0 -27 -9.5 -52.5t-28 -45t-47.5 -31t-68 -11.5t-68 11.5t-48 31t-28.5 45t-9.5 52.5h76q0 -31 18.5 -52t59.5 -21z"/>
<glyph glyph-name="ibreve" horiz-adv-x="203" unicode="ĭ" d="M57 500h89v-500h-89v500zM103 638q38 0 56 20.5t18 49.5h72q0 -26 -9 -50.5t-27 -43t-45.5 -29.5t-64.5 -11t-64.5 11t-46 29.5t-27.5 43t-9 50.5h73q0 -29 18 -49.5t56 -20.5z"/>
<glyph glyph-name="Iogonek" horiz-adv-x="226" unicode="Į" d="M161 -184q-5 -1 -14.5 -1.5t-17.5 -0.5q-64 0 -90.5 21.5t-26.5 60.5q0 27 17 52.5t51 51.5h-13v703h92v-703q-66 -47 -66 -88q0 -21 12.5 -28t30.5 -7h13t12 1v-62z"/>
<glyph glyph-name="iogonek" horiz-adv-x="203" unicode="į" d="M159 662q0 -27 -15.5 -44t-42.5 -17t-42.5 17.5t-15.5 43.5t15.5 43.5t42.5 17.5t42.5 -17t15.5 -44zM57 500h89v-500q-63 -47 -63 -86q0 -20 12.5 -27t29.5 -7h11.5t13.5 1v-59q-7 -1 -15.5 -1.5t-16.5 -0.5q-63 0 -88 20.5t-25 58.5q0 52 67 101h-15v500z"/>
<glyph glyph-name="Idotaccent" horiz-adv-x="226" unicode="İ" d="M159 0h-92v703h92v-703zM176 837q0 -29 -16.5 -47t-45.5 -18t-45.5 18.5t-16.5 46.5t16.5 46.5t45.5 18.5t45.5 -18t16.5 -47z"/>
<glyph glyph-name="dotlessi" horiz-adv-x="203" unicode="ı" d="M57 500h89v-500h-89v500z"/>
<glyph glyph-name="IJ" horiz-adv-x="670" unicode="Ĳ" d="M159 0h-92v703h92v-703zM521 703h92v-508q0 -60 -16.5 -100t-44.5 -65t-65 -35.5t-79 -10.5q-41 0 -73.5 7.5t-55.5 16.5t-36 17t-15 10l32 67q3 -2 14.5 -8.5t29.5 -13t42 -11.5t52 -5q25 0 47.5 5.5t39.5 20t26.5 40t9.5 66.5v507z"/>
<glyph glyph-name="ij" horiz-adv-x="406" unicode="ĳ" d="M159 662q0 -27 -15.5 -44t-42.5 -17t-42.5 17.5t-15.5 43.5t15.5 43.5t42.5 17.5t42.5 -17t15.5 -44zM57 500h89v-500h-89v500zM362 662q0 -27 -15.5 -44t-42.5 -17t-42.5 17.5t-15.5 43.5t15.5 43.5t42.5 17.5t42.5 -17t15.5 -44zM260 500h89v-528q0 -106 -45.5 -155 t-139.5 -49q-37 0 -79 12l9 69q19 -5 35 -6.5t30 -1.5q30 0 49.5 8t31 26t16 46t4.5 69v510z"/>
<glyph glyph-name="Jcircumflex" horiz-adv-x="449" unicode="Ĵ" d="M295 703h92v-508q0 -60 -16.5 -100t-44.5 -65t-65 -35.5t-79 -10.5q-41 0 -73.5 7.5t-55.5 16.5t-36 17t-15 10l32 67q3 -2 14.5 -8.5t29.5 -13t42 -11.5t52 -5q25 0 47.5 5.5t39.5 20t26.5 40t9.5 66.5v507zM162 803l138 110h83l138 -110l-38 -47l-142 90l-141 -90z"/>
<glyph glyph-name="jcircumflex" horiz-adv-x="203" unicode="ĵ" d="M57 500h89v-528q0 -106 -45.5 -155t-139.5 -49q-37 0 -79 12l9 69q19 -5 35 -6.5t30 -1.5q30 0 49.5 8t31 26t16 46t4.5 69v510zM-58 618l123 113h75l123 -113l-46 -44l-115 89l-114 -89z"/>
<glyph glyph-name="Kcommaaccent" horiz-adv-x="570" unicode="Ķ" d="M571 0h-118l-294 368v-368h-92v703h92v-325l282 325h105l-281 -324zM364 -105q0 -25 -10 -49.5t-22.5 -45t-24.5 -34t-15 -16.5l-41 27q2 3 7.5 11t11.5 18.5t11 21.5t7 20q-14 6 -26 20.5t-12 31.5q0 24 15.5 39t41.5 15q23 0 40 -15.5t17 -43.5z"/>
<glyph glyph-name="kcommaaccent" horiz-adv-x="492" unicode="ķ" d="M141 0h-89v750h89v-474l217 224h105l-218 -224l247 -276h-116l-235 266v-266zM311 -105q0 -25 -9.5 -49.5t-22 -45t-23.5 -34t-14 -16.5l-41 27q2 3 7 11t11 18.5t11.5 21.5t7.5 20q-14 6 -25.5 20.5t-11.5 31.5q0 24 15 39t40 15q23 0 39 -15.5t16 -43.5z"/>
<glyph glyph-name="kgreenlandic" horiz-adv-x="493" unicode="ĸ" d="M249 263l244 -263h-121l-231 250v-250h-89v500h89v-240l227 240h105z"/>
<glyph glyph-name="Lacute" horiz-adv-x="481" unicode="Ĺ" d="M159 83h307v-83h-399v703h92v-620zM13 821l243 105l33 -81l-248 -89z"/>
<glyph glyph-name="lacute" horiz-adv-x="203" unicode="ĺ" d="M57 750h89v-750h-89v750zM-15 837l231 81l24 -80l-236 -63z"/>
<glyph glyph-name="Lcommaaccent" horiz-adv-x="481" unicode="Ļ" d="M159 83h307v-83h-399v703h92v-620zM338 -105q0 -25 -10 -49.5t-22.5 -45t-24.5 -34t-15 -16.5l-41 27q2 3 7.5 11t11.5 18.5t11 21.5t7 20q-14 6 -26 20.5t-12 31.5q0 24 15.5 39t41.5 15q23 0 40 -15.5t17 -43.5z"/>
<glyph glyph-name="lcommaaccent" horiz-adv-x="203" unicode="ļ" d="M57 750h89v-750h-89v750zM157 -105q0 -25 -9.5 -49.5t-22 -45t-23.5 -34t-14 -16.5l-41 27q2 3 7 11t11 18.5t11.5 21.5t7.5 20q-14 6 -25.5 20.5t-11.5 31.5q0 24 15 39t40 15q23 0 39 -15.5t16 -43.5z"/>
<glyph glyph-name="Lcaron" horiz-adv-x="481" unicode="Ľ" d="M159 83h307v-83h-399v703h92v-620zM395 652q0 -29 -12.5 -62t-28 -62t-30.5 -51t-20 -29l-49 28q5 9 13.5 24.5t17 33.5t15.5 35.5t10 30.5q-14 7 -25.5 21.5t-11.5 34.5q0 26 17.5 43.5t44.5 17.5q25 0 42 -18t17 -47z"/>
<glyph glyph-name="lcaron" horiz-adv-x="259" unicode="ľ" d="M57 750h89v-750h-89v750zM321 698q0 -29 -12.5 -62t-28 -62t-30.5 -51t-20 -29l-49 28q5 9 13.5 24.5t17 33.5t15.5 35.5t10 30.5q-14 7 -25.5 21.5t-11.5 34.5q0 26 17.5 43.5t44.5 17.5q25 0 42 -18t17 -47z"/>
<glyph glyph-name="Ldot" horiz-adv-x="481" unicode="Ŀ" d="M159 83h307v-83h-399v703h92v-620zM413 424q0 -29 -17.5 -48t-46.5 -19t-46.5 19t-17.5 48t17.5 48t46.5 19t46.5 -19t17.5 -48z"/>
<glyph glyph-name="ldot" horiz-adv-x="321" unicode="ŀ" d="M57 750h89v-750h-89v750zM326 424q0 -29 -17.5 -48t-46.5 -19t-46.5 19t-17.5 48t17.5 48t46.5 19t46.5 -19t17.5 -48z"/>
<glyph glyph-name="Lslash" horiz-adv-x="481" unicode="Ł" d="M159 334v-251h307v-83h-399v285l-67 -35v86l67 35v332h92v-283l190 100v-86z"/>
<glyph glyph-name="lslash" horiz-adv-x="219" unicode="ł" d="M154 389v-389h-89v319l-65 -53v87l65 53v344h89v-274l65 54v-87z"/>
<glyph glyph-name="Nacute" horiz-adv-x="646" unicode="Ń" d="M489 703h90v-703h-90l-332 545v-545h-90v703h96l326 -536v536zM204 821l243 105l33 -81l-248 -89z"/>
<glyph glyph-name="nacute" horiz-adv-x="528" unicode="ń" d="M476 0h-89v307q0 38 -7.5 63t-21.5 39.5t-33 20t-41 5.5q-40 0 -67 -17t-44 -45.5t-24.5 -64.5t-7.5 -74v-234h-89v500h82l4 -69q6 12 19 26.5t33.5 27t47.5 20.5t62 8q86 0 131 -50t45 -137v-326zM157 632l216 117l39 -79l-223 -102z"/>
<glyph glyph-name="Ncommaaccent" horiz-adv-x="646" unicode="Ņ" d="M489 703h90v-703h-90l-332 545v-545h-90v703h96l326 -536v536zM386 -105q0 -25 -10 -49.5t-22.5 -45t-24.5 -34t-15 -16.5l-41 27q2 3 7.5 11t11.5 18.5t11 21.5t7 20q-14 6 -26 20.5t-12 31.5q0 24 15.5 39t41.5 15q23 0 40 -15.5t17 -43.5z"/>
<glyph glyph-name="ncommaaccent" horiz-adv-x="528" unicode="ņ" d="M476 0h-89v307q0 38 -7.5 63t-21.5 39.5t-33 20t-41 5.5q-40 0 -67 -17t-44 -45.5t-24.5 -64.5t-7.5 -74v-234h-89v500h82l4 -69q6 12 19 26.5t33.5 27t47.5 20.5t62 8q86 0 131 -50t45 -137v-326zM325 -105q0 -25 -9.5 -49.5t-22 -45t-23.5 -34t-14 -16.5l-41 27 q2 3 7 11t11 18.5t11.5 21.5t7.5 20q-14 6 -25.5 20.5t-11.5 31.5q0 24 15 39t40 15q23 0 39 -15.5t16 -43.5z"/>
<glyph glyph-name="Ncaron" horiz-adv-x="646" unicode="Ň" d="M489 703h90v-703h-90l-332 545v-545h-90v703h96l326 -536v536zM502 866l-138 -110h-83l-138 110l38 47l142 -90l141 90z"/>
<glyph glyph-name="ncaron" horiz-adv-x="528" unicode="ň" d="M476 0h-89v307q0 38 -7.5 63t-21.5 39.5t-33 20t-41 5.5q-40 0 -67 -17t-44 -45.5t-24.5 -64.5t-7.5 -74v-234h-89v500h82l4 -69q6 12 19 26.5t33.5 27t47.5 20.5t62 8q86 0 131 -50t45 -137v-326zM150 731l114 -89l115 89l46 -44l-123 -113h-75l-123 113z"/>
<glyph glyph-name="napostrophe" horiz-adv-x="581" unicode="ŉ" d="M529 0h-89v307q0 38 -7.5 63t-21.5 39.5t-33 20t-41 5.5q-40 0 -67 -17t-44 -45.5t-24.5 -64.5t-7.5 -74v-234h-89v500h82l4 -69q6 12 19 26.5t33.5 27t47.5 20.5t62 8q86 0 131 -50t45 -137v-326zM139 698q0 -30 -14 -64t-32 -64t-34.5 -52t-21.5 -28l-46 32q6 8 15 23 t19 33t18 36.5t12 32.5q-14 8 -23.5 21.5t-9.5 33.5q0 28 16 44.5t43 16.5q25 0 41.5 -17.5t16.5 -47.5z"/>
<glyph glyph-name="Eng" horiz-adv-x="649" unicode="Ŋ" d="M501 373q0 72 -12 121t-34 79.5t-51.5 43.5t-65.5 13q-43 0 -76 -20.5t-56 -55.5t-35 -83t-12 -103v-368h-92v703h85l4 -87q8 15 23.5 32.5t39.5 33.5t55.5 26.5t70.5 10.5q53 0 99 -20t80 -62.5t53.5 -108t19.5 -155.5q0 -111 -17.5 -185t-48.5 -119t-72 -63.5 t-87 -18.5q-38 0 -80 12l11 77q19 -5 34.5 -6.5t29.5 -1.5q30 0 54.5 16t42.5 52.5t27.5 94.5t9.5 142z"/>
<glyph glyph-name="eng" horiz-adv-x="528" unicode="ŋ" d="M476 -28q0 -106 -45.5 -155t-139.5 -49q-37 0 -79 12l9 69q19 -5 35 -6.5t30 -1.5q30 0 49.5 8t31 26t16 46t4.5 69v317q0 38 -7.5 63t-21.5 39.5t-33 20t-41 5.5q-40 0 -67 -17t-44 -45.5t-24.5 -64.5t-7.5 -74v-234h-89v500h82l4 -69q6 12 19 26.5t33.5 27t47.5 20.5 t62 8q86 0 131 -50t45 -137v-354z"/>
<glyph glyph-name="Omacron" horiz-adv-x="708" unicode="Ō" d="M354 68q54 0 94 20t66 57t38.5 89t12.5 117q0 64 -13 116.5t-39 89t-65.5 56.5t-93.5 20t-93.5 -20t-65.5 -56.5t-39 -89t-13 -116.5q0 -65 12.5 -117t39 -89t66 -57t93.5 -20zM354 -16q-78 0 -136 26.5t-97 75t-58.5 116t-19.5 149.5q0 81 19.5 148.5t58.5 116.5t97 76 t136 27q77 0 135.5 -27t97.5 -76t58.5 -116.5t19.5 -148.5q0 -82 -19.5 -149.5t-58.5 -116t-97.5 -75t-135.5 -26.5zM197 793v77h314v-77h-314z"/>
<glyph glyph-name="omacron" horiz-adv-x="536" unicode="ō" d="M268 66q73 0 108 51t35 133q0 40 -9 73.5t-26.5 58t-44.5 38.5t-63 14q-71 0 -107 -51t-36 -133q0 -85 35 -134.5t108 -49.5zM268 -13q-56 0 -99.5 19t-73.5 53.5t-46 83t-16 107.5q0 58 16 106.5t46.5 83.5t74 54t98.5 19t98.5 -19t74 -53.5t46.5 -83t16 -107.5 q0 -60 -16 -108.5t-46 -83t-74 -53t-99 -18.5zM123 600v72h290v-72h-290z"/>
<glyph glyph-name="Obreve" horiz-adv-x="708" unicode="Ŏ" d="M354 68q54 0 94 20t66 57t38.5 89t12.5 117q0 64 -13 116.5t-39 89t-65.5 56.5t-93.5 20t-93.5 -20t-65.5 -56.5t-39 -89t-13 -116.5q0 -65 12.5 -117t39 -89t66 -57t93.5 -20zM354 -16q-78 0 -136 26.5t-97 75t-58.5 116t-19.5 149.5q0 81 19.5 148.5t58.5 116.5t97 76 t136 27q77 0 135.5 -27t97.5 -76t58.5 -116.5t19.5 -148.5q0 -82 -19.5 -149.5t-58.5 -116t-97.5 -75t-135.5 -26.5zM355 825q41 0 59.5 21t18.5 52h75q0 -27 -9.5 -52.5t-28 -45t-47.5 -31t-68 -11.5t-68 11.5t-48 31t-28.5 45t-9.5 52.5h76q0 -31 18.5 -52t59.5 -21z"/>
<glyph glyph-name="obreve" horiz-adv-x="536" unicode="ŏ" d="M268 66q73 0 108 51t35 133q0 40 -9 73.5t-26.5 58t-44.5 38.5t-63 14q-71 0 -107 -51t-36 -133q0 -85 35 -134.5t108 -49.5zM268 -13q-56 0 -99.5 19t-73.5 53.5t-46 83t-16 107.5q0 58 16 106.5t46.5 83.5t74 54t98.5 19t98.5 -19t74 -53.5t46.5 -83t16 -107.5 q0 -60 -16 -108.5t-46 -83t-74 -53t-99 -18.5zM269 638q38 0 56 20.5t18 49.5h72q0 -26 -9 -50.5t-27 -43t-45.5 -29.5t-64.5 -11t-64.5 11t-46 29.5t-27.5 43t-9 50.5h73q0 -29 18 -49.5t56 -20.5z"/>
<glyph glyph-name="Ohungarumlaut" horiz-adv-x="708" unicode="Ő" d="M354 68q54 0 94 20t66 57t38.5 89t12.5 117q0 64 -13 116.5t-39 89t-65.5 56.5t-93.5 20t-93.5 -20t-65.5 -56.5t-39 -89t-13 -116.5q0 -65 12.5 -117t39 -89t66 -57t93.5 -20zM354 -16q-78 0 -136 26.5t-97 75t-58.5 116t-19.5 149.5q0 81 19.5 148.5t58.5 116.5t97 76 t136 27q77 0 135.5 -27t97.5 -76t58.5 -116.5t19.5 -148.5q0 -82 -19.5 -149.5t-58.5 -116t-97.5 -75t-135.5 -26.5zM206 803l154 144l55 -60l-167 -131zM405 803l154 144l55 -60l-167 -131z"/>
<glyph glyph-name="ohungarumlaut" horiz-adv-x="536" unicode="ő" d="M268 66q73 0 108 51t35 133q0 40 -9 73.5t-26.5 58t-44.5 38.5t-63 14q-71 0 -107 -51t-36 -133q0 -85 35 -134.5t108 -49.5zM268 -13q-56 0 -99.5 19t-73.5 53.5t-46 83t-16 107.5q0 58 16 106.5t46.5 83.5t74 54t98.5 19t98.5 -19t74 -53.5t46.5 -83t16 -107.5 q0 -60 -16 -108.5t-46 -83t-74 -53t-99 -18.5zM122 614l148 138l54 -59l-161 -125zM311 614l148 138l54 -59l-161 -125z"/>
<glyph glyph-name="OE" horiz-adv-x="875" unicode="Œ" d="M143 351q0 -130 51 -199t160 -69h87v537h-87q-108 0 -159.5 -69.5t-51.5 -199.5zM354 0q-78 0 -136 24t-97 69.5t-58.5 110.5t-19.5 147q0 81 19.5 146t58.5 111t97 70.5t136 24.5h491v-83h-312v-213h242v-83h-242v-241h322v-83h-501z"/>
<glyph glyph-name="oe" horiz-adv-x="884" unicode="œ" d="M760 297q-5 67 -33.5 104t-91.5 37q-64 0 -95.5 -37.5t-41.5 -103.5h262zM657 -13q-71 0 -122 23.5t-82 74.5q-31 -47 -78.5 -72.5t-111.5 -25.5q-54 0 -96.5 19t-72 53.5t-45.5 83t-16 107.5q0 58 16 106.5t46 83.5t72.5 54t95.5 19q63 0 114 -27t76 -71q28 46 72.5 72 t109.5 26q51 0 91 -15.5t68 -48.5t43 -84.5t15 -123.5v-16h-356q5 -71 45 -115t123 -44q52 0 85.5 9t47.5 14l24 -66q-5 -3 -19 -9t-35 -12t-48.5 -10.5t-61.5 -4.5zM268 66q73 0 108 51t35 133q0 40 -9 73.5t-26.5 58t-44.5 38.5t-63 14q-71 0 -107 -51t-36 -133 q0 -83 35 -133.5t108 -50.5z"/>
<glyph glyph-name="Racute" horiz-adv-x="554" unicode="Ŕ" d="M405 493q0 60 -35.5 95t-101.5 35h-111v-260h104q72 0 108 34.5t36 95.5zM536 0h-108l-167 283h-104v-283h-90v703h203q65 0 108.5 -20.5t70 -52t37.5 -68t11 -69.5q0 -74 -37.5 -123t-103.5 -72zM158 821l243 105l33 -81l-248 -89z"/>
<glyph glyph-name="racute" horiz-adv-x="352" unicode="ŕ" d="M344 424q-5 2 -19.5 4t-29.5 2q-71 0 -112.5 -59t-41.5 -162v-209h-89v500h82l4 -85q9 17 23.5 33.5t34.5 29t45.5 20.5t56.5 8q14 0 32.5 -2.5t21.5 -3.5zM87 632l216 117l39 -79l-223 -102z"/>
<glyph glyph-name="Rcommaaccent" horiz-adv-x="554" unicode="Ŗ" d="M405 493q0 60 -35.5 95t-101.5 35h-111v-260h104q72 0 108 34.5t36 95.5zM536 0h-108l-167 283h-104v-283h-90v703h203q65 0 108.5 -20.5t70 -52t37.5 -68t11 -69.5q0 -74 -37.5 -123t-103.5 -72zM372 -105q0 -25 -10 -49.5t-22.5 -45t-24.5 -34t-15 -16.5l-41 27 q2 3 7.5 11t11.5 18.5t11 21.5t7 20q-14 6 -26 20.5t-12 31.5q0 24 15.5 39t41.5 15q23 0 40 -15.5t17 -43.5z"/>
<glyph glyph-name="rcommaaccent" horiz-adv-x="352" unicode="ŗ" d="M344 424q-5 2 -19.5 4t-29.5 2q-71 0 -112.5 -59t-41.5 -162v-209h-89v500h82l4 -85q9 17 23.5 33.5t34.5 29t45.5 20.5t56.5 8q14 0 32.5 -2.5t21.5 -3.5zM153 -105q0 -25 -9.5 -49.5t-22 -45t-23.5 -34t-14 -16.5l-41 27q2 3 7 11t11 18.5t11.5 21.5t7.5 20 q-14 6 -25.5 20.5t-11.5 31.5q0 24 15 39t40 15q23 0 39 -15.5t16 -43.5z"/>
<glyph glyph-name="Rcaron" horiz-adv-x="554" unicode="Ř" d="M405 493q0 60 -35.5 95t-101.5 35h-111v-260h104q72 0 108 34.5t36 95.5zM536 0h-108l-167 283h-104v-283h-90v703h203q65 0 108.5 -20.5t70 -52t37.5 -68t11 -69.5q0 -74 -37.5 -123t-103.5 -72zM476 866l-138 -110h-83l-138 110l38 47l142 -90l141 90z"/>
<glyph glyph-name="rcaron" horiz-adv-x="352" unicode="ř" d="M344 424q-5 2 -19.5 4t-29.5 2q-71 0 -112.5 -59t-41.5 -162v-209h-89v500h82l4 -85q9 17 23.5 33.5t34.5 29t45.5 20.5t56.5 8q14 0 32.5 -2.5t21.5 -3.5zM78 731l114 -89l115 89l46 -44l-123 -113h-75l-123 113z"/>
<glyph glyph-name="Sacute" horiz-adv-x="535" unicode="Ś" d="M212 324q-80 22 -128.5 67.5t-48.5 124.5q0 42 15 78.5t44.5 64.5t73 44t99.5 16q69 0 124.5 -16.5t87.5 -37.5l-34 -71q-10 6 -29 13t-43 14t-52 11.5t-56 4.5q-67 0 -103 -31t-36 -81q0 -44 27.5 -71t91.5 -45l82 -23q88 -25 133 -70.5t45 -128.5q0 -45 -16 -82.5 t-47 -64.5t-75.5 -41.5t-101.5 -14.5q-50 0 -91 8t-72 18.5t-51 21.5t-28 16l39 72q13 -8 33 -17.5t46.5 -17t57.5 -12.5t66 -5q75 0 110 31.5t35 81.5q0 18 -5 35.5t-18 33t-35.5 28.5t-57.5 23zM141 821l243 105l33 -81l-248 -89z"/>
<glyph glyph-name="sacute" horiz-adv-x="449" unicode="ś" d="M48 108q25 -13 69 -29t104 -16q33 0 54.5 5.5t34 15t18 22t5.5 27.5q0 27 -20.5 45.5t-71.5 28.5l-61 12q-32 6 -59.5 17t-47.5 28.5t-31.5 41.5t-11.5 57q0 68 53 109t142 41q58 0 104 -14t75 -31l-28 -66q-7 4 -22.5 10t-36 11.5t-44.5 9.5t-48 4q-55 0 -81 -19 t-26 -51q0 -27 18.5 -43t73.5 -26l62 -12q72 -14 112 -46t40 -99q0 -70 -52.5 -112t-149.5 -42q-71 0 -123.5 18t-82.5 38zM108 632l216 117l39 -79l-223 -102z"/>
<glyph glyph-name="Scircumflex" horiz-adv-x="535" unicode="Ŝ" d="M212 324q-80 22 -128.5 67.5t-48.5 124.5q0 42 15 78.5t44.5 64.5t73 44t99.5 16q69 0 124.5 -16.5t87.5 -37.5l-34 -71q-10 6 -29 13t-43 14t-52 11.5t-56 4.5q-67 0 -103 -31t-36 -81q0 -44 27.5 -71t91.5 -45l82 -23q88 -25 133 -70.5t45 -128.5q0 -45 -16 -82.5 t-47 -64.5t-75.5 -41.5t-101.5 -14.5q-50 0 -91 8t-72 18.5t-51 21.5t-28 16l39 72q13 -8 33 -17.5t46.5 -17t57.5 -12.5t66 -5q75 0 110 31.5t35 81.5q0 18 -5 35.5t-18 33t-35.5 28.5t-57.5 23zM86 803l138 110h83l138 -110l-38 -47l-142 90l-141 -90z"/>
<glyph glyph-name="scircumflex" horiz-adv-x="449" unicode="ŝ" d="M48 108q25 -13 69 -29t104 -16q33 0 54.5 5.5t34 15t18 22t5.5 27.5q0 27 -20.5 45.5t-71.5 28.5l-61 12q-32 6 -59.5 17t-47.5 28.5t-31.5 41.5t-11.5 57q0 68 53 109t142 41q58 0 104 -14t75 -31l-28 -66q-7 4 -22.5 10t-36 11.5t-44.5 9.5t-48 4q-55 0 -81 -19 t-26 -51q0 -27 18.5 -43t73.5 -26l62 -12q72 -14 112 -46t40 -99q0 -70 -52.5 -112t-149.5 -42q-71 0 -123.5 18t-82.5 38zM64 618l123 113h75l123 -113l-46 -44l-115 89l-114 -89z"/>
<glyph glyph-name="Scedilla" horiz-adv-x="535" unicode="Ş" d="M217 -14q-40 4 -72.5 12.5t-57.5 18t-41 18t-23 13.5l39 72q13 -8 33 -17.5t46.5 -17t57.5 -12.5t66 -5q75 0 110 31.5t35 81.5q0 18 -5 35.5t-18 33t-35.5 28.5t-57.5 23l-82 23q-80 22 -128.5 67.5t-48.5 124.5q0 42 15 78.5t44.5 64.5t73 44t99.5 16q69 0 124.5 -16.5 t87.5 -37.5l-34 -71q-10 6 -29 13t-43 14t-52 11.5t-56 4.5q-67 0 -103 -31t-36 -81q0 -44 27.5 -71t91.5 -45l82 -23q88 -25 133 -70.5t45 -128.5q0 -89 -59 -144t-168 -59l-7 -34q49 -4 74 -28.5t25 -60.5q0 -26 -10.5 -44.5t-28 -31.5t-41 -19t-49.5 -6q-45 0 -72 7 t-32 9l16 53q17 -5 35.5 -8.5t37.5 -3.5q33 0 51 10.5t18 30.5q0 14 -14.5 24.5t-45.5 10.5q-20 0 -38 -3z"/>
<glyph glyph-name="scedilla" horiz-adv-x="449" unicode="ş" d="M48 108q25 -13 69 -29t104 -16q33 0 54.5 5.5t34 15t18 22t5.5 27.5q0 27 -20.5 45.5t-71.5 28.5l-61 12q-32 6 -59.5 17t-47.5 28.5t-31.5 41.5t-11.5 57q0 68 53 109t142 41q58 0 104 -14t75 -31l-28 -66q-7 4 -22.5 10t-36 11.5t-44.5 9.5t-48 4q-55 0 -81 -19 t-26 -51q0 -27 18.5 -43t73.5 -26l62 -12q72 -14 112 -46t40 -99q0 -68 -48.5 -109.5t-139.5 -44.5l-7 -36q46 -4 70.5 -28t24.5 -59q0 -24 -10 -42t-27.5 -30.5t-40 -18.5t-47.5 -6q-43 0 -69 7t-31 9l16 51q17 -5 34.5 -8.5t36.5 -3.5q32 0 48.5 10.5t16.5 28.5 q0 14 -13.5 24.5t-44.5 10.5q-18 0 -36 -3l20 97q-54 5 -95 20.5t-66 32.5z"/>
<glyph glyph-name="Scaron" horiz-adv-x="535" unicode="Š" d="M212 324q-80 22 -128.5 67.5t-48.5 124.5q0 42 15 78.5t44.5 64.5t73 44t99.5 16q69 0 124.5 -16.5t87.5 -37.5l-34 -71q-10 6 -29 13t-43 14t-52 11.5t-56 4.5q-67 0 -103 -31t-36 -81q0 -44 27.5 -71t91.5 -45l82 -23q88 -25 133 -70.5t45 -128.5q0 -45 -16 -82.5 t-47 -64.5t-75.5 -41.5t-101.5 -14.5q-50 0 -91 8t-72 18.5t-51 21.5t-28 16l39 72q13 -8 33 -17.5t46.5 -17t57.5 -12.5t66 -5q75 0 110 31.5t35 81.5q0 18 -5 35.5t-18 33t-35.5 28.5t-57.5 23zM459 866l-138 -110h-83l-138 110l38 47l142 -90l141 90z"/>
<glyph glyph-name="scaron" horiz-adv-x="449" unicode="š" d="M48 108q25 -13 69 -29t104 -16q33 0 54.5 5.5t34 15t18 22t5.5 27.5q0 27 -20.5 45.5t-71.5 28.5l-61 12q-32 6 -59.5 17t-47.5 28.5t-31.5 41.5t-11.5 57q0 68 53 109t142 41q58 0 104 -14t75 -31l-28 -66q-7 4 -22.5 10t-36 11.5t-44.5 9.5t-48 4q-55 0 -81 -19 t-26 -51q0 -27 18.5 -43t73.5 -26l62 -12q72 -14 112 -46t40 -99q0 -70 -52.5 -112t-149.5 -42q-71 0 -123.5 18t-82.5 38zM112 731l114 -89l115 89l46 -44l-123 -113h-75l-123 113z"/>
<glyph glyph-name="uni0162" horiz-adv-x="548" unicode="Ţ" d="M228 620h-213v83h518v-83h-213v-620h-15l-11 -50q49 -4 74 -28.5t25 -60.5q0 -26 -10.5 -44.5t-28 -31.5t-41 -19t-49.5 -6q-45 0 -72 7t-32 9l16 53q17 -5 35.5 -8.5t37.5 -3.5q33 0 51 10.5t18 30.5q0 14 -14.5 24.5t-45.5 10.5q-20 0 -38 -3l23 110h-15v620z"/>
<glyph glyph-name="uni0163" horiz-adv-x="353" unicode="ţ" d="M190 2q-90 28 -90 143v280h-100v75h100v138l89 24v-162h149v-75h-149v-270q0 -30 7.5 -48t21 -27.5t32 -13t41.5 -3.5t37.5 2t19.5 3l7 -67q-13 -3 -36.5 -6t-52.5 -3h-9.5t-9.5 1l-8 -42q46 -4 70.5 -28t24.5 -59q0 -24 -10 -42t-27.5 -30.5t-40 -18.5t-47.5 -6 q-43 0 -69 7t-31 9l16 51q17 -5 34.5 -8.5t36.5 -3.5q32 0 48.5 10.5t16.5 28.5q0 14 -13.5 24.5t-44.5 10.5q-18 0 -36 -3z"/>
<glyph glyph-name="Tcaron" horiz-adv-x="548" unicode="Ť" d="M228 620h-213v83h518v-83h-213v-620h-92v620zM454 866l-138 -110h-83l-138 110l38 47l142 -90l141 90z"/>
<glyph glyph-name="tcaron" horiz-adv-x="353" unicode="ť" d="M1 500h100v138l89 24v-162h149v-75h-149v-270q0 -30 7.5 -48t21 -27.5t32 -13t41.5 -3.5t37.5 2t19.5 3l7 -67q-13 -3 -36.5 -6t-52.5 -3q-86 0 -126 37.5t-40 115.5v280h-100v75zM354 700q0 -25 -9.5 -52.5t-21.5 -51t-22.5 -40t-12.5 -19.5l-49 25q2 4 7 13.5t10.5 22 t10.5 25t8 22.5q-16 8 -28 23.5t-12 35.5q0 26 17 42.5t44 16.5q25 0 41.5 -17t16.5 -46z"/>
<glyph glyph-name="Tbar" horiz-adv-x="548" unicode="Ŧ" d="M320 302v-302h-92v302h-139v79h139v239h-213v83h518v-83h-213v-239h139v-79h-139z"/>
<glyph glyph-name="tbar" horiz-adv-x="368" unicode="ŧ" d="M197 221v-66q0 -30 7.5 -48t21 -27.5t32 -13t41.5 -3.5t37.5 2t19.5 3l7 -67q-13 -3 -36.5 -6t-52.5 -3q-86 0 -126 37.5t-40 115.5v76h-100v69h100v135h-100v75h100v138l89 24v-162h149v-75h-149v-135h149v-69h-149z"/>
<glyph glyph-name="Utilde" horiz-adv-x="645" unicode="Ũ" d="M322 -16q-71 0 -120 18t-80.5 54t-45.5 90.5t-14 128.5v428h92v-417q0 -62 8.5 -104t28 -67.5t52 -36.5t79.5 -11q48 0 80 11t52 36.5t28.5 67.5t8.5 104v417h92v-428q0 -74 -14 -128.5t-45.5 -90.5t-81 -54t-120.5 -18zM137 775q0 58 28 88t77 30q25 0 43.5 -8.5 t34.5 -18t31 -18t33 -8.5q26 0 36 14t10 37h66q0 -60 -28 -89t-77 -29q-25 0 -43.5 8.5t-34.5 18t-31 18t-33 8.5q-26 0 -36 -14t-10 -37h-66z"/>
<glyph glyph-name="utilde" horiz-adv-x="528" unicode="ũ" d="M52 500h89v-313q0 -36 7.5 -59.5t21 -37.5t32.5 -19.5t42 -5.5q40 0 67 17t44 45.5t24.5 64.5t7.5 74v234h89v-500h-82l-4 67q-6 -12 -19 -26t-33 -26t-47 -20t-62 -8q-86 0 -131.5 50t-45.5 137v326zM92 581q0 58 27 87.5t75 29.5q24 0 42.5 -8t34.5 -18t31.5 -18 t32.5 -8q24 0 34 13t10 36h64q0 -58 -27 -87.5t-75 -29.5q-24 0 -42.5 8.5t-34.5 18t-31 18t-32 8.5q-25 0 -35 -13.5t-10 -36.5h-64z"/>
<glyph glyph-name="Umacron" horiz-adv-x="645" unicode="Ū" d="M322 -16q-71 0 -120 18t-80.5 54t-45.5 90.5t-14 128.5v428h92v-417q0 -62 8.5 -104t28 -67.5t52 -36.5t79.5 -11q48 0 80 11t52 36.5t28.5 67.5t8.5 104v417h92v-428q0 -74 -14 -128.5t-45.5 -90.5t-81 -54t-120.5 -18zM165 793v77h314v-77h-314z"/>
<glyph glyph-name="umacron" horiz-adv-x="528" unicode="ū" d="M52 500h89v-313q0 -36 7.5 -59.5t21 -37.5t32.5 -19.5t42 -5.5q40 0 67 17t44 45.5t24.5 64.5t7.5 74v234h89v-500h-82l-4 67q-6 -12 -19 -26t-33 -26t-47 -20t-62 -8q-86 0 -131.5 50t-45.5 137v326zM120 600v72h290v-72h-290z"/>
<glyph glyph-name="Ubreve" horiz-adv-x="645" unicode="Ŭ" d="M322 -16q-71 0 -120 18t-80.5 54t-45.5 90.5t-14 128.5v428h92v-417q0 -62 8.5 -104t28 -67.5t52 -36.5t79.5 -11q48 0 80 11t52 36.5t28.5 67.5t8.5 104v417h92v-428q0 -74 -14 -128.5t-45.5 -90.5t-81 -54t-120.5 -18zM323 825q41 0 59.5 21t18.5 52h75 q0 -27 -9.5 -52.5t-28 -45t-47.5 -31t-68 -11.5t-68 11.5t-48 31t-28.5 45t-9.5 52.5h76q0 -31 18.5 -52t59.5 -21z"/>
<glyph glyph-name="ubreve" horiz-adv-x="528" unicode="ŭ" d="M52 500h89v-313q0 -36 7.5 -59.5t21 -37.5t32.5 -19.5t42 -5.5q40 0 67 17t44 45.5t24.5 64.5t7.5 74v234h89v-500h-82l-4 67q-6 -12 -19 -26t-33 -26t-47 -20t-62 -8q-86 0 -131.5 50t-45.5 137v326zM265 638q38 0 56 20.5t18 49.5h72q0 -26 -9 -50.5t-27 -43 t-45.5 -29.5t-64.5 -11t-64.5 11t-46 29.5t-27.5 43t-9 50.5h73q0 -29 18 -49.5t56 -20.5z"/>
<glyph glyph-name="Uring" horiz-adv-x="645" unicode="Ů" d="M322 -16q-71 0 -120 18t-80.5 54t-45.5 90.5t-14 128.5v428h92v-417q0 -62 8.5 -104t28 -67.5t52 -36.5t79.5 -11q48 0 80 11t52 36.5t28.5 67.5t8.5 104v417h92v-428q0 -74 -14 -128.5t-45.5 -90.5t-81 -54t-120.5 -18zM377 825q0 23 -16 39t-39 16t-38.5 -16t-15.5 -39 t15.5 -39.5t38.5 -16.5t39 16.5t16 39.5zM435 826q0 -24 -9 -44t-24 -35t-35.5 -23t-43.5 -8q-24 0 -44.5 8t-36 22.5t-24.5 34.5t-9 44t9 44t24.5 35t36 23t43.5 8q48 0 80.5 -30.5t32.5 -78.5z"/>
<glyph glyph-name="uring" horiz-adv-x="528" unicode="ů" d="M52 500h89v-313q0 -36 7.5 -59.5t21 -37.5t32.5 -19.5t42 -5.5q40 0 67 17t44 45.5t24.5 64.5t7.5 74v234h89v-500h-82l-4 67q-6 -12 -19 -26t-33 -26t-47 -20t-62 -8q-86 0 -131.5 50t-45.5 137v326zM318 676q0 23 -15.5 38t-37.5 15t-37 -15t-15 -38t15 -38.5t37 -15.5 t37.5 15.5t15.5 38.5zM375 677q0 -23 -8.5 -43t-23.5 -34t-35 -22t-42 -8q-23 0 -43 8t-35 22t-24 33.5t-9 42.5t8.5 42.5t23.5 34t35 22.5t43 8t43 -8t35 -22t23.5 -33.5t8.5 -42.5z"/>
<glyph glyph-name="Uhungarumlaut" horiz-adv-x="645" unicode="Ű" d="M322 -16q-71 0 -120 18t-80.5 54t-45.5 90.5t-14 128.5v428h92v-417q0 -62 8.5 -104t28 -67.5t52 -36.5t79.5 -11q48 0 80 11t52 36.5t28.5 67.5t8.5 104v417h92v-428q0 -74 -14 -128.5t-45.5 -90.5t-81 -54t-120.5 -18zM165 803l154 144l55 -60l-167 -131zM364 803 l154 144l55 -60l-167 -131z"/>
<glyph glyph-name="uhungarumlaut" horiz-adv-x="528" unicode="ű" d="M52 500h89v-313q0 -36 7.5 -59.5t21 -37.5t32.5 -19.5t42 -5.5q40 0 67 17t44 45.5t24.5 64.5t7.5 74v234h89v-500h-82l-4 67q-6 -12 -19 -26t-33 -26t-47 -20t-62 -8q-86 0 -131.5 50t-45.5 137v326zM108 614l148 138l54 -59l-161 -125zM297 614l148 138l54 -59 l-161 -125z"/>
<glyph glyph-name="Uogonek" horiz-adv-x="645" unicode="Ų" d="M436 -184q-5 -1 -14.5 -1.5t-17.5 -0.5q-64 0 -90.5 21.5t-26.5 60.5q0 44 48 88h-13q-71 0 -120 18t-80.5 54t-45.5 90.5t-14 128.5v428h92v-417q0 -62 8.5 -104t28 -67.5t52 -36.5t79.5 -11q48 0 80 11t52 36.5t28.5 67.5t8.5 104v417h92v-428q0 -115 -35.5 -183.5 t-116.5 -93.5q-63 -45 -63 -86q0 -21 12.5 -28t30.5 -7h13t12 1v-62z"/>
<glyph glyph-name="uogonek" horiz-adv-x="528" unicode="ų" d="M52 500h89v-313q0 -36 7.5 -59.5t21 -37.5t32.5 -19.5t42 -5.5q40 0 67 17t44 45.5t24.5 64.5t7.5 74v234h89v-500q-63 -47 -63 -86q0 -20 12.5 -27t29.5 -7h11.5t13.5 1v-59q-7 -1 -15.5 -1.5t-16.5 -0.5q-63 0 -88 20.5t-25 58.5q0 52 67 101h-8l-4 67q-6 -12 -19 -26 t-33 -26t-47 -20t-62 -8q-86 0 -131.5 50t-45.5 137v326z"/>
<glyph glyph-name="Wcircumflex" horiz-adv-x="810" unicode="Ŵ" d="M587 126l123 577h90l-162 -703h-106l-126 551l-127 -551h-107l-162 703h99l120 -576l129 560h104zM228 803l138 110h83l138 -110l-38 -47l-142 90l-141 -90z"/>
<glyph glyph-name="wcircumflex" horiz-adv-x="687" unicode="ŵ" d="M8 500h94l105 -405l95 388h91l94 -388l103 405h89l-147 -500h-97l-90 371l-93 -371h-97zM187 618l123 113h75l123 -113l-46 -44l-115 89l-114 -89z"/>
<glyph glyph-name="Ycircumflex" horiz-adv-x="551" unicode="Ŷ" d="M229 318l-224 385h102l173 -302l171 302h95l-225 -385v-318h-92v318zM96 803l138 110h83l138 -110l-38 -47l-142 90l-141 -90z"/>
<glyph glyph-name="ycircumflex" horiz-adv-x="494" unicode="ŷ" d="M96 -220l104 248l-194 472h100l142 -365l146 365h94l-301 -720h-91zM86 618l123 113h75l123 -113l-46 -44l-115 89l-114 -89z"/>
<glyph glyph-name="Ydieresis" horiz-adv-x="551" unicode="Ÿ" d="M229 318l-224 385h102l173 -302l171 302h95l-225 -385v-318h-92v318zM233 837q0 -28 -16 -45.5t-44 -17.5t-44 18t-16 45t16 45t44 18t44 -17.5t16 -45.5zM438 837q0 -28 -16 -45.5t-44 -17.5t-44 18t-16 45t16 45t44 18t44 -17.5t16 -45.5z"/>
<glyph glyph-name="Zacute" horiz-adv-x="552" unicode="Ź" d="M136 83h389v-83h-499v75l381 545h-364v83h473v-76zM143 821l243 105l33 -81l-248 -89z"/>
<glyph glyph-name="zacute" horiz-adv-x="465" unicode="ź" d="M32 71l292 354h-283v75h389v-72l-291 -353h294v-75h-401v71zM135 632l216 117l39 -79l-223 -102z"/>
<glyph glyph-name="Zdotaccent" horiz-adv-x="552" unicode="Ż" d="M136 83h389v-83h-499v75l381 545h-364v83h473v-76zM334 837q0 -29 -16.5 -47t-45.5 -18t-45.5 18.5t-16.5 46.5t16.5 46.5t45.5 18.5t45.5 -18t16.5 -47z"/>
<glyph glyph-name="zdotaccent" horiz-adv-x="465" unicode="ż" d="M32 71l292 354h-283v75h389v-72l-291 -353h294v-75h-401v71zM291 650q0 -27 -15.5 -44.5t-42.5 -17.5t-42.5 18t-15.5 44t15.5 43.5t42.5 17.5t42.5 -17t15.5 -44z"/>
<glyph glyph-name="Zcaron" horiz-adv-x="552" unicode="Ž" d="M136 83h389v-83h-499v75l381 545h-364v83h473v-76zM451 866l-138 -110h-83l-138 110l38 47l142 -90l141 90z"/>
<glyph glyph-name="zcaron" horiz-adv-x="465" unicode="ž" d="M32 71l292 354h-283v75h389v-72l-291 -353h294v-75h-401v71zM119 731l114 -89l115 89l46 -44l-123 -113h-75l-123 113z"/>
<glyph glyph-name="longs" horiz-adv-x="193" unicode="ſ" d="M52 557q0 45 11 83t34 65t60 42.5t88 15.5q34 0 59 -4.5t32 -6.5l-10 -68q-5 1 -24.5 3t-40.5 2q-57 0 -88.5 -30.5t-31.5 -108.5v-550h-89v557z"/>
<glyph glyph-name="florin" horiz-adv-x="556" unicode="ƒ" d="M195 365h-112v75h119l11 125q4 43 18 79.5t39.5 63t63.5 41t89 14.5q34 0 58.5 -6t31.5 -8l-16 -68q-5 2 -24.5 5t-39.5 3q-29 0 -51.5 -7.5t-39.5 -24.5t-27.5 -46t-14.5 -72l-8 -99h150v-75h-157l-34 -393q-9 -106 -59.5 -155t-143.5 -49q-38 0 -78 12l15 69 q19 -5 34.5 -6.5t29.5 -1.5q30 0 50 8t33 26t20 46t10 69z"/>
<glyph glyph-name="uni01A0" horiz-adv-x="708" unicode="Ơ" d="M354 68q54 0 94 20t66 57t38.5 89t12.5 117q0 64 -13 116.5t-39 89t-65.5 56.5t-93.5 20t-93.5 -20t-65.5 -56.5t-39 -89t-13 -116.5q0 -65 12.5 -117t39 -89t66 -57t93.5 -20zM629 810q7 -13 13 -35t6 -42q0 -16 -5 -32t-14.5 -29.5t-24.5 -23.5t-34 -14 q48 -49 71.5 -121t23.5 -162q0 -82 -19.5 -149.5t-58.5 -116t-97.5 -75t-135.5 -26.5q-78 0 -136 26.5t-97 75t-58.5 116t-19.5 149.5q0 81 19.5 148.5t58.5 116.5t97 76t136 27q45 0 83 -9.5t70 -26.5h5q31 0 44 16.5t13 37.5q0 20 -6 40t-14 33h80z"/>
<glyph glyph-name="uni01A1" horiz-adv-x="546" unicode="ơ" d="M268 66q73 0 108 51t35 133q0 40 -9 73.5t-26.5 58t-44.5 38.5t-63 14q-71 0 -107 -51t-36 -133q0 -83 35 -133.5t108 -50.5zM268 -13q-56 0 -99.5 19t-73.5 53.5t-46 83t-16 107.5q0 58 16 106.5t46.5 83.5t74 54t98.5 19q37 0 68.5 -8.5t57.5 -24.5q31 0 45.5 15 t14.5 36t-5 41t-13 33h77q7 -13 12.5 -35t5.5 -43q0 -34 -20.5 -61.5t-62.5 -34.5q55 -70 55 -181q0 -60 -16 -108.5t-46 -83t-74 -53t-99 -18.5z"/>
<glyph glyph-name="uni01AF" horiz-adv-x="656" unicode="Ư" d="M314 -16q-71 0 -120 18t-80.5 54t-45.5 90.5t-14 128.5v428h92v-417q0 -62 8.5 -104t28 -67.5t52 -36.5t79.5 -11q48 0 80 11t52 36.5t28.5 67.5t8.5 104v417h64q31 0 39 15.5t8 35.5q0 18 -5.5 36.5t-10.5 29.5h79q15 -36 15 -76q0 -36 -22.5 -67t-74.5 -37v-365 q0 -74 -14 -128.5t-45.5 -90.5t-81 -54t-120.5 -18z"/>
<glyph glyph-name="uni01B0" horiz-adv-x="556" unicode="ư" d="M476 0h-82l-4 67q-6 -12 -19 -26t-33 -26t-47 -20t-62 -8q-86 0 -131.5 50t-45.5 137v326h89v-313q0 -36 7.5 -59.5t21 -37.5t32.5 -19.5t42 -5.5q40 0 67 17t44 45.5t24.5 64.5t7.5 74v234h45q30 0 44 10.5t14 35.5q0 16 -4.5 32t-10.5 27h76q5 -10 10 -28.5t5 -42.5 q0 -37 -25 -60t-65 -29v-445z"/>
<glyph glyph-name="Scommaaccent" horiz-adv-x="535" unicode="Ș" d="M212 324q-80 22 -128.5 67.5t-48.5 124.5q0 42 15 78.5t44.5 64.5t73 44t99.5 16q69 0 124.5 -16.5t87.5 -37.5l-34 -71q-10 6 -29 13t-43 14t-52 11.5t-56 4.5q-67 0 -103 -31t-36 -81q0 -44 27.5 -71t91.5 -45l82 -23q88 -25 133 -70.5t45 -128.5q0 -45 -16 -82.5 t-47 -64.5t-75.5 -41.5t-101.5 -14.5q-50 0 -91 8t-72 18.5t-51 21.5t-28 16l39 72q13 -8 33 -17.5t46.5 -17t57.5 -12.5t66 -5q75 0 110 31.5t35 81.5q0 18 -5 35.5t-18 33t-35.5 28.5t-57.5 23zM326 -105q0 -25 -10 -49.5t-22.5 -45t-24.5 -34t-15 -16.5l-41 27 q2 3 7.5 11t11.5 18.5t11 21.5t7 20q-14 6 -26 20.5t-12 31.5q0 24 15.5 39t41.5 15q23 0 40 -15.5t17 -43.5z"/>
<glyph glyph-name="scommaaccent" horiz-adv-x="449" unicode="ș" d="M48 108q25 -13 69 -29t104 -16q33 0 54.5 5.5t34 15t18 22t5.5 27.5q0 27 -20.5 45.5t-71.5 28.5l-61 12q-32 6 -59.5 17t-47.5 28.5t-31.5 41.5t-11.5 57q0 68 53 109t142 41q58 0 104 -14t75 -31l-28 -66q-7 4 -22.5 10t-36 11.5t-44.5 9.5t-48 4q-55 0 -81 -19 t-26 -51q0 -27 18.5 -43t73.5 -26l62 -12q72 -14 112 -46t40 -99q0 -70 -52.5 -112t-149.5 -42q-71 0 -123.5 18t-82.5 38zM281 -105q0 -25 -9.5 -49.5t-22 -45t-23.5 -34t-14 -16.5l-41 27q2 3 7 11t11 18.5t11.5 21.5t7.5 20q-14 6 -25.5 20.5t-11.5 31.5q0 24 15 39 t40 15q23 0 39 -15.5t16 -43.5z"/>
<glyph glyph-name="uni021A" horiz-adv-x="548" unicode="Ț" d="M228 620h-213v83h518v-83h-213v-620h-92v620zM332 -105q0 -25 -10 -49.5t-22.5 -45t-24.5 -34t-15 -16.5l-41 27q2 3 7.5 11t11.5 18.5t11 21.5t7 20q-14 6 -26 20.5t-12 31.5q0 24 15.5 39t41.5 15q23 0 40 -15.5t17 -43.5z"/>
<glyph glyph-name="uni021B" horiz-adv-x="368" unicode="ț" d="M8 500h100v138l89 24v-162h149v-75h-149v-270q0 -30 7.5 -48t21 -27.5t32 -13t41.5 -3.5t37.5 2t19.5 3l7 -67q-13 -3 -36.5 -6t-52.5 -3q-86 0 -126 37.5t-40 115.5v280h-100v75zM281 -105q0 -25 -9.5 -49.5t-22 -45t-23.5 -34t-14 -16.5l-41 27q2 3 7 11t11 18.5 t11.5 21.5t7.5 20q-14 6 -25.5 20.5t-11.5 31.5q0 24 15 39t40 15q23 0 39 -15.5t16 -43.5z"/>
<glyph glyph-name="dotlessj" horiz-adv-x="203" unicode="ȷ" d="M57 500h89v-528q0 -106 -45.5 -155t-139.5 -49q-37 0 -79 12l9 69q19 -5 35 -6.5t30 -1.5q30 0 49.5 8t31 26t16 46t4.5 69v510z"/>
<glyph glyph-name="apostrophe" horiz-adv-x="234" unicode="ʼ" d="M177 698q0 -30 -14 -64t-32 -64t-34.5 -52t-21.5 -28l-46 32q6 8 15 23t19 33t18 36.5t12 32.5q-14 8 -23.5 21.5t-9.5 33.5q0 28 16 44.5t43 16.5q25 0 41.5 -17.5t16.5 -47.5z"/>
<glyph glyph-name="circumflex" d="M74 618l123 113h75l123 -113l-46 -44l-115 89l-114 -89z" unicode="ˆ"/>
<glyph glyph-name="caron" d="M120 731l114 -89l115 89l46 -44l-123 -113h-75l-123 113z" unicode="ˇ"/>
<glyph glyph-name="uni02C9" d="M90 600v72h290v-72h-290z" unicode="ˉ"/>
<glyph glyph-name="breve" d="M235 638q38 0 56 20.5t18 49.5h72q0 -26 -9 -50.5t-27 -43t-45.5 -29.5t-64.5 -11t-64.5 11t-46 29.5t-27.5 43t-9 50.5h73q0 -29 18 -49.5t56 -20.5z" unicode="˘"/>
<glyph glyph-name="dotaccent" d="M292 650q0 -27 -15.5 -44.5t-42.5 -17.5t-42.5 18t-15.5 44t15.5 43.5t42.5 17.5t42.5 -17t15.5 -44z" unicode="˙"/>
<glyph glyph-name="ring" d="M288 676q0 23 -15.5 38t-37.5 15t-37 -15t-15 -38t15 -38.5t37 -15.5t37.5 15.5t15.5 38.5zM345 677q0 -23 -8.5 -43t-23.5 -34t-35 -22t-42 -8q-23 0 -43 8t-35 22t-24 33.5t-9 42.5t8.5 42.5t23.5 34t35 22.5t43 8t43 -8t35 -22t23.5 -33.5t8.5 -42.5z" unicode="˚"/>
<glyph glyph-name="ogonek" d="M307 -178q-7 -1 -15.5 -1.5t-16.5 -0.5q-63 0 -88 20.5t-25 58.5q0 52 67 101h74q-63 -47 -63 -86q0 -20 12.5 -27t29.5 -7h11.5t13.5 1v-59z" unicode="˛"/>
<glyph glyph-name="tilde" d="M59 581q0 58 27 87.5t75 29.5q24 0 42.5 -8t34.5 -18t31.5 -18t32.5 -8q24 0 34 13t10 36h64q0 -58 -27 -87.5t-75 -29.5q-24 0 -42.5 8.5t-34.5 18t-31 18t-32 8.5q-25 0 -35 -13.5t-10 -36.5h-64z" unicode="˜"/>
<glyph glyph-name="hungarumlaut" d="M39 614l148 138l54 -59l-161 -125zM228 614l148 138l54 -59l-161 -125z" unicode="˝"/>
<glyph glyph-name="uni0300" horiz-adv-x="0" unicode="̀" d="M77 568l-223 102l39 79l216 -117z"/>
<glyph glyph-name="uni0301" horiz-adv-x="0" unicode="́" d="M-106 632l216 117l39 -79l-223 -102z"/>
<glyph glyph-name="uni0302" horiz-adv-x="0" unicode="̂" d="M-159 618l123 113h75l123 -113l-46 -44l-115 89l-114 -89z"/>
<glyph glyph-name="uni0303" horiz-adv-x="0" unicode="̃" d="M-174 581q0 58 27 87.5t75 29.5q24 0 42.5 -8t34.5 -18t31.5 -18t32.5 -8q24 0 34 13t10 36h64q0 -58 -27 -87.5t-75 -29.5q-24 0 -42.5 8.5t-34.5 18t-31 18t-32 8.5q-25 0 -35 -13.5t-10 -36.5h-64z"/>
<glyph glyph-name="uni0304" horiz-adv-x="0" unicode="̄" d="M-144 600v72h290v-72h-290z"/>
<glyph glyph-name="uni0306" horiz-adv-x="0" unicode="̆" d="M2 638q38 0 56 20.5t18 49.5h72q0 -26 -9 -50.5t-27 -43t-45.5 -29.5t-64.5 -11t-64.5 11t-46 29.5t-27.5 43t-9 50.5h73q0 -29 18 -49.5t56 -20.5z"/>
<glyph glyph-name="uni0309" horiz-adv-x="0" unicode="̉" d="M-39 603q16 16 28 29.5t12 30.5t-7.5 27t-30.5 10q-13 0 -23 -1.5t-15 -2.5v60q4 1 20.5 3.5t32.5 2.5q27 0 46 -7t31 -18t17 -26t5 -30q0 -35 -21 -61t-52 -52z"/>
<glyph glyph-name="uni030C" horiz-adv-x="0" unicode="̌" d="M-113 731l114 -89l115 89l46 -44l-123 -113h-75l-123 113z"/>
<glyph glyph-name="uni031B" horiz-adv-x="0" unicode="̛" d="M0 500h19q30 0 44 10.5t14 35.5q0 16 -4.5 32t-10.5 27h76q5 -10 10 -28t5 -42q0 -30 -13.5 -48.5t-35.5 -29t-49 -14t-55 -3.5v60z"/>
<glyph glyph-name="uni0323" horiz-adv-x="0" unicode="̣" d="M63 -139q0 -29 -16.5 -47t-45.5 -18t-45.5 18.5t-16.5 46.5t16.5 46.5t45.5 18.5t45.5 -18t16.5 -47z"/>
<glyph glyph-name="uni0335" horiz-adv-x="0" unicode="̵" d="M-159 321v75h319v-75h-319z"/>
<glyph glyph-name="Wgrave" horiz-adv-x="810" unicode="Ẁ" d="M587 126l123 577h90l-162 -703h-106l-126 551l-127 -551h-107l-162 703h99l120 -576l129 560h104zM487 756l-248 89l33 81l243 -105z"/>
<glyph glyph-name="wgrave" horiz-adv-x="687" unicode="ẁ" d="M8 500h94l105 -405l95 388h91l94 -388l103 405h89l-147 -500h-97l-90 371l-93 -371h-97zM417 568l-223 102l39 79l216 -117z"/>
<glyph glyph-name="Wacute" horiz-adv-x="810" unicode="Ẃ" d="M587 126l123 577h90l-162 -703h-106l-126 551l-127 -551h-107l-162 703h99l120 -576l129 560h104zM278 821l243 105l33 -81l-248 -89z"/>
<glyph glyph-name="wacute" horiz-adv-x="687" unicode="ẃ" d="M8 500h94l105 -405l95 388h91l94 -388l103 405h89l-147 -500h-97l-90 371l-93 -371h-97zM224 632l216 117l39 -79l-223 -102z"/>
<glyph glyph-name="Wdieresis" horiz-adv-x="810" unicode="Ẅ" d="M587 126l123 577h90l-162 -703h-106l-126 551l-127 -551h-107l-162 703h99l120 -576l129 560h104zM365 837q0 -28 -16 -45.5t-44 -17.5t-44 18t-16 45t16 45t44 18t44 -17.5t16 -45.5zM570 837q0 -28 -16 -45.5t-44 -17.5t-44 18t-16 45t16 45t44 18t44 -17.5t16 -45.5z "/>
<glyph glyph-name="wdieresis" horiz-adv-x="687" unicode="ẅ" d="M8 500h94l105 -405l95 388h91l94 -388l103 405h89l-147 -500h-97l-90 371l-93 -371h-97zM308 650q0 -26 -15.5 -43t-41.5 -17t-41.5 17t-15.5 43t15.5 43t41.5 17t41.5 -17t15.5 -43zM501 650q0 -26 -15.5 -43t-41.5 -17t-41.5 17t-15.5 43t15.5 43t41.5 17t41.5 -17 t15.5 -43z"/>
<glyph glyph-name="Ygrave" horiz-adv-x="551" unicode="Ỳ" d="M229 318l-224 385h102l173 -302l171 302h95l-225 -385v-318h-92v318zM375 756l-248 89l33 81l243 -105z"/>
<glyph glyph-name="ygrave" horiz-adv-x="494" unicode="ỳ" d="M96 -220l104 248l-194 472h100l142 -365l146 365h94l-301 -720h-91zM324 568l-223 102l39 79l216 -117z"/>
<glyph glyph-name="uni1EF4" horiz-adv-x="551" unicode="Ỵ" d="M229 318l-224 385h102l173 -302l171 302h95l-225 -385v-318h-92v318zM337 -146q0 -29 -16.5 -47t-45.5 -18t-45.5 18.5t-16.5 46.5t16.5 46.5t45.5 18.5t45.5 -18t16.5 -47z"/>
<glyph glyph-name="uni1EF5" horiz-adv-x="494" unicode="ỵ" d="M96 -220l104 248l-194 472h100l142 -365l146 365h94l-301 -720h-91zM447 -127q0 -29 -16.5 -47t-45.5 -18t-45.5 18.5t-16.5 46.5t16.5 46.5t45.5 18.5t45.5 -18t16.5 -47z"/>
<glyph glyph-name="uni1EF6" horiz-adv-x="551" unicode="Ỷ" d="M229 318l-224 385h102l173 -302l171 302h95l-225 -385v-318h-92v318zM242 882q-10 0 -23 -2t-16 -3v62q6 2 22.5 4.5t35.5 2.5q51 0 72.5 -22t21.5 -54q0 -35 -20 -60t-53 -54l-43 35q15 17 26.5 29.5t11.5 31.5q0 11 -7.5 20.5t-27.5 9.5z"/>
<glyph glyph-name="uni1EF7" horiz-adv-x="494" unicode="ỷ" d="M96 -220l104 248l-194 472h100l142 -365l146 365h94l-301 -720h-91zM209 603q16 16 28 29.5t12 30.5t-7.5 27t-30.5 10q-13 0 -23 -1.5t-15 -2.5v60q4 1 20.5 3.5t32.5 2.5q27 0 46 -7t31 -18t17 -26t5 -30q0 -35 -21 -61t-52 -52z"/>
<glyph glyph-name="uni1EF8" horiz-adv-x="551" unicode="Ỹ" d="M229 318l-224 385h102l173 -302l171 302h95l-225 -385v-318h-92v318zM96 775q0 58 28 88t77 30q25 0 43.5 -8.5t34.5 -18t31 -18t33 -8.5q26 0 36 14t10 37h66q0 -60 -28 -89t-77 -29q-25 0 -43.5 8.5t-34.5 18t-31 18t-33 8.5q-26 0 -36 -14t-10 -37h-66z"/>
<glyph glyph-name="uni1EF9" horiz-adv-x="494" unicode="ỹ" d="M96 -220l104 248l-194 472h100l142 -365l146 365h94l-301 -720h-91zM71 581q0 58 27 87.5t75 29.5q24 0 42.5 -8t34.5 -18t31.5 -18t32.5 -8q24 0 34 13t10 36h64q0 -58 -27 -87.5t-75 -29.5q-24 0 -42.5 8.5t-34.5 18t-31 18t-32 8.5q-25 0 -35 -13.5t-10 -36.5h-64z "/>
<glyph glyph-name="endash" horiz-adv-x="500" unicode="–" d="M0 254v86h500v-86h-500z"/>
<glyph glyph-name="emdash" horiz-adv-x="1000" unicode="—" d="M0 254v86h1000v-86h-1000z"/>
<glyph glyph-name="quoteleft" horiz-adv-x="234" unicode="‘" d="M57 555q0 30 14 64t32 64t34.5 52t21.5 28l46 -32q-6 -8 -15 -23.5t-19 -33.5t-18 -36t-12 -32q14 -8 23.5 -21.5t9.5 -33.5q0 -28 -16 -44.5t-43 -16.5q-25 0 -41.5 17.5t-16.5 47.5z"/>
<glyph glyph-name="quoteright" horiz-adv-x="234" unicode="’" d="M177 698q0 -30 -14 -64t-32 -64t-34.5 -52t-21.5 -28l-46 32q6 8 15 23t19 33t18 36.5t12 32.5q-14 8 -23.5 21.5t-9.5 33.5q0 28 16 44.5t43 16.5q25 0 41.5 -17.5t16.5 -47.5z"/>
<glyph glyph-name="quotesinglbase" horiz-adv-x="234" unicode="‚" d="M177 53q0 -30 -14 -64t-32 -64t-34.5 -52t-21.5 -28l-46 32q6 8 15 23t19 33t18 36.5t12 32.5q-14 8 -23.5 21.5t-9.5 33.5q0 28 16 44.5t43 16.5q25 0 41.5 -17.5t16.5 -47.5z"/>
<glyph glyph-name="quotedblleft" horiz-adv-x="427" unicode="“" d="M250 555q0 30 14 64t32 64t34.5 52t21.5 28l46 -32q-6 -8 -15 -23.5t-19 -33.5t-18 -36t-12 -32q14 -8 23.5 -21.5t9.5 -33.5q0 -28 -16 -44.5t-43 -16.5q-25 0 -41.5 17.5t-16.5 47.5zM57 555q0 30 14 64t32 64t34.5 52t21.5 28l46 -32q-6 -8 -15 -23.5t-19 -33.5 t-18 -36t-12 -32q14 -8 23.5 -21.5t9.5 -33.5q0 -28 -16 -44.5t-43 -16.5q-25 0 -41.5 17.5t-16.5 47.5z"/>
<glyph glyph-name="quotedblright" horiz-adv-x="427" unicode="”" d="M177 698q0 -30 -14 -64t-32 -64t-34.5 -52t-21.5 -28l-46 32q6 8 15 23t19 33t18 36.5t12 32.5q-14 8 -23.5 21.5t-9.5 33.5q0 28 16 44.5t43 16.5q25 0 41.5 -17.5t16.5 -47.5zM370 698q0 -30 -14 -64t-32 -64t-34.5 -52t-21.5 -28l-46 32q6 8 15 23t19 33t18 36.5 t12 32.5q-14 8 -23.5 21.5t-9.5 33.5q0 28 16 44.5t43 16.5q25 0 41.5 -17.5t16.5 -47.5z"/>
<glyph glyph-name="quotedblbase" horiz-adv-x="427" unicode="„" d="M177 53q0 -30 -14 -64t-32 -64t-34.5 -52t-21.5 -28l-46 32q6 8 15 23t19 33t18 36.5t12 32.5q-14 8 -23.5 21.5t-9.5 33.5q0 28 16 44.5t43 16.5q25 0 41.5 -17.5t16.5 -47.5zM370 53q0 -30 -14 -64t-32 -64t-34.5 -52t-21.5 -28l-46 32q6 8 15 23t19 33t18 36.5 t12 32.5q-14 8 -23.5 21.5t-9.5 33.5q0 28 16 44.5t43 16.5q25 0 41.5 -17.5t16.5 -47.5z"/>
<glyph glyph-name="bullet" horiz-adv-x="465" unicode="•" d="M58 339q0 36 13.5 68t37 55.5t55.5 37t68 13.5t68 -13.5t56 -37t37.5 -55.5t13.5 -68q0 -37 -13.5 -69t-37.5 -55.5t-56 -37t-68 -13.5t-68 13.5t-55.5 37t-37 55.5t-13.5 69z"/>
<glyph glyph-name="guilsinglleft" horiz-adv-x="264" unicode="‹" d="M147 57l-115 193l115 193h85l-111 -193l111 -193h-85z"/>
<glyph glyph-name="guilsinglright" horiz-adv-x="264" unicode="›" d="M32 57l111 193l-111 193h85l115 -193l-115 -193h-85z"/>
<glyph glyph-name="fraction" horiz-adv-x="52" unicode="⁄" d="M172 703h89l-381 -703h-89z"/>
<glyph glyph-name="zerosuperior" horiz-adv-x="370" unicode="⁰" d="M105 510q0 -134 80 -134q39 0 59.5 34t20.5 100q0 134 -80 134t-80 -134zM28 510q0 97 39 148.5t118 51.5q78 0 117.5 -51.5t39.5 -148.5t-39.5 -148t-117.5 -51q-157 0 -157 199z"/>
<glyph glyph-name="foursuperior" horiz-adv-x="370" unicode="⁴" d="M282 545v-77h52v-63h-52v-86h-68v86h-179v54l161 244h78l-157 -235h97v77h68z"/>
<glyph glyph-name="fivesuperior" horiz-adv-x="370" unicode="⁵" d="M149 376q42 0 67.5 17.5t25.5 51.5q0 11 -3.5 22t-12 20t-23 14.5t-36.5 5.5q-23 0 -41 -6.5t-26 -11.5l-40 25l25 189h218v-64h-165l-9 -75q9 2 23 3.5t30 1.5q29 0 54 -7.5t43 -22.5t28 -38.5t10 -55.5q0 -28 -10.5 -52.5t-31.5 -42.5t-52 -28.5t-71 -10.5q-37 0 -68 5 t-51 13l17 59q14 -4 39 -8t60 -4z"/>
<glyph glyph-name="sixsuperior" horiz-adv-x="370" unicode="⁶" d="M189 370q42 0 59.5 20.5t17.5 52.5q0 39 -19.5 57t-54.5 18q-37 0 -59 -19.5t-22 -49.5t18.5 -54.5t59.5 -24.5zM223 648q-96 0 -107 -104q8 11 32 22.5t56 11.5q25 0 48.5 -7.5t41.5 -23t28.5 -40t10.5 -58.5q0 -66 -39 -102t-104 -36q-69 0 -108.5 43t-39.5 134 q0 114 47.5 168t131.5 54q37 0 61.5 -8t29.5 -11l-19 -56q-6 2 -25 7.5t-45 5.5z"/>
<glyph glyph-name="sevensuperior" horiz-adv-x="370" unicode="⁷" d="M82 319l152 318h-196v66h278v-54l-158 -330h-76z"/>
<glyph glyph-name="eightsuperior" horiz-adv-x="370" unicode="⁸" d="M256 602q0 22 -18 36.5t-53 14.5t-53 -15.5t-18 -35.5q0 -21 24 -36t55 -23q63 20 63 59zM265 425q0 25 -25.5 40.5t-60.5 26.5q-35 -11 -55 -28t-20 -42q0 -20 19.5 -36.5t61.5 -16.5q40 0 60 15t20 41zM327 608q0 -31 -17 -52t-43 -35q72 -34 72 -99q0 -52 -42 -81.5 t-112 -29.5q-71 0 -112.5 28.5t-41.5 75.5q0 38 21 61.5t53 38.5q-30 18 -45.5 39.5t-15.5 51.5q0 44 37 74t104 30q71 0 106.5 -29t35.5 -73z"/>
<glyph glyph-name="ninesuperior" horiz-adv-x="370" unicode="⁹" d="M181 651q-42 0 -59.5 -20.5t-17.5 -52.5q0 -39 19.5 -57t54.5 -18q37 0 59 19.5t22 49.5t-18.5 54.5t-59.5 24.5zM147 374q96 0 107 103q-8 -11 -32 -22.5t-56 -11.5q-26 0 -49 7.5t-41 23t-28.5 40t-10.5 58.5q0 66 39.5 102t104.5 36q69 0 108 -43t39 -134 q0 -114 -47.5 -168t-131.5 -54q-37 0 -60.5 5.5t-31.5 8.5l15 59q6 -2 27.5 -6t47.5 -4z"/>
<glyph glyph-name="zeroinferior" horiz-adv-x="370" unicode="₀" d="M105 192q0 -134 80 -134q39 0 59.5 34t20.5 100q0 134 -80 134t-80 -134zM28 192q0 97 39 148.5t118 51.5q78 0 117.5 -51.5t39.5 -148.5t-39.5 -148t-117.5 -51q-157 0 -157 199z"/>
<glyph glyph-name="oneinferior" horiz-adv-x="370" unicode="₁" d="M172 301l-94 -52l-32 59l145 77h56v-384h-75v300z"/>
<glyph glyph-name="twoinferior" horiz-adv-x="370" unicode="₂" d="M160 198q36 23 56 42t20 42q0 19 -15.5 32.5t-47.5 13.5q-17 0 -32.5 -5.5t-28 -13t-22 -16t-14.5 -14.5l-45 43q7 9 20.5 21.5t31.5 23t41 18t50 7.5q36 0 61.5 -9t42.5 -24t25 -34.5t8 -40.5q0 -23 -8.5 -42t-23 -34.5t-32.5 -29.5t-37 -26q-40 -26 -61.5 -44.5 t-28.5 -41.5h196v-65h-277v20q0 30 7.5 54.5t22.5 45.5t38 39.5t53 37.5z"/>
<glyph glyph-name="threeinferior" horiz-adv-x="370" unicode="₃" d="M107 229h45q42 0 60 15t18 37q0 20 -14.5 34t-46.5 14q-34 0 -61 -13.5t-39 -23.5l-36 47q7 7 20.5 16.5t31 17.5t39 13.5t46.5 5.5q70 0 102.5 -31t32.5 -73q0 -30 -18 -52t-43 -34q30 -10 49 -33.5t19 -55.5q0 -59 -45.5 -89.5t-114.5 -30.5q-38 0 -68.5 5t-50.5 11 l17 62q14 -5 38.5 -9.5t59.5 -4.5q89 0 89 56q0 23 -18.5 37.5t-64.5 14.5h-47v64z"/>
<glyph glyph-name="fourinferior" horiz-adv-x="370" unicode="₄" d="M282 227v-77h52v-63h-52v-86h-68v86h-179v54l161 244h78l-157 -235h97v77h68z"/>
<glyph glyph-name="fiveinferior" horiz-adv-x="370" unicode="₅" d="M149 58q42 0 67.5 17.5t25.5 51.5q0 11 -3.5 22t-12 20t-23 14.5t-36.5 5.5q-23 0 -41 -6.5t-26 -11.5l-40 25l25 189h218v-64h-165l-9 -75q9 2 23 3.5t30 1.5q29 0 54 -7.5t43 -22.5t28 -38.5t10 -55.5q0 -28 -10.5 -52.5t-31.5 -42.5t-52 -28.5t-71 -10.5q-37 0 -68 5 t-51 13l17 59q14 -4 39 -8t60 -4z"/>
<glyph glyph-name="sixinferior" horiz-adv-x="370" unicode="₆" d="M189 52q42 0 59.5 20.5t17.5 52.5q0 39 -19.5 57t-54.5 18q-37 0 -59 -19.5t-22 -49.5t18.5 -54.5t59.5 -24.5zM223 330q-96 0 -107 -104q8 11 32 22.5t56 11.5q25 0 48.5 -7.5t41.5 -23t28.5 -40t10.5 -58.5q0 -66 -39 -102t-104 -36q-69 0 -108.5 43t-39.5 134 q0 114 47.5 168t131.5 54q37 0 61.5 -8t29.5 -11l-19 -56q-6 2 -25 7.5t-45 5.5z"/>
<glyph glyph-name="seveninferior" horiz-adv-x="370" unicode="₇" d="M82 1l152 318h-196v66h278v-54l-158 -330h-76z"/>
<glyph glyph-name="eightinferior" horiz-adv-x="370" unicode="₈" d="M256 284q0 22 -18 36.5t-53 14.5t-53 -15.5t-18 -35.5q0 -21 24 -36t55 -23q63 20 63 59zM265 107q0 25 -25.5 40.5t-60.5 26.5q-35 -11 -55 -28t-20 -42q0 -20 19.5 -36.5t61.5 -16.5q40 0 60 15t20 41zM327 290q0 -31 -17 -52t-43 -35q72 -34 72 -99q0 -52 -42 -81.5 t-112 -29.5q-71 0 -112.5 28.5t-41.5 75.5q0 38 21 61.5t53 38.5q-30 18 -45.5 39.5t-15.5 51.5q0 44 37 74t104 30q71 0 106.5 -29t35.5 -73z"/>
<glyph glyph-name="nineinferior" horiz-adv-x="370" unicode="₉" d="M181 333q-42 0 -59.5 -20.5t-17.5 -52.5q0 -39 19.5 -57t54.5 -18q37 0 59 19.5t22 49.5t-18.5 54.5t-59.5 24.5zM147 56q96 0 107 103q-8 -11 -32 -22.5t-56 -11.5q-26 0 -49 7.5t-41 23t-28.5 40t-10.5 58.5q0 66 39.5 102t104.5 36q69 0 108 -43t39 -134 q0 -114 -47.5 -168t-131.5 -54q-37 0 -60.5 5.5t-31.5 8.5l15 59q6 -2 27.5 -6t47.5 -4z"/>
<glyph glyph-name="uni20AB" horiz-adv-x="556" unicode="₫" d="M372 311q0 65 -31 106t-91 41q-58 0 -85.5 -39.5t-27.5 -100.5q0 -70 32.5 -100t86.5 -30q42 0 72 15.5t44 30.5v77zM450 127h-68l-2 46q-20 -20 -56 -36t-85 -16q-34 0 -66.5 10t-58 33t-41.5 60.5t-16 92.5q0 45 11.5 83t34.5 66t57 43.5t78 15.5q51 0 84 -20t50 -46 v118h-155v58h155v68h78v-68h54v-58h-54v-450zM73 0v63h396v-63h-396z"/>
<glyph glyph-name="Euro" horiz-adv-x="556" unicode="€" d="M358 635q-75 0 -116.5 -43.5t-57.5 -121.5h268l-20 -68h-257q-1 -13 -1 -25.5v-25.5v-41h238l-20 -68h-211q14 -82 55 -128t124 -46q30 0 54 5.5t42 13.5t30.5 16.5t21.5 15.5l49 -63q-28 -28 -78.5 -50t-121.5 -22q-62 0 -109.5 17.5t-81 51t-54 81.5t-29.5 108h-69v68 h63q-1 10 -1 20v21q0 13 0.5 25.5t1.5 25.5h-64v68h71q10 55 30.5 100.5t54 78.5t80 51.5t108.5 18.5q71 0 119.5 -22.5t80.5 -52.5l-49 -62q-7 6 -19.5 15.5t-30.5 17.5t-43 14t-58 6z"/>
<glyph glyph-name="uni20AE" horiz-adv-x="577" unicode="₮" d="M116 130l-25 58l153 69v101l-128 -58l-25 59l153 69v195h-204v80h497v-80h-204v-159l127 57l26 -58l-153 -69v-101l127 57l26 -58l-153 -69v-223h-89v187z"/>
<glyph glyph-name="uni20B4" horiz-adv-x="593" unicode="₴" d="M314 406h-271v62h348q21 27 21 69q0 45 -30.5 72.5t-89.5 27.5q-55 0 -93 -14t-68 -33l-34 68q41 27 90.5 42t108.5 15q50 0 88.5 -13t64.5 -36t39 -55t13 -70q0 -23 -5 -40.5t-13 -32.5h68v-62h-109q-31 -26 -77 -52t-88 -46h274v-62h-350q-14 -16 -19.5 -33t-5.5 -40 q0 -51 35 -79t107 -28q61 0 106 17.5t76 38.5l38 -69q-11 -8 -30.5 -19t-47.5 -21t-65 -17.5t-83 -7.5q-48 0 -89 11t-71 33t-47 55.5t-17 79.5q0 45 20 79h-66v62h107q21 16 46.5 31.5t54.5 31.5z"/>
<glyph glyph-name="uni20B9" horiz-adv-x="556" unicode="₹" d="M431 457q-7 -46 -30.5 -79t-59 -54t-79.5 -31t-91 -10l265 -283h-112l-269 287v69h111q34 0 63 5t51 16.5t37 31t22 48.5h-284v72h283q-9 45 -44.5 73.5t-107.5 28.5h-131v72h483l-14 -72h-150q23 -18 38 -45t19 -57h74l-14 -72h-60z"/>
<glyph glyph-name="uni2215" horiz-adv-x="52" unicode="∕" d="M172 703h89l-381 -703h-89z"/>
<glyph glyph-name="hungarumlaut.cap" d="M30 803l154 144l55 -60l-167 -131zM229 803l154 144l55 -60l-167 -131z"/>
<glyph glyph-name="tilde.cap" d="M55 775q0 58 28 88t77 30q25 0 43.5 -8.5t34.5 -18t31 -18t33 -8.5q26 0 36 14t10 37h66q0 -60 -28 -89t-77 -29q-25 0 -43.5 8.5t-34.5 18t-31 18t-33 8.5q-26 0 -36 -14t-10 -37h-66z"/>
<glyph glyph-name="ring.cap" d="M289 825q0 23 -16 39t-39 16t-38.5 -16t-15.5 -39t15.5 -39.5t38.5 -16.5t39 16.5t16 39.5zM347 826q0 -24 -9 -44t-24 -35t-35.5 -23t-43.5 -8q-24 0 -44.5 8t-36 22.5t-24.5 34.5t-9 44t9 44t24.5 35t36 23t43.5 8q48 0 80.5 -30.5t32.5 -78.5z"/>
<glyph glyph-name="caron.cap" d="M414 866l-138 -110h-83l-138 110l38 47l142 -90l141 90z"/>
<glyph glyph-name="macron.cap" d="M77 793v77h314v-77h-314z"/>
<glyph glyph-name="dieresis.cap" d="M192 837q0 -28 -16 -45.5t-44 -17.5t-44 18t-16 45t16 45t44 18t44 -17.5t16 -45.5zM397 837q0 -28 -16 -45.5t-44 -17.5t-44 18t-16 45t16 45t44 18t44 -17.5t16 -45.5z"/>
<glyph glyph-name="dotaccent.cap" d="M297 837q0 -29 -16.5 -47t-45.5 -18t-45.5 18.5t-16.5 46.5t16.5 46.5t45.5 18.5t45.5 -18t16.5 -47z"/>
<glyph glyph-name="circumflex.cap" d="M55 803l138 110h83l138 -110l-38 -47l-142 90l-141 -90z"/>
<glyph glyph-name="acute.cap" d="M96 821l243 105l33 -81l-248 -89z"/>
<glyph glyph-name="grave.cap" d="M344 756l-248 89l33 81l243 -105z"/>
<glyph glyph-name="breve.cap" d="M235 825q41 0 59.5 21t18.5 52h75q0 -27 -9.5 -52.5t-28 -45t-47.5 -31t-68 -11.5t-68 11.5t-48 31t-28.5 45t-9.5 52.5h76q0 -31 18.5 -52t59.5 -21z"/>
<glyph glyph-name="commaaccent.cap" d="M292 -105q0 -25 -10 -49.5t-22.5 -45t-24.5 -34t-15 -16.5l-41 27q2 3 7.5 11t11.5 18.5t11 21.5t7 20q-14 6 -26 20.5t-12 31.5q0 24 15.5 39t41.5 15q23 0 40 -15.5t17 -43.5z"/>
<glyph glyph-name="caron.alt" d="M309 698q0 -29 -12.5 -62t-28 -62t-30.5 -51t-20 -29l-49 28q5 9 13.5 24.5t17 33.5t15.5 35.5t10 30.5q-14 7 -25.5 21.5t-11.5 34.5q0 26 17.5 43.5t44.5 17.5q25 0 42 -18t17 -47z"/>
<glyph glyph-name="commaaccent" d="M290 -105q0 -25 -9.5 -49.5t-22 -45t-23.5 -34t-14 -16.5l-41 27q2 3 7 11t11 18.5t11.5 21.5t7.5 20q-14 6 -25.5 20.5t-11.5 31.5q0 24 15 39t40 15q23 0 39 -15.5t16 -43.5z"/>
<glyph glyph-name="revcommaaccent" d="M180 633q0 25 9.5 49.5t21.5 44.5t23 34t14 17l40 -26q-2 -3 -7 -11t-11 -18.5t-11 -22t-7 -20.5q13 -6 24.5 -20.5t11.5 -31.5q0 -24 -15 -39t-39 -15q-23 0 -38.5 15.5t-15.5 43.5z"/>
<glyph glyph-name="caron.alt.short" d="M226 700q0 -25 -9.5 -52.5t-21.5 -51t-22.5 -40t-12.5 -19.5l-49 25q2 4 7 13.5t10.5 22t10.5 25t8 22.5q-16 8 -28 23.5t-12 35.5q0 26 17 42.5t44 16.5q25 0 41.5 -17t16.5 -46z" horiz-adv-x="333"/>
<glyph glyph-name="acute.asc" d="M117 837l231 81l24 -80l-236 -63z"/>
<glyph glyph-name="circumflex.asc" d="M2 823l123 90h83l123 -90l-33 -47l-132 70l-131 -70z" horiz-adv-x="333"/>
<glyph glyph-name="hook.cap" d="M84 882q-10 0 -23 -2t-16 -3v62q6 2 22.5 4.5t35.5 2.5q51 0 72.5 -22t21.5 -54q0 -35 -20 -60t-53 -54l-43 35q15 17 26.5 29.5t11.5 31.5q0 11 -7.5 20.5t-27.5 9.5z" horiz-adv-x="242"/>
<glyph glyph-name="hook" d="M81 603q16 16 28 29.5t12 30.5t-7.5 27t-30.5 10q-13 0 -23 -1.5t-15 -2.5v60q4 1 20.5 3.5t32.5 2.5q27 0 46 -7t31 -18t17 -26t5 -30q0 -35 -21 -61t-52 -52z" horiz-adv-x="242"/>
</font>
</defs>
</svg>
